<svg xmlns="http://www.w3.org/2000/svg" width="240" height="116" viewBox="0 0 240 116"><defs><style>.cls-1,.cls-10,.cls-11,.cls-3,.cls-7,.cls-8,.cls-9{fill:none;}.cls-2,.cls-5{fill:#fff;}.cls-10,.cls-11,.cls-3,.cls-8,.cls-9{stroke:#000;}.cls-10,.cls-3,.cls-8,.cls-9{stroke-linecap:round;}.cls-10,.cls-3{stroke-linejoin:round;}.cls-10,.cls-11,.cls-3,.cls-7,.cls-8,.cls-9{stroke-width:2px;}.cls-10,.cls-4,.cls-5,.cls-6,.cls-7,.cls-8{fill-rule:evenodd;}.cls-6{fill:#d1d1d1;}.cls-7{stroke:#d1d1d1;}.cls-11,.cls-7,.cls-8,.cls-9{stroke-miterlimit:10;}.cls-12{fill:#17ba8f;}</style></defs><title>tips</title><g id="レイヤー_2" data-name="レイヤー 2"><g id="タイトル_イラスト"><rect id="rect" class="cls-1" width="240" height="116"/><g id="追加_whitepaper"><path class="cls-2" d="M115.35,87.13H80.81a9.54,9.54,0,0,1-9.54-9.54V27.94a9.54,9.54,0,0,1,9.54-9.54H159a9.54,9.54,0,0,1,9.54,9.54V77.59A9.54,9.54,0,0,1,159,87.13H124.13l-4.4,10.42-4.38-8.23"/><path class="cls-3" d="M71.79,27.94a9.54,9.54,0,0,1,9.54-9.54h74.55"/><path class="cls-3" d="M81,87.13a9.54,9.54,0,0,1-9.54-9.54V31"/><line class="cls-3" x1="115.5" y1="87.5" x2="85" y2="87.5"/><path class="cls-3" d="M127.5,87.5H159A9.54,9.54,0,0,0,168.5,78"/><polyline class="cls-3" points="115.35 87.13 119.73 97.55 124.13 87.13"/><path class="cls-3" d="M159,18.4a9.54,9.54,0,0,1,9.54,9.54V74.17"/><path class="cls-4" d="M31.41,7.57s2.9-.64,3.85-.23c1.18.5,3.93,3.95,3.7,4.08,0,0,0,2-1.38,2.09a18.76,18.76,0,0,0-3.1.51l-.62,1.38s-2.15-.89-2.3-.12a8.33,8.33,0,0,0,.14,2.28l-.29,1.27-2.55.23s-3.16-2-3.47-3.4.89-1.35,1.24-2.77.08-2.71.38-3.09a4.79,4.79,0,0,1,3.15-2Z"/><path class="cls-5" d="M37.58,14l1,2.69L37.5,18.19V20.5H34.42l.28,2,2,5.52,3.84.47h0v-4s-4.28-3.66-3-4c.27-.07.1-1.89,1-2s.1-1.55,1-2c1.23-.61,2.72,3.11,3,4a7.74,7.74,0,0,1,0,3l3,8-5,2,1,1-4,1s.6,13.84,0,16.56-12.62,2-13,.17.89-24.29.89-24.29L28.73,23l.54-4.42,2.37.38-.46-3.24,2-.31Z"/><polygon class="cls-5" points="36.17 95.06 37.11 98.27 41.88 101.51 45.29 102.36 45.12 104.58 25.54 102.48 26.37 97.44 26.71 92.73 30.04 92.64 30.97 94.88 36.17 95.06"/><path class="cls-6" d="M38.05,72.15c0-.47-.28-19.14-.28-19.14s-4.5.63-5,.17S25.22,53,25.22,53l.8,6.38a16.53,16.53,0,0,0,1.33,2.6l-1-.28.61,11.26-.46,2.62L25.33,87.49,25.09,89l.62,3.39,4.09.29-.08,1.56a5.52,5.52,0,0,0,1.85,1.08c1.23.46,5.55-.93,5.55-.93l.16-2.93-.47-.92s.47-15,.77-15.58A9.46,9.46,0,0,0,38.05,72.15Z"/><path class="cls-7" d="M25.42,37c.32,2.17,9.9,3.13,12.63,0"/><path class="cls-7" d="M25.35,40.94c.32,2.17,9.91,3.13,12.64,0"/><path class="cls-7" d="M25.48,44.84c.32,2.17,9.91,3.13,12.63,0"/><path class="cls-7" d="M25.35,48.29c.32,2.17,9.91,3.13,12.64,0"/><path class="cls-7" d="M25.74,33.52c.21,2.71,9.9,3.13,12.63,0"/><path class="cls-7" d="M26.05,29.75c.13.45,1.28,2.05,2.82,1.47"/><path class="cls-7" d="M32.77,34.1c2-1.15,2.17-5,1.08-5.88"/><path class="cls-7" d="M36.86,33.39c1.29-.41,1.53-3.4.25-5.11"/><path class="cls-6" d="M25.69,101.68l4.43-.09.45,2,8.08.76a19.26,19.26,0,0,0,3.86,0c1.68-.24,2.34-.76,2.61-.15s-.59,1.53-.59,1.53-6.91.43-8.87.43-5,.17-4.94-.34c0-.16.22-.57-.43-1.11s-3.48.16-4.43-.43S25.69,101.68,25.69,101.68Z"/><path class="cls-7" d="M26.76,25.92c.32,2.17,6.86,2.89,9.59-.2"/><path class="cls-3" d="M35.85,97.06c-.4-.79-.9-.45-.9-.45a24.37,24.37,0,0,1-2,1.7c-.46.27-1.32.5-1.44.62s-.22,0-.33.78a13.53,13.53,0,0,0-.51,3"/><path class="cls-3" d="M45.08,102.93a2.14,2.14,0,0,0-.09-.27.39.39,0,0,0-.33-.21,21.76,21.76,0,0,1-3.23-.93c-.85-.42-.7-.31-1.26-.62"/><polyline class="cls-3" points="34.86 101.47 33.84 99.98 37.65 97.94"/><path class="cls-3" d="M45.4,104.76c-.13.46-.57.81-1.6,1-3.44.64-11.95.4-11.95.4s-1.2,0-1.3-.62a16.85,16.85,0,0,1,0-2s2.7.13,3.27.17,3.45.26,4.34.47a12,12,0,0,0,4.33.1,14.1,14.1,0,0,0,2.72-.76"/><line class="cls-3" x1="39.04" y1="101.3" x2="39.63" y2="100.46"/><line class="cls-3" x1="37.81" y1="100.62" x2="38.39" y2="99.75"/><path class="cls-3" d="M42.52,102.89c-1.47,0-2.36-.12-1.77-1"/><path class="cls-8" d="M27.82,23.19C26.46,26,24.41,28.47,24.87,43.4c.15,4.61-.05,8.44.06,9.19s4,1.7,6.81,1.28,5.94-1,6.14-1.54c.38-1,0-1.33.08-2.72.36-4.11-.55-10.35-.46-14.11"/><path class="cls-8" d="M36,24.13c.34,1.15.9,2.66,1,3.06"/><line class="cls-9" x1="35.74" y1="20.34" x2="34.3" y2="20.08"/><path class="cls-8" d="M38.32,14s-.1.45.88,2.6c.27.61-.67.71-.75,1.21-.05.33-.07.62-.09.89"/><path class="cls-8" d="M25.78,54.45c0,3.67,2.56,10.6,2.9,11.78,1.47,5.19-.32,4.87.85,6.39a1.08,1.08,0,0,1,.25.63c-.08,1,2.42,3,2.3,2.86"/><path class="cls-8" d="M30.72,92.13c-1.51,1.06-1.49-14.6-.31-16.3"/><path class="cls-8" d="M37.13,91.78c.49-.4-.13,1.16-.19,2.06-.07,1.25-5.22,1.35-5.92.38A3.94,3.94,0,0,1,30.34,92c0-.39.48-.07.85,0"/><path class="cls-8" d="M29.7,92.05c-1.28.36-3.5.28-3.5-.17s-.93-2-.25-2"/><path class="cls-8" d="M37.45,53.44s0,11,.12,16.29c0,1.66.48,3.12.48,3.74s-.37,3.37-.6,5.37a77.66,77.66,0,0,0-.51,12"/><path class="cls-8" d="M26.92,72.85c-.14.22-.13,1.31-.29,2-1.7,6.84-1.7,14.51-.43,14.43"/><path class="cls-8" d="M26.55,63.7a20.27,20.27,0,0,0-.18,7.13,2.42,2.42,0,0,0,.9,2"/><path class="cls-8" d="M31.42,7.89c1.95-1,3-1.4,4.54-.4.68.45.57,1.14,1.08,1.7a6.12,6.12,0,0,0,1.77,1.15A3.12,3.12,0,0,1,38.35,13c-.65.76-2.47.61-3.32,1a9.43,9.43,0,0,0-1.42,2.17s-.37-1.35-1.15-1.14a1.7,1.7,0,0,0,.08,3.13"/><path class="cls-8" d="M29.66,19.52c-.77-1.55-3.13-.13-4.27-3.86-.4-1.3,1.07-2.07,1.16-3.23.23-3,1.61-3.73,3.35-4.09"/><path class="cls-8" d="M30.3,34.73c.35,1,1.9.69,2.93.73s6.64-.74,7.32-.85.16-6.47-1.41-6.28c-.85.11-4.94.22-7.41.73"/><path class="cls-8" d="M29.78,21.74a2.17,2.17,0,0,0,1.45,2.64,4.82,4.82,0,0,0,3.92-1"/><path class="cls-8" d="M36.36,97.84s0-1.26,0-3"/><line class="cls-9" x1="31.64" y1="98.65" x2="31.66" y2="96.46"/><line class="cls-9" x1="26.41" y1="96.18" x2="26.43" y2="93.34"/><line class="cls-9" x1="34.5" y1="23.5" x2="35.18" y2="20.4"/><circle cx="36.71" cy="15.39" r="0.52"/><path class="cls-8" d="M41.5,33.5c1,0,3.85-1.82,4-2A9.19,9.19,0,0,0,45.29,28a38.59,38.59,0,0,0-2.76-5.08c-.29-.91.62-1.81,0-3.41-.26-.63-.52-.95-1-1a4.15,4.15,0,0,0-1,0c-.13.06,0-2-1-2s.21,3.33,0,4c-.37,1.16-3-2-3,0,0,0,1.28,1.66,1.76,2.25.28.35,1.56.7,1.81,1.11s.64,1.09.64,1.09l.79,3.55c.1.33-1,1-1,1"/><path class="cls-3" d="M31,94.88C30.55,94,30,94.4,30,94.4a24.33,24.33,0,0,1-2.12,1.8c-.49.28-1.41.53-1.52.66s-.24,0-.36.83a14.05,14.05,0,0,0-.54,3.18"/><polyline class="cls-3" points="29.24 99.27 28.16 97.69 30.39 96.56"/><path class="cls-3" d="M30.29,104.66a26.06,26.06,0,0,1-3.56-.13s-1.27,0-1.37-.66a17.23,17.23,0,0,1,0-2.1s3.54.12,4.16.16"/><path class="cls-8" d="M30.36,30a2.43,2.43,0,0,0-.48,2.45"/><line class="cls-9" x1="27.81" y1="89.71" x2="27.77" y2="91.62"/><line class="cls-9" x1="33.56" y1="91.83" x2="33.52" y2="93.75"/><path class="cls-8" d="M34.64,53.1s0,3.92-2,4.77"/><polygon class="cls-5" points="201.5 10.5 200.9 14.26 202.03 15.87 202.03 18.29 205.25 18.29 204.95 20.38 202.93 22.85 204.65 22.55 204.64 23.84 211.72 21.21 210.56 17 208.15 16.68 208.63 13.29 207.5 9.5 201.5 10.5"/><path class="cls-4" d="M207.5,5.5s-.22-.78-2.35-.19c-.32.09-3.27,2.4-2.74,2.47a13.74,13.74,0,0,0-1.2,2.91l4.14-.31.71,3.4s2.41-1.29,2.57-.48a9.6,9.6,0,0,1-.32,2.73l.19,1.47,2,1A15.61,15.61,0,0,0,213,14.58c1.8-1.8,1.8-5.95,1.15-6.76s-4.18-1.93-4.18-1.93Z"/><path class="cls-5" d="M205.2,100.93s-2.42-2.41-3.54-1.93-8.21,3.22-8.21,3.22-1.13.48-1.13,1.45,1.29,1.61,3.54,1.61a71.13,71.13,0,0,0,8.86-1.45l.16.14s4.18.48,4.18-.32a12.32,12.32,0,0,1,.16-1.75s-.32-3.22-1-2.58A14.15,14.15,0,0,1,205.2,100.93Z"/><polygon class="cls-5" points="203.27 95.3 203.27 99.16 205.2 100.69 208 98.81 208.1 95.46 203.27 95.3"/><polygon class="cls-5" points="213.42 76.63 213.25 96.75 208.53 97.75 205.55 100.78 203.34 98.85 203.88 96.51 203.96 77.34 210.52 76.31 213.42 76.63"/><path class="cls-5" d="M214.54,101.58l-3.87.16-1,.32-.32-2.74-.49-.8.16-1.13s3.38-.48,4.19-.64S214.54,101.58,214.54,101.58Z"/><path class="cls-5" d="M204.65,22.55s-1.74.87-1.87,1.47a27.5,27.5,0,0,1-.88,6.55,9.38,9.38,0,0,1-2.4,3.74L192.2,30s-2.89,2.9-2.4,4.09S195,38.22,195,38.22l5.09,3.1s.51,8.53.87,8.65,6.05.37,5.87.09,2.47-.31,3.92.17,4.48,1.31,4.35-.26a11.73,11.73,0,0,1,.52-3.61s-.72-13.45-1-14.54-2-9.51-2-9.51L210,20.08l-3.38,2Z"/><path class="cls-6" d="M201.34,71.31c0-.48.47-19.92.47-19.92s4.23-.94,4.71-1.42,7.57,1.15,7.57,1.15l-.2,6.83a5.21,5.21,0,0,1-.6,2.87l1.2,15.34H212l-.07,2.74-10.34-.73a16.33,16.33,0,0,0-.4-3.47C200.82,74.05,201.34,71.79,201.34,71.31Z"/><path class="cls-4" d="M204.48,105.82s4.75.31,4.82-.7c0-.67.13-3.22-.12-2.26s-1.81,1.51-3.56,1.33a3.5,3.5,0,0,1-1.23-.44Z"/><path class="cls-4" d="M209.81,101.84s4.85.58,4.87-.74c0-.7.12-3.19-.12-2.18s-1.83,1.58-3.6,1.39a3.49,3.49,0,0,1-1.23-.47Z"/><polygon class="cls-6" points="190.05 29.13 195.1 26.76 188.72 18.89 185.11 20.82 184.42 21.12 181.5 21.27 185.6 26.06 190.05 29.13"/><path class="cls-5" d="M192,29.92l-2-1.25s-1.16-5.28-1.44-4.51-1.41,3-1.41,3L184.37,24a3.86,3.86,0,0,0-.86,1.7c0,.64,1.06,4.57,1.06,4.57l4.74,2.33Z"/><path class="cls-4" d="M191.92,104.8a39.48,39.48,0,0,0,6.16.56c3,0,5.95-.57,5.95-.85a5.93,5.93,0,0,1,.14-1.16,36.7,36.7,0,0,1-6.17.84,21.77,21.77,0,0,1-5.84-.78Z"/><path class="cls-8" d="M208,50.14c.9,1.23,2.26.48,3.2.63,3.68.59,3.56-.89,3.47-2.32-.14-2.23.06-5.38.18-8.27.44-11.24-1.18-13.68-2.09-17.21"/><path class="cls-8" d="M201.19,41.69c-.18,2.67-.27,7.65,0,8.45s4,.45,5.69.63l.36-2.94"/><path class="cls-8" d="M202.88,25.19a19.35,19.35,0,0,0-1,5.38"/><path class="cls-8" d="M201.57,11.71s.09.47-.92,2.71c-.29.64.7.74.77,1.26.24,1.57.18,2.49,1.25,3l3.09-.55"/><path class="cls-8" d="M214.35,51.75c.63,5.24-1.5,10.07-1.67,11.34a110.13,110.13,0,0,0-.86,11.21"/><path class="cls-8" d="M202.75,74.84a3.8,3.8,0,0,1-1.43-.43c-.75-.47-.09,2.84,0,3.89.11,1.46,10,1.46,11,.33.29-.3.21-2.3.13-3.47,0-.44-.95-1.33-1.36-1-1.18.92-3.17,1-5.22.88"/><path class="cls-8" d="M212.53,73c-1.4.17-1.18.58-1.51.33"/><path class="cls-8" d="M212,76.57c1.34.37,2.26,0,2.26-.5s-.13-5-.14-3.79"/><path class="cls-8" d="M201.63,51.92s-.07,11.26-.22,16.77c0,1.74-.27,4.29-.27,4.94"/><path class="cls-8" d="M213.75,62.62c-.3,5.51.18,6.49,0,8.81"/><path class="cls-10" d="M208.62,5.78c-3.8-1.89-6.68,2.8-6.68,2.8a1.56,1.56,0,0,0-.41,2.1c.32.53,1.81.29,2.08-.23s.87,0,1.6.13c1.4.2,1.27,3.41,1.27,3.41s.38-1.41,1.2-1.2a1.78,1.78,0,0,1-.08,3.27"/><path class="cls-8" d="M210.6,17.52c.81-1.62,1.88-.38,3.07-4.27s-.49-6.82-3.32-7.41"/><path class="cls-8" d="M200.54,36s-.61-1.32-1.13-1.35c0,0-1.81-1-3.68-2,0,0-2.45-2.13-3-2.51-.81-.51-3.78,3-3.24,3.89.08.13,2.44,1.89,1.9,1.58l1.25.65c2.39,2,4,2.58,6,4.45.82.77,1.07.74,1.44.63a3.92,3.92,0,0,0,2.11-1c2.88-3.76,7.82-8.13,8.26-10.38"/><path class="cls-8" d="M206.39,25.67a9.53,9.53,0,0,1,2.58-.4c.8.06,1.4,1.23,1.4,1.23"/><path class="cls-8" d="M199.88,33.7c0-.74.52-1,1-1.45a26.47,26.47,0,0,0,2.68-3.62c.87-1.12,1.4-1.8,1.72-2.12"/><path class="cls-8" d="M203.43,104.47a19.71,19.71,0,0,1-3.78.79,17.16,17.16,0,0,1-7.78-.87c-.3-.13.29-1.81.38-2.1s.21-.43,1.38-.17a6.61,6.61,0,0,0,1.92-.63s3-1.39,4.24-2.18l.86-.53a9.38,9.38,0,0,1,3.6,1.58c1.87,1.49,3.35-.82,3.75-1.31s1,1.65,1.09,2.78a5.8,5.8,0,0,1-.06,3.24c-.28,1.08-4.23.57-4.23.57s.28-1.15,0-1.46"/><path class="cls-10" d="M188.6,32.15c-1-.8-2.2-1.09-3.69-2.58a9.94,9.94,0,0,1-1.34-3.09c-.72-2.12-.6-2.54.45-2.2.55.18,2.65,2.23,3.56,2.42.72.14-.56-2.71,1-2.54.29,0,.87,1.29,1.31,2.18a15,15,0,0,0,.74,2.44,4,4,0,0,0,1,.91"/><path class="cls-8" d="M203.5,23.72l1.33-2.66,1.43,1.15c1.64,0,3.62-1.69,4-2.31s1.6,1.6,2,2.4"/><path class="cls-8" d="M203.74,98.05c1.27-2.27.16-16-.51-19.44"/><path class="cls-8" d="M208,99.05a17.55,17.55,0,0,1,.1-3.59c.61-4.42,2-11.6.83-15.6"/><path class="cls-8" d="M210.44,97.18c.67.76,2.68-.29,3-.71s.81,1.4.92,2.35a19.93,19.93,0,0,1,0,2.74l-3.57.47s.17-.7-.06-1"/><path class="cls-8" d="M213.46,96.47a18.58,18.58,0,0,1-.31-5c.29-5.24,1.47-11.32.54-14.47"/><line class="cls-9" x1="204.93" y1="19.68" x2="204.84" y2="18.43"/><circle cx="203.24" cy="13.2" r="0.54"/><line class="cls-11" x1="201.65" y1="16.18" x2="203.34" y2="16.37"/><line class="cls-9" x1="200.74" y1="101.92" x2="204.25" y2="100.36"/><polygon class="cls-5" points="182.44 18.45 185.11 20.82 181.94 21.52 182.44 18.45"/><path class="cls-8" d="M203.81,97.31s2.74,1.61,4.4.14"/><path class="cls-8" d="M209,95.05s2.67,1.26,3.8-.4"/><path class="cls-10" d="M182.69,23.27c-.54-1-.45-1.19-.45-1.19l6.48-3.19,6.38,7.87s-2.47,1.18-3.22,1.63"/><path class="cls-10" d="M182.54,22l-1-.74a7.42,7.42,0,0,0,.07-3.34l2.67,1.93"/><path class="cls-12" d="M135,40.37l-6.92-7.44A1.64,1.64,0,0,0,127,32.5H104.67a1.58,1.58,0,0,0-1.58,1.58V71.66a1.58,1.58,0,0,0,1.58,1.58h29.25a1.58,1.58,0,0,0,1.58-1.58V41.51A1.57,1.57,0,0,0,135,40.37Zm-24,2.32h9.26a1.39,1.39,0,1,1,0,2.77H111a1.39,1.39,0,1,1,0-2.77Zm14.82,23.15H111a1.39,1.39,0,0,1,0-2.78h14.82a1.39,1.39,0,0,1,0,2.78Zm0-6.8H111a1.39,1.39,0,1,1,0-2.77h14.82a1.39,1.39,0,1,1,0,2.77Zm0-6.79H111a1.39,1.39,0,1,1,0-2.77h14.82a1.39,1.39,0,1,1,0,2.77Zm6.72-10.49h-5.39a.87.87,0,0,1-.87-.87V35.5a.47.47,0,0,1,.81-.33L132.83,41A.47.47,0,0,1,132.5,41.76Z"/></g></g></g></svg>