<svg xmlns="http://www.w3.org/2000/svg" width="670" height="397.05" viewBox="0 0 670 397.05"><defs><style>.cls-1,.cls-10,.cls-2,.cls-6,.cls-7,.cls-9{fill:none;}.cls-1,.cls-10,.cls-2,.cls-7,.cls-8,.cls-9{stroke:#000;}.cls-1,.cls-10,.cls-2,.cls-6,.cls-9{stroke-miterlimit:10;}.cls-1{stroke-width:1px;}.cls-3{fill:#17ba8f;}.cls-4{fill:#333;}.cls-5,.cls-8{fill:#fff;}.cls-6{stroke:#54e2b3;stroke-width:2px;}.cls-7,.cls-8{stroke-linecap:round;stroke-linejoin:round;stroke-width:3px;}.cls-9{stroke-width:0.63px;}.cls-10{stroke-width:0.63px;}</style></defs><title>cost_sp</title><g id="レイヤー_2" data-name="レイヤー 2"><g id="レイヤー_1のコピー" data-name="レイヤー 1のコピー"><line class="cls-1" x1="670" y1="150.5" y2="150.5"/><line class="cls-1" x1="670" y1="50.5" y2="50.5"/><line class="cls-2" x1="669" y1="250.5" x2="1" y2="250.5"/><line class="cls-2" x1="669" y1="350.5" x2="1" y2="350.5"/><path class="cls-3" d="M596.15,40.49a18,18,0,0,1-5.46-4.27,14.1,14.1,0,0,1-3.21-6,13.77,13.77,0,0,1-3.34,6.12,17.46,17.46,0,0,1-5.46,4.12,6.87,6.87,0,0,0-1.47-1.61c6.13-2.46,8-7,8.55-9.2.66-2.66.66-4.33.66-9.26l1.92.15c.31,0,.55.14.55.29s-.13.24-.55.37a32.75,32.75,0,0,0,.51,7.79c.74,3.32,3.23,7.35,8.66,9.82A5.44,5.44,0,0,0,596.15,40.49Z"/><path class="cls-4" d="M556.53,71.2c.12.06.3.2.3.34s-.28.2-.58.18c-.38.5-2,2.8-2.38,3.24-.86,1.1-1.12,1.4-1.88,2.3.9-.1,1.64-.22,3.14-.46a9.38,9.38,0,0,0-.58-1.6l1.36-.42a22,22,0,0,1,1.34,4.16,8,8,0,0,0-1.46.5,11.33,11.33,0,0,0-.3-1.38c-.24.06-1.54.3-1.68.34V87h-1.54v-8.4c-.86.12-1.44.2-2.94.38-.08.26-.16.46-.34.46s-.3-.36-.32-.52l-.22-1.44,1.64-.1c.5-.54.9-1.08,1.58-2a24.32,24.32,0,0,0-3.18-2.9l1-1.28c.7.58.94.8,1.16,1a31.32,31.32,0,0,0,2.12-3.8l1.32.64a.45.45,0,0,1,.3.34c0,.18-.28.18-.38.18h-.18a33.94,33.94,0,0,1-2.22,3.52c.08.06.72.7,1.08,1,.14-.18,1.92-2.56,2.6-3.74Zm-5.26,9.16c.18,0,.42.1.42.28s-.16.24-.5.34A24.32,24.32,0,0,1,550,85.74a5.69,5.69,0,0,0-1.5-.4,20.43,20.43,0,0,0,1.34-5.22Zm4.82-.38a27,27,0,0,0,1.28,4.3,5.36,5.36,0,0,0-1.46.5,23.52,23.52,0,0,1-1.18-4.4Zm10.2-8c0,3.26,0,10.26-1,13-.64,1.68-1.8,2-4.24,1.94a4.69,4.69,0,0,0-.72-1.86,10.17,10.17,0,0,0,1.7.16c1.4,0,2-.38,2.44-4.42a61.13,61.13,0,0,0,.24-7.34h-5.26a21.67,21.67,0,0,1-1.64,2.56,5.43,5.43,0,0,0-1.42-.9,18.25,18.25,0,0,0,3.44-6.6l1.5.5c.28.1.44.24.44.34s-.16.24-.62.32c-.28.7-.58,1.5-.94,2.26Zm-6.08,4.1a28.93,28.93,0,0,1,2.32,4.5,9.33,9.33,0,0,0-1.46.72,31.76,31.76,0,0,0-2.26-4.6Z"/><path class="cls-4" d="M576.81,80.32c.08,1.22.34,3.88,3.76,3.88,2.9,0,3.92-1.62,3.92-3.24,0-2.6-2.24-3.08-3.46-3.08h-1.56V76.36h1.36c2.2,0,3.38-1.14,3.38-2.7S582.79,71,580.87,71a3.28,3.28,0,0,0-3.66,3.4h-2c.1-1,.52-5.14,5.8-5.14,3,0,5.22,1.62,5.22,4.16A3.47,3.47,0,0,1,583.37,77a3.79,3.79,0,0,1,3.12,3.9c0,2.14-1.18,5-5.76,5-1.86,0-5.64-.28-6-5.62Z"/><path class="cls-4" d="M601.27,77.62c0,3.2-.8,8.32-6,8.32s-6-5.24-6-8.32.72-8.32,6-8.32S601.27,74.62,601.27,77.62Zm-9.94,0c0,2.62.56,6.58,4,6.58s4-4,4-6.58-.56-6.58-4-6.58S591.33,75,591.33,77.62Z"/><path class="cls-4" d="M623.13,86.28V85h-10v1.3h-1.72V70h13.46V86.28Zm0-14.68h-10v4.94h10Zm0,6.5h-10v5.28h10Z"/><path class="cls-4" d="M593.09,106.4l-.71.72L588,102.68l-4.42,4.44-.7-.72,4.42-4.42-4.42-4.42.7-.72,4.42,4.43,4.43-4.43.71.7L588.67,102Z"/><path class="cls-4" d="M585.45,137a16.12,16.12,0,0,1-5-3.88,12.82,12.82,0,0,1-2.92-5.44,12.54,12.54,0,0,1-3,5.56,15.77,15.77,0,0,1-5,3.74,6.23,6.23,0,0,0-1.34-1.46,12.27,12.27,0,0,0,7.78-8.36c.6-2.42.6-3.94.6-8.42l1.74.14c.28,0,.5.12.5.26s-.12.22-.5.34a29.8,29.8,0,0,0,.46,7.08c.68,3,2.94,6.68,7.88,8.92A5,5,0,0,0,585.45,137Z"/><path class="cls-4" d="M597.87,130.32c.08,0,.28.14.28.28s-.26.22-.56.22a8.1,8.1,0,0,1-1.5,2.86,17,17,0,0,1,1.88,1.54,8.47,8.47,0,0,0-1,1.22,18.74,18.74,0,0,0-1.92-1.66,10.85,10.85,0,0,1-4.12,2.28,4.12,4.12,0,0,0-.92-1.28,9.12,9.12,0,0,0,3.86-1.84,22.63,22.63,0,0,0-2-1.24l-.64.82a4,4,0,0,0-1.34-.66,21.55,21.55,0,0,0,1.9-2.54h-2.44V129h3.26a17.66,17.66,0,0,0,.92-1.9v-2.52a14.2,14.2,0,0,1-3.24,3.4,3.37,3.37,0,0,0-1.2-1,14.23,14.23,0,0,0,3.74-3.32h-3.34V122.3h4.08v-3.68l1.44.12c.3,0,.48.12.48.26s-.08.2-.52.34v3h4v1.32h-3.36a12,12,0,0,0,2.8,2.48,8.7,8.7,0,0,0-1.12,1,13.48,13.48,0,0,1-2.28-2.52v2.7h-.84l.86.38c.16.06.3.16.3.28,0,.28-.42.22-.62.2-.24.48-.28.56-.38.78h4.8v1.36Zm-6.5-8.16a16.39,16.39,0,0,0-1.48-2.58l1.22-.68a11.91,11.91,0,0,1,1.62,2.64A5.29,5.29,0,0,0,591.37,122.16Zm2.1,8.16c-.22.34-.36.58-.84,1.28.7.36,1.68.92,2.28,1.3a7.17,7.17,0,0,0,1.38-2.58ZM598.31,120a17.74,17.74,0,0,1-1.42,2.22,5,5,0,0,0-1.24-.66,13.26,13.26,0,0,0,1.6-2.68l1.2.52c.28.12.38.18.38.32S598.47,120,598.31,120Zm8.36,17a15.53,15.53,0,0,1-3.4-3.46,15.92,15.92,0,0,1-4,3.54,3.68,3.68,0,0,0-1.2-1.22,12.74,12.74,0,0,0,4.28-3.7,16.36,16.36,0,0,1-1.86-5.36,10.86,10.86,0,0,1-1.16,1.92,4,4,0,0,0-1.32-.86,16.69,16.69,0,0,0,3-9.1l1.62.24c.24,0,.36.12.36.28s-.32.3-.5.36a21.54,21.54,0,0,1-.48,2.88h5.64v1.54h-1.22a17.34,17.34,0,0,1-2.2,8.1,12.18,12.18,0,0,0,3.6,3.56A8.31,8.31,0,0,0,606.67,137Zm-5.06-12.94a1.76,1.76,0,0,1-.1.3,16.93,16.93,0,0,0,1.82,6.28,17.34,17.34,0,0,0,1.54-6.58Z"/><path class="cls-4" d="M547.76,171.7c.12.06.3.2.3.34s-.28.2-.58.18c-.38.5-2,2.8-2.38,3.24-.86,1.1-1.12,1.4-1.88,2.3.9-.1,1.64-.22,3.14-.46a9.38,9.38,0,0,0-.58-1.6l1.36-.42a22,22,0,0,1,1.34,4.16,8,8,0,0,0-1.46.5,11.33,11.33,0,0,0-.3-1.38c-.24.06-1.54.3-1.68.34v8.64H543.5v-8.4c-.86.12-1.44.2-2.94.38-.08.26-.16.46-.34.46s-.3-.36-.32-.52l-.22-1.44,1.64-.1c.5-.54.9-1.08,1.58-2a24.32,24.32,0,0,0-3.18-2.9l1-1.28c.7.58.94.8,1.16,1A31.32,31.32,0,0,0,544,169l1.32.64a.45.45,0,0,1,.3.34c0,.18-.28.18-.38.18H545a33.94,33.94,0,0,1-2.22,3.52c.08.06.72.7,1.08,1,.14-.18,1.92-2.56,2.6-3.74Zm-5.26,9.16c.18,0,.42.1.42.28s-.16.24-.5.34a24.32,24.32,0,0,1-1.16,4.76,5.69,5.69,0,0,0-1.5-.4,20.43,20.43,0,0,0,1.34-5.22Zm4.82-.38a27,27,0,0,0,1.28,4.3,5.36,5.36,0,0,0-1.46.5,23.52,23.52,0,0,1-1.18-4.4Zm10.2-8c0,3.26,0,10.26-1,13-.64,1.68-1.8,2-4.24,1.94a4.69,4.69,0,0,0-.72-1.86,10.17,10.17,0,0,0,1.7.16c1.4,0,2-.38,2.44-4.42a61.13,61.13,0,0,0,.24-7.34h-5.26a21.67,21.67,0,0,1-1.64,2.56,5.43,5.43,0,0,0-1.42-.9,18.25,18.25,0,0,0,3.44-6.6l1.5.5c.28.1.44.24.44.34s-.16.24-.62.32c-.28.7-.58,1.5-.94,2.26Zm-6.08,4.1a28.93,28.93,0,0,1,2.32,4.5,9.33,9.33,0,0,0-1.46.72,31.76,31.76,0,0,0-2.26-4.6Z"/><path class="cls-4" d="M574.56,180.56H577v1.72h-2.48V186h-2v-3.72H565v-1.84l7.56-10.2h2Zm-2,0v-7.72l-5.74,7.72Z"/><path class="cls-4" d="M591.7,178.12c0,3.2-.8,8.32-6,8.32s-6-5.24-6-8.32.72-8.32,6-8.32S591.7,175.12,591.7,178.12Zm-9.94,0c0,2.62.56,6.58,4,6.58s4-4,4-6.58-.56-6.58-4-6.58S581.76,175.46,581.76,178.12Z"/><path class="cls-4" d="M606.8,178.12c0,3.2-.8,8.32-6,8.32s-6-5.24-6-8.32.72-8.32,6-8.32S606.8,175.12,606.8,178.12Zm-9.94,0c0,2.62.56,6.58,4,6.58s4-4,4-6.58-.56-6.58-4-6.58S596.86,175.46,596.86,178.12Z"/><path class="cls-4" d="M625.34,187.42a4,4,0,0,0-.62-1.92,10.71,10.71,0,0,0,1.78.16c1.2,0,1.44-.22,1.44-1.4v-4.84h-12.6v8.06H613.6V170.12h16v14.42C629.64,186.7,629.16,187.56,625.34,187.42Zm-4.58-15.7h-5.42v6.12h5.42Zm7.18,0h-5.5v6.12h5.5Z"/><path class="cls-4" d="M556.68,206.74a4.72,4.72,0,0,1-3.38-1.5c-1.34-1.18-2-1.64-3-1.64-1.76,0-2.84,1.5-3.56,2.6l-.84-1.2c.64-1,1.94-2.94,4.38-2.94.72,0,1.74.12,3.4,1.58,1.2,1.06,1.88,1.6,2.94,1.6,1.9,0,3-1.64,3.6-2.64l.92,1.24C560.38,204.9,559.14,206.74,556.68,206.74Z"/><path class="cls-4" d="M579.24,207.62c0,1.74-.86,4.82-5.92,4.82s-5.9-3.08-5.9-4.82a3.93,3.93,0,0,1,3.18-4.14,3.36,3.36,0,0,1-2.74-3.5c0-2.52,2.08-4.18,5.48-4.18s5.46,1.78,5.46,4.18a3.36,3.36,0,0,1-2.74,3.5A3.93,3.93,0,0,1,579.24,207.62Zm-9.82-.16c0,2.82,2.48,3.24,3.9,3.24s3.92-.44,3.92-3.24c0-1.94-1.44-3.2-3.92-3.2S569.42,205.5,569.42,207.46Zm.44-7.24c0,2.48,2.76,2.58,3.46,2.58s3.48-.12,3.48-2.58c0-1.62-1.3-2.68-3.46-2.68C569.88,197.54,569.86,199.86,569.86,200.22Z"/><path class="cls-4" d="M593.6,204.12c0,3.2-.8,8.32-6,8.32s-6-5.24-6-8.32.72-8.32,6-8.32S593.6,201.12,593.6,204.12Zm-9.94,0c0,2.62.56,6.58,4,6.58s4-4,4-6.58-.56-6.58-4-6.58S583.66,201.46,583.66,204.12Z"/><path class="cls-4" d="M607.9,204.12c0,3.2-.8,8.32-6,8.32s-6-5.24-6-8.32.72-8.32,6-8.32S607.9,201.12,607.9,204.12Zm-9.94,0c0,2.62.56,6.58,4,6.58s4-4,4-6.58-.56-6.58-4-6.58S598,201.46,598,204.12Z"/><path class="cls-4" d="M627.24,213.42a4,4,0,0,0-.62-1.92,10.71,10.71,0,0,0,1.78.16c1.2,0,1.44-.22,1.44-1.4v-4.84h-12.6v8.06H615.5V196.12h16v14.42C631.54,212.7,631.06,213.56,627.24,213.42Zm-4.58-15.7h-5.42v6.12h5.42Zm7.18,0h-5.5v6.12h5.5Z"/><path class="cls-4" d="M514.37,225.54a9,9,0,0,0,0,13.71l-.8.8a10.08,10.08,0,0,1,0-15.31Z"/><path class="cls-4" d="M527.3,227.26a27.08,27.08,0,0,1-2.45,5,20.73,20.73,0,0,1,2.87,3.17,6.34,6.34,0,0,0-1,1.1,22.15,22.15,0,0,0-2.62-3.12,18.46,18.46,0,0,1-6.63,5.43,5,5,0,0,0-1.06-1.06,16.31,16.31,0,0,0,6.65-5.34,29.44,29.44,0,0,0-3.73-2.84l.8-1.09a40.32,40.32,0,0,1,3.71,2.81,20.2,20.2,0,0,0,2.27-5.24l1.46.67c.14.07.22.13.22.23S527.56,227.22,527.3,227.26Z"/><path class="cls-4" d="M532.14,233.1v-1.41h13.63v1.41Z"/><path class="cls-4" d="M552.53,226.89v3.94a7.86,7.86,0,0,1-4,7.49,3.75,3.75,0,0,0-1.14-1c3.52-2,3.68-4.34,3.68-6.34v-4.69l1.41.1c.16,0,.37,0,.37.2S552.69,226.82,552.53,226.89Zm4.16,10.85a4.61,4.61,0,0,0-.9.72l-1-.72c0-.32.05-.8.05-1.25V226.15l1.42.07c.18,0,.32,0,.32.17s-.14.21-.32.29v9.59a17,17,0,0,0,5.41-5,6.59,6.59,0,0,0,.77,1.22A22.2,22.2,0,0,1,556.69,237.74Z"/><path class="cls-4" d="M572.45,234.08a6.49,6.49,0,0,0-.59-1.37,7.32,7.32,0,0,0,.74,0c.91,0,4.4-.1,4.4-2.44a2,2,0,0,0-2.32-2,6.06,6.06,0,0,0-1.4.18,17.59,17.59,0,0,1,1.24,2.3c-.21.1-1.16.53-1.33.63a19.47,19.47,0,0,0-1.22-2.5,20.67,20.67,0,0,0-2.8,1.31,40.64,40.64,0,0,1,3.07,8.58c-.37.16-.75.36-1.52.72a30,30,0,0,0-2.73-8.61,33,33,0,0,0-3.11,2.05l-.86-1.34a37.3,37.3,0,0,0,3.41-1.88,15.68,15.68,0,0,0-1.83-3.07l1.46-.58a.84.84,0,0,1,.24-.06.18.18,0,0,1,.2.18.4.4,0,0,1-.16.27l1.29,2.59a24,24,0,0,1,2.64-1.26,13.24,13.24,0,0,0-1.62-2l1.12-.59a11.45,11.45,0,0,1,1.78,2.11,6.86,6.86,0,0,1,2.06-.31c2.9,0,3.75,1.91,3.75,3.27C578.36,233.92,573.78,234,572.45,234.08Z"/><path class="cls-4" d="M594.37,230.7v-2.26h-5.06v3.27H588v-3.27h-5.1v2.26h-1.3v-3.22H588v-1h-5.54v-1h12.39v1h-5.54v1h6.34v3.22Zm-1.18,8.77h-3c-1.33,0-2.23-.1-2.23-1.86V237h-3.74v1.15H583v-6h11.22V237h-5v.53c0,.75.28.83,1.21.83h2.66c1.06,0,1.62,0,1.89-1.94a3.43,3.43,0,0,0,1.17.63C595.69,239.47,594.71,239.47,593.19,239.47ZM584,230v-.8h3v.8Zm0,1.45v-.78h3v.78Zm4,1.75h-3.74v1H588Zm0,1.89h-3.74v1H588Zm5-1.89h-3.74v1H593Zm0,1.89h-3.74v1H593ZM590.37,230v-.8h2.93v.8Zm0,1.45v-.78h2.93v.78Z"/><path class="cls-4" d="M604.31,227.86v1.08h-6.23v-1.08Zm-.58,6.46v5.17h-1.18v-.79h-2.68v1h-1.26v-5.39Zm-.19-4.28v1H598.8v-1Zm0,2.13v1.06H598.8v-1.06Zm0-6.42v1.06h-4.7v-1.06Zm-3.65,9.64v2.19h2.68v-2.19Zm9.25-5.8h3.77v1.14h-3.77v2.58H612v6.38h-1.29v-1.07h-4.37v1.09H605v-6.4h2.83v-2.58h-3.77v-1.14h3.77v-2.37a22.44,22.44,0,0,1-3.17.24,2.92,2.92,0,0,0-.44-1.16,17.79,17.79,0,0,0,7.23-1.25l.88,1a.32.32,0,0,1,.1.22.14.14,0,0,1-.16.14.69.69,0,0,1-.37-.17,20.28,20.28,0,0,1-2.79.75Zm1.56,7.89v-3h-4.37v3Z"/><path class="cls-4" d="M626.5,236.81a9.23,9.23,0,0,1-3.82,2.18,6.46,6.46,0,0,0-.92-1.23c4.77-1,5.27-4.34,5.27-5.64a4.61,4.61,0,0,0-4.87-4.7,23.34,23.34,0,0,1-1.74,7.38c-.88,2.08-1.65,2.92-2.53,2.92-1.19,0-3-1.85-3-4.48a7.37,7.37,0,0,1,7.27-7.09c3.42,0,6.26,2.29,6.26,5.94A6.82,6.82,0,0,1,626.5,236.81Zm-10.31-3.65c0,1.73.95,3,1.64,3s1.26-1.52,1.64-2.53a18.76,18.76,0,0,0,1.25-6A6,6,0,0,0,616.19,233.16Z"/><path class="cls-4" d="M635.54,234.56c-.75.3-2.79,1.15-4.55,1.76,0,.16,0,.41-.25.41s-.18-.08-.26-.35l-.34-1.22c.76-.17,1.8-.49,2.2-.62v-4.61h-2.07v-1.22h2.07v-3.6l1.31.1c.16,0,.34,0,.34.19s-.18.21-.36.29v3h2v1.22h-2v4.18c.29-.1,1.32-.48,2-.82A3.55,3.55,0,0,0,635.54,234.56Zm3-1.83c-.21.37-.39.62-.59,1h6.45c0,1.39-.23,4.56-1,5.49-.23.25-.68.59-2.36.49a3.32,3.32,0,0,0-.44-1.37,7.62,7.62,0,0,0,1.2.12c.38,0,.76,0,1-1a17,17,0,0,0,.37-2.67h-1a14.92,14.92,0,0,1-3.86,5,3.21,3.21,0,0,0-1-.69,12.19,12.19,0,0,0,3.7-4.34h-1.22a13.06,13.06,0,0,1-4.54,4.47,2.49,2.49,0,0,0-.91-.79,11.14,11.14,0,0,0,4.19-3.68h-1.31a14.12,14.12,0,0,1-2.26,2.11,3,3,0,0,0-1-.72,11.12,11.12,0,0,0,3.41-3.44h-2.07v-1h9.61v1Zm-1.94-1.82v-5.38h6.8v5.38Zm5.6-4.37h-4.35v1.16h4.35Zm0,2.13h-4.35v1.24h4.35Z"/><path class="cls-4" d="M660.37,232a18.77,18.77,0,0,1-6.85-5.51,18.84,18.84,0,0,1-3.37,3.65h7.1v1.2H650v-1.09a17,17,0,0,1-3.06,2.05,3.82,3.82,0,0,0-1-1.15,14.84,14.84,0,0,0,6.95-6.18l1.58.14c.15,0,.31.1.31.21s-.14.18-.48.27a17.06,17.06,0,0,0,6.95,5.21A3.81,3.81,0,0,0,660.37,232ZM657,239.71v-1.06h-6.81v1.06h-1.33V233.1h9.46v6.61Zm0-5.39h-6.81v3.13H657Z"/><path class="cls-4" d="M663.49,240.05l-.8-.8a9,9,0,0,0,0-13.71l.8-.8a10.08,10.08,0,0,1,0,15.31Z"/><path class="cls-4" d="M544.76,301.66v9.9H543.2V308.9c-2.32.58-4.4.94-6.3,1.26-.1.3-.16.44-.36.44s-.26-.22-.28-.36l-.28-1.42c.46,0,1-.1,2-.22v-6.94H535.9v-1.28h18.34v1.28Zm-5.94-2.34v-5.6H551.3v5.6Zm4.38,2.34h-3.64V303h3.64Zm0,2.4h-3.64v1.34h3.64Zm0,2.46h-3.64v1.84c1.86-.3,2.08-.34,3.64-.66Zm6.54-11.68h-9.36V296h9.36Zm0,2.18h-9.36v1.2h9.36Zm2.92,14.36a17.94,17.94,0,0,1-3.52-2.4,15.54,15.54,0,0,1-3,2.34,3.83,3.83,0,0,0-1-1.3,13.09,13.09,0,0,0,3-2.08,15.79,15.79,0,0,1-2.12-2.8l1.26-.82a10.51,10.51,0,0,0,1.88,2.56,10.51,10.51,0,0,0,1.78-2.84h-5.3v-1.28h6.48l.76.66a15.17,15.17,0,0,1-2.66,4.46,12.27,12.27,0,0,0,3.62,2.16A5.78,5.78,0,0,0,552.66,311.38Z"/><path class="cls-4" d="M575.2,311.66a16.63,16.63,0,0,1-7.8-9,15.55,15.55,0,0,1-8.32,8.94,4.31,4.31,0,0,0-1.22-1.44c1.52-.66,7.3-3.16,8.4-9.94H558.2v-1.62h8.24c0-.72,0-1.06,0-1.66v-3.78l1.78.08c.26,0,.48.06.48.24s-.32.3-.5.34v3.22c0,.58,0,.88,0,1.56h8.22v1.62H568.3c1.14,4.58,3.66,7.68,8.24,10.08A4.71,4.71,0,0,0,575.2,311.66Z"/><path class="cls-4" d="M594.06,305.62c0,1.74-.86,4.82-5.92,4.82s-5.9-3.08-5.9-4.82a3.93,3.93,0,0,1,3.18-4.14,3.36,3.36,0,0,1-2.74-3.5c0-2.52,2.08-4.18,5.48-4.18s5.46,1.78,5.46,4.18a3.36,3.36,0,0,1-2.74,3.5A3.93,3.93,0,0,1,594.06,305.62Zm-9.82-.16c0,2.82,2.48,3.24,3.9,3.24s3.92-.44,3.92-3.24c0-1.94-1.44-3.2-3.92-3.2S584.24,303.5,584.24,305.46Zm.44-7.24c0,2.48,2.76,2.58,3.46,2.58s3.48-.12,3.48-2.58c0-1.62-1.3-2.68-3.46-2.68C584.7,295.54,584.68,297.86,584.68,298.22Z"/><path class="cls-4" d="M605.1,308.24v-1h-2.64V309h-1.52v-14h5.68v13.16Zm0-11.74h-2.64v3.8h2.64Zm0,5.24h-2.64v4.1h2.64Zm9.66-.62,1.36.18c.12,0,.28.08.28.2s-.34.32-.44.36v1.64h2.46V305H616v4.24c0,1.36-.12,2.48-3.76,2.34a3.53,3.53,0,0,0-.58-1.8,9,9,0,0,0,1.48.12c1,0,1.18-.16,1.18-1.08V305h-6.62V303.5h6.62v-2.38h-7v-1.5h4.62v-2.28h-4.06v-1.5h4.06v-2.58l1.78.1c.12,0,.42.08.42.26s-.16.24-.52.32v1.9h4.32v1.5H613.6v2.28h5.08v1.5Zm-4.18,8.24a19,19,0,0,0-2.44-3.1l1.22-1a19.28,19.28,0,0,1,2.54,3A8.51,8.51,0,0,0,610.58,309.36Z"/><path class="cls-4" d="M624.6,300v11.42H623V293.62h7.16V300Zm4-5.2h-4v1.34h4Zm0,2.48h-4v1.48h4Zm.24,11.24v1h-1.52v-7.84H635v6.88Zm4.66-5.58H628.8v1.5h4.66Zm0,2.72H628.8v1.56h4.66Zm2.4,5.88a4.57,4.57,0,0,0-.68-1.84,7,7,0,0,0,1.46.16c1,0,1.14-.26,1.14-1.36v-8.48h-5.54v-6.42h7.14v15.08C639.38,310.52,639.28,311.76,635.86,311.58Zm1.9-16.74h-3.92v1.36h3.92Zm0,2.5h-3.92v1.46h3.92Z"/><path class="cls-3" d="M28,184.82a1.3,1.3,0,0,1-.44-.09,17,17,0,0,1-3.37,3.2A3.69,3.69,0,0,0,23,186.76l.33-.22H18.49v1.19H17.15v-7.2c-.2.29-.33.44-.57.77a3.5,3.5,0,0,0-.42-.46,17.26,17.26,0,0,1-1.61,6.58,4.28,4.28,0,0,0-1.52-.88c1.59-2.69,1.59-5.28,1.59-7.88v-7.9h8.82v4.71H16.2c0,1.41,0,3.79,0,4.27a14,14,0,0,0,2.14-4l1.25.48c.11,0,.26.15.26.29s-.26.28-.55.33c-.26.52-.33.66-.52,1.07h1.36a13.88,13.88,0,0,0,1.19-2.26l1.05.53c.27.13.49.24.49.39s-.18.22-.57.24a10.52,10.52,0,0,1-.71,1.1h2.18v1.26h-2.2v1.27H23.2v1.1H21.55v1.26h1.67v1.12H21.55v1.34h2.24v1a12.69,12.69,0,0,0,2.93-3l1.32,1a.49.49,0,0,1,.26.37A.24.24,0,0,1,28,184.82ZM13.63,169.55v-1.43h9.94v1.43Zm8.23,2.53H16.2v2.07h5.66Zm-1.61,7.09H18.49v1.27h1.76Zm0,2.37H18.49v1.26h1.76Zm0,2.38H18.49v1.34h1.76Zm9.33-14.28c-.22.59-.64,1.74-.88,2.33h4.2v11.11H24.37V172H27a17.51,17.51,0,0,0,.86-2.33H24.21v-1.5h9.57v1.5Zm1.7,3.74H26v1.78h5.26Zm0,3.17H26v1.83h5.26Zm0,3.19H26v1.89h5.26Zm1.87,8a20.1,20.1,0,0,1-3.81-3.67l1.17-1a17.79,17.79,0,0,0,3.87,3.44A6.44,6.44,0,0,0,33.15,187.79Z"/><path class="cls-3" d="M57.35,182.07c-.73-.15-1.5-.28-3.06-.7v6.36H52.55v-1H43.09v1H41.33v-6.1c-1.56.46-1.83.53-2.38.68a4.7,4.7,0,0,0-1.08-1.58,29.26,29.26,0,0,0,8.45-2.9,16.17,16.17,0,0,1-2.81-2.31,25.3,25.3,0,0,1-4.12,3.08,4,4,0,0,0-1.32-1.28A18.56,18.56,0,0,0,45,171.18H40.18v2.75H38.4v-4.36h8.52v-2.15l2,.06c.26,0,.48.07.48.27s-.28.28-.64.35v1.47h8.52v4.34H55.45v-2.73H47.4a.29.29,0,0,1,.13.22c0,.27-.39.29-.81.33a7.28,7.28,0,0,1-.75,1.1h7l.77.75a16.46,16.46,0,0,1-4.29,4.2,25.52,25.52,0,0,0,8.8,2.55A5.11,5.11,0,0,0,57.35,182.07Zm-9.44-3.25a29.43,29.43,0,0,1-5,2.31H53.5A27.59,27.59,0,0,1,47.91,178.82Zm4.64,3.76H43.09v2.71h9.46Zm-7.83-8.27-.16.17A19.72,19.72,0,0,0,47.82,177a12.55,12.55,0,0,0,3.08-2.64Z"/><path class="cls-3" d="M71.36,172.85a27.61,27.61,0,0,1-2.47,7.26,38.46,38.46,0,0,1,2.82,5.2,7.32,7.32,0,0,0-1.76.92,36.76,36.76,0,0,0-2-4.36A24,24,0,0,1,63,187.6a4.36,4.36,0,0,0-1.54-1.17,20.86,20.86,0,0,0,5.35-6.21,33.45,33.45,0,0,0-4.08-5.06l1.41-1a36.26,36.26,0,0,1,3.57,4.31,24.89,24.89,0,0,0,1.87-5.61H62v-1.62h4.69v-3.81l1.91.13c.09,0,.53,0,.53.29s-.26.28-.53.35v3h4.49v1.62ZM74,182.34A19.61,19.61,0,0,0,71.73,178l1.52-.88a23.49,23.49,0,0,1,2.46,4.31A9.4,9.4,0,0,0,74,182.34Zm5.72-7.18v9.4c0,2.95-1.08,3.12-4.18,3.12a4.48,4.48,0,0,0-.75-2.09,13.39,13.39,0,0,0,1.92.2c1.14,0,1.16-.39,1.16-1.6v-9H72.35v-1.67h5.54v-6l1.87.13c.31,0,.49.09.49.28s-.09.22-.51.36v5.21h2.64v1.67Z"/><path class="cls-3" d="M89.55,172.06v6.4c0,2.31-.13,6.21-2,9.4a4.69,4.69,0,0,0-1.74-.73c1.63-2.59,1.89-5,1.89-8.91v-7.83h7.81v-3l1.94.13c.26,0,.5,0,.5.28s-.26.36-.55.44v2.14h8.78v1.67Zm3.85,7.26A22.9,22.9,0,0,1,91.64,186a6.16,6.16,0,0,0-1.58-.72,17.63,17.63,0,0,0,1.69-7l1.85.35c.2,0,.37.09.37.29S93.62,179.28,93.4,179.32Zm6,8H97.63c-2.78,0-2.95-.94-2.95-2.73v-8.38l1.71.13c.14,0,.53,0,.53.29s-.15.24-.42.33v7.44c0,1.21.22,1.21,2.4,1.21,1.32,0,1.76,0,2-2.95a4.25,4.25,0,0,0,1.76.68C102.23,187.05,101.23,187.35,99.39,187.35Zm.94-9.57a20.47,20.47,0,0,0-3.85-4l1.3-1.1a23.73,23.73,0,0,1,3.92,3.91A5,5,0,0,0,100.33,177.78Zm4.6,8.45a29.61,29.61,0,0,0-3.23-7l1.56-.77a32.42,32.42,0,0,1,3.41,6.93A6.38,6.38,0,0,0,104.93,186.23Z"/><path class="cls-3" d="M127.15,183.75a12.68,12.68,0,0,1-5.26,3,8.91,8.91,0,0,0-1.25-1.7c6.56-1.38,7.24-6,7.24-7.74a6.34,6.34,0,0,0-6.69-6.47,31.91,31.91,0,0,1-2.4,10.14c-1.21,2.86-2.27,4-3.48,4-1.62,0-4.13-2.55-4.13-6.16a10.13,10.13,0,0,1,10-9.75c4.71,0,8.6,3.15,8.6,8.16A9.44,9.44,0,0,1,127.15,183.75Zm-14.17-5c0,2.37,1.3,4.11,2.25,4.11s1.73-2.09,2.26-3.47a26,26,0,0,0,1.72-8.25A8.25,8.25,0,0,0,113,178.73Z"/><path class="cls-3" d="M15.81,212.38v-1.82h13.6v-9.73H15.81V199h15.6v14.46h-2v-1.08Z"/><path class="cls-3" d="M56,214.43a29.53,29.53,0,0,0-6.91-7.15,24.55,24.55,0,0,1-9.49,7.44A4.55,4.55,0,0,0,38.4,213c2-.73,9.44-3.74,12.67-13.71H40.32v-1.8H51.38a7,7,0,0,0,1.5-.16l1.08,1a7.69,7.69,0,0,0-.82,1.45,34,34,0,0,1-3,6,38.28,38.28,0,0,1,7.46,7A10.33,10.33,0,0,0,56,214.43Z"/><path class="cls-3" d="M78.86,209.13a30.9,30.9,0,0,0-8.14-5.59v11.57h-2v-19l2,.15c.29,0,.42.09.42.27s-.29.3-.44.33v6.27l.86-1.19A35.43,35.43,0,0,1,80,207.52,10.37,10.37,0,0,0,78.86,209.13Z"/><path class="cls-3" d="M95.76,213.11c-2.53.72-4.65,1.3-8.72,2.11-.08.46-.17.57-.37.57s-.27-.17-.33-.41l-.44-1.9c1.19-.19,1.85-.3,3-.52V195.42l2,.13c.24,0,.49.13.49.29s-.36.35-.6.41v6H96V204H90.76v8.56c1.89-.37,3.21-.73,5.28-1.23A6.3,6.3,0,0,0,95.76,213.11Zm8,2h-3.55c-2.31,0-2.81-.62-2.81-2.71V195.42l1.91.15c.24,0,.51.07.51.33s-.13.24-.57.42v6.54a22.22,22.22,0,0,0,5.15-3.5l1.38,1.36a.49.49,0,0,1,.2.35.21.21,0,0,1-.22.2,2.21,2.21,0,0,1-.51-.13,27.22,27.22,0,0,1-6,3.61v7.37c0,.9.11,1.12,1.32,1.12h2.57c.71,0,1.43,0,1.72-3.15a4.2,4.2,0,0,0,1.87.77C106.21,214.34,105.42,215.07,103.79,215.07Z"/><path class="cls-3" d="M129.79,215.88a17,17,0,0,1-5-3.87,16.65,16.65,0,0,1-5.67,3.89,6.35,6.35,0,0,0-1.26-1.6,13.9,13.9,0,0,0,5.79-3.77,16.83,16.83,0,0,1-2.35-5.72,13.49,13.49,0,0,1-1,1.3,4.88,4.88,0,0,0-1.14-.92v3.56h-3.26v1.87h3.72v1.52h-3.72v3.63h-1.61v-3.63h-3.74v-1.52h3.74v-1.87h-3.23v-8.23h3.26V199h-3.77v-1.46h3.77v-2.09l1.71.16c.2,0,.4,0,.4.26s-.31.38-.53.49v1.18h3.5V199h-3.5v1.49h3.26v4.16a18.2,18.2,0,0,0,2.7-4.71l1.7.75c.11.05.28.13.28.31s-.15.24-.64.29a28,28,0,0,1-1.6,2.94l1.12-.37a17.21,17.21,0,0,0,2,5.19,13.7,13.7,0,0,0,1.92-5.28l1.78.57a37.56,37.56,0,0,0-2.58-3.47l1.37-1.06H120v-1.65h4v-2.68l1.79.11c.26,0,.46,0,.46.26s-.33.35-.46.42v1.89h4.49v1.65h-3A36.3,36.3,0,0,1,131,205a8.63,8.63,0,0,0-1.58,1.05c-.22-.37-.33-.55-.57-1a2.4,2.4,0,0,1-.57.14,19.42,19.42,0,0,1-2.42,5.47,14.1,14.1,0,0,0,5.19,3.68A6.42,6.42,0,0,0,129.79,215.88Zm-15.44-14.06h-1.83V204h1.83Zm0,3.41h-1.83v2.14h1.83Zm3.41-3.41h-1.85V204h1.85Zm0,3.41h-1.85v2.14h1.85Z"/><path class="cls-3" d="M17.43,298H15.28V285.6H11.71V284c1.85-.09,3.41-.53,4-3.26h1.74Z"/><path class="cls-3" d="M41.3,298.89v-1.41h-11v1.43H28.39V281h14.8v17.89Zm0-16.15h-11v5.44h11Zm0,7.15h-11v5.81h11Z"/><path class="cls-3" d="M59.59,299.66a6.8,6.8,0,0,0-1.15-1.54c5-.79,6.91-2.9,6.91-5.28,0-.84-.3-3.1-3.52-4a21.24,21.24,0,0,1-4.44,6.6A9.85,9.85,0,0,0,58,297c-.42.26-.9.52-1.58,1a12.05,12.05,0,0,1-.51-1.28c-2,1.43-3.21,1.7-4.11,1.7-2.42,0-2.53-2.56-2.53-3.06,0-2.23,1.41-5.44,5.7-7.31.06-.88.11-1.8.22-2.68-.91.06-1.5.09-2.53.09s-1.61-.05-2.09-.09l0-1.83a19.42,19.42,0,0,0,3.13.22c.15,0,.88,0,1.76-.06a37.42,37.42,0,0,1,1-4.19l1.95.64c.16.05.36.13.36.31s-.36.29-.49.31a14.38,14.38,0,0,0-.86,2.77,23.41,23.41,0,0,0,6.85-1.65l.46,1.78a38,38,0,0,1-7.59,1.54c-.05.31-.24,1.76-.31,2.25a12.47,12.47,0,0,1,3.17-.42c4.51,0,7.41,2.49,7.41,5.85S64.21,298.74,59.59,299.66Zm-4.67-9.77c-3,1.7-3.87,4.05-3.87,5.33a1.23,1.23,0,0,0,1.17,1.38,5.67,5.67,0,0,0,3.23-1.54A25.44,25.44,0,0,1,54.92,289.89Zm1.7-.75a22,22,0,0,0,.35,4.45,17.57,17.57,0,0,0,3.06-5A9.71,9.71,0,0,0,56.62,289.14Z"/><path class="cls-3" d="M78.83,285.76a48.72,48.72,0,0,1-5.92,13.53c-.53-.33-1.38-.73-1.87-1A37.48,37.48,0,0,0,76.81,286a44.94,44.94,0,0,1-4.87.24l-.15-2c.51,0,1,.07,1.83.07,1.45,0,2.79-.09,3.63-.16a29.54,29.54,0,0,0,.66-4.51l2.13.55c.33.09.44.2.44.31s-.33.31-.44.31c-.13.48-.61,2.66-.72,3.1a18.3,18.3,0,0,0,4.77-1.21l.35,1.87A35.55,35.55,0,0,1,78.83,285.76Zm6.58,13.07c-1.39,0-6.18,0-6.18-3.31a5.15,5.15,0,0,1,1.21-3l1.63.7A3.72,3.72,0,0,0,81,295.39c0,1.41,2.24,1.67,4.38,1.67a16.37,16.37,0,0,0,4.68-.7c0,.26,0,.53,0,.93a4.33,4.33,0,0,0,.11,1.12A26.4,26.4,0,0,1,85.41,298.83Zm4-9.27a18,18,0,0,0-3.28-.28,36.69,36.69,0,0,0-4.84.37v-1.78a33.18,33.18,0,0,1,5.08-.38,21.12,21.12,0,0,1,3.24.22A9.92,9.92,0,0,0,89.44,289.56Z"/><path class="cls-3" d="M99.09,293.74l-1.69.2a20.86,20.86,0,0,1-1.32-7.35,27.75,27.75,0,0,1,.68-5.72c.09-.48.11-.57.15-.86l1.81.44c.3.07.55.13.55.38s-.18.26-.47.35a20.32,20.32,0,0,0-.88,5.83,14.07,14.07,0,0,0,.33,3.26,19.27,19.27,0,0,1,1.85-3.79,5.81,5.81,0,0,0,1.35,1.06A13.5,13.5,0,0,0,99.09,293.74Zm10.14-13.24c0,.63.22,3.45.25,4,0,.8.11,1.85.11,3,0,3.5-.47,8.87-7.2,12.26a6.57,6.57,0,0,0-1.47-1.46c6.47-2.66,6.69-8.42,6.69-10.84a33,33,0,0,0-.77-7.77l2.24.11c.26,0,.57,0,.57.28S109.39,280.47,109.23,280.5Z"/><path class="cls-3" d="M131.67,295.75a12.74,12.74,0,0,1-5.26,3,8.8,8.8,0,0,0-1.26-1.7c6.56-1.38,7.24-6,7.24-7.74a6.34,6.34,0,0,0-6.69-6.47A31.38,31.38,0,0,1,123.3,293c-1.21,2.86-2.26,4-3.47,4-1.63,0-4.14-2.55-4.14-6.16a10.13,10.13,0,0,1,10-9.75c4.71,0,8.6,3.15,8.6,8.16A9.43,9.43,0,0,1,131.67,295.75Zm-14.17-5c0,2.37,1.29,4.11,2.24,4.11s1.74-2.09,2.27-3.47a25.6,25.6,0,0,0,1.71-8.25A8.24,8.24,0,0,0,117.5,290.73Z"/><path class="cls-3" d="M30.59,329.73H29V320a22.61,22.61,0,0,1-2.44,4.64,6.25,6.25,0,0,0-1.26-1.25A17.7,17.7,0,0,0,29,317h-2.9v-1.52h3v-3.33a16.59,16.59,0,0,1-2.4.34,3.87,3.87,0,0,0-.75-1.5,17,17,0,0,0,6.52-1.39l.74,1.06c.22.31.27.39.27.48s-.11.2-.22.2a.63.63,0,0,1-.44-.2c-.73.24-1.3.42-2.14.64v3.7h2.47V317H30.59a19.23,19.23,0,0,0,3.24,4.26,7,7,0,0,0-1.24,1.08c-.28-.42-.7-1-2-3.34Zm5.33-13.09v-1.46h7.76v1.46H41.77a23.06,23.06,0,0,0,.59,3.47,17.05,17.05,0,0,0,2.4-2.15l.88.9c.33.33.35.37.35.48s-.13.22-.28.22a1.06,1.06,0,0,1-.33-.09,29,29,0,0,1-2.58,2A21.8,21.8,0,0,0,46,327.42a5,5,0,0,0-1.46,1,23.28,23.28,0,0,1-4.22-11.79H40a12.14,12.14,0,0,1-1.34,1.21,13.37,13.37,0,0,1,2.46,7.65c0,3.92-1.65,4.25-4.11,4.23a4.7,4.7,0,0,0-.53-1.61,6.17,6.17,0,0,0,1.17.09c1.1,0,1.89,0,1.89-2.82a14.28,14.28,0,0,0-.07-1.63,18.41,18.41,0,0,1-6.22,3.79,3.72,3.72,0,0,0-.93-1.28,18.47,18.47,0,0,0,6.89-4,7.39,7.39,0,0,0-.48-1.49,22.85,22.85,0,0,1-4.95,3.05,6.55,6.55,0,0,0-.93-1.18,16.43,16.43,0,0,0,5.37-2.95,9.1,9.1,0,0,0-.77-1.08,19.75,19.75,0,0,1-3.21,1.63,6.14,6.14,0,0,0-1.1-1.26,13.42,13.42,0,0,0,5.17-2.39Zm9.81-4.93v3.91H44.12V313.2H35.48v2.42H33.92v-3.91h4.7v-2.2l1.57.08c.66,0,.74,0,.74.2s-.39.38-.57.44v1.48Z"/><path class="cls-3" d="M69.11,327.48c-.51,1.7-1.45,2.12-3.32,2.16a3.87,3.87,0,0,0-.71-1.78,5,5,0,0,0,1.1.11c.55,0,1.28,0,1.59-1.35.75-3.16.75-9.32.75-10h-1.7c-.11,5.87-1.19,9.52-3.87,13.09a4.69,4.69,0,0,0-1.54-.88,15.76,15.76,0,0,0,1.25-1.65c-2.18.42-4,.63-6.6.92-.15.42-.17.55-.39.55s-.29-.13-.38-.5l-.35-1.37c.79,0,1.41-.09,3.65-.28V325H55.67v-1.25h2.92v-1.19h-3.1v-6.25h3.1V315.1H55v-1.3h3.61v-1.37a26.23,26.23,0,0,1-2.7.29,4,4,0,0,0-.73-1.3,25.65,25.65,0,0,1-1.32,3.15c.48.11.75.17.75.42s-.33.3-.51.3v14.46H52.43V317.12a25.12,25.12,0,0,1-1.69,2.46,4.52,4.52,0,0,0-1.19-1.47A22.52,22.52,0,0,0,54,309.44l1.71.73c.18.06.31.15.31.3,0,.31-.22.31-.68.36l-.2.57a20.52,20.52,0,0,0,7.2-1.41l.79,1.06a1,1,0,0,1,.22.52c0,.14-.09.18-.22.18a1.15,1.15,0,0,1-.57-.24c-1.06.33-1.72.48-2.62.68v1.61h3.48v1.3H60v1.18h3.15v6.25H60v1.19h2.9V325H60v1.39c.53-.09,2.49-.35,3-.44l-.18,1.1c2.14-3.32,2.36-7.15,2.49-10.38H63.85V315h1.43v-5.41l1.63.13c.37,0,.55.15.55.31s-.13.24-.55.39V315h3.17C70.08,321,69.68,325.52,69.11,327.48ZM58.59,317.43H56.85v1.41h1.74Zm0,2.46H56.85v1.5h1.74Zm3.17-2.46H60v1.41h1.78Zm0,2.46H60v1.5h1.78Z"/><path class="cls-3" d="M79.68,326.1V325H76.77v2H75.1V311.62h6.25V326.1Zm0-12.92H76.77v4.18h2.91Zm0,5.77H76.77v4.51h2.91Zm10.62-.69,1.5.2c.13,0,.31.09.31.22s-.38.35-.49.4v1.8h2.71v1.63H91.62v4.67c0,1.49-.13,2.72-4.13,2.57a3.91,3.91,0,0,0-.64-2,9.69,9.69,0,0,0,1.63.13c1.14,0,1.3-.17,1.3-1.19v-4.2H82.49v-1.63h7.29v-2.62H82.1v-1.65h5.08V314.1H82.71v-1.64h4.47v-2.84l2,.11c.13,0,.46.08.46.28s-.18.27-.57.35v2.1h4.75v1.64H89v2.51h5.59v1.65Zm-4.59,9.07A20.9,20.9,0,0,0,83,323.92l1.34-1.1a21.22,21.22,0,0,1,2.8,3.32A8.76,8.76,0,0,0,85.71,327.33Z"/><path class="cls-3" d="M101,317.08v12.56H99.27V310h7.88v7.07Zm4.36-5.73H101v1.48h4.36Zm0,2.73H101v1.63h4.36Zm.26,12.37v1.05H104v-8.62h8.47v7.57Zm5.13-6.14h-5.13V322h5.13Zm0,3h-5.13V325h5.13Zm2.64,6.47a5,5,0,0,0-.75-2,7.71,7.71,0,0,0,1.61.17c1.14,0,1.25-.28,1.25-1.49V317.1h-6.09V310h7.85v16.59C117.29,328.61,117.18,330,113.42,329.77Zm2.09-18.42H111.2v1.5h4.31Zm0,2.75H111.2v1.61h4.31Z"/><path class="cls-3" d="M30,223.07a9,9,0,0,0,0,13.7l-.8.8a10.07,10.07,0,0,1,0-15.3Z"/><path class="cls-3" d="M39.22,237H37.65v-9H35.06v-1.2A2.63,2.63,0,0,0,38,224.39h1.27Z"/><path class="cls-3" d="M50.83,224.48a26.88,26.88,0,0,1-1.47,3.25c.32.1.56.15.56.29s-.11.16-.4.27v10H48.19v-8.62a18,18,0,0,1-1.6,2.05,4.11,4.11,0,0,0-1.09-.85,17.4,17.4,0,0,0,4.21-7.3l1.33.51c.13,0,.26.11.26.22S51,224.48,50.83,224.48ZM56.61,233v5.28H55.27V233H50.74v-1.28h4.53v-3.54H52.83a20.88,20.88,0,0,1-1.24,2.42,3.05,3.05,0,0,0-1.21-.63,14.55,14.55,0,0,0,2.28-5.31l1.25.3c.11,0,.28.11.28.23s-.16.19-.43.2a11.28,11.28,0,0,1-.45,1.54h2v-3.33l1.33.1c.2,0,.4.08.4.2s-.2.2-.39.29v2.74h3.52v1.25H56.61v3.54h4.16V233Z"/><path class="cls-3" d="M71.86,238.18a5.17,5.17,0,0,0-.83-1.12c3.6-.57,5-2.11,5-3.84,0-.61-.22-2.25-2.56-2.89a15.44,15.44,0,0,1-3.23,4.8,6.41,6.41,0,0,0,.43,1.09c-.3.19-.66.38-1.15.73a8.49,8.49,0,0,1-.37-.93,5.13,5.13,0,0,1-3,1.24c-1.76,0-1.84-1.86-1.84-2.23,0-1.62,1-3.95,4.14-5.31,0-.64.08-1.32.16-2-.66.05-1.09.07-1.84.07a12.85,12.85,0,0,1-1.52-.07l0-1.32a14.17,14.17,0,0,0,2.28.16c.11,0,.64,0,1.28,0a28.52,28.52,0,0,1,.7-3L71,224c.11,0,.25.1.25.22s-.25.21-.35.23a9.86,9.86,0,0,0-.62,2,17,17,0,0,0,5-1.2l.34,1.29A28.3,28.3,0,0,1,70,227.65c0,.23-.18,1.28-.23,1.63a9.55,9.55,0,0,1,2.31-.3c3.28,0,5.39,1.81,5.39,4.26S75.22,237.51,71.86,238.18Zm-3.39-7.1c-2.2,1.23-2.82,2.94-2.82,3.87a.9.9,0,0,0,.85,1,4.13,4.13,0,0,0,2.35-1.12A17.86,17.86,0,0,1,68.47,231.08Zm1.23-.55a15.62,15.62,0,0,0,.25,3.24,12.66,12.66,0,0,0,2.23-3.62A7.08,7.08,0,0,0,69.7,230.53Z"/><path class="cls-3" d="M86.21,228.07a35.33,35.33,0,0,1-4.31,9.84,14.69,14.69,0,0,0-1.36-.7,27.14,27.14,0,0,0,4.2-9,34.25,34.25,0,0,1-3.54.18L81.09,227c.37,0,.75.05,1.33.05,1,0,2-.07,2.64-.11a22.79,22.79,0,0,0,.48-3.29l1.55.4c.24.07.32.15.32.23s-.24.22-.32.22c-.1.35-.45,1.94-.53,2.26a13,13,0,0,0,3.47-.88l.26,1.36A25.34,25.34,0,0,1,86.21,228.07ZM91,237.58c-1,0-4.5,0-4.5-2.4a3.77,3.77,0,0,1,.88-2.23l1.18.51a2.76,2.76,0,0,0-.78,1.62c0,1,1.63,1.22,3.18,1.22a11.64,11.64,0,0,0,3.41-.52c0,.2,0,.39,0,.68a3.15,3.15,0,0,0,.08.81A18.87,18.87,0,0,1,91,237.58Zm2.92-6.74a12.77,12.77,0,0,0-2.38-.21,27.41,27.41,0,0,0-3.52.27v-1.3a24.55,24.55,0,0,1,3.7-.27,15.07,15.07,0,0,1,2.35.16A8,8,0,0,0,93.92,230.84Z"/><path class="cls-3" d="M101.63,233.88l-1.23.14a15.16,15.16,0,0,1-1-5.34,19.82,19.82,0,0,1,.5-4.16c.06-.36.08-.42.11-.63l1.31.32c.22,0,.4.1.4.27s-.13.19-.34.26a14.86,14.86,0,0,0-.64,4.24,10.13,10.13,0,0,0,.24,2.37,13.06,13.06,0,0,1,1.35-2.75,3.94,3.94,0,0,0,1,.76A9.87,9.87,0,0,0,101.63,233.88Zm7.38-9.64c0,.47.16,2.52.18,2.93,0,.58.08,1.35.08,2.21,0,2.55-.34,6.45-5.24,8.92a4.68,4.68,0,0,0-1.07-1.06c4.71-1.94,4.87-6.13,4.87-7.89a23.67,23.67,0,0,0-.56-5.65l1.63.08c.19,0,.42,0,.42.21S109.12,224.23,109,224.24Z"/><path class="cls-3" d="M115.57,237.57l-.8-.8a9,9,0,0,0,0-13.7l.8-.8a10.07,10.07,0,0,1,0,15.3Z"/><path class="cls-3" d="M42.56,80a21.22,21.22,0,0,1-1.23,5.5h4.31V95.86H44V94.71H41.22v2.47H39.59v-8a16.55,16.55,0,0,1-2,2.75,4.93,4.93,0,0,0-1.45-1.12A18.53,18.53,0,0,0,40.82,80H37.5V78.34h8.71V80ZM44,87.1H41.22v6.05H44Zm11,.13V97.75H53.28V87.23H50.41c-.15,3.46-.3,7-4,10.67a4.61,4.61,0,0,0-1.59-1.12c2.14-1.87,3.81-4,3.92-9.55h-2V85.6h2V80H47.36v-1.6h9.22V80H55.06V85.6h2.09v1.63ZM53.28,80H50.46V85.6h2.82Z"/><path class="cls-3" d="M67.33,78.52a26.41,26.41,0,0,1-1.69,4.27l.42.09c.13,0,.35.11.35.33s0,.19-.51.39V97.77H64.19V85.47a18.75,18.75,0,0,1-1.7,2.4,3.84,3.84,0,0,0-1.21-1.43,21.27,21.27,0,0,0,4.51-9.11l1.74.51c.37.11.42.19.42.33S67.64,78.47,67.33,78.52Zm1.76,3.81V94.4H67.53V81.56l1.5.08c.3,0,.52,0,.52.29S69.22,82.28,69.09,82.33Zm12.37,5.5A21.17,21.17,0,0,1,76,85.32a18.13,18.13,0,0,1-5.44,2.53,3.88,3.88,0,0,0-1-1.45,17.54,17.54,0,0,0,5.13-2.09,14.64,14.64,0,0,1-2.05-2.23,18.52,18.52,0,0,1-1.78,2.56,3.35,3.35,0,0,0-1.41-.88,16.39,16.39,0,0,0,3.41-6.39l1.72.4c.22,0,.35.13.35.26s-.37.31-.61.33c-.14.4-.2.6-.38,1.06h8v1.52H80a11.26,11.26,0,0,1-2.75,3.39,17.5,17.5,0,0,0,5.26,1.91A4.31,4.31,0,0,0,81.46,87.83Zm1,4.86a.93.93,0,0,1-.46-.13,28.06,28.06,0,0,1-11.31,5,2.94,2.94,0,0,0-1.19-1.51A23.8,23.8,0,0,0,81.35,91l1.16,1a.7.7,0,0,1,.27.44C82.78,92.6,82.67,92.69,82.49,92.69Zm-5.43-4.6a.8.8,0,0,1-.35-.11A23.87,23.87,0,0,1,71,90.8a3.58,3.58,0,0,0-1-1.32,17.46,17.46,0,0,0,6.12-2.91l1,1a.53.53,0,0,1,.17.35C77.32,88,77.21,88.09,77.06,88.09Zm2.86,2.07a3.25,3.25,0,0,1-.42-.11,32.25,32.25,0,0,1-8.19,4,4.13,4.13,0,0,0-1.25-1.39,23,23,0,0,0,8.78-4.13L80,89.56c.18.16.22.27.22.38S80.09,90.16,79.92,90.16Zm-6.38-9.22a12.23,12.23,0,0,0,2.35,2.51,8.22,8.22,0,0,0,2.22-2.51Z"/><path class="cls-3" d="M91.66,96.3l-1.73.53a21.59,21.59,0,0,1-1.3-8A48.13,48.13,0,0,1,90,78.21L92,79c.36.13.47.22.47.33s-.27.26-.51.31a31.34,31.34,0,0,0-1.5,9.66,18.89,18.89,0,0,0,.27,3.38,27.48,27.48,0,0,1,1.41-3.54,3.32,3.32,0,0,0,1.07,1.12A14.49,14.49,0,0,0,91.66,96.3Zm14.75-1.52a36.15,36.15,0,0,1-5.11.33c-2.73,0-6.18-.26-6.18-3.1a7.48,7.48,0,0,1,.9-3.28l1.72.35a5,5,0,0,0-.84,2.49c0,1.4,1.61,1.76,4.27,1.76a21.42,21.42,0,0,0,5.37-.62A12.86,12.86,0,0,0,106.41,94.78ZM98.15,82.72c-1,0-1.67,0-2.2-.06V80.81a19.66,19.66,0,0,0,2.23.11,29.34,29.34,0,0,0,6.95-.71c0,.18.18,1.32.24,1.89A40,40,0,0,1,98.15,82.72Z"/><path class="cls-3" d="M18,113.82c.13.05.42.13.42.35s-.16.27-.6.4A22.5,22.5,0,0,1,15,121.35a5.47,5.47,0,0,0-1.77-.8,19.4,19.4,0,0,0,3-7.17Zm13.64-4.71c.26.11.4.24.4.38s-.4.28-.64.28C28.52,118,24.3,121,21.9,122.6v1.63c0,1.21.44,1.21,1.94,1.21h2.37c1.79,0,2.05,0,2.58-3a4.7,4.7,0,0,0,1.72.9c-.75,3.55-1.41,3.86-4.21,3.86H23c-2.13,0-3-.62-3-3v-.39a38.52,38.52,0,0,1-4.86,2.11,4.58,4.58,0,0,0-1.28-1.7A22.65,22.65,0,0,0,20,121.68v-9.44l2,.17c.2,0,.48.14.48.33s-.19.25-.57.36v7.37a21,21,0,0,0,8-12Zm-10.58-1.63a28.78,28.78,0,0,1,5.56,3.24,8.18,8.18,0,0,0-1.1,1.54,25.64,25.64,0,0,0-5.43-3.41Zm9.22,8.92a37.54,37.54,0,0,1,3.85,5.67,6.39,6.39,0,0,0-1.63,1.08,24.52,24.52,0,0,0-3.66-5.68Z"/><path class="cls-3" d="M43,123.81a7.61,7.61,0,0,0-1.65-.79,25.18,25.18,0,0,0,2.75-2.53H38.22V119H45.4c.66-.81,1.05-1.34,1.38-1.83H40.4v-5.5h4.65v-1.71H38.2v-1.5H58.31v1.5H51.45v1.71h4.8v5.5h-7.2s.15.09.15.2c0,.27-.52.33-.74.35-.22.31-.58.8-1,1.28H58.29v1.52H53.45c.2,0,.35.13.35.26s-.39.29-.66.31a9.44,9.44,0,0,1-2.22,2.57,39,39,0,0,1,6.36,2.62,5.58,5.58,0,0,0-1.23,1.54,33.86,33.86,0,0,0-6.67-3c-2.46,1.54-5.54,2.44-9.7,3a3.61,3.61,0,0,0-1-1.72,20.58,20.58,0,0,0,8.71-1.87c-2-.53-2.77-.72-3.76-1A4.16,4.16,0,0,1,43,123.81Zm2.07-10.74H42.12v2.64h2.93Zm1.18,7.42a21.37,21.37,0,0,1-1.56,1.6c1.54.29,2.66.53,4.4,1a9.66,9.66,0,0,0,2.47-2.59Zm3.48-10.56h-3v1.71h3Zm-3,5.78h3v-2.64h-3Zm4.71,0h3.08v-2.64H51.45Z"/><path class="cls-3" d="M69.62,113.14a45.28,45.28,0,0,1-5.13,10.78c-.57-.29-.88-.42-1.78-.79a39.57,39.57,0,0,0,4.86-9.75,35.43,35.43,0,0,1-4.15.16l-.25-1.94a17.4,17.4,0,0,0,2.29.13,21,21,0,0,0,2.66-.15,38.53,38.53,0,0,0,.93-4l2,.55c.24.07.35.14.35.29s-.28.26-.46.29c-.35,1.18-.46,1.56-.77,2.57a20.32,20.32,0,0,0,3.63-1,10.34,10.34,0,0,0,0,1.92A33,33,0,0,1,69.62,113.14Zm10.25,13.22a19.7,19.7,0,0,0-3.72-2.59c0,3.36-3.23,3.36-4,3.36-2.46,0-4.44-1.16-4.44-3.21,0-1.5,1.12-3,4-3a8.21,8.21,0,0,1,2.44.38,15.47,15.47,0,0,1-.26-2.42,4.14,4.14,0,0,1,1.54-3.06l1.54,1a2.8,2.8,0,0,0-1.19,2.38,12.93,12.93,0,0,0,.33,2.66A24.44,24.44,0,0,1,81,124.91C80.6,125.4,80.31,125.79,79.87,126.36Zm-8.14-4c-1.16,0-2.26.48-2.26,1.56,0,1.67,2.46,1.67,2.57,1.67,2.46,0,2.38-1.58,2.33-2.59A5.84,5.84,0,0,0,71.73,122.36Zm8.74-6.23a14.16,14.16,0,0,0-5.68-2.86l1.06-1.56a15.59,15.59,0,0,1,5.67,2.79C81.17,115,80.75,115.65,80.47,116.13Z"/><path class="cls-3" d="M91.11,124.1V123h-2.9v2H86.54V109.62h6.25V124.1Zm0-12.92h-2.9v4.18h2.9Zm0,5.77h-2.9v4.51h2.9Zm10.63-.69,1.5.2c.13,0,.31.09.31.22s-.38.35-.49.4v1.8h2.71v1.63h-2.71v4.67c0,1.49-.13,2.72-4.14,2.57a3.91,3.91,0,0,0-.63-2,9.69,9.69,0,0,0,1.63.13c1.14,0,1.29-.17,1.29-1.19v-4.2H93.93v-1.63h7.28v-2.62H93.53v-1.65h5.09V112.1H94.15v-1.64h4.47v-2.84l1.95.11c.14,0,.47.08.47.28s-.18.27-.58.35v2.1h4.76v1.64h-4.76v2.51h5.59v1.65Zm-4.6,9.07a20.68,20.68,0,0,0-2.68-3.41l1.34-1.1a20.65,20.65,0,0,1,2.79,3.32A9.72,9.72,0,0,0,97.14,125.33Z"/><path class="cls-3" d="M113.22,115.08v12.56h-1.76V108h7.88v7.07Zm4.36-5.73h-4.36v1.48h4.36Zm0,2.73h-4.36v1.63h4.36Zm.26,12.37v1h-1.67v-8.62h8.47v7.57Zm5.13-6.14h-5.13V120H123Zm0,3h-5.13V123H123Zm2.64,6.47a5,5,0,0,0-.75-2,7.71,7.71,0,0,0,1.61.17c1.14,0,1.25-.28,1.25-1.49V115.1h-6.09V108h7.85v16.59C129.48,126.61,129.37,128,125.61,127.77Zm2.09-18.42h-4.31v1.5h4.31Zm0,2.75h-4.31v1.61h4.31Z"/><g id="虫眼鏡"><path class="cls-5" d="M140.53,378.28c-12.8,12.8,5,25.14,15.08,15.08S215,334.74,215,334.74s4.17-2.79,8.35-9.4L207,311.76Z"/><circle class="cls-5" cx="329" cy="177" r="175.5"/><path d="M329,3A174,174,0,0,1,452,300,174,174,0,0,1,206,54,172.89,172.89,0,0,1,329,3m0-3A177,177,0,1,0,506,177,177,177,0,0,0,329,0Z"/><path class="cls-6" d="M383.26,334.16a165.76,165.76,0,0,1-202.14-82.51C140,169.79,173,70.19,254.72,29.19"/><path class="cls-6" d="M299.67,14.19a165.85,165.85,0,0,1,177.39,89c38,75.72,12.66,166.61-56,212.27"/><path class="cls-7" d="M150.1,368.59c18-18.28,58.46-60.22,58.46-60.22"/><path class="cls-7" d="M205.8,321.59c3.86,5.35,11.84,10.1,11.84,10.1s-47.93,47.53-58,57.58-27.88-2.28-15.08-15.08"/><line class="cls-8" x1="226.34" y1="323.34" x2="222.16" y2="327.86"/><line class="cls-9" x1="486" y1="157.5" x2="173" y2="157.5"/><line class="cls-9" x1="442" y1="68.5" x2="218.95" y2="68.5"/><line class="cls-10" x1="460.62" y1="257.5" x2="197.52" y2="257.5"/><path class="cls-3" d="M254.3,38.92h2.95v8.45l8-8.45h3.65l-7,7.23,7.32,9.57h-3.6l-5.74-7.56-2.61,2.69v4.87H254.3Z"/><path class="cls-3" d="M280.07,38.8h2.74l7.39,16.92h-3.12l-1.7-4h-7.95l-1.73,4h-3Zm4.23,10.25-2.91-6.72-2.88,6.72Z"/><path class="cls-3" d="M295.48,38.92H303a6.76,6.76,0,0,1,4.85,1.68,5.11,5.11,0,0,1,1.39,3.63v0a5,5,0,0,1-4,5.09l4.54,6.36h-3.5l-4.13-5.85h-3.7v5.85h-2.95Zm7.27,8.33c2.11,0,3.46-1.1,3.46-2.81v0c0-1.8-1.3-2.78-3.48-2.78h-4.3v5.64Z"/><path class="cls-3" d="M321.18,38.8h2.74l7.39,16.92h-3.12l-1.7-4h-7.95l-1.72,4h-3Zm4.23,10.25-2.91-6.72-2.88,6.72Z"/><path class="cls-3" d="M336.59,38.92h3v8.45l8-8.45h3.64l-7,7.23,7.32,9.57h-3.6l-5.74-7.56-2.62,2.69v4.87h-3Z"/><path class="cls-3" d="M356.15,48.59V38.92h3v9.55c0,3.12,1.61,4.78,4.25,4.78s4.23-1.56,4.23-4.66V38.92h2.95v9.53c0,5-2.83,7.54-7.23,7.54S356.15,53.47,356.15,48.59Z"/><path class="cls-3" d="M377,38.92h7.49a6.76,6.76,0,0,1,4.85,1.68,5.07,5.07,0,0,1,1.39,3.63v0a5,5,0,0,1-4,5.09l4.53,6.36h-3.5l-4.13-5.85h-3.69v5.85h-3Zm7.28,8.33c2.11,0,3.45-1.1,3.45-2.81v0c0-1.8-1.29-2.78-3.48-2.78h-4.29v5.64Z"/><path class="cls-3" d="M396.9,38.92h3v16.8h-3Z"/><path class="cls-4" d="M290.83,112c.15.07.36.24.36.41s-.33.24-.69.21c-.46.6-2.45,3.36-2.86,3.89-1,1.32-1.34,1.68-2.25,2.76,1.08-.12,2-.26,3.76-.55a11.14,11.14,0,0,0-.69-1.92l1.63-.5a26.09,26.09,0,0,1,1.61,5,9.64,9.64,0,0,0-1.75.6,15.17,15.17,0,0,0-.36-1.66c-.29.07-1.85.36-2,.41V131h-1.85V120.89c-1,.14-1.73.24-3.53.45-.09.32-.19.56-.41.56s-.36-.44-.38-.63l-.26-1.73c.57,0,1.58-.09,2-.12.6-.64,1.08-1.29,1.9-2.35a29,29,0,0,0-3.82-3.48l1.16-1.53c.84.69,1.13,1,1.39,1.2a38.88,38.88,0,0,0,2.54-4.56l1.59.76c.21.1.36.27.36.41s-.34.22-.46.22h-.21a44,44,0,0,1-2.67,4.22c.1.07.86.84,1.3,1.25.16-.22,2.3-3.07,3.12-4.49Zm-6.31,11c.22,0,.51.12.51.34s-.2.29-.6.41a29.58,29.58,0,0,1-1.4,5.71,6.6,6.6,0,0,0-1.8-.48,24.41,24.41,0,0,0,1.61-6.26Zm5.79-.45a32.45,32.45,0,0,0,1.53,5.16,6.33,6.33,0,0,0-1.75.6,29.19,29.19,0,0,1-1.42-5.28Zm12.24-9.58c0,3.91,0,12.31-1.25,15.65-.77,2-2.16,2.38-5.09,2.33a5.77,5.77,0,0,0-.86-2.23,12.37,12.37,0,0,0,2,.19c1.68,0,2.37-.46,2.92-5.31a72.31,72.31,0,0,0,.29-8.81h-6.31a25.27,25.27,0,0,1-2,3.08,6.44,6.44,0,0,0-1.7-1.08,21.91,21.91,0,0,0,4.13-7.92l1.8.6c.33.12.52.28.52.4s-.19.29-.74.39c-.34.84-.7,1.8-1.13,2.71Zm-7.3,4.92a34.64,34.64,0,0,1,2.78,5.4,11.54,11.54,0,0,0-1.75.86,38.84,38.84,0,0,0-2.71-5.52Z"/><path class="cls-4" d="M314.25,129.28l1-1.49a2,2,0,0,1,3-.39,15.11,15.11,0,0,0,9.39,3.63c5.12,0,9.33-3.44,9.33-8.36,0-5.64-5-8.43-10.62-8.43h-1.43a2.37,2.37,0,0,1-2.4-1.55l-.19-.39a2.39,2.39,0,0,1,.52-2.79l8.81-10.43a35.3,35.3,0,0,1,2.85-3V96a31.3,31.3,0,0,1-3.89.19H317.29A1.94,1.94,0,0,1,315.16,94V92.73a1.91,1.91,0,0,1,2.13-2.14h23.07c1.43,0,2.14.71,2.14,2v.58a3.5,3.5,0,0,1-1,2.59L330.06,109c6.09.65,13.41,4.54,13.41,13.42,0,7.84-6.15,14.71-15.55,14.71a21.67,21.67,0,0,1-13.35-4.86A2,2,0,0,1,314.25,129.28Z"/><path class="cls-4" d="M369.2,133.06v-1.54h-12v1.56h-2.06V113.54h16.15v19.52Zm0-17.62h-12v5.93h12Zm0,7.8h-12v6.34h12Z"/><path class="cls-4" d="M269.85,205.24c.15.07.36.24.36.4s-.33.24-.69.22c-.46.6-2.45,3.36-2.86,3.89-1,1.32-1.34,1.68-2.26,2.76,1.08-.12,2-.27,3.77-.55a11.14,11.14,0,0,0-.69-1.92l1.63-.51a26.32,26.32,0,0,1,1.61,5,9.89,9.89,0,0,0-1.76.6,11.28,11.28,0,0,0-.36-1.65c-.28.07-1.84.36-2,.41v10.37h-1.85V214.16c-1,.15-1.73.24-3.53.46-.09.31-.19.55-.41.55s-.36-.43-.38-.62l-.26-1.73c.57,0,1.58-.1,2-.12.6-.65,1.08-1.3,1.9-2.35a29,29,0,0,0-3.82-3.48l1.16-1.54c.84.7,1.12,1,1.39,1.2a37.29,37.29,0,0,0,2.54-4.56l1.59.77c.21.1.36.26.36.41s-.34.21-.46.21h-.22a39.62,39.62,0,0,1-2.66,4.23c.1.07.86.84,1.3,1.25.16-.22,2.3-3.08,3.12-4.49Zm-6.31,11c.22.05.5.12.5.33s-.19.29-.6.41a28.93,28.93,0,0,1-1.39,5.72,6.6,6.6,0,0,0-1.8-.48,24.48,24.48,0,0,0,1.61-6.27Zm5.78-.46a33.39,33.39,0,0,0,1.54,5.16,6.58,6.58,0,0,0-1.75.6,28.32,28.32,0,0,1-1.42-5.28Zm12.25-9.57c0,3.91,0,12.31-1.25,15.64-.77,2-2.16,2.38-5.09,2.33a5.69,5.69,0,0,0-.87-2.23,12.49,12.49,0,0,0,2,.19c1.68,0,2.38-.45,2.93-5.3a72.41,72.41,0,0,0,.29-8.81h-6.31a26.27,26.27,0,0,1-2,3.07,6.44,6.44,0,0,0-1.7-1.08,21.86,21.86,0,0,0,4.12-7.92l1.8.6c.34.12.53.29.53.41s-.19.29-.74.38c-.34.84-.7,1.8-1.13,2.72Zm-7.3,4.92a33.74,33.74,0,0,1,2.78,5.4,11.54,11.54,0,0,0-1.75.86,38.32,38.32,0,0,0-2.71-5.52Z"/><path class="cls-4" d="M292.79,226.12c0-16.33,22.42-18.67,22.42-29.42,0-4.54-3.44-7.59-8.23-7.59a10.47,10.47,0,0,0-8.1,4.22c-.91,1-1.95,1.36-3.05.45l-1.16-.91c-1.11-.84-1.37-1.81-.59-2.91a16.1,16.1,0,0,1,13.35-6.87c8.36,0,14.45,5.25,14.45,13.15,0,15-21.9,17.37-22.1,27.8h20.68a1.92,1.92,0,0,1,2.14,2.14v1.3a1.92,1.92,0,0,1-2.14,2.14H295.05a2,2,0,0,1-2.26-2.14Z"/><path class="cls-4" d="M330.5,206.68c0-13.16,4-23.59,16.2-23.59s16.2,10.43,16.2,23.59-3.95,23.71-16.2,23.71S330.5,219.9,330.5,206.68Zm25.79,0c0-9.92-2.07-17.7-9.59-17.7s-9.59,7.78-9.59,17.7,2.14,17.82,9.59,17.82S356.29,216.66,356.29,206.68Z"/><path class="cls-4" d="M388.6,226.1a4.85,4.85,0,0,0-.75-2.3A12.89,12.89,0,0,0,390,224c1.44,0,1.73-.26,1.73-1.68V216.5H376.6v9.67h-2.09V205.34h19.25v17.31C393.76,225.24,393.18,226.27,388.6,226.1Zm-5.5-18.84h-6.5v7.34h6.5Zm8.62,0h-6.6v7.34h6.6Z"/><path class="cls-4" d="M267.21,317.93c0-16.33,22.42-18.66,22.42-29.42,0-4.54-3.44-7.58-8.23-7.58a10.47,10.47,0,0,0-8.1,4.21c-.91,1-1.95,1.36-3.05.45l-1.17-.9c-1.1-.85-1.36-1.82-.58-2.92a16.12,16.12,0,0,1,13.35-6.87c8.36,0,14.45,5.25,14.45,13.16,0,15-21.9,17.36-22.1,27.8h20.68A1.91,1.91,0,0,1,297,318v1.29a1.91,1.91,0,0,1-2.13,2.14H269.47a2,2,0,0,1-2.26-2.14Z"/><path class="cls-4" d="M303,307v-.38a4.15,4.15,0,0,1,.85-2.66l19.44-27a2.77,2.77,0,0,1,2.53-1.36h3.56a1.92,1.92,0,0,1,2.14,2.14v25.92h4.08a2,2,0,0,1,2.14,2.14V307c0,1.43-.65,2.14-1.82,2.14h-4.4v10.11a1.92,1.92,0,0,1-2.14,2.14h-2.07a1.91,1.91,0,0,1-2.14-2.14V309.18h-20A1.92,1.92,0,0,1,303,307Zm22.17-3.3V287.08a40.2,40.2,0,0,1,.32-4.53h-.13a34.64,34.64,0,0,1-2.27,3.76l-13,17.3v.13Z"/><path class="cls-4" d="M351.06,315.1v-1.18H347.9v2.14h-1.83V299.31h6.82V315.1Zm0-14.09H347.9v4.56h3.16Zm0,6.29H347.9v4.92h3.16Zm11.6-.75,1.63.22c.14,0,.34.1.34.24s-.41.38-.53.43v2h2.95v1.78H364.1v5.08c0,1.64-.15,3-4.51,2.81a4.32,4.32,0,0,0-.7-2.16,10.43,10.43,0,0,0,1.78.15c1.24,0,1.41-.19,1.41-1.3v-4.58h-7.94v-1.78h7.94v-2.86H353.7v-1.8h5.55V302h-4.87v-1.8h4.87v-3.1l2.14.12c.14,0,.5.1.5.31s-.19.29-.62.39v2.28h5.18V302h-5.18v2.73h6.09v1.8Zm-5,9.89a23.06,23.06,0,0,0-2.93-3.72l1.47-1.2a23.76,23.76,0,0,1,3.05,3.63A9.56,9.56,0,0,0,357.64,316.44Z"/><path class="cls-4" d="M373.5,305.26V319h-1.92V297.55h8.6v7.71Zm4.76-6.24H373.5v1.61h4.76Zm0,3H373.5v1.78h4.76Zm.28,13.49v1.15h-1.82v-9.4H386v8.25Zm5.6-6.69h-5.6v1.8h5.6Zm0,3.26h-5.6v1.87h5.6Zm2.88,7.06a5.47,5.47,0,0,0-.82-2.21,8.38,8.38,0,0,0,1.75.19c1.25,0,1.37-.31,1.37-1.63V305.28h-6.65v-7.7h8.57v18.09C391.24,317.83,391.12,319.32,387,319.11ZM389.3,299h-4.71v1.63h4.71Zm0,3h-4.71v1.75h4.71Z"/></g></g></g></svg>