<svg xmlns="http://www.w3.org/2000/svg" xmlns:xlink="http://www.w3.org/1999/xlink" width="904.83" height="452.66" viewBox="0 0 904.83 452.66"><defs><style>.cls-1{fill:url(#名称未設定グラデーション_41);}.cls-2{fill:#d1d1d1;}.cls-13,.cls-3,.cls-6{fill:none;}.cls-3{stroke:#000;stroke-linecap:round;stroke-linejoin:round;stroke-width:2px;}.cls-4{fill:#f6f6f6;}.cls-5{fill:#fff;}.cls-6{stroke:#e5e5e5;stroke-miterlimit:10;}.cls-7{fill:#6a6a6a;}.cls-8{fill:#777;}.cls-9{fill:#7d7b7c;}.cls-10{fill:#17ba8f;}.cls-11{fill-rule:evenodd;}.cls-12{fill:#a0a8aa;}</style><linearGradient id="名称未設定グラデーション_41" x1="133.24" y1="213.23" x2="781.83" y2="213.23" gradientUnits="userSpaceOnUse"><stop offset="0" stop-color="#97e297"/><stop offset="1" stop-color="#54e2b3"/></linearGradient></defs><title>feature4</title><g id="レイヤー_2" data-name="レイヤー 2"><g id="レイヤー_1のコピー" data-name="レイヤー 1のコピー"><path class="cls-1" d="M159.9,22.71H755.18a26.65,26.65,0,0,1,26.65,26.65V403.74a0,0,0,0,1,0,0H133.24a0,0,0,0,1,0,0V49.37A26.65,26.65,0,0,1,159.9,22.71Z"/><path class="cls-2" d="M840.12,434.33H76.8c-9.82,0-12.95-7.12-12-12.95H851.22C851.22,427.21,846.56,434.33,840.12,434.33Z"/><line class="cls-3" x1="522" y1="404.14" x2="396" y2="404.14"/><line class="cls-3" x1="780.91" y1="50.36" x2="780.91" y2="398.25"/><path class="cls-3" d="M754.82,16.59a25.62,25.62,0,0,1,25.62,25.62"/><path class="cls-3" d="M157.3,16.59a25.62,25.62,0,0,0-25.62,25.62"/><line class="cls-3" x1="163.78" y1="17.05" x2="744.82" y2="17.05"/><line class="cls-3" x1="132.32" y1="398.25" x2="132.32" y2="49.44"/><polyline class="cls-3" points="63 405.14 390.13 405.14 390.77 411.61"/><path class="cls-3" d="M88.83,423.23H63.74c1.16,9.26,9,12.95,18.36,12.95H832.34c9.92,0,17.66-4,18.89-13.87H835.5"/><polyline class="cls-3" points="531 405.14 854 405.14 854 419.14"/><polyline class="cls-3" points="390 416.14 524.97 416.14 525.94 405.03"/><rect class="cls-4" x="153.14" y="47.87" width="144.89" height="330.1"/><rect class="cls-4" x="291.41" y="48.07" width="465.44" height="59.9"/><rect class="cls-5" x="298.18" y="48.7" width="459.6" height="327.23"/><line class="cls-6" x1="298.4" y1="47.59" x2="298.4" y2="376.04"/><line class="cls-6" x1="153.6" y1="106.34" x2="757.78" y2="106.34"/><line class="cls-6" x1="297.93" y1="135.95" x2="757.78" y2="135.95"/><polygon class="cls-7" points="178.91 207.58 179.7 208.94 177.24 211.96 174.31 210.52 170.54 213.85 171.41 214.94 174.48 212.23 177.51 214.11 180.84 209.68 182.06 210.74 182.46 207.32 178.91 207.58"/><path class="cls-7" d="M173.52,179.88c.92-.79,3.42-.59,3.77-.61a9,9,0,0,1,.57,1l1-1.4-2.5-1.71s.27.83.4,1.18c-.35,0-2.72-.7-4.43.79a4.52,4.52,0,0,0-1.27,4.73c.31,1.19,1.62.92,1.45.35C172.07,182.16,171.4,181.69,173.52,179.88Z"/><path class="cls-7" d="M179,185.31c-1,1-3.16,1-3.42,1.06-.06.1-.92-.88-.92-.88l-1,1.84,2.94,1.23-.53-1.19s3.18-.22,4.12-1.35a4.73,4.73,0,0,0,.92-4.34c-.39-.62-1.32-.38-1,.48A3.42,3.42,0,0,1,179,185.31Z"/><path class="cls-7" d="M179.7,238.35c0-.73-1.55-3.42-3.85-3.42s-4.24,1.15-4.14,3.62c-1.48-.23-2.67,2-3.19,2.69-.76,1-.56,4.21,4.08,4.21h9.07c.73,0,1.67-.49,1.64-1.22C184.2,239.5,180.91,238.35,179.7,238.35Zm-3.88,5.39c0-.08-3.26-2.46-3.26-2.46l1.09,0,0-2.1h4.18v2.07l1.38,0S176.42,243.38,175.82,243.74Z"/><path class="cls-7" d="M179.37,122.7s.29-2-.4-2.56a3.8,3.8,0,0,0-2.69-.92c-.86,0-2.4.16-3,1a4.13,4.13,0,0,0-.3,2.5Z"/><rect class="cls-7" x="170.49" y="123.42" width="2.1" height="6.31"/><path class="cls-7" d="M182.06,130.79l.65-6.07C182.14,126.71,182.31,128.77,182.06,130.79Z"/><path class="cls-7" d="M182.06,124.48v-1.06H180v6.32h2.1Z"/><path class="cls-7" d="M173.65,123.42v8.42c0,1.61,2.1,1.22,2.1.13s0-2.2,0-2.2h1s0,1.51,0,2.1c0,1.09,2,1.15,2,0s0-8.49,0-8.49Z"/><path class="cls-7" d="M181,148.67h-9.47c-.29.12-.84.24-.85.36,0,3.38,0,6.76,0,10.08,1-.13,1.06-1.17,1.94-1H180c.8-.16,2,.52,2.1-1v-8.42Zm-1.18,3.22h-6.51l-.06-1h6.66Zm0,2h-6.51l-.06-1h6.66Zm0,2.1h-6.51l-.06-1,6.66,0Z"/><path class="cls-8" d="M325.52,76a15.24,15.24,0,0,1-5.15-3.69,14.59,14.59,0,0,1-5,3.72,3.27,3.27,0,0,0-.79-.81A11.42,11.42,0,0,0,320,71l1.15.21c.06,0,.21.07.21.16s-.12.15-.36.2a12.74,12.74,0,0,0,5.22,3.47A3.65,3.65,0,0,0,325.52,76Zm-5.42,2.38a.18.18,0,0,1,.07.13c0,.16-.22.18-.38.19-.23.41-.72,1.3-1.37,2.28,2.17-.2,2.41-.23,4.5-.51a16,16,0,0,0-1.3-1.31l.76-.62a21.42,21.42,0,0,1,3,3.39,4.22,4.22,0,0,0-.79.72,12,12,0,0,0-1-1.42c-.87.17-3.47.5-3.57.52l-3.88.42c0,.15-.08.29-.25.29s-.16-.17-.17-.24l-.25-1,1.79-.11a18.17,18.17,0,0,0,1.52-2.7h-3.41v-1h10.28v1Zm-2.9-2.12v-.93h6.35v.93Z"/><path class="cls-8" d="M333.07,73.31v.83h-4.82v-.83Zm-.45,5v4h-.91v-.61h-2.07v.78h-1V78.3ZM332.47,75v.81h-3.66V75Zm0,1.65v.82h-3.66v-.82Zm0-5v.82h-3.64v-.82Zm-2.82,7.46v1.7h2.07v-1.7Zm7.16-4.49h2.91v.88H336.8v2H339v4.94h-1v-.83h-3.38v.84h-1v-5h2.2v-2h-2.93v-.88h2.93V72.81a18.52,18.52,0,0,1-2.46.19,2.23,2.23,0,0,0-.34-.91,14,14,0,0,0,5.6-1l.68.78a.25.25,0,0,1,.07.17.11.11,0,0,1-.12.11.49.49,0,0,1-.29-.14,15,15,0,0,1-2.15.59Zm1.2,6.11V78.39h-3.38v2.36Z"/><path class="cls-8" d="M348.33,82l-.64,0a3.85,3.85,0,0,0-.29-1.18,5,5,0,0,0,1.25.15,1.45,1.45,0,0,0,1.69-1.17,20.63,20.63,0,0,0,.49-4.95h-3.07a8.78,8.78,0,0,1-4.82,7.27,2.57,2.57,0,0,0-.76-.82,8,8,0,0,0,3.19-2.65,7.74,7.74,0,0,0,1.28-3.8h-4.17v-1h4.24a16.62,16.62,0,0,0-.06-2.45l1.24.12c.18,0,.26,0,.26.16s-.07.16-.26.21c0,1.12,0,1.59-.07,2H352C351.8,80.94,351.39,82,348.33,82Z"/><path class="cls-8" d="M355.18,77.36V76.27h10.55v1.09Z"/><path class="cls-8" d="M376.08,78.76a17.59,17.59,0,0,0-4.59-3.15v6.52h-1.11V71.41l1.13.09c.16,0,.23,0,.23.15s-.16.17-.25.18v3.53l.49-.67a20.06,20.06,0,0,1,4.75,3.16A5.46,5.46,0,0,0,376.08,78.76Zm.06-4.2a6.62,6.62,0,0,0-1.3-1.29l.61-.5A11.08,11.08,0,0,1,376.78,74,6.76,6.76,0,0,0,376.14,74.56Zm1.08-1a8.79,8.79,0,0,0-1.33-1.23l.58-.49a9.11,9.11,0,0,1,1.31,1.19A2.57,2.57,0,0,0,377.22,73.59Z"/><path class="cls-9" d="M318.81,118.48l-1.29,0c0,.51,0,1,0,1.25a2.66,2.66,0,0,1,.28,1.2,3.12,3.12,0,0,1-.66,1.87,3.61,3.61,0,0,1-1.22.94,6.89,6.89,0,0,0-.56-.46,2.49,2.49,0,0,0,1.71-1.65,1.15,1.15,0,0,1-.87.41c-.65,0-1-.56-1-1.36a1.27,1.27,0,0,1,1.18-1.42,1,1,0,0,1,.54.15c0-.14,0-.68,0-.9-.84,0-2.34.16-3.16.3l-.06-.7c.51,0,2.75-.13,3.2-.15a7.33,7.33,0,0,0-.1-1.07l.73.07c.1,0,.18,0,.18.1s-.09.09-.14.11c0,.21,0,.27,0,.76,2.16-.1,2.4-.1,2.59-.12a5.14,5.14,0,0,0,0,.67Zm-2.43,1.33c-.49,0-.66.49-.66.9,0,.17,0,.84.6.84.43,0,.75-.41.75-1A.73.73,0,0,0,316.38,119.81Z"/><path class="cls-9" d="M327.29,122.65a22.41,22.41,0,0,1-3.15-3.28c-.33-.4-.44-.48-.61-.48s-.35.15-.67.57a15.13,15.13,0,0,1-1.63,2l-.53-.53a11.81,11.81,0,0,0,2-2.27c.31-.4.56-.49.79-.49.46,0,.7.29,1.15.86a17.5,17.5,0,0,0,3.06,3A6.89,6.89,0,0,0,327.29,122.65ZM326.5,119a6,6,0,0,0-.76-.75l.34-.29a8.11,8.11,0,0,1,.78.73A1.79,1.79,0,0,0,326.5,119Zm.67-.54a4.71,4.71,0,0,0-.77-.78l.35-.28a7.4,7.4,0,0,1,.78.74A1.38,1.38,0,0,0,327.17,118.43Z"/><path class="cls-9" d="M333.56,118.62A3.26,3.26,0,0,0,332,121c0,.94.72,1.7,2.29,1.87a3.44,3.44,0,0,0-.28.69c-1.35-.27-2.65-1-2.65-2.55a3.42,3.42,0,0,1,2-2.86c-.19,0-3.38.35-4,.5l-.11-.8.38,0a41.42,41.42,0,0,0,5.81-.65l.15.73A3.33,3.33,0,0,0,333.56,118.62Z"/><path class="cls-9" d="M371.11,122.56a5.3,5.3,0,0,1-2-1.69h-1.27l.54,0c.09,0,.17,0,.17.11s-.14.12-.24.14v.45h1.42v.49h-1.42v.77h2.8v.51h-6.15v-.51h2.75v-.77h-1.34v-.49h1.34v-.74h-.83a4.79,4.79,0,0,1-2,1.72,2.52,2.52,0,0,0-.47-.45,4.19,4.19,0,0,0,1.84-1.27h-1.63v-.49h1.57v-2.44h-1.38v-.49h1.38v-.59l.67,0c.05,0,.15,0,.15.09s-.1.12-.23.16v.3h2.38v-.6l.6,0c.08,0,.19,0,.19.08s-.06.11-.2.15v.34h1.41v.49h-1.41v2.44h1.64v.49h-1.65a4.6,4.6,0,0,0,1.78,1.2A1.2,1.2,0,0,0,371.11,122.56Zm-1.94-4.62h-2.38v.51h2.38Zm0,.94h-2.38v.53h2.38Zm0,1h-2.38v.54h2.38Z"/><path class="cls-9" d="M376.68,121.81H378v.56h-1.28v1.28h-.61v-1.28h-1.25v-.56h1.25v-2.42a10.49,10.49,0,0,1-2.67,3.46,1.6,1.6,0,0,0-.54-.43,9.62,9.62,0,0,0,2.95-3.49H373v-.53h3.07v-1.53l.6,0c.11,0,.19,0,.19.1s-.07.08-.18.13v1.25h3.09v.53H377a9.45,9.45,0,0,0,2.93,3.39,1.65,1.65,0,0,0-.5.48,9.54,9.54,0,0,1-2.7-3.37Z"/><path class="cls-9" d="M382.09,118.51a6.67,6.67,0,0,1-.44,1.79,2,2,0,0,0-.53-.23,5.82,5.82,0,0,0,.48-1.87l.46.1c.1,0,.17,0,.17.11S382.14,118.5,382.09,118.51Zm1.42.72a6.6,6.6,0,0,0-.55-.83v5.25h-.6v-6.74l.62,0s.18,0,.18.09-.1.1-.2.13v1l.28-.2a6.35,6.35,0,0,1,.7.87A1.93,1.93,0,0,0,383.51,119.23Zm0,.47v-.43h1.93v-.49h-1.38v-.4h1.38v-.48h-1.72v-.44h1.72v-.59l.59,0c.09,0,.18,0,.18.1s-.06.08-.18.12v.33h1.82v.44H386v.48h1.46v.4H386v.49h2v.43Zm2.77,3.94a1.53,1.53,0,0,0-.23-.59,2.47,2.47,0,0,0,.47,0c.4,0,.4-.12.4-.39v-.33h-2.29v1.28H384v-3.5h3.47v2.57C387.51,123.43,387.38,123.62,386.28,123.64Zm.64-3.06h-2.29v.48h2.29Zm0,.9h-2.29V122h2.29Z"/><path class="cls-9" d="M392,119.34l.53.12c.06,0,.12,0,.12.1s-.09.09-.19.09a5.25,5.25,0,0,1-.37.75h.81v.51h-1.3v.74h1.23v.51H391.6v1.49H391v-1.49h-1.29v-.51H391v-.74h-1.36v-.51h.83a3.27,3.27,0,0,0-.41-.89l.51-.16a6.12,6.12,0,0,1,.42,1l-.4.09h.92a5,5,0,0,0,.44-1.06h-2.44v-.51H391v-.71h-1.12v-.49H391v-.77l.58,0c.07,0,.16,0,.16.09s-.09.11-.18.14v.5h1.16v.49H391.6v.71H393v.51Zm3.9,4.23a7.05,7.05,0,0,1-.87-.82,5.09,5.09,0,0,1-.77.88,1.71,1.71,0,0,0-.44-.4,4.63,4.63,0,0,0,.85-.94,5.8,5.8,0,0,1-.8-1.58l.44-.23a6.7,6.7,0,0,0,.66,1.33,4.59,4.59,0,0,0,.48-1.47h-1.66v3.3h-.58V117.1H396c0,.3,0,1.43,0,1.65,0,.5-.24.71-1.3.72a1.69,1.69,0,0,0-.23-.62,2.3,2.3,0,0,0,.47,0c.47,0,.48-.14.48-.31v-1h-1.61v2.17h2l.28.29a6.84,6.84,0,0,1-.77,2.19,4.34,4.34,0,0,0,1,.87A2.52,2.52,0,0,0,395.9,123.57Z"/><path class="cls-9" d="M427.14,120.85a4.83,4.83,0,0,0,1.18,1.12,1.82,1.82,0,0,0-.36.48,7.53,7.53,0,0,1-.86-1v2.24h-.52v-2.24a8.64,8.64,0,0,1-1.06,1.63,2.11,2.11,0,0,0-.46-.38,6.31,6.31,0,0,0,1.39-1.81h-1.24v-.5h1.37v-.93l.48.06c.15,0,.22,0,.22.11s0,.09-.18.11v.65h1.14v.5Zm-.27-3.95c.06,0,.15,0,.15.11s-.09.1-.18.13c0,.29,0,.41,0,.52h1l-.11,1.08c0,.21,0,.21.13.21s.18,0,.21-.16.06-.44.07-.52a.94.94,0,0,0,.41.26c-.18,1-.4,1-.54,1h-.35c-.37,0-.5-.18-.46-.49l.09-.85h-.51a3.13,3.13,0,0,1-1.18,1.77,1.37,1.37,0,0,0-.44-.37,2.47,2.47,0,0,0,1.06-1.4h-.89v-.5h1a4.38,4.38,0,0,0,0-.81Zm4.76,2.91v.48h-.91v.92h.92v.48h-.92v1H432v.51H429.3v.44h-.56v-4a4.27,4.27,0,0,1-.39.57,1.37,1.37,0,0,0-.45-.29,6.16,6.16,0,0,0,1.33-3l.58.15s.13,0,.13.11-.08.09-.19.1a11.51,11.51,0,0,1-.38,1.11h.72a7.79,7.79,0,0,0,.56-1.48l.59.19c.09,0,.14.08.14.12s-.12.08-.23.08a8.14,8.14,0,0,1-.47,1.09h1.17v.49h-1.13v.94Zm-1.45,0v-.94h-.88v.94Zm-.88.48v.92h.88v-.92Zm0,2.41h.88v-1h-.88Z"/><path class="cls-9" d="M433.49,118.67v-.48H436v.48Zm1.79,4.87v-.36h-1v.48h-.54v-2.47h2.07v2.35Zm-1.44-5.88v-.46h1.87v.46Zm0,2v-.46h1.86v.46Zm0,1v-.45h1.86v.45Zm1.44,1h-1v1h1Zm4.57-1.29a3.7,3.7,0,0,1-1.85-1.6,2.92,2.92,0,0,1-1.77,1.55,1.48,1.48,0,0,0-.36-.48,2.12,2.12,0,0,0,1.75-2.42c0-.22,0-.36,0-.56l.65,0c.08,0,.14,0,.14.08s-.05.08-.2.13a8.14,8.14,0,0,1,0,.85,3,3,0,0,0,2.09,1.93A1.63,1.63,0,0,0,439.85,120.38Zm0,3.26a4.21,4.21,0,0,1-1.79-1.79,3.31,3.31,0,0,1-1.75,1.8,1.84,1.84,0,0,0-.41-.5c1.78-.76,1.77-1.67,1.75-3.17l.62,0s.13,0,.13.08-.06.08-.17.12,0,.64,0,.71a2.64,2.64,0,0,0,.42,1,4.54,4.54,0,0,0,1.59,1.23A1.52,1.52,0,0,0,439.82,123.64Zm-2.69-2.87a4.51,4.51,0,0,1-.37,1.22,1.29,1.29,0,0,0-.56-.16,4.56,4.56,0,0,0,.43-1.38l.58.12c.08,0,.12,0,.12.08S437.2,120.77,437.13,120.77Zm0-3.15a6.24,6.24,0,0,1-.33,1.14,1.33,1.33,0,0,0-.54-.15,5,5,0,0,0,.37-1.33l.57.13c.06,0,.12,0,.12.11S437.27,117.6,437.14,117.62Zm2.68.06s-.09,0-.11,0a7.93,7.93,0,0,1-.64,1,2.2,2.2,0,0,0-.46-.34,4,4,0,0,0,.7-1.08l.56.3s.07.06.07.1S439.88,117.68,439.82,117.68Zm-.13,3.2a5.36,5.36,0,0,1-.53.89,1.68,1.68,0,0,0-.48-.27,4.81,4.81,0,0,0,.6-1.08l.51.25s.11.06.11.13S439.76,120.88,439.69,120.88Z"/><path class="cls-9" d="M474.1,119.26v.19a3.79,3.79,0,0,1-2.59,4.06A1.83,1.83,0,0,0,471,123c2.41-.84,2.41-2.37,2.41-3.74h-2v1.93h-.65v-1.93H469.3v-.62h1.48v-1.57l.61.05c.09,0,.18,0,.18.09s-.06.07-.14.11v1.32h2V117l.66,0c.07,0,.15,0,.15.08s-.07.09-.15.12v1.36h1.47v.62Z"/><path class="cls-9" d="M477.14,120.6V120h6.27v.65Z"/><path class="cls-9" d="M490.83,123.13l-2.73.05c-1.62,0-2.34,0-2.34-1.41v-4.7l.7.05c.06,0,.14,0,.14.09s-.09.11-.18.14v2.38a8.94,8.94,0,0,0,3.66-1.46l.55.44a.12.12,0,0,1,.05.1c0,.08-.13.08-.17.08l-.12,0a10.92,10.92,0,0,1-4,1.45v1.32c0,.85.16,1,1.59,1a28.08,28.08,0,0,0,2.91-.13C490.88,122.66,490.87,122.79,490.83,123.13Zm-.23-4.88a4.28,4.28,0,0,0-.74-.77l.36-.29a5.82,5.82,0,0,1,.73.75A2.51,2.51,0,0,0,490.6,118.25Zm.61-.48a3.4,3.4,0,0,0-.75-.79l.36-.28a5,5,0,0,1,.76.76A2.07,2.07,0,0,0,491.21,117.77Z"/><path class="cls-9" d="M498.81,123.21a9.76,9.76,0,0,0-2.31-2.4,8.24,8.24,0,0,1-3.18,2.49,1.49,1.49,0,0,0-.41-.57,6.92,6.92,0,0,0,4.24-4.59h-3.6v-.6h3.71a2.92,2.92,0,0,0,.5-.05l.36.34a1.78,1.78,0,0,0-.27.48,11.59,11.59,0,0,1-1,2,13,13,0,0,1,2.5,2.35A3.26,3.26,0,0,0,498.81,123.21Z"/><path class="cls-9" d="M502.88,121.26a13.49,13.49,0,0,1-.5-1.3v3.67h-.53v-3.34a9.38,9.38,0,0,1-.73,2.06,1.63,1.63,0,0,0-.48-.36,8.45,8.45,0,0,0,1.19-3H501v-.53h.9v-1.54l.53,0c.08,0,.18,0,.18.09s0,.08-.18.14v1.26h.67v.53h-.67v.2a7.07,7.07,0,0,0,.9,1.67A2.81,2.81,0,0,0,502.88,121.26Zm4.15,2.18h-.22c-.48,0-.48-.24-.48-.6v-1.2a6.78,6.78,0,0,1-1.64,2,1.65,1.65,0,0,0-.48-.39,5.66,5.66,0,0,0,1.21-1.21,1.83,1.83,0,0,0-.48.31c-.08-.26-.13-.4-.17-.51a12,12,0,0,1-1.46,1c0,.16,0,.21-.12.21s-.1-.08-.11-.12l-.22-.55a4.79,4.79,0,0,0,.47-.22v-5.1h1.72v3h-1.23v1.83c.35-.21.6-.39.77-.5-.1-.24-.19-.43-.28-.61l.43-.26a11.68,11.68,0,0,1,.69,1.51,5.69,5.69,0,0,0,.9-1.79h-1.06v-.53h.33v-2.14h-.31v-.52h2.28v.52h-.45a13.5,13.5,0,0,1-.14,2.14h.63v.53h-.75c-.05.19-.09.3-.13.43.25,0,.27,0,.27.11s-.08.11-.18.13v1.8c0,.11,0,.15.15.15s.17,0,.23-.28a5.35,5.35,0,0,0,.09-.65,1.9,1.9,0,0,0,.44.32C507.61,123,507.54,123.44,507,123.44Zm-2.46-5.84h-.75v.78h.75Zm0,1.23h-.75v.8h.75Zm1.51-1.21v2.14h.37a13,13,0,0,0,.15-2.14Z"/><path class="cls-9" d="M510.76,122.33a2.75,2.75,0,0,0-.55-.27,8.78,8.78,0,0,0,.92-.84h-2v-.51h2.4c.22-.28.35-.45.46-.61H509.9v-1.85h1.55v-.57h-2.29v-.5h6.73v.5H513.6v.57h1.6v1.85h-2.41a.06.06,0,0,1,.05.06c0,.09-.17.11-.25.12l-.31.43h3.61v.51h-1.62c.06,0,.11,0,.11.08s-.13.1-.22.11a3.44,3.44,0,0,1-.74.86,13.07,13.07,0,0,1,2.13.88,1.6,1.6,0,0,0-.41.51,11.07,11.07,0,0,0-2.24-1,8,8,0,0,1-3.25,1,1.12,1.12,0,0,0-.34-.57,7,7,0,0,0,2.92-.63c-.65-.18-.93-.24-1.26-.32A1.39,1.39,0,0,1,510.76,122.33Zm.69-3.6h-1v.89h1Zm.4,2.49c-.1.11-.3.33-.52.53.51.1.89.18,1.47.34a3.49,3.49,0,0,0,.82-.87Zm1.16-3.54h-1v.57h1Zm-1,1.94h1v-.89h-1Zm1.58,0h1v-.89h-1Z"/><path class="cls-9" d="M545.82,122.25a6.13,6.13,0,0,1-.63,1.36,1.21,1.21,0,0,0-.53-.22,5.14,5.14,0,0,0,.74-1.54l.5.2c.06,0,.12,0,.12.11S545.87,122.25,545.82,122.25Zm-.77-.48v-4.62h2v4.62Zm1.47-4.11h-.94v.88h.94Zm0,1.35h-.94v.86h.94Zm0,1.34h-.94v.92h.94Zm.25,3.08a6.88,6.88,0,0,1-.56-1.3l.43-.21a6,6,0,0,0,.6,1.23A2.42,2.42,0,0,0,546.77,123.43Zm4.16-1v.5c0,.5-.15.74-1.2.7a1.61,1.61,0,0,0-.17-.56,2.84,2.84,0,0,0,.51.05c.3,0,.32-.11.32-.33v-.36h-2.33v1.22h-.53v-1.22h-.47V122h.47v-1.78H549v-.42h-1.78v-.44h1v-.53h-.77v-.41h.77v-.48h-.92v-.44h.92v-.59l.59,0a.1.1,0,0,1,.09.08c0,.08-.09.11-.14.13v.34h1v-.61l.59.05s.11,0,.11.08,0,.1-.16.13v.35h1.13v.44h-1.13v.48H551v.41h-.78v.53h1.23v.44h-2v.42h1.47V122h.6v.44Zm-2-1.8h-.89v.49H549Zm0,.86h-.89v.5H549Zm.75-3.56h-1v.48h1Zm0,.89h-1v.53h1Zm.69,1.81h-.93v.49h.93Zm0,.86h-.93v.5h.93Z"/><path class="cls-9" d="M559.27,123.68a8.23,8.23,0,0,1-2.09-2.05,4.87,4.87,0,0,1-.91-2.46,6.91,6.91,0,0,1-3,4.51,1.86,1.86,0,0,0-.5-.47,6.23,6.23,0,0,0,3-4.74l.45.11c0-.31,0-.52,0-.84H554.6v-.59h2.21a9.75,9.75,0,0,0,.21,2.7,6.23,6.23,0,0,0,2.75,3.32A1.87,1.87,0,0,0,559.27,123.68Z"/><path class="cls-9" d="M563,121.21c-.11-.19-.34-.67-.59-1.2v3.66h-.53v-3.6A11,11,0,0,1,561,122a1.86,1.86,0,0,0-.45-.45,7.61,7.61,0,0,0,1.24-2.78h-1.06v-.51h1.1v-1.39l.53,0c.06,0,.18,0,.18.1s0,.07-.18.13v1.13h.92v.51h-.92v.37a4.45,4.45,0,0,0,1,1.6A1.85,1.85,0,0,0,563,121.21Zm4.41-1.89a6.17,6.17,0,0,1-.81-.57v.42h-.85v.57h1.52v1.89h-1.45a3.5,3.5,0,0,0,1.82,1.49,1.09,1.09,0,0,0-.38.51,4.06,4.06,0,0,1-1.84-1.73,4.2,4.2,0,0,1-2,1.75,1.41,1.41,0,0,0-.4-.5,3.08,3.08,0,0,0,2-1.52h-1.31v-1.89h1.52v-.57h-.76v-.41a4,4,0,0,1-.73.65,1.36,1.36,0,0,0-.49-.38,5.69,5.69,0,0,0,2-2.24l.58.17c.08,0,.16.05.16.11s-.08.08-.22.11a5.76,5.76,0,0,0,2,1.67A1.22,1.22,0,0,0,567.37,119.32Zm-3.17.93v.88h.89a4.5,4.5,0,0,0,.06-.88Zm1.22-2.71a9.21,9.21,0,0,1-.93,1.12h2A4.89,4.89,0,0,1,565.42,117.54Zm1.24,2.71h-.95a4.93,4.93,0,0,1-.06.88h1Z"/><path class="cls-9" d="M569.16,118.67v-.48h3.19v.48Zm2.31,4.86v-.35H570v.46h-.57v-2.48H572v2.37Zm-2-5.86v-.49h2.42v.49Zm0,2v-.48h2.41v.48Zm0,1v-.49h2.41v.49Zm2,1H570v1h1.46Zm3.56-2.4v3.61c0,.77-.5.77-1.39.77a1.37,1.37,0,0,0-.27-.66,3.08,3.08,0,0,0,.64.07c.4,0,.4-.12.4-.35v-3.44h-2.19v-.57h2.19v-1.81l.68,0c.06,0,.14,0,.14.1s-.06.11-.2.15v1.53h.91v.57Zm-1.86,2.5a7.92,7.92,0,0,0-.76-1.65l.53-.28a8.83,8.83,0,0,1,.79,1.64A3,3,0,0,0,573.17,121.76Z"/><path class="cls-9" d="M607.87,118.66a9.16,9.16,0,0,1-.83,2.43,13.61,13.61,0,0,1,1,1.74,2.43,2.43,0,0,0-.59.31,12.57,12.57,0,0,0-.68-1.46,8.3,8.3,0,0,1-1.64,1.92,1.4,1.4,0,0,0-.52-.39,7.12,7.12,0,0,0,1.79-2.08,11,11,0,0,0-1.36-1.7l.47-.34a11.72,11.72,0,0,1,1.19,1.45,8.05,8.05,0,0,0,.63-1.88h-2.56v-.55h1.57v-1.27l.64,0s.18,0,.18.1-.09.09-.18.12v1h1.51v.55Zm.89,3.17a5.81,5.81,0,0,0-.77-1.45l.51-.3a7.39,7.39,0,0,1,.83,1.45A3.46,3.46,0,0,0,608.76,121.83Zm1.92-2.4v3.15c0,1-.36,1-1.4,1a1.55,1.55,0,0,0-.25-.7,4.51,4.51,0,0,0,.64.06c.38,0,.39-.13.39-.54v-3H608.2v-.56h1.86v-2l.62,0c.11,0,.17,0,.17.1s0,.07-.17.12v1.74h.88v.56Z"/><path class="cls-9" d="M615.89,118.19v.49H613v-.49Zm-.27,3v2.38h-.54v-.36h-1.24v.46h-.58v-2.48Zm-.09-2v.48h-2.18v-.48Zm0,1v.49h-2.18v-.49Zm0-3v.49h-2.16v-.49Zm-1.68,4.44v1h1.24v-1ZM618.1,119h1.74v.53H618.1v1.18h1.32v2.94h-.6v-.49h-2v.5h-.6v-3h1.31v-1.18h-1.74V119h1.74v-1.09a10.36,10.36,0,0,1-1.46.11,1.48,1.48,0,0,0-.21-.54,8.18,8.18,0,0,0,3.33-.57l.41.46a.17.17,0,0,1,0,.11s0,.06-.07.06a.27.27,0,0,1-.17-.08,9.56,9.56,0,0,1-1.29.35Zm.72,3.64v-1.41h-2v1.41Z"/><path class="cls-9" d="M621.87,118.53a8.23,8.23,0,0,0-.6-1.18l.49-.23a7.94,7.94,0,0,1,.61,1.18A3,3,0,0,0,621.87,118.53Zm1.61,3.86v1.24h-.54v-1.24h-1.6v-.51h1.6v-.51h-1.27v-2.81h1.89a8.62,8.62,0,0,0,.84-1.66l.54.23s.11.05.11.11-.1.09-.2.09a6.69,6.69,0,0,1-.68,1.23h.58v2.81h-1.27v.51h1.61v.51Zm-.54-3.35h-.73v.72h.73Zm0,1.14h-.73v.73h.73Zm0-1.74a7.7,7.7,0,0,0-.53-1.26l.51-.2a9.6,9.6,0,0,1,.54,1.25A3.33,3.33,0,0,0,623,118.44Zm1.26.6h-.74v.72h.74Zm0,1.14h-.74v.73h.74Zm3.13,3.43c-.41,0-.87-.77-1.09-1.29a7,7,0,0,1-1.26,1.16,1.71,1.71,0,0,0-.45-.41,5.66,5.66,0,0,0,1.5-1.35,10.94,10.94,0,0,1-.4-2.13l-.73.12-.09-.55.78-.12c-.06-.72-.07-1.44-.06-2.17l.6,0c.06,0,.17,0,.17.1s-.07.08-.18.12c0,.53,0,1.28,0,1.82l1.74-.28.08.55-1.79.29a10.2,10.2,0,0,0,.25,1.65,7.16,7.16,0,0,0,.73-1.54l.53.22s.12,0,.12.12-.09.08-.22.08a8.22,8.22,0,0,1-1,1.79c0,.09.36,1.09.64,1.09s.38-.55.45-.83a1.31,1.31,0,0,0,.45.42C628.14,122.67,627.83,123.61,627.35,123.61Zm-.23-5.08a7.44,7.44,0,0,0-.77-1.2l.45-.28a6.4,6.4,0,0,1,.82,1.17A1.86,1.86,0,0,0,627.12,118.53Z"/><path class="cls-9" d="M635.68,119.51v3.35c0,.8-.53.81-1,.81a1.16,1.16,0,0,1-.31,0,1.23,1.23,0,0,0-.2-.63,3.4,3.4,0,0,0,.57,0c.37,0,.4-.06.4-.28v-3.28h-1V119h-.94v4.65h-.57V119h-1.07v-.2h-.05a5.89,5.89,0,0,1-.48.83c.12,0,.18.07.18.12s-.06.09-.17.13v3.75h-.6v-3.26l-.57.63a1.52,1.52,0,0,0-.5-.37,6.73,6.73,0,0,0,1.74-2.25l.38.19.07,0v-.15h1.07v-1.6l.54,0c.15,0,.19,0,.19.1s-.06.09-.16.13v1.34h1.06v.5h2.14v.54Zm-4.23-2.12h-.15a8.57,8.57,0,0,1-1.48,1.33,1.13,1.13,0,0,0-.45-.42A5.73,5.73,0,0,0,631,116.9l.44.31s.09.07.09.11A.08.08,0,0,1,631.45,117.39Zm.76,2.62a9.27,9.27,0,0,1-.46,2.35,1,1,0,0,0-.52-.16,7.67,7.67,0,0,0,.47-2.46l.51.06c.12,0,.19.06.19.11S632.29,120,632.21,120Zm1.39-1.73a4.34,4.34,0,0,0-.32-1l.43-.19a6.17,6.17,0,0,1,.37,1A2.5,2.5,0,0,0,633.6,118.28Zm.2,3.93a12.4,12.4,0,0,0-.39-2.4l.5-.1a10.41,10.41,0,0,1,.4,2.33A1.8,1.8,0,0,0,633.8,122.21Zm.45-4.34v-.55h1.92v.55Z"/><path class="cls-9" d="M668.28,123.62a6.05,6.05,0,0,1-1.83-1.43,4.77,4.77,0,0,1-1.07-2,4.61,4.61,0,0,1-1.12,2,5.88,5.88,0,0,1-1.83,1.38,2.31,2.31,0,0,0-.49-.54A4.5,4.5,0,0,0,664.8,120a11.46,11.46,0,0,0,.22-3.1l.65,0c.1,0,.18,0,.18.1s0,.08-.18.12a10.72,10.72,0,0,0,.17,2.61,4.88,4.88,0,0,0,2.9,3.29A1.77,1.77,0,0,0,668.28,123.62Z"/><path class="cls-9" d="M670.31,123.07v-.59h3v-4.35h-2.55v-.59h5.75v.59H674v4.35h3v.59Z"/><path class="cls-9" d="M681.69,122.89a4.41,4.41,0,0,1-1.08-1.59,4.82,4.82,0,0,1-1.57,2.33,2.32,2.32,0,0,0-.5-.41,4,4,0,0,0,1.64-2.68h-1.52V120h1.58c0-.13,0-.3,0-.33V118.5h-.58a6.11,6.11,0,0,1-.57,1.11,2.52,2.52,0,0,0-.58-.24,6.81,6.81,0,0,0,1-2.49l.62.12c.08,0,.14.07.14.11s-.06.1-.2.13-.08.3-.21.69h2v.57h-1v1.1c0,.19,0,.24,0,.37h1.31v.57h-1.29a4.24,4.24,0,0,0,1.32,1.9A2.83,2.83,0,0,0,681.69,122.89Zm2.72.54v-.64H683v.68h-.61v-5.81H685v5.77Zm0-5.21H683v4h1.38Z"/><path class="cls-9" d="M689.41,117.51a8.61,8.61,0,0,1,.84,1.46,2.72,2.72,0,0,0-.53.29c-.15-.36-.21-.5-.27-.61-1.05.2-1.4.27-2.35.38,0,.08-.06.17-.13.17s-.09-.09-.1-.13l-.13-.55.61,0a11,11,0,0,0,.62-1.57l.56.14s.15,0,.15.11,0,.06-.21.12c-.16.4-.5,1.08-.53,1.13l1.29-.18c-.12-.2-.22-.34-.31-.48Zm-1.64,4.6v1.52h-.59v-4.21h2.58v3.25c0,.73-.12,1-1.13,1a1.68,1.68,0,0,0-.22-.6,2.41,2.41,0,0,0,.36,0c.39,0,.41-.09.41-.34v-.62Zm1.41-1.59v-.59h-1.41v.59Zm0,1.11V121h-1.41v.63Zm3.84-4a.19.19,0,0,1,.05.11.07.07,0,0,1-.08.07.35.35,0,0,1-.16-.07,8.47,8.47,0,0,1-1.84.78V119c0,.31,0,.36.49.36h.86c.49,0,.59-.07.72-.83a1.71,1.71,0,0,0,.54.27c-.2,1-.44,1.08-1.17,1.08h-1.1c-.68,0-.92-.12-.92-.82V116.9l.61,0s.16,0,.16.09-.08.09-.19.12V118a5.44,5.44,0,0,0,1.66-.81Zm.17,3.11a.17.17,0,0,1,.06.12s0,.07-.09.07a.37.37,0,0,1-.15,0,8.38,8.38,0,0,1-2,1.1v.56c0,.33.09.36.47.36h.84c.35,0,.6,0,.74-1a1.32,1.32,0,0,0,.55.26c-.21,1-.37,1.25-1.19,1.25h-1.1c-.86,0-.89-.48-.89-.86v-2.46l.61,0s.15,0,.15.1-.07.09-.18.12v1a6.67,6.67,0,0,0,1.78-1.09Z"/><path class="cls-9" d="M728.79,119.76a8.89,8.89,0,0,1-3.06-2.19,8.84,8.84,0,0,1-3,2.22,2.19,2.19,0,0,0-.47-.49,6.74,6.74,0,0,0,3.2-2.46l.68.12s.13.05.13.1-.08.09-.22.12a7.53,7.53,0,0,0,3.11,2.06A2.33,2.33,0,0,0,728.79,119.76Zm-3.22,1.42a.12.12,0,0,1,0,.08c0,.1-.13.1-.23.11-.13.24-.43.77-.81,1.36,1.29-.12,1.43-.14,2.68-.31a9.37,9.37,0,0,0-.78-.78l.45-.37a12.8,12.8,0,0,1,1.8,2,2.55,2.55,0,0,0-.47.43,9.22,9.22,0,0,0-.61-.85c-.52.11-2.07.31-2.13.31-.36,0-2,.22-2.3.25,0,.09-.05.18-.15.18s-.1-.1-.1-.15l-.15-.61,1.06-.06a11.68,11.68,0,0,0,.91-1.61h-2v-.56h6.11v.56Zm-1.73-1.26v-.55h3.78v.55Z"/><path class="cls-9" d="M733.66,121.64a8.53,8.53,0,0,1-1.15-1v3h-.6v-2.49a11.41,11.41,0,0,1-1,.82,1.74,1.74,0,0,0-.43-.49,6.48,6.48,0,0,0,2.31-2.48h-2.11v-.56h1.2V116.9l.57,0c.07,0,.19,0,.19.11s-.08.1-.16.12v1.28h.85l.29.26a8.89,8.89,0,0,1-.88,1.48,6.46,6.46,0,0,0,1.28,1A2.22,2.22,0,0,0,733.66,121.64Zm-.33,1.67v-.58h1.77v-2.94h-1.44v-.58h1.44V116.9l.65,0c.07,0,.13,0,.13.09s0,.1-.16.13v2.06h1.51v.58h-1.51v2.94h1.68v.58Z"/><path class="cls-9" d="M739.75,119.28v4.37h-.58v-6.53h2.64v2.16Zm1.5-1.71h-1.5V118h1.5Zm0,.8h-1.5v.45h1.5Zm1.29,3.35a3.07,3.07,0,0,0,1.39,1.19,2.86,2.86,0,0,0-.36.48,3.11,3.11,0,0,1-1.34-1.32,2.81,2.81,0,0,1-1.65,1.41,1.67,1.67,0,0,0-.36-.46,2.29,2.29,0,0,0,1.58-1.3h-1.49v-.45h1.56a3.39,3.39,0,0,0,0-.58h-1.4v-.47h.76a2.2,2.2,0,0,0-.41-.57l.5-.22a3.86,3.86,0,0,1,.45.69l-.32.1h1.09a5.63,5.63,0,0,0,.38-.82l.52.19s.09,0,.09.09-.06.08-.18.09a4.44,4.44,0,0,1-.24.45h.78v.47h-1.49a5.26,5.26,0,0,1,0,.58h1.7v.45Zm1.52,1.93a2,2,0,0,0-.21-.64,1.52,1.52,0,0,0,.46,0c.32,0,.36,0,.36-.32v-3.46h-2.06v-2.16h2.65v5.72C745.26,123.56,744.91,123.65,744.06,123.65Zm.61-6.08h-1.5V118h1.5Zm0,.8h-1.5v.45h1.5Z"/><path class="cls-9" d="M749.31,117.27a10.76,10.76,0,0,1-.76,1.64c.17.06.27.08.27.13a.08.08,0,0,1-.07.08l-.1,0v4.47h-.6V119.7c-.34.48-.5.68-.66.87a1.5,1.5,0,0,0-.52-.37,8.46,8.46,0,0,0,2-3.33l.57.17s.14.06.14.11S749.47,117.23,749.31,117.27Zm1.13,4.53a8.75,8.75,0,0,1-.86,1.51,3,3,0,0,0-.52-.28,5.93,5.93,0,0,0,1-1.66l.48.24s.13.06.13.11S750.56,121.81,750.44,121.8Zm3-.46c-.07-.12-.14-.25-.33-.54l-1.45.1v2.73H751v-2.69c-1,0-1,0-1.62,0-.06.13-.07.19-.14.19s-.1-.09-.11-.17l-.09-.56h1.12l.48-.46a9.61,9.61,0,0,0-1.42-.91l.36-.46c.21.12.41.25.58.36a13.05,13.05,0,0,0,.86-1.11c-.19,0-.39,0-1.33.13a2.44,2.44,0,0,0-.28-.56,11.38,11.38,0,0,0,3.5-.54l.38.43a.18.18,0,0,1,0,.12.08.08,0,0,1-.08.08.53.53,0,0,1-.19-.09,11.12,11.12,0,0,1-1.74.39l.27.1c.06,0,.12.08.12.13s-.06.08-.1.08h-.11a10.7,10.7,0,0,1-.93,1.14,4.17,4.17,0,0,1,.46.33,17.56,17.56,0,0,0,1.22-1.41l.48.26c.07,0,.14.09.14.15s-.08.07-.13.07h-.12c-.56.63-1,1.16-1.69,1.77.71,0,.93,0,1.8-.09l-.43-.55.46-.28a10,10,0,0,1,1.09,1.49A2.69,2.69,0,0,0,753.42,121.34Zm-.29,2a8.6,8.6,0,0,1-1-1.75l.48-.24a7.38,7.38,0,0,0,1,1.71A2.74,2.74,0,0,0,753.13,123.29Z"/><path class="cls-9" d="M315.33,151.15l2.45,6.64h-.87l-.54-1.5h-3.11l-.53,1.5h-.87l2.45-6.64Zm-.51.78-1.31,3.68h2.63Z"/><path class="cls-9" d="M320.48,157.79h-.83v-6.64h.83Z"/><path class="cls-9" d="M329.41,154.86c0,.22,0,.56,0,1s0,.6,0,.8c-.47,0-.6,0-.74,0a7.25,7.25,0,0,0,0-.91c0-.27,0-.44,0-.56-1.63.79-1.75,1.28-1.75,1.59s0,.71,1.72.71a10.13,10.13,0,0,0,2.57-.33,3.5,3.5,0,0,0-.08.77,10.25,10.25,0,0,1-2.16.2c-.68,0-2.71,0-2.71-1.34,0-.89,1-1.63,2.32-2.26a.76.76,0,0,0-.86-.67,2,2,0,0,0-1.51.83,9.72,9.72,0,0,0-.89,1.2l-.59-.47a16.23,16.23,0,0,0,2.08-2.87c-.91,0-1.06,0-1.7,0v-.7c.29,0,.54,0,1.21,0,.17,0,.49,0,.83,0a7.31,7.31,0,0,0,.52-1.23l.69.16c.06,0,.18,0,.18.14s-.13.12-.23.13c-.1.23-.19.43-.34.73a10,10,0,0,0,2.21-.46l0,.74c-1,.2-2.1.34-2.58.39-.25.44-.46.75-.65,1a1.91,1.91,0,0,1,.94-.24,1.29,1.29,0,0,1,1.33.91c.31-.14,1.69-.7,2-.84l.29.76A21.31,21.31,0,0,0,329.41,154.86Z"/><path class="cls-9" d="M335,152.78v1.56a7.69,7.69,0,0,0,.82-.43c0,.19,0,.51,0,.65L335,155v2.48c0,.77-.21,1-1.3,1a1.42,1.42,0,0,0-.32-.73c.13,0,.48,0,.6,0,.29,0,.36-.1.36-.25v-2.23a6.18,6.18,0,0,1-.65.31c0,.15-.05.25-.15.25s-.09,0-.12-.1l-.23-.62c.21-.08.5-.18,1.15-.48v-1.87h-1v-.59h1v-1.5l.7.06c.06,0,.17,0,.17.11s-.13.15-.21.17v1.16h.88v.59Zm5.75,2.68a7.91,7.91,0,0,1-1-.65v.47h-3v-.44a7.1,7.1,0,0,1-1,.58,2.78,2.78,0,0,0-.52-.51,6.5,6.5,0,0,0,2.92-2.26l.6.2c.05,0,.13.05.13.12s-.06.08-.21.1a8.32,8.32,0,0,0,2.49,1.87A2.25,2.25,0,0,0,340.79,155.46Zm-1-3.24v.9h-.64v-.9h-1.55v.9H337v-.9h-1.07v-.57H337v-1l.68,0c.08,0,.18,0,.18.1s-.12.14-.22.18v.63h1.55v-1l.64,0c.07,0,.19,0,.19.12s-.08.13-.19.18v.61H341v.57Zm-.07,6.22V158H337v.4h-.66v-2.68h4v2.68Zm-1.38-5a7.07,7.07,0,0,1-1.36,1.24h2.68A9.81,9.81,0,0,1,338.38,153.47Zm1.38,2.84H337v1.18h2.73Z"/><path class="cls-9" d="M349.58,158.5c-.63,0-1.12-1.08-1.25-1.36a7,7,0,0,1-1.54,1.41,1.43,1.43,0,0,0-.54-.45,7.5,7.5,0,0,0,.79-.57h-1.79v.9h-.6v-.9h-1.91V157h1.91v-.42h-1.51v-2h1.51v-.47h-1.82v-.45h1.82v-.6h-1.93v-.55h1.93v-.68H343v-.51h1.64v-.66l.6,0c.11,0,.21,0,.21.11s-.08.11-.21.17v.34h1.81v.51h-1.81v.68h2.29c0-.53,0-1.22,0-1.82l.69,0c.08,0,.18,0,.18.11s-.07.11-.22.16v1.51h2.27v.55h-2.26a11.56,11.56,0,0,0,.33,2.74,6.66,6.66,0,0,0,.91-2.21l.64.33c.07,0,.13.09.13.14s-.1.11-.24.1a9.74,9.74,0,0,1-1.18,2.4c.06.17.46,1.13.77,1.13s.46-1,.48-1a1.48,1.48,0,0,0,.52.39C350.52,157.12,350.2,158.5,349.58,158.5ZM344.65,155h-1v.4h1Zm0,.78h-1v.45h1Zm2.9-2.69h-2.21c.1,0,.14.05.14.11s-.16.13-.23.14v.35h1.85v.45h-1.85v.47h1.53v2h-1.53V157h2v.33a7.74,7.74,0,0,0,.85-.92A12.41,12.41,0,0,1,347.55,153.06ZM346.22,155h-1v.4h1Zm0,.78h-1v.45h1Zm3.27-3.28a5.22,5.22,0,0,0-1-1.21l.49-.4a8.71,8.71,0,0,1,1,1.21A2,2,0,0,0,349.49,152.47Z"/><path class="cls-9" d="M354.82,158.18c-1.74,0-1.79-1.72-1.79-3.08,0-.6.11-3.2.11-3.73,0-.24,0-.34,0-.47l.89.12c.13,0,.2,0,.2.1s-.12.14-.22.16a35.71,35.71,0,0,0-.21,3.86c0,1.43.1,2.3,1.09,2.3,1.74,0,3-1.92,3.31-2.52a2.76,2.76,0,0,0,.56.62C357.24,157.93,355.52,158.18,354.82,158.18Z"/><path class="cls-9" d="M364.62,152.7a3.71,3.71,0,0,0-1.78,2.72c0,1.08.81,2,2.61,2.13a4.36,4.36,0,0,0-.32.79c-1.54-.31-3-1.15-3-2.91,0-1.1.64-2.28,2.3-3.27-.22,0-3.87.41-4.55.57l-.12-.91.43,0a47.77,47.77,0,0,0,6.64-.74l.16.83A3.81,3.81,0,0,0,364.62,152.7Z"/><path class="cls-9" d="M370.69,157.92c-.77,0-1.73-1.4-1.73-3.7a14.61,14.61,0,0,1,.34-2.84l.78.23c.11,0,.17,0,.17.14s-.12.12-.18.12a8.14,8.14,0,0,0-.39,2.51c0,1.48.59,2.64,1,2.64s.82-1.07,1.06-1.66a2,2,0,0,0,.52.47C372.11,156.3,371.46,157.92,370.69,157.92Zm4.66-1.44a7.4,7.4,0,0,0-1.52-4.28l.63-.38a8.48,8.48,0,0,1,1.67,4.33Z"/><path class="cls-9" d="M381.85,158.21c-1,0-1.87-.44-1.87-1.32a1.18,1.18,0,0,1,1.32-1.12,1.79,1.79,0,0,1,1.45.69,1.64,1.64,0,0,1,.31.82,1.63,1.63,0,0,0,1.12-1.51c0-.94-.7-1.56-1.81-1.56-1.47,0-2.35.82-3.7,2.23l-.58-.56a51,51,0,0,0,4.18-4,25.19,25.19,0,0,1-3.17.38l-.13-.75a16.16,16.16,0,0,0,4.31-.48l.39.49c-.19.16-2.36,2.17-2.55,2.37a3.55,3.55,0,0,1,1.42-.3,2.16,2.16,0,0,1,2.36,2.12C384.9,157.47,383.11,158.21,381.85,158.21Zm.27-1.45a1.23,1.23,0,0,0-.87-.39.54.54,0,0,0-.61.52c0,.59.73.74,1.11.74a3,3,0,0,0,.67-.09A1.24,1.24,0,0,0,382.12,156.76Z"/><path class="cls-9" d="M393.28,156.91a4.89,4.89,0,0,1-2,1.15,3.73,3.73,0,0,0-.48-.65c2.51-.53,2.77-2.28,2.77-3A2.42,2.42,0,0,0,391,152a12.1,12.1,0,0,1-.92,3.88c-.46,1.09-.87,1.54-1.33,1.54-.62,0-1.58-1-1.58-2.36A3.87,3.87,0,0,1,391,151.3a3.11,3.11,0,0,1,3.29,3.13A3.6,3.6,0,0,1,393.28,156.91ZM387.86,155c0,.91.49,1.58.85,1.58s.67-.8.87-1.34a9.94,9.94,0,0,0,.66-3.15A3.15,3.15,0,0,0,387.86,155Z"/><path class="cls-9" d="M401,152.7a3.71,3.71,0,0,0-1.78,2.72c0,1.08.81,2,2.61,2.13a4.36,4.36,0,0,0-.32.79c-1.54-.31-3-1.15-3-2.91,0-1.1.64-2.28,2.3-3.27-.22,0-3.87.41-4.55.57l-.12-.91.43,0a47.77,47.77,0,0,0,6.64-.74l.16.83A3.81,3.81,0,0,0,401,152.7Zm1.28,2a6.24,6.24,0,0,0-.76-1l.41-.31a8.47,8.47,0,0,1,.77.92A2,2,0,0,0,402.28,154.74Zm.84-.62a6.08,6.08,0,0,0-.76-1l.4-.28a6.78,6.78,0,0,1,.79.91A1.54,1.54,0,0,0,403.12,154.12Z"/><path class="cls-9" d="M411.17,152.54c-.5,0-1,0-1.49,0,0,.58,0,1.08,0,1.42a3,3,0,0,1,.33,1.37,3.59,3.59,0,0,1-.76,2.14,4,4,0,0,1-1.4,1.07,7,7,0,0,0-.63-.52,2.83,2.83,0,0,0,1.95-1.89,1.3,1.3,0,0,1-1,.47c-.74,0-1.17-.64-1.17-1.55s.56-1.62,1.33-1.62a1.16,1.16,0,0,1,.63.17c0-.16,0-.79,0-1a35.66,35.66,0,0,0-3.6.34l-.07-.8c.58,0,3.13-.15,3.65-.17a10.79,10.79,0,0,0-.11-1.22l.83.08c.12,0,.2,0,.2.11s-.1.1-.15.13c0,.23,0,.3,0,.86,2.46-.11,2.73-.11,2.95-.13,0,.18,0,.5,0,.77C412.34,152.55,411.83,152.54,411.17,152.54Zm-2.79,1.52c-.56,0-.75.56-.75,1,0,.2,0,.95.69.95.49,0,.85-.46.85-1.07A.83.83,0,0,0,408.38,154.06Z"/><path class="cls-9" d="M418.8,157.48a1.39,1.39,0,0,1-1.22.59,4.74,4.74,0,0,1-.86-.11,4,4,0,0,0-.06-.81,2.27,2.27,0,0,0,.86.18.87.87,0,0,0,.8-.41,4.76,4.76,0,0,0,.59-2.31c0-1.19-.56-1.35-1.07-1.35a3.3,3.3,0,0,0-.53.05A13.06,13.06,0,0,1,415,158a3.29,3.29,0,0,0-.69-.37,10.58,10.58,0,0,0,2.22-4.25,16.5,16.5,0,0,0-1.83.52l-.26-.76c.19,0,.76-.16.85-.19.69-.15,1.12-.24,1.42-.29a12.24,12.24,0,0,0,.28-1.91l.82.26c.1,0,.15,0,.15.12s-.09.11-.2.14-.19.87-.3,1.3l.45,0c1.16,0,1.69.69,1.69,1.9A5.56,5.56,0,0,1,418.8,157.48Zm1.55-1.61a2.66,2.66,0,0,0-.31-.64c.5-.08,1-.19,1-.64a5,5,0,0,0-1.37-2.53l.56-.37a5.6,5.6,0,0,1,1.55,3C421.8,155,421.8,155.61,420.35,155.87Z"/><path class="cls-9" d="M425.89,155.32c0-.48.1-.82.8-1.37s1-.74,1-1.32c0-.95-1-.95-1.2-.95-1.26,0-1.3.85-1.31,1.42h-.86A2,2,0,0,1,426.5,151c1.52,0,2,.85,2,1.66s-.35,1.11-1,1.6c-.81.63-.82.78-.82,1.23v.43h-.8Zm.84,2.47h-.88v-.94h.88Z"/><path class="cls-9" d="M313.13,186.72h-.84v-6.64h.84Z"/><path class="cls-9" d="M320.28,180.08v.72h-2.23v5.92h-.83V180.8H315v-.72Z"/><path class="cls-9" d="M329.65,185.84a4.91,4.91,0,0,1-2,1.15,2.9,2.9,0,0,0-.48-.65c2.51-.53,2.77-2.29,2.77-3a2.41,2.41,0,0,0-2.56-2.47,12.16,12.16,0,0,1-.92,3.88c-.46,1.09-.86,1.54-1.33,1.54-.62,0-1.58-1-1.58-2.36a3.88,3.88,0,0,1,3.82-3.73,3.1,3.1,0,0,1,3.3,3.13A3.61,3.61,0,0,1,329.65,185.84Zm-5.43-1.92c0,.91.5,1.57.86,1.57s.67-.8.87-1.33a9.57,9.57,0,0,0,.65-3.15A3.15,3.15,0,0,0,324.22,183.92Z"/><path class="cls-9" d="M336.13,186.51a5.22,5.22,0,0,1-1.24-1.82,5.44,5.44,0,0,1-1.79,2.67,2.72,2.72,0,0,0-.57-.48,4.58,4.58,0,0,0,1.88-3.06h-1.74v-.65h1.8c0-.14,0-.35,0-.38v-1.3h-.66a8,8,0,0,1-.65,1.27,2.41,2.41,0,0,0-.66-.27,7.7,7.7,0,0,0,1.17-2.85l.72.14c.08,0,.16.07.16.12s-.08.11-.24.15-.08.34-.23.79h2.25v.65h-1.19v1.26c0,.22,0,.27,0,.42h1.49v.65h-1.47a4.9,4.9,0,0,0,1.51,2.17A3.29,3.29,0,0,0,336.13,186.51Zm3.11.61v-.72h-1.58v.77H337v-6.64h2.94v6.59Zm0-6h-1.58v4.59h1.58Z"/><path class="cls-9" d="M341.93,181.69v-.54h2.65v.54Zm1.95,5.56v-.38h-1.12v.51h-.62v-2.9h2.32v2.77Zm-1.64-6.71V180h2.08v.53Zm0,2.28v-.54h2.08v.54Zm0,1.1v-.54h2.08v.54Zm1.64,1.14h-1.12v1.24h1.12Zm5.19,2.32c-.46,0-.86-1.1-.94-1.32a8.9,8.9,0,0,1-1.27,1.38,1.32,1.32,0,0,0-.45-.46,6.92,6.92,0,0,0,1.5-1.63,10.89,10.89,0,0,1-.32-2.3h-3.1v-.56h.75a5,5,0,0,0-.35-1.12l.49-.16a5.34,5.34,0,0,1,.37,1.13l-.48.15h.84a7.34,7.34,0,0,0,.43-1.3h-2v-.56h1v-1l.66,0c.13,0,.19,0,.19.11s-.07.1-.21.16v.69h1.09v.56h-.8l.55.18c.09,0,.12.06.12.11s-.1.09-.21.1a8.31,8.31,0,0,1-.35.91h.9c0-1.08,0-2.23,0-2.85l.6,0c.1,0,.22,0,.22.11s-.05.1-.22.16c0,.59,0,.91,0,2.55h1.53v.56h-1.5a9.64,9.64,0,0,0,.18,1.57,10,10,0,0,0,.58-1.32l.62.36s.09.06.09.11-.12.1-.27.09a10.74,10.74,0,0,1-.83,1.58c.07.25.32,1.07.49,1.07s.25-.89.27-1.06a1.4,1.4,0,0,0,.48.45C349.71,186.47,349.52,187.38,349.07,187.38Zm-3.59-1.09V187h-.59v-3.51h2.21v2.8Zm1-2.3h-1v.65h1Zm0,1.08h-1v.73h1Zm2.45-3.22a6.6,6.6,0,0,0-.53-1.52l.55-.23a8.65,8.65,0,0,1,.57,1.51A2.22,2.22,0,0,0,349,181.85Z"/><path class="cls-9" d="M355.86,186.56a1.46,1.46,0,0,1-1.17.44,2.85,2.85,0,0,1-.77-.09,3.73,3.73,0,0,0-.08-.8,2.72,2.72,0,0,0,.91.18c.42,0,.66-.21.88-.72a5.35,5.35,0,0,0,.39-1.94c0-.83-.22-1.45-1.13-1.45a2.47,2.47,0,0,0-.39,0,12.86,12.86,0,0,1-2.26,4.75,3.57,3.57,0,0,0-.7-.36,10.92,10.92,0,0,0,2.19-4.25,10.46,10.46,0,0,0-1.82.58l-.26-.77c.37-.06,1.93-.47,2.26-.54a16.34,16.34,0,0,0,.27-1.92l.82.24c.09,0,.15.05.15.12s-.07.14-.2.15c-.05.21-.25,1.13-.29,1.32,1.84-.11,2.06,1.13,2.06,2.09A5.08,5.08,0,0,1,355.86,186.56Zm1.61-1.76a3.48,3.48,0,0,0-.38-.64c.6-.09,1-.23,1-.63a4,4,0,0,0-1.58-2.21l.58-.37a4.22,4.22,0,0,1,1.76,2.73C358.85,184.35,358.26,184.6,357.47,184.8Zm.59-3.56a6.61,6.61,0,0,0-.78-.89l.4-.29a6.33,6.33,0,0,1,.79.86A4.28,4.28,0,0,0,358.06,181.24Zm.72-.47a3.71,3.71,0,0,0-.78-1l.42-.27a6.13,6.13,0,0,1,.81.88A3.26,3.26,0,0,0,358.78,180.77Z"/><path class="cls-9" d="M363.36,181.78a17.38,17.38,0,0,1-2,4.13l-.68-.31a15.34,15.34,0,0,0,1.86-3.73,12.6,12.6,0,0,1-1.59.06l-.1-.74a6.2,6.2,0,0,0,.88.05,8.6,8.6,0,0,0,1-.06,14.66,14.66,0,0,0,.35-1.52l.77.21c.09,0,.13,0,.13.11s-.11.1-.17.11c-.14.45-.18.6-.3,1a7.51,7.51,0,0,0,1.39-.36,3,3,0,0,0,0,.73A11.32,11.32,0,0,1,363.36,181.78Zm3.93,5.06a7.49,7.49,0,0,0-1.43-1c0,1.29-1.24,1.29-1.52,1.29-.95,0-1.7-.45-1.7-1.23,0-.58.43-1.16,1.51-1.16a3.27,3.27,0,0,1,.94.14,6.16,6.16,0,0,1-.1-.93,1.57,1.57,0,0,1,.59-1.17l.59.4a1.06,1.06,0,0,0-.46.91,5,5,0,0,0,.13,1,9,9,0,0,1,1.88,1.17A6.59,6.59,0,0,0,367.29,186.84Zm-3.12-1.53c-.45,0-.87.18-.87.6,0,.64.95.64,1,.64.94,0,.91-.61.89-1A2.33,2.33,0,0,0,364.17,185.31Zm3.34-2.38a5.16,5.16,0,0,0-2.17-1.1l.4-.6a6.13,6.13,0,0,1,2.18,1.07C367.78,182.5,367.62,182.74,367.51,182.93Z"/><path class="cls-9" d="M374.61,187.49a15.11,15.11,0,0,0-3.48-3.07c-.93-.61-1-.64-1-1s.12-.37.88-1a20.08,20.08,0,0,0,3.16-3l.67.47c.08.06.14.1.14.16s-.05.09-.12.09l-.15,0c-.55.54-2.13,1.88-3.28,2.79-.13.09-.38.3-.38.44s.05.17.51.47a16.47,16.47,0,0,1,3.63,2.94C375,187,374.8,187.29,374.61,187.49Z"/><path class="cls-9" d="M382.52,181.63a3.69,3.69,0,0,0-1.79,2.72c0,1.08.82,1.94,2.61,2.13a5.23,5.23,0,0,0-.32.79c-1.54-.31-3-1.15-3-2.91,0-1.11.65-2.29,2.3-3.27-.21,0-3.87.4-4.55.57l-.12-.91.43,0a47.61,47.61,0,0,0,6.64-.74l.17.83A3.8,3.8,0,0,0,382.52,181.63Z"/><path class="cls-9" d="M390.48,187.17c-2.06,0-2.44-1.36-2.44-2.1a4.78,4.78,0,0,1,.15-1.14,13.14,13.14,0,0,1-1.49-.36l.16-.69a11.47,11.47,0,0,0,1.52.37c.06-.24.19-.64.41-1.31a10.73,10.73,0,0,1-1.62-.4l.14-.73a10,10,0,0,0,1.72.44c.09-.26.5-1.39.57-1.63l.78.31c.08,0,.15.06.15.13s-.13.12-.27.13c-.23.5-.34.76-.5,1.15a13.62,13.62,0,0,0,1.93.07,3.55,3.55,0,0,0-.22.75,13,13,0,0,1-2-.12c-.24.68-.36,1.05-.43,1.32a14.67,14.67,0,0,0,2.29.11c0,.11-.09.26-.21.72a18.51,18.51,0,0,1-2.26-.16,4.41,4.41,0,0,0-.14,1.05c0,1.15,1,1.41,1.74,1.41,1.09,0,2-.49,2-1.59a2.76,2.76,0,0,0-.54-1.52,3.31,3.31,0,0,0,.68-.32,3.52,3.52,0,0,1,.63,1.89C393.26,186.64,391.66,187.17,390.48,187.17Z"/><path class="cls-9" d="M397.2,186.45a3,3,0,0,0-.28-.77c1,0,4.58,0,4.58-2.44a1.88,1.88,0,0,0-2.11-2,11.45,11.45,0,0,0-4.27,1.25l-.37-.95a10.11,10.11,0,0,0,1.07-.22c2.46-.68,2.73-.75,3.67-.75a2.52,2.52,0,0,1,2.78,2.6C402.27,185.28,400.21,186.33,397.2,186.45Z"/><path class="cls-9" d="M408.6,186.41a1.4,1.4,0,0,1-1.23.58,4.47,4.47,0,0,1-.86-.1,2.9,2.9,0,0,0-.06-.81,2.33,2.33,0,0,0,.87.18.85.85,0,0,0,.79-.41,4.65,4.65,0,0,0,.59-2.31c0-1.19-.55-1.36-1.06-1.36-.11,0-.15,0-.54,0a13,13,0,0,1-2.29,4.74,3.36,3.36,0,0,0-.7-.37,10.34,10.34,0,0,0,2.22-4.25,17.08,17.08,0,0,0-1.82.52l-.26-.76.85-.19c.69-.15,1.12-.24,1.42-.29a13.6,13.6,0,0,0,.28-1.91l.81.26c.11,0,.16,0,.16.12s-.1.11-.21.14-.19.87-.29,1.3l.45,0c1.16,0,1.69.69,1.69,1.9A5.68,5.68,0,0,1,408.6,186.41Zm1.55-1.61a2.86,2.86,0,0,0-.31-.64c.49-.08,1-.19,1-.64a4.88,4.88,0,0,0-1.38-2.53l.57-.37a5.64,5.64,0,0,1,1.55,3C411.6,183.94,411.6,184.54,410.15,184.8Z"/><path class="cls-9" d="M418.31,187.09c-1.59,0-1.61-.65-1.61-1.13,0-.17.08-.93.08-1.08s0-.42-.33-.42a.57.57,0,0,0-.4.21c-.68.66-1.82,1.91-2.34,2.48l-.56-.56c.67-.62,1.52-1.45,2.28-2.27.31-.32,1.59-1.8,1.86-2.09a22.25,22.25,0,0,1-3.39.54l-.15-.75a13.07,13.07,0,0,0,4.57-.78l.44.56a15.46,15.46,0,0,0-2.09,2.11.54.54,0,0,1,.19,0,.62.62,0,0,1,.68.6c0,.21-.14,1.16-.14,1.35,0,.47.18.58,1,.58a5.53,5.53,0,0,0,1.79-.29,4.76,4.76,0,0,0,0,.78A9.3,9.3,0,0,1,418.31,187.09Zm-.49-6.29a12.89,12.89,0,0,1-2.82-.27l.06-.7a8.85,8.85,0,0,0,2.45.29l.42,0A2.6,2.6,0,0,0,417.82,180.8Z"/><path class="cls-9" d="M428.35,186.63a5.6,5.6,0,0,0-2.26-1.21c0,.09,0,.22,0,.31,0,.49-.1,1.34-1.59,1.34-1.17,0-1.92-.57-1.92-1.22,0-.89,1.11-1.23,2-1.23a5.7,5.7,0,0,1,.75.06c0-.27,0-.36,0-1l-.81,0c-.46,0-1.72,0-1.72-.65,0-.3.19-.55.6-.9l.57.2c-.26.21-.4.32-.4.47s.69.23,1,.23a6.33,6.33,0,0,0,.71,0c0-.42,0-1.05,0-1.47-1.49.06-2.38.16-2.87.22V181l2.87-.14a9.19,9.19,0,0,0,0-1.18l.89.16a.13.13,0,0,1,.13.11c0,.09-.12.11-.18.12a7.44,7.44,0,0,0-.05.77c.42,0,2.24,0,2.61,0v.71c-.41,0-1-.07-2.61,0V183a12.45,12.45,0,0,0,2.4-.38v.73a17.33,17.33,0,0,1-2.39.29c0,.22,0,1,0,1.18a7.14,7.14,0,0,1,2.78,1.22A6.55,6.55,0,0,0,428.35,186.63Zm-3-1.36a2.31,2.31,0,0,0-.71-.09c-.77,0-1.31.23-1.31.66s.95.61,1.09.61c1,0,1-.57,1-.85A3.08,3.08,0,0,0,425.33,185.27Z"/><path class="cls-9" d="M436.77,181.47l-1.48,0c0,.58,0,1.09,0,1.43a3,3,0,0,1,.33,1.37,3.59,3.59,0,0,1-.76,2.14,4.17,4.17,0,0,1-1.4,1.07,5.63,5.63,0,0,0-.63-.52,2.85,2.85,0,0,0,2-1.89,1.32,1.32,0,0,1-1,.47c-.74,0-1.18-.64-1.18-1.56a1.43,1.43,0,0,1,1.34-1.61,1.09,1.09,0,0,1,.62.17c0-.16,0-.79,0-1-1,0-2.67.18-3.61.33l-.06-.79c.58,0,3.13-.15,3.65-.17a8.85,8.85,0,0,0-.12-1.23l.84.09c.12,0,.2,0,.2.11s-.1.1-.15.12a6.75,6.75,0,0,0,0,.87l3-.13a5.06,5.06,0,0,0,0,.76ZM434,183c-.56,0-.75.57-.75,1,0,.19,0,.95.69.95.49,0,.85-.46.85-1.08A.84.84,0,0,0,434,183Z"/><path class="cls-9" d="M444.41,186.41a1.41,1.41,0,0,1-1.23.58,4.47,4.47,0,0,1-.86-.1,3.35,3.35,0,0,0-.06-.81,2.33,2.33,0,0,0,.87.18.86.86,0,0,0,.79-.41,4.65,4.65,0,0,0,.59-2.31c0-1.19-.56-1.36-1.06-1.36-.11,0-.15,0-.54,0a13,13,0,0,1-2.29,4.74,3.63,3.63,0,0,0-.7-.37,10.46,10.46,0,0,0,2.22-4.25,17.82,17.82,0,0,0-1.83.52l-.26-.76.85-.19c.69-.15,1.12-.24,1.43-.29a15.3,15.3,0,0,0,.28-1.91l.81.26c.1,0,.15,0,.15.12s-.09.11-.2.14-.19.87-.29,1.3l.44,0c1.17,0,1.7.69,1.7,1.9A5.68,5.68,0,0,1,444.41,186.41ZM446,184.8a3.41,3.41,0,0,0-.31-.64c.49-.08,1-.19,1-.64a5,5,0,0,0-1.38-2.53l.57-.37a5.64,5.64,0,0,1,1.55,3C447.41,183.94,447.41,184.54,446,184.8Z"/><path class="cls-9" d="M451.5,184.25c0-.48.09-.82.8-1.37s1-.75,1-1.32c0-.95-1-.95-1.21-.95-1.26,0-1.29.85-1.31,1.41h-.86a2,2,0,0,1,2.22-2.13c1.52,0,2,.85,2,1.65s-.35,1.12-1,1.61c-.81.63-.83.78-.83,1.23v.43h-.79Zm.83,2.47h-.87v-.94h.87Z"/><path class="cls-9" d="M313.15,209v3.1l3.61-3.1H318L315,211.57l3.12,4.07H317l-2.66-3.53-1.22,1v2.55h-.82V209Z"/><path class="cls-9" d="M323.06,209a2,2,0,0,1,2.23,2.05c0,1.45-.94,2-2.23,2h-2.14v2.54h-.83V209Zm-2.14.72v2.65H323a1.3,1.3,0,0,0,1.43-1.31,1.32,1.32,0,0,0-1.43-1.34Z"/><path class="cls-9" d="M328.11,215.64h-.84V209h.84Z"/><path class="cls-9" d="M313.15,237.94V241l3.61-3.1H318L315,240.5l3.12,4.07H317L314.37,241l-1.22,1v2.55h-.82v-6.63Z"/><path class="cls-9" d="M319.94,241.13c0-1.1,1-1.58,2-1.58.68,0,2,.25,2,1.6v2.61a1.09,1.09,0,0,0,.21.7v.11h-.82a1.18,1.18,0,0,1-.15-.59,2.4,2.4,0,0,1-1.77.78,1.56,1.56,0,0,1-1.75-1.49c0-1.16,1-1.31,2.61-1.57.6-.09.92-.14.92-.62,0-.2-.11-.89-1.23-.89-.7,0-1.22.27-1.26.94Zm3.24.93c-.23.14-.31.15-1,.25-1.42.21-1.76.38-1.76.94,0,.35.25.86,1.07.86a1.6,1.6,0,0,0,1.65-1.15Z"/><path class="cls-9" d="M326.9,239.73v.67a1.71,1.71,0,0,1,1.74-.85H329v.77h-.38a2.24,2.24,0,0,0-1.05.22,1.4,1.4,0,0,0-.65,1.16v2.87h-.76v-4.84Z"/><path class="cls-9" d="M330.74,241.13c0-1.1,1-1.58,2-1.58.68,0,2,.25,2,1.6v2.61a1.09,1.09,0,0,0,.21.7v.11h-.82A1.18,1.18,0,0,1,334,244a2.4,2.4,0,0,1-1.77.78,1.56,1.56,0,0,1-1.75-1.49c0-1.16,1-1.31,2.61-1.57.6-.09.92-.14.92-.62,0-.2-.12-.89-1.23-.89-.7,0-1.22.27-1.26.94Zm3.24.93c-.23.14-.31.15-1,.25-1.41.21-1.75.38-1.75.94,0,.35.25.86,1.06.86A1.6,1.6,0,0,0,334,243Z"/><path class="cls-9" d="M337.71,237.94V242l2.33-2.29h1l-1.81,1.77,2,3.07h-1L338.74,242l-1,.92v1.65h-.77v-6.63Z"/><path class="cls-9" d="M343.81,239.73v3.16a1.15,1.15,0,0,0,1.18,1.22,1.37,1.37,0,0,0,1.33-1.39v-3h.76v4.84h-.75v-.7a1.82,1.82,0,0,1-1.54.89,1.71,1.71,0,0,1-1.74-1.82v-3.21Z"/><path class="cls-9" d="M350,239.73v.67a1.71,1.71,0,0,1,1.73-.85h.35v.77h-.38a2.2,2.2,0,0,0-1.05.22,1.4,1.4,0,0,0-.65,1.16v2.87h-.77v-4.84Z"/><path class="cls-9" d="M354.8,238.88h-.89v-.94h.89Zm-.06,5.69H354v-4.84h.77Z"/><path class="cls-9" d="M363.16,244.42a1.44,1.44,0,0,1-1.17.44,3.22,3.22,0,0,1-.76-.09,5.68,5.68,0,0,0-.08-.8,2.68,2.68,0,0,0,.91.18c.42,0,.66-.22.88-.72a5.4,5.4,0,0,0,.38-1.94c0-.83-.22-1.46-1.13-1.46a2.33,2.33,0,0,0-.38,0,12.94,12.94,0,0,1-2.26,4.75,3.1,3.1,0,0,0-.7-.36,10.92,10.92,0,0,0,2.19-4.25,10.57,10.57,0,0,0-1.83.58L359,240c.36-.06,1.93-.47,2.26-.54a16.93,16.93,0,0,0,.27-1.92l.81.24c.1,0,.16,0,.16.12s-.07.13-.21.15c0,.2-.24,1.13-.28,1.31,1.84-.1,2.06,1.14,2.06,2.09A5,5,0,0,1,363.16,244.42Zm1.62-1.76a3.93,3.93,0,0,0-.38-.65c.6-.08,1-.22,1-.62a4,4,0,0,0-1.58-2.22l.58-.37a4.24,4.24,0,0,1,1.75,2.73C366.15,242.21,365.57,242.46,364.78,242.66Zm.59-3.56a6.71,6.71,0,0,0-.78-.89l.4-.29a6.52,6.52,0,0,1,.78.86A4,4,0,0,0,365.37,239.1Zm.72-.47a4.47,4.47,0,0,0-.78-1l.42-.26a5.53,5.53,0,0,1,.8.88A3.79,3.79,0,0,0,366.09,238.63Z"/><path class="cls-9" d="M370.5,238a11.29,11.29,0,0,1-.85,1.7c.07,0,.28.08.28.14s-.1.12-.21.15v5.26h-.67v-4.65c-.26.35-.52.64-.71.87a2.35,2.35,0,0,0-.46-.55,9.5,9.5,0,0,0,2.09-3.43l.66.27a.16.16,0,0,1,.12.13C370.75,237.94,370.64,238,370.5,238Zm3.76,7h-1.83c-1.13,0-1.3-.47-1.3-1.16v-2.9l-1,.2-.13-.65,1.11-.23V238l.66.06c.12,0,.21,0,.21.1s-.05.09-.19.16V240l1.05-.22v-2.33l.68.06c.1,0,.2,0,.2.11s0,.08-.21.14v1.88l1.32-.28.4.24v2.28c0,.79,0,1.32-1.22,1.31a1.72,1.72,0,0,0-.26-.7c.16,0,.28,0,.44,0s.36-.06.36-.5v-1.93l-1,.22v2.84h-.67V240.5l-1.05.22v3c0,.46.09.57.84.57h1.65c.57,0,.84,0,1.06-1a1.37,1.37,0,0,0,.58.34C375.6,244.93,375,244.93,374.26,244.93Z"/><path class="cls-9" d="M382.07,240.59a9.14,9.14,0,0,1-1.17.9h3.19v3.72h-.68v-.44H380v.44h-.68v-2.85a10.88,10.88,0,0,1-1.67.6,2.12,2.12,0,0,0-.4-.64,10.21,10.21,0,0,0,3.87-1.73h-3.65V240h3.22v-1h-2.38v-.6h2.38v-.91l.7,0c.07,0,.19,0,.19.1s-.12.11-.2.13v.65h1.4V239a8.08,8.08,0,0,0,.95-1.4l.65.32c.08.05.1.08.1.13s-.07.09-.12.09h-.15a12.9,12.9,0,0,1-1.49,1.89h2.46v.6Zm1.34,1.47H380v.76h3.46Zm0,1.31H380v.83h3.46ZM381.33,239v1h.44a10.74,10.74,0,0,0,.92-1Z"/><path class="cls-9" d="M389.56,241.11c-.45.22-1.93.94-1.93,1.93s1.93,1.11,2.49,1.11a10,10,0,0,0,2.81-.4,3.15,3.15,0,0,0-.06.84,15.87,15.87,0,0,1-2.7.25,4.9,4.9,0,0,1-2.44-.43,1.54,1.54,0,0,1-.87-1.36c0-1.08,1-1.75,1.89-2.27a3.09,3.09,0,0,1-.64-2.05,3.69,3.69,0,0,0-.17-.95l1-.21c0,.35,0,.58,0,.8a3.46,3.46,0,0,0,.48,2.1c.37-.18.9-.42,1.46-.63l1.84-.72.32.83A14,14,0,0,0,389.56,241.11Z"/><path class="cls-9" d="M398.79,244.22c-1,.28-1.78.5-3.34.81,0,.18-.06.22-.14.22s-.1-.07-.13-.16l-.16-.73,1.13-.2v-6.71l.77.05c.09,0,.18.05.18.11s-.13.13-.22.16v2.28h2v.69h-2V244c.72-.15,1.23-.28,2-.47A2.24,2.24,0,0,0,398.79,244.22Zm3.07.75h-1.35c-.89,0-1.08-.24-1.08-1v-6.48l.73.06c.09,0,.2,0,.2.12s-.06.1-.22.16v2.5a8.75,8.75,0,0,0,2-1.33l.53.52a.17.17,0,0,1,.07.13.08.08,0,0,1-.08.08,1.37,1.37,0,0,1-.19-.05,10.47,10.47,0,0,1-2.3,1.38v2.82c0,.35,0,.43.5.43h1c.27,0,.54,0,.65-1.2a1.69,1.69,0,0,0,.72.29C402.79,244.69,402.49,245,401.86,245Z"/><path class="cls-9" d="M411.65,244.08a25.68,25.68,0,0,1-3.61-3.73c-.38-.46-.49-.56-.69-.56s-.4.18-.76.66a18.72,18.72,0,0,1-1.86,2.29l-.62-.6a13.78,13.78,0,0,0,2.34-2.6c.36-.46.64-.56.89-.56.54,0,.8.34,1.33,1a20,20,0,0,0,3.49,3.44C411.94,243.69,411.9,243.74,411.65,244.08Zm-.9-4.19a7.09,7.09,0,0,0-.87-.86l.39-.34a10.72,10.72,0,0,1,.88.84A2,2,0,0,0,410.75,239.89Zm.76-.62a5.39,5.39,0,0,0-.88-.9l.4-.32a8.56,8.56,0,0,1,.89.85A1.62,1.62,0,0,0,411.51,239.27Z"/><path class="cls-9" d="M418.77,239.49a3.69,3.69,0,0,0-1.79,2.72c0,1.07.82,1.94,2.61,2.13a4.09,4.09,0,0,0-.32.79c-1.54-.31-3-1.15-3-2.92,0-1.1.65-2.28,2.3-3.26-.21,0-3.87.4-4.55.57l-.12-.91.43,0a49.41,49.41,0,0,0,6.64-.74l.17.83A3.78,3.78,0,0,0,418.77,239.49Z"/><path class="cls-9" d="M428.58,238.94v.94h-.67v-.94h-2.16v.94h-.68v-.94H423v-.61h2.09v-.88l.76,0c.11,0,.17,0,.17.12s-.1.14-.25.17v.55h2.16v-.87l.72,0c.13,0,.21,0,.21.11s-.15.15-.26.17v.54h2.11v.61Zm-1.4,2.19v.92h2.38v3.16h-.71v-.44h-4v.44h-.7v-3.16h2.38v-.92H423v-.62h3.51v-1.06l.73,0c.09,0,.2,0,.2.15s-.12.14-.25.17v.7h3.52v.62Zm1.67,1.53h-4v1.49h4Z"/><path class="cls-9" d="M436.51,242.54v1.54c0,.93-.19,1.15-1.78,1.18a1.65,1.65,0,0,0-.34-.8,4.58,4.58,0,0,0,.74.06c.56,0,.65-.12.65-.52v-1.46h-3.59v-.65h3.59v-1.17h-3v-.65h3v-1.22a24.88,24.88,0,0,1-2.72.16,1.6,1.6,0,0,0-.3-.67l.87,0a12.44,12.44,0,0,0,4.92-.91l.47.53c.05.05.07.08.07.13s0,.1-.12.1a.48.48,0,0,1-.22-.08,15.85,15.85,0,0,1-2.24.61v1.33h2.9v.65h-2.9v1.17h3.43v.65Z"/><path class="cls-9" d="M444.24,239.64a17.06,17.06,0,0,1-2,4.12c-.22-.1-.33-.16-.68-.3a15.15,15.15,0,0,0,1.86-3.73,12.6,12.6,0,0,1-1.59.06l-.09-.74a7.82,7.82,0,0,0,.87,0,8.47,8.47,0,0,0,1-.06,15.4,15.4,0,0,0,.36-1.52l.76.21c.09,0,.14.05.14.11s-.11.1-.18.1c-.13.46-.18.6-.29,1a7.13,7.13,0,0,0,1.38-.36,4.48,4.48,0,0,0,0,.73A12.51,12.51,0,0,1,444.24,239.64Zm3.93,5.06a7.6,7.6,0,0,0-1.42-1c0,1.28-1.24,1.28-1.53,1.28-.94,0-1.7-.44-1.7-1.23,0-.57.43-1.16,1.52-1.16a3.13,3.13,0,0,1,.93.15,6.31,6.31,0,0,1-.1-.93,1.57,1.57,0,0,1,.59-1.17l.59.39a1.07,1.07,0,0,0-.46.91,4.81,4.81,0,0,0,.13,1,9.68,9.68,0,0,1,1.89,1.17C448.45,244.33,448.34,244.48,448.17,244.7Zm-3.12-1.53c-.44,0-.86.18-.86.59,0,.64.94.64,1,.64.94,0,.91-.6.89-1A2.19,2.19,0,0,0,445.05,243.17Zm3.35-2.39a5.47,5.47,0,0,0-2.18-1.09l.41-.6a5.79,5.79,0,0,1,2.17,1.07Z"/><path class="cls-9" d="M452,243.46a8.61,8.61,0,0,1-1.06,1.8,2.91,2.91,0,0,0-.62-.43,5.88,5.88,0,0,0,1.15-1.92l.61.28c.1,0,.18.08.18.16S452.1,243.45,452,243.46Zm2.43-4.43v.8h2.68v2.81h-5.64v-2.81h2.24v-2.34l.75,0c.08,0,.19,0,.19.12s-.11.11-.22.13v.63h3.3V239Zm2,1.43h-4.2V242h4.2Zm-3.21,4.69a9.63,9.63,0,0,0-.41-2l.65-.12a9.81,9.81,0,0,1,.48,1.92A2.25,2.25,0,0,0,453.2,245.15Zm2.05-.05a8.85,8.85,0,0,0-.62-1.94l.63-.19a13.6,13.6,0,0,1,.69,1.94A1.82,1.82,0,0,0,455.25,245.1Zm2.38.08a12.28,12.28,0,0,0-1.22-2l.58-.28a12.42,12.42,0,0,1,1.26,1.91A1.73,1.73,0,0,0,457.63,245.18Z"/><path class="cls-9" d="M461.15,244.78l-.64.12a11.06,11.06,0,0,1-.41-3.15,17.65,17.65,0,0,1,.47-3.95l.76.27c.08,0,.14,0,.14.13s-.08.12-.23.12a14,14,0,0,0-.45,3.52c0,.62,0,1,.07,1.36.1-.21.48-1.15.57-1.34a3.27,3.27,0,0,0,.41.49A5.17,5.17,0,0,0,461.15,244.78Zm5.74-.62a5.08,5.08,0,0,0-1.39-.88c.08,1.39-1.29,1.5-1.55,1.5a1.36,1.36,0,0,1-1.47-1.23c0-.78.77-1.21,1.58-1.21a3.46,3.46,0,0,1,.64.07c-.05-.55-.06-.72-.09-2.23a11.43,11.43,0,0,1-1.46.09c-.29,0-.48,0-.69,0v-.73a7.69,7.69,0,0,0,1,.05c.21,0,.55,0,1.17-.05,0-.43,0-1.13,0-1.73l.85.13c.06,0,.14,0,.14.1s-.14.13-.2.14c0,.4-.06.89-.08,1.27a10,10,0,0,0,1.47-.34v.71c-.2.05-.6.15-1.48.29a20.1,20.1,0,0,0,.12,2.46,6.3,6.3,0,0,1,1.82,1A4.59,4.59,0,0,0,466.89,244.16Zm-2.11-1.11a1.93,1.93,0,0,0-.72-.13c-.54,0-.95.2-.95.63s.46.63.89.63a.74.74,0,0,0,.82-.79A2.55,2.55,0,0,0,464.78,243.05Z"/><path class="cls-9" d="M471.82,239.64a17.38,17.38,0,0,1-2,4.12c-.21-.1-.33-.16-.68-.3a15.15,15.15,0,0,0,1.86-3.73,12.54,12.54,0,0,1-1.59.06l-.09-.74a8,8,0,0,0,.88,0,8.31,8.31,0,0,0,1-.06,12.93,12.93,0,0,0,.36-1.52l.76.21c.1,0,.14.05.14.11s-.11.1-.18.1c-.13.46-.17.6-.29,1a7.51,7.51,0,0,0,1.39-.36,3.57,3.57,0,0,0,0,.73A12.69,12.69,0,0,1,471.82,239.64Zm3.92,5.06a7.26,7.26,0,0,0-1.42-1c0,1.28-1.24,1.28-1.53,1.28-.94,0-1.7-.44-1.7-1.23,0-.57.43-1.16,1.52-1.16a3.13,3.13,0,0,1,.93.15,6.31,6.31,0,0,1-.1-.93,1.57,1.57,0,0,1,.59-1.17l.59.39a1.08,1.08,0,0,0-.45.91,4.91,4.91,0,0,0,.12,1,9.68,9.68,0,0,1,1.89,1.17C476,244.33,475.91,244.48,475.74,244.7Zm-3.11-1.53c-.45,0-.87.18-.87.59,0,.64.94.64,1,.64.95,0,.91-.6.9-1A2.24,2.24,0,0,0,472.63,243.17Zm3.34-2.39a5.48,5.48,0,0,0-2.17-1.09l.4-.6a5.79,5.79,0,0,1,2.17,1.07Z"/><path class="cls-9" d="M483.12,245a1.13,1.13,0,0,1-1.18-1.24,8.1,8.1,0,0,1,.14-1.27,4.84,4.84,0,0,0,0-.54c0-.51-.33-.55-.54-.55a1.67,1.67,0,0,0-1.39.93,17.85,17.85,0,0,0-1.26,2.52l-.79-.34c.77-1.3,1.47-2.64,2.12-4s.73-1.61,1.3-3.06l.75.34c.08.05.15.07.15.15s-.14.1-.24.09c-.4.76-.81,1.57-1.45,3a2.38,2.38,0,0,1,1-.25,1,1,0,0,1,1.1,1,4.11,4.11,0,0,1-.12.9,6.83,6.83,0,0,0-.07.88c0,.16,0,.69.55.69.83,0,1.77-1.08,2.12-1.64a2.9,2.9,0,0,0,.52.59A3.8,3.8,0,0,1,483.12,245Z"/><path class="cls-9" d="M491.47,239.49a3.69,3.69,0,0,0-1.79,2.72c0,1.07.82,1.94,2.61,2.13a4.84,4.84,0,0,0-.32.79c-1.54-.31-3-1.15-3-2.92,0-1.1.65-2.28,2.3-3.26-.21,0-3.87.4-4.55.57l-.12-.91.43,0a49.25,49.25,0,0,0,6.64-.74l.17.83A3.8,3.8,0,0,0,491.47,239.49Zm1.28,2a7.72,7.72,0,0,0-.76-.94l.4-.31a6.07,6.07,0,0,1,.77.92A1.91,1.91,0,0,0,492.75,241.52Zm.83-.61a4.78,4.78,0,0,0-.76-1l.41-.29a6.78,6.78,0,0,1,.78.92A1.48,1.48,0,0,0,493.58,240.91Z"/><path class="cls-9" d="M501.63,239.33c-.5,0-1,0-1.48,0,0,.58,0,1.09,0,1.42a3.07,3.07,0,0,1,.32,1.38,3.61,3.61,0,0,1-.75,2.14,4.26,4.26,0,0,1-1.4,1.07c-.14-.14-.46-.39-.63-.53a2.78,2.78,0,0,0,1.94-1.88,1.28,1.28,0,0,1-1,.47c-.74,0-1.18-.64-1.18-1.56a1.44,1.44,0,0,1,1.34-1.62,1.18,1.18,0,0,1,.62.17c0-.16,0-.78,0-1-1,.05-2.67.19-3.61.34l-.07-.79c.58,0,3.14-.15,3.66-.18a8.85,8.85,0,0,0-.12-1.22l.83.09c.12,0,.21,0,.21.11s-.11.1-.16.12c0,.24,0,.31,0,.87l3-.14a6.77,6.77,0,0,0,0,.77C502.8,239.33,502.3,239.33,501.63,239.33Zm-2.79,1.51c-.55,0-.75.57-.75,1,0,.19,0,1,.69,1,.49,0,.85-.46.85-1.08A.84.84,0,0,0,498.84,240.84Z"/><path class="cls-9" d="M509.27,244.27a1.43,1.43,0,0,1-1.23.58,5.54,5.54,0,0,1-.86-.1,3,3,0,0,0-.06-.82,2.12,2.12,0,0,0,.87.19.86.86,0,0,0,.79-.41,4.65,4.65,0,0,0,.59-2.31c0-1.19-.56-1.36-1.06-1.36-.11,0-.15,0-.54.05a13,13,0,0,1-2.29,4.74,3,3,0,0,0-.7-.37,10.46,10.46,0,0,0,2.22-4.25,15.17,15.17,0,0,0-1.83.51l-.26-.75.85-.19c.7-.15,1.12-.24,1.43-.29a15.66,15.66,0,0,0,.28-1.92l.81.27c.1,0,.15,0,.15.11s-.09.12-.2.15-.19.86-.29,1.29h.44c1.17,0,1.7.69,1.7,1.9A5.68,5.68,0,0,1,509.27,244.27Zm1.55-1.62a3.55,3.55,0,0,0-.31-.63c.49-.08,1-.19,1-.64a5,5,0,0,0-1.38-2.53l.57-.37a5.61,5.61,0,0,1,1.55,3C512.27,241.79,512.27,242.4,510.82,242.65Z"/><path class="cls-9" d="M516.36,242.11c0-.48.09-.82.8-1.38s1-.74,1-1.31c0-.95-1-.95-1.21-.95-1.26,0-1.29.85-1.31,1.41h-.86a2,2,0,0,1,2.22-2.13c1.52,0,2,.84,2,1.65s-.35,1.11-1,1.61c-.81.62-.83.78-.83,1.23v.43h-.79Zm.83,2.46h-.87v-.93h.87Z"/><path class="cls-9" d="M313.15,266.86V270l3.61-3.1H318L315,269.43l3.12,4.07H317L314.37,270l-1.22,1v2.55h-.82v-6.64Z"/><path class="cls-9" d="M319.94,270.06c0-1.1,1-1.58,2-1.58.68,0,2,.25,2,1.6v2.61a1.09,1.09,0,0,0,.21.7v.11h-.82a1.19,1.19,0,0,1-.15-.6,2.37,2.37,0,0,1-1.77.79,1.56,1.56,0,0,1-1.75-1.49c0-1.16,1-1.31,2.61-1.57.6-.09.92-.14.92-.62,0-.2-.11-.89-1.23-.89-.7,0-1.22.27-1.26.94Zm3.24.93c-.23.14-.31.15-1,.25-1.42.21-1.76.38-1.76.94,0,.35.25.86,1.07.86a1.59,1.59,0,0,0,1.65-1.16Z"/><path class="cls-9" d="M326.9,268.66v.66a1.73,1.73,0,0,1,1.74-.84H329v.77h-.38a2.12,2.12,0,0,0-1.05.22,1.4,1.4,0,0,0-.65,1.16v2.87h-.76v-4.84Z"/><path class="cls-9" d="M331.56,266.86V271l2.33-2.29H335l-1.82,1.77,2,3.07h-1l-1.61-2.58-1,.93v1.65h-.77v-6.64Z"/><path class="cls-9" d="M337.66,268.66v3.16a1.16,1.16,0,0,0,1.18,1.22,1.37,1.37,0,0,0,1.33-1.39v-3h.76v4.84h-.75v-.71a1.77,1.77,0,0,1-1.54.9,1.71,1.71,0,0,1-1.73-1.82v-3.21Z"/><path class="cls-9" d="M343.9,268.66v.66a1.74,1.74,0,0,1,1.74-.84H346v.77h-.38a2.12,2.12,0,0,0-1.05.22,1.4,1.4,0,0,0-.65,1.16v2.87h-.76v-4.84Z"/><path class="cls-9" d="M348.65,267.81h-.88v-.95h.88Zm-.06,5.69h-.76v-4.84h.76Z"/><path class="cls-9" d="M355.76,270c-.44.22-1.93.94-1.93,1.93s1.93,1.11,2.5,1.11a10.09,10.09,0,0,0,2.81-.4,2.75,2.75,0,0,0-.06.84,15.87,15.87,0,0,1-2.7.25,5,5,0,0,1-2.44-.43,1.54,1.54,0,0,1-.87-1.36c0-1.08,1-1.75,1.88-2.27a3.2,3.2,0,0,1-.64-2,3.82,3.82,0,0,0-.16-1l1-.2c0,.35,0,.58,0,.8a3.55,3.55,0,0,0,.48,2.1,15,15,0,0,1,1.47-.63l1.83-.72.32.83A14.32,14.32,0,0,0,355.76,270Z"/><path class="cls-9" d="M362.62,273.7l-.64.13a11.06,11.06,0,0,1-.41-3.15,17.65,17.65,0,0,1,.47-3.95l.76.27c.08,0,.14,0,.14.13s-.08.11-.23.12a14,14,0,0,0-.45,3.51c0,.63.05,1.06.07,1.37.1-.21.48-1.15.57-1.34a2.76,2.76,0,0,0,.41.49A5.17,5.17,0,0,0,362.62,273.7Zm5.73-.61a4.58,4.58,0,0,0-1.39-.88c.09,1.38-1.28,1.49-1.54,1.49a1.35,1.35,0,0,1-1.47-1.23c0-.77.77-1.2,1.58-1.2a2.77,2.77,0,0,1,.64.07c-.05-.55-.06-.72-.09-2.23a11.43,11.43,0,0,1-1.46.09c-.29,0-.49,0-.69,0v-.73a7.69,7.69,0,0,0,1,.05c.21,0,.55,0,1.17-.05,0-.43,0-1.13,0-1.73l.85.13c.06,0,.14,0,.14.1s-.14.13-.2.14c-.05.4-.07.89-.08,1.27a10.36,10.36,0,0,0,1.47-.34v.71c-.2,0-.6.15-1.48.29a20.23,20.23,0,0,0,.12,2.46,6.06,6.06,0,0,1,1.82,1A5.08,5.08,0,0,0,368.35,273.09Zm-2.1-1.11a1.78,1.78,0,0,0-.72-.13c-.55,0-.95.2-.95.63s.46.63.88.63a.75.75,0,0,0,.83-.8A2.43,2.43,0,0,0,366.25,272Z"/><path class="cls-9" d="M373.63,270c-.45.22-1.93.94-1.93,1.93s1.93,1.11,2.49,1.11a10.14,10.14,0,0,0,2.82-.4,2.44,2.44,0,0,0-.06.84,16,16,0,0,1-2.71.25,5.05,5.05,0,0,1-2.44-.43,1.56,1.56,0,0,1-.87-1.36c0-1.08,1-1.75,1.89-2.27a3.14,3.14,0,0,1-.64-2,3.38,3.38,0,0,0-.17-1l1-.2c0,.35,0,.58,0,.8a3.47,3.47,0,0,0,.48,2.1,15.82,15.82,0,0,1,1.46-.63l1.84-.72.32.83A14.32,14.32,0,0,0,373.63,270Zm2.91-2.28a6.79,6.79,0,0,0-.66-.9l.43-.29a9.26,9.26,0,0,1,.68.9A2.31,2.31,0,0,0,376.54,267.76Zm.95-.31a7.07,7.07,0,0,0-.64-.88l.42-.3a8.59,8.59,0,0,1,.66.89A1.46,1.46,0,0,0,377.49,267.45Z"/><path class="cls-9" d="M385.24,272.63a4.87,4.87,0,0,1-2,1.14,3.52,3.52,0,0,0-.48-.65c2.51-.53,2.77-2.28,2.77-3a2.43,2.43,0,0,0-2.56-2.48,12.28,12.28,0,0,1-.91,3.88c-.47,1.1-.87,1.55-1.34,1.55s-1.58-1-1.58-2.36A3.88,3.88,0,0,1,383,267a3.1,3.1,0,0,1,3.29,3.12A3.62,3.62,0,0,1,385.24,272.63Zm-5.43-1.92c0,.91.5,1.57.86,1.57s.67-.8.87-1.33a10,10,0,0,0,.66-3.16A3.16,3.16,0,0,0,379.81,270.71Z"/><path class="cls-9" d="M394.45,273.38a6.73,6.73,0,0,0-2.52-1.48c0,.11,0,.2,0,.31,0,.85-.21,1.59-1.67,1.59s-2-1-2-1.4.62-1.41,2.19-1.41a6,6,0,0,1,.63.05c-.09-1.22-.09-1.41-.1-3.21a5.62,5.62,0,0,0-.12-1.32l.94.16c.08,0,.17,0,.17.13s-.05.1-.19.14c0,.43-.05.76-.05,1.35a9.41,9.41,0,0,0,2.89-.41,4.25,4.25,0,0,0,0,.8,14.43,14.43,0,0,1-2.87.32,13.92,13.92,0,0,0,.12,2.19,8.28,8.28,0,0,1,3.08,1.55C394.81,272.9,394.66,273.09,394.45,273.38Zm-3.28-1.66a3.1,3.1,0,0,0-.75-.09c-.57,0-1.44.2-1.44.78,0,.43.43.75,1.28.75.44,0,.95-.12.95-.84C391.21,272.14,391.19,272,391.17,271.72Z"/><path class="cls-9" d="M398.81,274.18a3.36,3.36,0,0,0-.44-.64c2.83-.42,3.71-1.87,3.71-2.94a1.41,1.41,0,0,0-1.4-1.56,7.18,7.18,0,0,0-3.52,1.4l-.38-.94a4.23,4.23,0,0,0,1.22-.41,6.91,6.91,0,0,1,2.7-.72,2,2,0,0,1,2.13,2.17C402.83,272.37,401.21,273.76,398.81,274.18Zm2.68-6.6a11.24,11.24,0,0,1-3.2-.43l.11-.72a8.66,8.66,0,0,0,2.66.4l.53,0A5.24,5.24,0,0,0,401.49,267.58Z"/><path class="cls-9" d="M407.66,268.57a17.06,17.06,0,0,1-2,4.12c-.22-.11-.34-.16-.68-.3a15.52,15.52,0,0,0,1.86-3.73,14.81,14.81,0,0,1-1.59.06l-.1-.74a8.21,8.21,0,0,0,.88,0,8.6,8.6,0,0,0,1-.06,14.14,14.14,0,0,0,.35-1.53l.77.21c.09,0,.13.05.13.11s-.11.1-.17.11l-.3,1a9.61,9.61,0,0,0,1.39-.36,3,3,0,0,0,0,.73A12.88,12.88,0,0,1,407.66,268.57Zm3.93,5.06a8.48,8.48,0,0,0-1.43-1c0,1.29-1.24,1.29-1.52,1.29-.95,0-1.7-.44-1.7-1.23,0-.57.43-1.16,1.51-1.16a3.67,3.67,0,0,1,.94.14,6,6,0,0,1-.1-.92,1.57,1.57,0,0,1,.59-1.17l.59.39a1.07,1.07,0,0,0-.46.91,4.9,4.9,0,0,0,.13,1,9.88,9.88,0,0,1,1.88,1.17C411.86,273.26,411.75,273.41,411.59,273.63Zm-3.12-1.53c-.45,0-.87.18-.87.59,0,.64.94.64,1,.64.94,0,.91-.6.89-1A2.19,2.19,0,0,0,408.47,272.1Zm3.34-2.39a5.32,5.32,0,0,0-2.17-1.09l.4-.6a6,6,0,0,1,2.18,1.07C412.08,269.29,411.92,269.53,411.81,269.71Z"/><path class="cls-9" d="M419.75,269.14v.23a4.35,4.35,0,0,1-3,4.64,2.29,2.29,0,0,0-.55-.59c2.75-1,2.75-2.71,2.75-4.28H416.7v2.21H416v-2.21h-1.7v-.7H416v-1.79l.7.05c.11,0,.2,0,.2.1s-.06.08-.15.13v1.51H419V266.6l.76,0c.07,0,.16,0,.16.1s-.07.1-.16.13v1.56h1.67v.7Z"/><path class="cls-9" d="M423.17,270.67v-.74h7.16v.74Z"/><path class="cls-9" d="M438.76,273.57l-3.12.05c-1.84,0-2.67,0-2.67-1.61v-5.37l.79.06c.08,0,.16,0,.16.1s-.1.12-.2.17v2.71a10.14,10.14,0,0,0,4.19-1.67l.62.51a.14.14,0,0,1,.06.11c0,.09-.15.09-.19.09l-.14,0a12.47,12.47,0,0,1-4.54,1.66v1.51c0,1,.19,1.08,1.82,1.08a30.69,30.69,0,0,0,3.33-.15C438.83,273,438.81,273.17,438.76,273.57Zm-.25-5.59a6.88,6.88,0,0,0-.85-.87l.41-.33a6.86,6.86,0,0,1,.83.86A2.5,2.5,0,0,0,438.51,268Zm.69-.53a4.54,4.54,0,0,0-.85-.91l.4-.32a5.87,5.87,0,0,1,.87.86A2.29,2.29,0,0,0,439.2,267.45Z"/><path class="cls-9" d="M447.84,273.65a11.27,11.27,0,0,0-2.65-2.73,9.28,9.28,0,0,1-3.63,2.84,1.81,1.81,0,0,0-.47-.65,7.89,7.89,0,0,0,4.85-5.24h-4.11v-.69h4.23a2.69,2.69,0,0,0,.57-.06l.42.39a2.22,2.22,0,0,0-.31.55,13.18,13.18,0,0,1-1.17,2.31,14.52,14.52,0,0,1,2.86,2.69A3.66,3.66,0,0,0,447.84,273.65Z"/><path class="cls-9" d="M454.66,268.41a3.73,3.73,0,0,0-1.79,2.73c0,1.07.82,1.94,2.61,2.13a4.51,4.51,0,0,0-.32.79c-1.54-.31-3-1.16-3-2.92,0-1.1.65-2.28,2.3-3.26-.21,0-3.87.4-4.55.57l-.12-.91.43,0a48.06,48.06,0,0,0,6.64-.75l.17.84A3.83,3.83,0,0,0,454.66,268.41Zm1.28,2a7.72,7.72,0,0,0-.76-.94l.4-.31a6.07,6.07,0,0,1,.77.92A1.64,1.64,0,0,0,455.94,270.45Zm.83-.61a4.78,4.78,0,0,0-.76-1l.41-.29a6.78,6.78,0,0,1,.78.92A1.48,1.48,0,0,0,456.77,269.84Z"/><path class="cls-9" d="M464.82,268.25c-.5,0-1,0-1.48,0,0,.58,0,1.09,0,1.42a3.07,3.07,0,0,1,.32,1.38,3.61,3.61,0,0,1-.75,2.14,4.26,4.26,0,0,1-1.4,1.07c-.14-.14-.46-.39-.63-.53a2.82,2.82,0,0,0,1.94-1.88,1.28,1.28,0,0,1-1,.47c-.74,0-1.18-.64-1.18-1.56a1.44,1.44,0,0,1,1.34-1.62,1.09,1.09,0,0,1,.62.17c0-.16,0-.78,0-1-1,.05-2.67.19-3.61.34l-.07-.79c.58,0,3.14-.15,3.66-.18a8.68,8.68,0,0,0-.12-1.22l.83.08c.12,0,.21,0,.21.11s-.1.11-.16.13c0,.24,0,.3,0,.87l3-.14a6.77,6.77,0,0,0,0,.77C466,268.26,465.49,268.25,464.82,268.25ZM462,269.77c-.55,0-.75.57-.75,1,0,.19,0,.95.69.95.49,0,.85-.46.85-1.08A.84.84,0,0,0,462,269.77Z"/><path class="cls-9" d="M472.46,273.2a1.43,1.43,0,0,1-1.23.58,5.54,5.54,0,0,1-.86-.1,3,3,0,0,0-.06-.82,2.12,2.12,0,0,0,.87.19.85.85,0,0,0,.79-.42,4.57,4.57,0,0,0,.59-2.3c0-1.19-.56-1.36-1.06-1.36-.11,0-.15,0-.54,0a12.89,12.89,0,0,1-2.29,4.73,3.91,3.91,0,0,0-.7-.37,10.24,10.24,0,0,0,2.22-4.24,14.61,14.61,0,0,0-1.82.51l-.27-.76c.2,0,.76-.16.86-.18l1.42-.3a15.3,15.3,0,0,0,.28-1.91l.81.26c.1,0,.15.05.15.12s-.09.12-.2.15-.19.86-.29,1.29h.44c1.17,0,1.7.69,1.7,1.9A5.68,5.68,0,0,1,472.46,273.2Zm1.55-1.62a3.55,3.55,0,0,0-.31-.63c.49-.08,1-.19,1-.64a5,5,0,0,0-1.38-2.54l.57-.37a5.66,5.66,0,0,1,1.55,3C475.46,270.72,475.46,271.33,474,271.58Z"/><path class="cls-9" d="M479.55,271c0-.48.09-.81.8-1.37s1-.74,1-1.31c0-1-1-1-1.21-1-1.26,0-1.29.85-1.31,1.41h-.86a2,2,0,0,1,2.23-2.13c1.51,0,2,.84,2,1.65s-.35,1.11-1,1.61c-.81.62-.83.77-.83,1.23v.43h-.79Zm.83,2.47h-.87v-.93h.87Z"/><path class="cls-9" d="M313.15,295.79v3.1l3.61-3.1H318L315,298.35l3.12,4.08H317l-2.66-3.54-1.22,1v2.55h-.82v-6.64Z"/><path class="cls-9" d="M319.94,299c0-1.1,1-1.58,2-1.58.68,0,2,.24,2,1.6v2.6a1.1,1.1,0,0,0,.21.71v.11h-.82a1.22,1.22,0,0,1-.15-.6,2.37,2.37,0,0,1-1.77.79,1.56,1.56,0,0,1-1.75-1.49c0-1.16,1-1.31,2.61-1.57.6-.09.92-.14.92-.62,0-.2-.11-.89-1.23-.89-.7,0-1.22.27-1.26.94Zm3.24.93c-.23.14-.31.14-1,.24-1.42.22-1.76.39-1.76.95,0,.35.25.86,1.07.86a1.59,1.59,0,0,0,1.65-1.16Z"/><path class="cls-9" d="M326.9,297.59v.66a1.73,1.73,0,0,1,1.74-.84H329v.77h-.38a2.12,2.12,0,0,0-1.05.22,1.38,1.38,0,0,0-.65,1.16v2.87h-.76v-4.84Z"/><path class="cls-9" d="M330.74,299c0-1.1,1-1.58,2-1.58.68,0,2,.24,2,1.6v2.6a1.1,1.1,0,0,0,.21.71v.11h-.82a1.22,1.22,0,0,1-.15-.6,2.37,2.37,0,0,1-1.77.79,1.56,1.56,0,0,1-1.75-1.49c0-1.16,1-1.31,2.61-1.57.6-.09.92-.14.92-.62,0-.2-.12-.89-1.23-.89-.7,0-1.22.27-1.26.94Zm3.24.93c-.23.14-.31.14-1,.24-1.41.22-1.75.39-1.75.95,0,.35.25.86,1.06.86a1.6,1.6,0,0,0,1.66-1.16Z"/><path class="cls-9" d="M337.71,295.79v4.09l2.33-2.29h1l-1.81,1.77,2,3.07h-1l-1.62-2.58-1,.93v1.65h-.77v-6.64Z"/><path class="cls-9" d="M343.81,297.59v3.16A1.15,1.15,0,0,0,345,302a1.37,1.37,0,0,0,1.33-1.39v-3h.76v4.84h-.75v-.71a1.81,1.81,0,0,1-1.54.9A1.72,1.72,0,0,1,343,300.8v-3.21Z"/><path class="cls-9" d="M350,297.59v.66a1.72,1.72,0,0,1,1.73-.84h.35v.77h-.38a2.09,2.09,0,0,0-1.05.22,1.38,1.38,0,0,0-.65,1.16v2.87h-.77v-4.84Z"/><path class="cls-9" d="M354.8,296.74h-.89v-.95h.89Zm-.06,5.69H354v-4.84h.77Z"/><path class="cls-9" d="M365.09,301.55a4.77,4.77,0,0,1-2,1.15,4.21,4.21,0,0,0-.48-.65c2.51-.53,2.77-2.28,2.77-3a2.43,2.43,0,0,0-2.56-2.48,12,12,0,0,1-.92,3.88c-.46,1.1-.87,1.54-1.33,1.54-.62,0-1.59-1-1.59-2.35a3.88,3.88,0,0,1,3.83-3.74,3.11,3.11,0,0,1,3.29,3.13A3.58,3.58,0,0,1,365.09,301.55Zm-5.42-1.92c0,.91.49,1.58.85,1.58s.67-.8.87-1.33a10,10,0,0,0,.66-3.16A3.16,3.16,0,0,0,359.67,299.63Z"/><path class="cls-9" d="M368.27,301.8v-.7h5.21v-3.72h-5.21v-.7h6v5.53h-.76v-.41Z"/><path class="cls-9" d="M379.2,298a9.34,9.34,0,0,0-2.4-1.61l.44-.62a11.38,11.38,0,0,1,2.41,1.59A3.91,3.91,0,0,0,379.2,298Zm-1.65,4.55c0,.14,0,.19-.12.19s-.1-.06-.13-.1l-.45-.76a10,10,0,0,0,6.43-4.62,5.22,5.22,0,0,0,.46.65A11.36,11.36,0,0,1,377.55,302.56Z"/><path class="cls-9" d="M392.43,298.19a21.76,21.76,0,0,1-1.89,2.28,1.59,1.59,0,0,0-.63-.42,9.12,9.12,0,0,0,1.68-1.88l-3,.42v2.21c0,1,.09,1.13,1.35,1.13a19.07,19.07,0,0,0,2.52-.13,3.87,3.87,0,0,0-.08.8l-2.66,0c-1.57,0-1.87-.45-1.87-1.67v-2.26l-2.15.3-.07-.69,2.22-.31v-2.38l.74,0c.09,0,.17,0,.17.09s-.11.13-.17.15v2l3.07-.42a2,2,0,0,0,.61-.15l.49.44A3.39,3.39,0,0,0,392.43,298.19Z"/><path class="cls-9" d="M401.18,297.39a8.46,8.46,0,0,1-4.93,5.43,2.37,2.37,0,0,0-.55-.58,7.5,7.5,0,0,0,4.74-5.05h-5.63v-.69h5.48a1.35,1.35,0,0,0,.58-.08l.54.48A2.7,2.7,0,0,0,401.18,297.39Zm.39-.84a.76.76,0,0,1-.75-.76.76.76,0,0,1,1.51,0A.76.76,0,0,1,401.57,296.55Zm0-1.19a.44.44,0,0,0-.43.43.43.43,0,0,0,.43.44.44.44,0,0,0,.44-.44A.44.44,0,0,0,401.57,295.36Z"/><path class="cls-9" d="M409.15,300.55a11.93,11.93,0,0,0-3.12-2.14v4.43h-.75v-7.28l.76.06c.11,0,.16,0,.16.1s-.11.12-.17.12v2.4l.33-.45a13.54,13.54,0,0,1,3.24,2.15A4,4,0,0,0,409.15,300.55Z"/><path class="cls-9" d="M413.12,302.63l-.63.13a11.06,11.06,0,0,1-.41-3.15,18,18,0,0,1,.46-3.95l.77.27c.08,0,.14,0,.14.12s-.08.12-.23.13a13.48,13.48,0,0,0-.46,3.51,12.54,12.54,0,0,0,.08,1.37c.1-.21.48-1.16.56-1.34a3.18,3.18,0,0,0,.42.49A5.25,5.25,0,0,0,413.12,302.63Zm5.74-.61a4.58,4.58,0,0,0-1.39-.88c.09,1.38-1.29,1.49-1.54,1.49a1.35,1.35,0,0,1-1.47-1.23c0-.77.76-1.2,1.58-1.2a2.84,2.84,0,0,1,.64.07c-.05-.55-.06-.72-.09-2.24a9.47,9.47,0,0,1-1.46.1c-.3,0-.49,0-.69,0v-.73c.24,0,.53.05,1,.05.21,0,.55,0,1.17-.05,0-.43,0-1.13,0-1.73l.85.13c.06,0,.13,0,.13.1s-.13.13-.19.13c-.05.41-.07.9-.09,1.28a10.24,10.24,0,0,0,1.48-.34v.71c-.2.05-.6.15-1.48.29a23.27,23.27,0,0,0,.11,2.46,6,6,0,0,1,1.82,1C419.1,301.56,419,301.81,418.86,302Zm-2.1-1.11a1.78,1.78,0,0,0-.72-.13c-.55,0-1,.2-1,.63s.45.62.88.62a.74.74,0,0,0,.83-.79A2.43,2.43,0,0,0,416.76,300.91Z"/><path class="cls-9" d="M423.79,297.49a17,17,0,0,1-2,4.13c-.22-.11-.34-.16-.68-.3a15.52,15.52,0,0,0,1.86-3.73,14.81,14.81,0,0,1-1.59.06l-.09-.74a7.82,7.82,0,0,0,.87,0,8.6,8.6,0,0,0,1-.06,12.87,12.87,0,0,0,.35-1.53l.77.21c.09,0,.14.05.14.11s-.11.1-.18.11l-.3,1a7.67,7.67,0,0,0,1.39-.37,4.64,4.64,0,0,0,0,.74A11.16,11.16,0,0,1,423.79,297.49Zm3.93,5.07a8.06,8.06,0,0,0-1.43-1c0,1.29-1.23,1.29-1.52,1.29-.94,0-1.7-.44-1.7-1.23,0-.57.43-1.16,1.51-1.16a3.21,3.21,0,0,1,.94.14,6,6,0,0,1-.1-.92,1.57,1.57,0,0,1,.59-1.17l.59.39a1.06,1.06,0,0,0-.46.91,4.9,4.9,0,0,0,.13,1,8.81,8.81,0,0,1,1.89,1.17C428,302.19,427.89,302.34,427.72,302.56ZM424.6,301c-.44,0-.87.19-.87.6,0,.64.95.64,1,.64.94,0,.91-.6.89-1A2.24,2.24,0,0,0,424.6,301Zm3.35-2.38a5.47,5.47,0,0,0-2.18-1.09l.41-.6a5.88,5.88,0,0,1,2.17,1.07A6.44,6.44,0,0,0,428,298.64Z"/><path class="cls-9" d="M435.1,302.85a1.14,1.14,0,0,1-1.19-1.24,8.78,8.78,0,0,1,.15-1.27,5.07,5.07,0,0,0,0-.55.48.48,0,0,0-.54-.54,1.69,1.69,0,0,0-1.4.92,19.25,19.25,0,0,0-1.25,2.53l-.8-.35c.78-1.29,1.48-2.63,2.13-4s.73-1.61,1.29-3.06l.75.35c.09,0,.16.07.16.14s-.15.1-.24.1c-.4.75-.82,1.57-1.46,3a2.48,2.48,0,0,1,1-.25,1,1,0,0,1,1.1,1,4.68,4.68,0,0,1-.12.9,6.82,6.82,0,0,0-.08.89c0,.16,0,.69.55.69.84,0,1.77-1.09,2.12-1.64a3.29,3.29,0,0,0,.53.59A3.81,3.81,0,0,1,435.1,302.85Z"/><path class="cls-9" d="M443.44,297.34a3.75,3.75,0,0,0-1.78,2.72c0,1.08.81,1.95,2.61,2.13a4.18,4.18,0,0,0-.32.8c-1.54-.32-3-1.16-3-2.92,0-1.1.64-2.28,2.3-3.27-.22,0-3.87.41-4.55.58l-.12-.91H439a47.77,47.77,0,0,0,6.64-.74l.16.84A3.85,3.85,0,0,0,443.44,297.34Zm1.28,2a6.84,6.84,0,0,0-.76-.94l.41-.31a7.12,7.12,0,0,1,.77.91A2,2,0,0,0,444.72,299.38Zm.84-.61a5.63,5.63,0,0,0-.76-1l.4-.29a6.86,6.86,0,0,1,.79.92A1.36,1.36,0,0,0,445.56,298.77Z"/><path class="cls-9" d="M453.61,297.18c-.5,0-1,0-1.49,0,0,.58,0,1.09,0,1.42a3,3,0,0,1,.33,1.37,3.59,3.59,0,0,1-.76,2.14,3.83,3.83,0,0,1-1.4,1.07c-.13-.13-.45-.38-.63-.52a2.83,2.83,0,0,0,1.95-1.89,1.31,1.31,0,0,1-1,.48c-.74,0-1.17-.64-1.17-1.56s.56-1.62,1.33-1.62a1.16,1.16,0,0,1,.63.17c0-.16,0-.78,0-1-1,0-2.67.19-3.6.34l-.07-.79c.58,0,3.13-.15,3.65-.18a11,11,0,0,0-.11-1.22l.83.08c.12,0,.2,0,.2.11s-.1.1-.15.13c0,.23,0,.3,0,.87l2.95-.14a5.16,5.16,0,0,0,0,.77C454.78,297.19,454.27,297.18,453.61,297.18Zm-2.79,1.52c-.56,0-.75.56-.75,1,0,.19,0,.95.69.95.49,0,.85-.47.85-1.08A.83.83,0,0,0,450.82,298.7Z"/><path class="cls-9" d="M461.24,302.13a1.41,1.41,0,0,1-1.23.58,5.46,5.46,0,0,1-.85-.1,4.15,4.15,0,0,0-.06-.82,2.06,2.06,0,0,0,.86.19.85.85,0,0,0,.8-.42,4.68,4.68,0,0,0,.59-2.3c0-1.19-.56-1.36-1.07-1.36-.11,0-.15,0-.53.05a12.9,12.9,0,0,1-2.3,4.73,3.83,3.83,0,0,0-.69-.37,10.54,10.54,0,0,0,2.22-4.24,14.22,14.22,0,0,0-1.83.51l-.26-.76c.19,0,.76-.16.85-.18.69-.15,1.12-.25,1.42-.3a12.24,12.24,0,0,0,.28-1.91l.82.26c.1,0,.15,0,.15.12s-.09.12-.2.14-.2.87-.3,1.3l.45,0c1.16,0,1.69.69,1.69,1.91A5.59,5.59,0,0,1,461.24,302.13Zm1.55-1.62a2.35,2.35,0,0,0-.31-.63c.5-.09,1-.2,1-.64a4.93,4.93,0,0,0-1.37-2.54l.56-.37a5.6,5.6,0,0,1,1.55,3C464.24,299.65,464.24,300.26,462.79,300.51Z"/><path class="cls-9" d="M468.33,300c0-.48.1-.81.8-1.37s1-.74,1-1.31c0-1-1-1-1.2-1-1.26,0-1.3.85-1.31,1.42h-.86a2,2,0,0,1,2.22-2.13c1.52,0,2,.84,2,1.65s-.35,1.11-1,1.61c-.81.62-.82.77-.82,1.23v.43h-.8Zm.84,2.47h-.88v-.93h.88Z"/><path class="cls-9" d="M313.15,324.72v3.1l3.61-3.1H318L315,327.28l3.12,4.08H317l-2.66-3.54-1.22,1v2.55h-.82v-6.64Z"/><path class="cls-9" d="M319.94,327.91c0-1.09,1-1.57,2-1.57.68,0,2,.24,2,1.6v2.6a1.1,1.1,0,0,0,.21.71v.11h-.82a1.22,1.22,0,0,1-.15-.6,2.37,2.37,0,0,1-1.77.78,1.55,1.55,0,0,1-1.75-1.49c0-1.15,1-1.3,2.61-1.56.6-.1.92-.15.92-.63,0-.19-.11-.88-1.23-.88-.7,0-1.22.27-1.26.93Zm3.24.94a2.29,2.29,0,0,1-1,.24c-1.42.21-1.76.39-1.76,1,0,.35.25.86,1.07.86a1.59,1.59,0,0,0,1.65-1.16Z"/><path class="cls-9" d="M326.9,326.52v.66a1.73,1.73,0,0,1,1.74-.84H329v.77h-.38a2.27,2.27,0,0,0-1.05.21,1.4,1.4,0,0,0-.65,1.17v2.87h-.76v-4.84Z"/><path class="cls-9" d="M330.74,327.91c0-1.09,1-1.57,2-1.57.68,0,2,.24,2,1.6v2.6a1.1,1.1,0,0,0,.21.71v.11h-.82a1.22,1.22,0,0,1-.15-.6,2.37,2.37,0,0,1-1.77.78,1.55,1.55,0,0,1-1.75-1.49c0-1.15,1-1.3,2.61-1.56.6-.1.92-.15.92-.63,0-.19-.12-.88-1.23-.88-.7,0-1.22.27-1.26.93Zm3.24.94a2.31,2.31,0,0,1-1,.24c-1.41.21-1.75.39-1.75,1,0,.35.25.86,1.06.86a1.6,1.6,0,0,0,1.66-1.16Z"/><path class="cls-9" d="M337.71,324.72v4.09l2.33-2.29h1l-1.81,1.76,2,3.08h-1l-1.62-2.58-1,.93v1.65h-.77v-6.64Z"/><path class="cls-9" d="M343.81,326.52v3.15A1.16,1.16,0,0,0,345,330.9a1.37,1.37,0,0,0,1.33-1.39v-3h.76v4.84h-.75v-.71a1.8,1.8,0,0,1-1.54.89,1.71,1.71,0,0,1-1.74-1.81v-3.21Z"/><path class="cls-9" d="M350,326.52v.66a1.72,1.72,0,0,1,1.73-.84h.35v.77h-.38a2.24,2.24,0,0,0-1.05.21,1.4,1.4,0,0,0-.65,1.17v2.87h-.77v-4.84Z"/><path class="cls-9" d="M354.8,325.67h-.89v-.95h.89Zm-.06,5.69H354v-4.84h.77Z"/><path class="cls-9" d="M365.09,330.48a4.89,4.89,0,0,1-2,1.15,4.21,4.21,0,0,0-.48-.65c2.51-.53,2.77-2.28,2.77-3a2.43,2.43,0,0,0-2.56-2.48,12.1,12.1,0,0,1-.92,3.88c-.46,1.1-.87,1.54-1.33,1.54-.62,0-1.59-1-1.59-2.35a3.88,3.88,0,0,1,3.83-3.74,3.11,3.11,0,0,1,3.29,3.13A3.58,3.58,0,0,1,365.09,330.48Zm-5.42-1.92c0,.91.49,1.58.85,1.58s.67-.8.87-1.33a10,10,0,0,0,.66-3.16A3.16,3.16,0,0,0,359.67,328.56Z"/><path class="cls-9" d="M374.42,326.4a10,10,0,0,1-1.24,2.58,8.51,8.51,0,0,1,1.06,1.08,4.89,4.89,0,0,0-.51.62,7.27,7.27,0,0,0-1-1.12,8.69,8.69,0,0,1-3.5,2.34,7.33,7.33,0,0,0-.49-.66,7.51,7.51,0,0,0,3.44-2.15,13.26,13.26,0,0,0-1.77-1.22l.44-.51a17.77,17.77,0,0,1,1.76,1.17,7.69,7.69,0,0,0,.94-2.06H371a9.5,9.5,0,0,1-2,2.17,2.49,2.49,0,0,0-.57-.53,7.57,7.57,0,0,0,2.84-3.75l.76.23c.1,0,.14.05.14.12s-.13.1-.19.1c-.16.3-.36.69-.54,1h2.32a1.32,1.32,0,0,0,.54-.09l.37.33C374.5,326.21,374.48,326.28,374.42,326.4Z"/><path class="cls-9" d="M376.63,328.53v-.74h7.17v.74Z"/><path class="cls-9" d="M390.81,327.09a5.53,5.53,0,0,1-2.87,4.93,4.66,4.66,0,0,0-.59-.52,4.75,4.75,0,0,0,2.7-4.41H388a12.72,12.72,0,0,1-1.59,2,1.58,1.58,0,0,0-.62-.46,10,10,0,0,0,2.69-4.38l.76.29c.1,0,.14.07.14.12s-.11.11-.25.13a13.15,13.15,0,0,1-.73,1.61H393v.7Zm1.32-1.39a6.16,6.16,0,0,0-.8-.93l.41-.29a5.82,5.82,0,0,1,.81.9A1.91,1.91,0,0,0,392.13,325.7Zm1-.2a4.58,4.58,0,0,0-.77-.95l.42-.27a5.1,5.1,0,0,1,.8.89A1.8,1.8,0,0,0,393.1,325.5Z"/><path class="cls-9" d="M396.27,328.53a7.75,7.75,0,0,0-.83-1.74l.59-.25a7.64,7.64,0,0,1,.84,1.72A3.24,3.24,0,0,0,396.27,328.53Zm4.87-1.85a6.35,6.35,0,0,1-4.22,5,4.22,4.22,0,0,0-.42-.55,5.61,5.61,0,0,0,4-4.88l.65.2c.11,0,.15.07.15.13S401.23,326.66,401.14,326.68Zm-3.06,1.41a7.49,7.49,0,0,0-.79-1.74l.6-.25a7.07,7.07,0,0,1,.79,1.75A2.29,2.29,0,0,0,398.08,328.09Z"/><path class="cls-9" d="M408.8,329.48a11.93,11.93,0,0,0-3.12-2.14v4.43h-.76v-7.28l.77.06c.11,0,.16,0,.16.1s-.11.11-.17.12v2.4l.33-.45a13.24,13.24,0,0,1,3.24,2.15A3.42,3.42,0,0,0,408.8,329.48Z"/><path class="cls-9" d="M412.77,331.56l-.64.13a11.68,11.68,0,0,1-.4-3.15,18,18,0,0,1,.46-4l.77.27c.07,0,.13,0,.13.12s-.07.12-.22.13a13.42,13.42,0,0,0-.46,3.51,12.71,12.71,0,0,0,.08,1.37c.1-.21.48-1.16.56-1.34a3.88,3.88,0,0,0,.41.49A5.37,5.37,0,0,0,412.77,331.56Zm5.74-.61a4.7,4.7,0,0,0-1.39-.88c.08,1.38-1.29,1.49-1.54,1.49a1.36,1.36,0,0,1-1.48-1.23c0-.77.77-1.2,1.59-1.2a3.67,3.67,0,0,1,.64.06c-.05-.54-.06-.71-.09-2.23a9.59,9.59,0,0,1-1.46.1c-.3,0-.49,0-.69,0v-.73c.24,0,.53.05,1,.05.21,0,.55,0,1.17-.05,0-.43,0-1.13,0-1.73l.85.13c.06,0,.13,0,.13.1s-.13.12-.19.13c0,.41-.07.9-.09,1.27a9.32,9.32,0,0,0,1.48-.33v.71c-.21.05-.6.15-1.49.29a22.69,22.69,0,0,0,.12,2.46,6,6,0,0,1,1.82,1C418.75,330.49,418.63,330.74,418.51,331Zm-2.11-1.12a1.94,1.94,0,0,0-.71-.12c-.55,0-.95.2-.95.63s.45.62.88.62a.75.75,0,0,0,.83-.79A1.74,1.74,0,0,0,416.4,329.83Z"/><path class="cls-9" d="M423,328.89c0-.48.1-.82.8-1.37s1-.74,1-1.32c0-.95-1-.95-1.2-.95-1.26,0-1.3.85-1.31,1.42h-.86a2,2,0,0,1,2.22-2.13c1.52,0,2,.84,2,1.65s-.34,1.11-1,1.61c-.81.62-.82.77-.82,1.23v.43H423Zm.84,2.47h-.88v-.94h.88Z"/><path class="cls-9" d="M313.15,353.65v3.1l3.61-3.1H318L315,356.21l3.12,4.08H317l-2.66-3.54-1.22,1v2.55h-.82v-6.64Z"/><path class="cls-9" d="M319.94,356.84c0-1.09,1-1.57,2-1.57.68,0,2,.24,2,1.6v2.6a1.12,1.12,0,0,0,.21.71v.11h-.82a1.24,1.24,0,0,1-.15-.6,2.37,2.37,0,0,1-1.77.78,1.56,1.56,0,0,1-1.75-1.49c0-1.15,1-1.3,2.61-1.56.6-.1.92-.15.92-.63,0-.19-.11-.88-1.23-.88-.7,0-1.22.27-1.26.93Zm3.24.94a2.29,2.29,0,0,1-1,.24c-1.42.21-1.76.39-1.76,1,0,.35.25.85,1.07.85a1.59,1.59,0,0,0,1.65-1.15Z"/><path class="cls-9" d="M326.9,355.44v.67a1.73,1.73,0,0,1,1.74-.84H329V356h-.38a2.24,2.24,0,0,0-1.05.22,1.4,1.4,0,0,0-.65,1.17v2.87h-.76v-4.85Z"/><path class="cls-9" d="M330.74,356.84c0-1.09,1-1.57,2-1.57.68,0,2,.24,2,1.6v2.6a1.12,1.12,0,0,0,.21.71v.11h-.82a1.24,1.24,0,0,1-.15-.6,2.37,2.37,0,0,1-1.77.78,1.56,1.56,0,0,1-1.75-1.49c0-1.15,1-1.3,2.61-1.56.6-.1.92-.15.92-.63,0-.19-.12-.88-1.23-.88-.7,0-1.22.27-1.26.93Zm3.24.94a2.31,2.31,0,0,1-1,.24c-1.41.21-1.75.39-1.75,1,0,.35.25.85,1.06.85a1.59,1.59,0,0,0,1.66-1.15Z"/><path class="cls-9" d="M337.71,353.65v4.09l2.33-2.3h1l-1.81,1.77,2,3.08h-1l-1.62-2.58-1,.93v1.65h-.77v-6.64Z"/><path class="cls-9" d="M343.81,355.44v3.16a1.15,1.15,0,0,0,1.18,1.22,1.36,1.36,0,0,0,1.33-1.39v-3h.76v4.85h-.75v-.71a1.82,1.82,0,0,1-1.54.89,1.71,1.71,0,0,1-1.74-1.82v-3.21Z"/><path class="cls-9" d="M350,355.44v.67a1.72,1.72,0,0,1,1.73-.84h.35V356h-.38a2.2,2.2,0,0,0-1.05.22,1.4,1.4,0,0,0-.65,1.17v2.87h-.77v-4.85Z"/><path class="cls-9" d="M354.8,354.59h-.89v-.94h.89Zm-.06,5.7H354v-4.85h.77Z"/><path class="cls-9" d="M365.09,359.41a4.89,4.89,0,0,1-2,1.15,4.21,4.21,0,0,0-.48-.65c2.51-.53,2.77-2.28,2.77-3a2.42,2.42,0,0,0-2.56-2.47,12.1,12.1,0,0,1-.92,3.88c-.46,1.1-.87,1.54-1.33,1.54-.62,0-1.59-1-1.59-2.36a3.88,3.88,0,0,1,3.83-3.73,3.11,3.11,0,0,1,3.29,3.13A3.6,3.6,0,0,1,365.09,359.41Zm-5.42-1.92c0,.91.49,1.58.85,1.58s.67-.8.87-1.33a10,10,0,0,0,.66-3.16A3.15,3.15,0,0,0,359.67,357.49Z"/><path class="cls-9" d="M370.5,358.33a9,9,0,0,1-2.21,1,1.64,1.64,0,0,0-.51-.57A9.17,9.17,0,0,0,371.3,357a10.15,10.15,0,0,0-1.29-1.24,10.24,10.24,0,0,1-1.34,1.14,2,2,0,0,0-.55-.49,8,8,0,0,0,3-3.33l.62.21c.1,0,.15.05.15.12s-.06.08-.23.13l-.31.51h2.35l.44.34a10.14,10.14,0,0,1-2.36,3h3.45v3.52h-.72v-.48h-3.31V361h-.71Zm.44-3.66c-.12.17-.27.35-.49.61a10.29,10.29,0,0,1,1.35,1.23,7.93,7.93,0,0,0,1.38-1.84Zm3.58,5.14v-1.75h-3.31v1.75Z"/><path class="cls-9" d="M376.9,355.14v-.61h2.36a5.38,5.38,0,0,0-.7-1l.64-.28a7,7,0,0,1,.76,1.13l-.42.19h1.9a11.09,11.09,0,0,0,.78-1.35l.71.21c.08,0,.14.08.14.12s-.15.11-.25.11c-.26.43-.41.65-.59.91h2.4v.61Zm2.4,5.79a1.79,1.79,0,0,0-.25-.73,4.73,4.73,0,0,0,.52,0c.32,0,.35-.06.35-.42V359h-1.67v1.93h-.65V355.7h3V360C380.57,360.68,380.48,360.92,379.3,360.93Zm.62-4.67h-1.67v.82h1.67Zm0,1.37h-1.67v.81h1.67Zm2.2-1.68v3.44h-.7v-3.72l.69,0c.08,0,.19,0,.19.11S382.24,355.9,382.12,356Zm1.78-.19v4.16c0,.86-.26,1-1.45,1a1.46,1.46,0,0,0-.2-.76,3.81,3.81,0,0,0,.58.05c.33,0,.38-.08.38-.43v-4.31l.74.05c.11,0,.18,0,.18.1S384,355.72,383.9,355.76Z"/><path class="cls-9" d="M392.33,359.41a4.89,4.89,0,0,1-2,1.15,4.21,4.21,0,0,0-.48-.65c2.51-.53,2.77-2.28,2.77-3a2.42,2.42,0,0,0-2.56-2.47,12.1,12.1,0,0,1-.92,3.88c-.46,1.1-.87,1.54-1.33,1.54-.63,0-1.59-1-1.59-2.36A3.88,3.88,0,0,1,390,353.8a3.11,3.11,0,0,1,3.29,3.13A3.6,3.6,0,0,1,392.33,359.41Zm-5.43-1.92c0,.91.5,1.58.86,1.58s.67-.8.87-1.33a10,10,0,0,0,.66-3.16A3.15,3.15,0,0,0,386.9,357.49Z"/><path class="cls-9" d="M396.28,360.34v.6h-.73V355h2.94V353.2l.72.05c.07,0,.21,0,.21.1s-.05.11-.21.16V355h3v5.91h-.72v-.6Zm2.21-3v-1.65h-2.21v1.65Zm0,2.41V358h-2.21v1.77Zm3-2.41v-1.65h-2.25v1.65Zm0,2.41V358h-2.25v1.77Z"/><path class="cls-9" d="M408.49,361h-.66v-3a9.47,9.47,0,0,1-3.09,2.82,2.16,2.16,0,0,0-.59-.52,9.26,9.26,0,0,0,3.26-2.63H404.3V357h3.53v-2h-3.15v-.63h3.15v-1.08l.68.06c.05,0,.18,0,.18.1s-.11.12-.2.15v.77h3.14V355h-3.14v2H412v.6h-3.14a9,9,0,0,0,3.14,2.54,1.94,1.94,0,0,0-.48.54,8.54,8.54,0,0,1-3-2.68Zm-2.33-5.89a8.13,8.13,0,0,1,.83,1.56,3.68,3.68,0,0,0-.62.32,7.79,7.79,0,0,0-.81-1.57Zm4.58.27s.12.05.12.11-.12.11-.22.11a8,8,0,0,1-.71,1.39,3.28,3.28,0,0,0-.6-.32,8,8,0,0,0,.76-1.6Z"/><path class="cls-9" d="M415.1,360.49l-.64.13a11.12,11.12,0,0,1-.41-3.15,17.6,17.6,0,0,1,.47-4l.76.27c.08,0,.14,0,.14.12s-.08.12-.23.13a13.85,13.85,0,0,0-.45,3.51c0,.62.05,1.05.07,1.37.1-.22.48-1.16.57-1.34a3.12,3.12,0,0,0,.41.48A5.21,5.21,0,0,0,415.1,360.49Zm5.73-.61a4.7,4.7,0,0,0-1.38-.88c.08,1.38-1.29,1.49-1.55,1.49a1.36,1.36,0,0,1-1.47-1.23c0-.77.77-1.2,1.58-1.2a3.57,3.57,0,0,1,.64.06c0-.54-.06-.71-.09-2.23a11.43,11.43,0,0,1-1.46.09l-.69,0v-.73c.25,0,.53,0,1,0,.21,0,.55,0,1.17,0,0-.43,0-1.13,0-1.73l.85.13c.06,0,.14,0,.14.1s-.14.12-.2.13c-.05.41-.06.89-.08,1.27a9.12,9.12,0,0,0,1.47-.33v.7a14.35,14.35,0,0,1-1.48.3,20.35,20.35,0,0,0,.12,2.46,6,6,0,0,1,1.82,1A5.24,5.24,0,0,0,420.83,359.88Zm-2.1-1.12a2,2,0,0,0-.72-.12c-.54,0-.95.2-.95.63s.46.62.89.62a.74.74,0,0,0,.82-.79A2.75,2.75,0,0,0,418.73,358.76Z"/><path class="cls-9" d="M424.83,353.66a14.35,14.35,0,0,1-.79,1.58l.13,0c.07,0,.2,0,.2.11s-.12.1-.2.13v5.44h-.69v-4.82a9.36,9.36,0,0,1-.77,1,1.88,1.88,0,0,0-.49-.51,9.41,9.41,0,0,0,2-3.41l.63.23c.05,0,.16.07.16.15S425,353.64,424.83,353.66Zm4.64.78v5.32c0,1.13-.5,1.19-1.64,1.2a1.75,1.75,0,0,0-.29-.74,6.15,6.15,0,0,0,.75.07c.5,0,.5-.24.5-.63v-5.22H425v-.65h5.24v.65Zm-3.62,4.26v.7h-.66v-3.69h2.6v3Zm1.29-2.36h-1.29v1.74h1.29Z"/><path class="cls-9" d="M437,355.2a3.68,3.68,0,0,0-1.78,2.72c0,1.08.81,1.95,2.61,2.13a4.36,4.36,0,0,0-.32.79c-1.54-.31-3-1.15-3-2.91,0-1.1.65-2.28,2.3-3.27-.21,0-3.86.41-4.54.57l-.12-.91.43,0a47.51,47.51,0,0,0,6.63-.74l.17.83A3.89,3.89,0,0,0,437,355.2Zm1.28,2a6.28,6.28,0,0,0-.76-.94L438,356a8.87,8.87,0,0,1,.76.92A1.86,1.86,0,0,0,438.32,357.24Zm.84-.62a6.08,6.08,0,0,0-.76-1l.4-.28a5.67,5.67,0,0,1,.78.92A1.38,1.38,0,0,0,439.16,356.62Z"/><path class="cls-9" d="M447.2,355l-1.48,0c0,.58,0,1.08,0,1.42a3,3,0,0,1,.33,1.37,3.59,3.59,0,0,1-.76,2.14,4,4,0,0,1-1.4,1.07,7,7,0,0,0-.63-.52,2.85,2.85,0,0,0,2-1.89,1.32,1.32,0,0,1-1,.47c-.74,0-1.18-.64-1.18-1.55a1.44,1.44,0,0,1,1.34-1.62,1.16,1.16,0,0,1,.63.17c0-.16,0-.79,0-1a36.14,36.14,0,0,0-3.61.34l-.06-.8c.58,0,3.13-.15,3.65-.17a8.51,8.51,0,0,0-.12-1.22l.84.08c.12,0,.2,0,.2.11s-.1.1-.15.13a5.47,5.47,0,0,0,0,.86c2.45-.11,2.73-.11,3-.13a5.22,5.22,0,0,0,0,.77C448.38,355.05,447.87,355,447.2,355Zm-2.78,1.52c-.56,0-.75.56-.75,1,0,.2,0,1,.69,1,.49,0,.85-.46.85-1.07A.83.83,0,0,0,444.42,356.56Z"/><path class="cls-9" d="M454.84,360a1.41,1.41,0,0,1-1.23.59,4.84,4.84,0,0,1-.86-.11,2.9,2.9,0,0,0-.06-.81,2.15,2.15,0,0,0,.87.18.84.84,0,0,0,.79-.41,4.61,4.61,0,0,0,.59-2.31c0-1.19-.55-1.35-1.06-1.35a3.47,3.47,0,0,0-.54.05,12.89,12.89,0,0,1-2.29,4.73,3.36,3.36,0,0,0-.7-.37,10.41,10.41,0,0,0,2.23-4.25,16.5,16.5,0,0,0-1.83.52l-.26-.76c.19,0,.76-.16.85-.18.69-.16,1.12-.25,1.42-.3a12.24,12.24,0,0,0,.28-1.91l.82.26c.1,0,.15,0,.15.12s-.09.12-.2.14-.2.87-.3,1.3l.45,0c1.16,0,1.69.69,1.69,1.9A5.53,5.53,0,0,1,454.84,360Zm1.55-1.61a2.35,2.35,0,0,0-.31-.63c.5-.09,1-.2,1-.64a4.93,4.93,0,0,0-1.37-2.54l.56-.37a5.67,5.67,0,0,1,1.55,3C457.84,357.51,457.84,358.11,456.39,358.37Z"/><path class="cls-9" d="M461.93,357.82c0-.48.1-.82.8-1.37s1-.74,1-1.32c0-.95-1-.95-1.2-.95-1.26,0-1.3.85-1.32,1.42h-.85a2,2,0,0,1,2.22-2.13c1.52,0,2,.84,2,1.65s-.34,1.11-1,1.61c-.81.62-.83.77-.83,1.22v.43h-.79Zm.84,2.47h-.88v-.94h.88Z"/><path class="cls-9" d="M205.74,125.69a11.32,11.32,0,0,1-2.11,2.67,6.83,6.83,0,0,0-.71-.51,7.51,7.51,0,0,0,2.21-2.81l.73.41a.17.17,0,0,1,.11.15C206,125.68,205.91,125.69,205.74,125.69Zm2-1.51v3.87c0,.76,0,1.33-1.46,1.33-.21,0-.42,0-.65,0a3.47,3.47,0,0,0-.23-.84,5,5,0,0,0,1,.1c.52,0,.52-.18.52-.81v-3.61h-3.4v-.75h3.4v-2.12l.79,0c.14,0,.21,0,.21.1s-.1.14-.17.15v1.82h3.34v.75Zm3.12,4.06a12.66,12.66,0,0,0-2.08-2.76l.61-.48a14,14,0,0,1,2.11,2.69A3.07,3.07,0,0,0,210.83,128.24Zm-.34-5.35a8.12,8.12,0,0,0-.9-1l.46-.36a8.07,8.07,0,0,1,.91,1A3.24,3.24,0,0,0,210.49,122.89Zm.88-.65a7.63,7.63,0,0,0-.91-1l.45-.33a6.73,6.73,0,0,1,1,1A2.3,2.3,0,0,0,211.37,122.24Z"/><path class="cls-9" d="M214.78,125.82a8.38,8.38,0,0,0-.94-1.95l.66-.29a8.89,8.89,0,0,1,.95,1.93A3.67,3.67,0,0,0,214.78,125.82Zm5.47-2.09a7.15,7.15,0,0,1-4.74,5.59,5.33,5.33,0,0,0-.47-.62,6.31,6.31,0,0,0,4.5-5.48l.73.23c.12,0,.17.08.17.14S220.35,123.71,220.25,123.73Zm-3.45,1.59a7.68,7.68,0,0,0-.88-1.95l.68-.28a8.08,8.08,0,0,1,.89,2A3,3,0,0,0,216.8,125.32Z"/><path class="cls-9" d="M228.78,126.88a13.17,13.17,0,0,0-3.5-2.4v5h-.85v-8.19l.86.07c.13,0,.18,0,.18.11s-.12.14-.19.15v2.69l.37-.51a15.07,15.07,0,0,1,3.63,2.41A6.11,6.11,0,0,0,228.78,126.88Z"/><path class="cls-9" d="M232.5,123.14a8.87,8.87,0,0,1-.57,2.3,2.7,2.7,0,0,0-.68-.31,7.33,7.33,0,0,0,.62-2.39l.59.12c.13,0,.22,0,.22.15S232.56,123.13,232.5,123.14Zm1.83.93a8.2,8.2,0,0,0-.71-1.07v6.74h-.78v-8.65l.81,0s.22,0,.22.12-.12.14-.25.18v1.31l.36-.26a8.4,8.4,0,0,1,.89,1.12A2.47,2.47,0,0,0,234.33,124.07Zm0,.6v-.56h2.47v-.62H235V123h1.76v-.62h-2.2v-.56h2.2V121l.77.06c.11,0,.23,0,.23.12s-.08.1-.23.16v.42h2.34v.56h-2.34V123h1.87v.52h-1.87v.62h2.55v.56Zm3.56,5a1.86,1.86,0,0,0-.3-.75,5.67,5.67,0,0,0,.61.05c.51,0,.51-.16.51-.51v-.41h-2.94v1.63H235v-4.48h4.44v3.29C239.45,129.45,239.29,129.69,237.88,129.72Zm.82-3.92h-2.94v.61h2.94Zm0,1.15h-2.94v.61h2.94Z"/><path class="cls-9" d="M245.15,124.21l.68.15c.07,0,.16,0,.16.12s-.12.11-.26.12a5.89,5.89,0,0,1-.46,1h1v.65h-1.66v1h1.58v.65h-1.58v1.91h-.72v-1.91h-1.66v-.65h1.66v-1h-1.74v-.65h1.06a4,4,0,0,0-.53-1.15l.66-.2a9.89,9.89,0,0,1,.54,1.23l-.52.12h1.18a6.74,6.74,0,0,0,.57-1.36H242v-.66h1.91v-.91h-1.44V122h1.44v-1l.74.06c.09,0,.2,0,.2.11s-.11.13-.22.17V122h1.49v.63h-1.49v.91h1.77v.66Zm5,5.43a9,9,0,0,1-1.12-1.06,5.46,5.46,0,0,1-1,1.12,2.2,2.2,0,0,0-.57-.51,5.37,5.37,0,0,0,1.1-1.2,7.61,7.61,0,0,1-1-2l.56-.3a8.44,8.44,0,0,0,.85,1.71,5.88,5.88,0,0,0,.62-1.89h-2.13v4.24h-.74v-8.4h3.56c0,.39,0,1.84,0,2.13,0,.63-.3.91-1.66.92a2.27,2.27,0,0,0-.29-.8,2.46,2.46,0,0,0,.59.06c.61,0,.62-.19.62-.41s0-.9,0-1.21h-2.07v2.78h2.6l.36.37a8.51,8.51,0,0,1-1,2.82,5.8,5.8,0,0,0,1.3,1.11A2.93,2.93,0,0,0,250.16,129.64Z"/><path class="cls-9" d="M211.22,153.67a11.37,11.37,0,0,1-3.93-2.81,11.26,11.26,0,0,1-3.79,2.84,2.47,2.47,0,0,0-.6-.62,8.62,8.62,0,0,0,4.1-3.16l.88.16c.05,0,.16.06.16.12s-.09.12-.27.15a9.62,9.62,0,0,0,4,2.65A3.08,3.08,0,0,0,211.22,153.67Zm-4.14,1.82a.15.15,0,0,1,.06.11c0,.12-.17.13-.3.14-.17.31-.55,1-1,1.74,1.66-.15,1.84-.17,3.44-.39a11.53,11.53,0,0,0-1-1l.58-.48a16.36,16.36,0,0,1,2.31,2.6,3,3,0,0,0-.61.55,9,9,0,0,0-.78-1.09c-.67.13-2.65.39-2.73.39l-3,.33c0,.11-.06.22-.19.22s-.12-.13-.13-.19l-.19-.78,1.36-.09a13.57,13.57,0,0,0,1.17-2.06h-2.61v-.72h7.85v.72Zm-2.22-1.62v-.71h4.86v.71Z"/><path class="cls-9" d="M217.1,151.65v.63h-3.68v-.63Zm-.34,3.81v3.06h-.7v-.46h-1.58v.59h-.75v-3.19Zm-.11-2.52v.61h-2.8v-.61Zm0,1.26v.62h-2.8v-.62Zm0-3.8V151h-2.78v-.63Zm-2.16,5.7v1.29h1.58V156.1Zm5.47-3.43h2.22v.67H220v1.53h1.68v3.77h-.76V158h-2.58v.64h-.77v-3.78h1.67v-1.53H217v-.67h2.23v-1.4a13.08,13.08,0,0,1-1.87.14,1.86,1.86,0,0,0-.26-.69,10.5,10.5,0,0,0,4.27-.73l.52.59a.22.22,0,0,1,.06.13.09.09,0,0,1-.1.09.36.36,0,0,1-.21-.11,12.5,12.5,0,0,1-1.65.45Zm.92,4.67v-1.81h-2.58v1.81Z"/><path class="cls-9" d="M228.88,158.32l-.49,0a3,3,0,0,0-.22-.9,3.46,3.46,0,0,0,1,.12,1.1,1.1,0,0,0,1.28-.89,15,15,0,0,0,.38-3.79h-2.34a6.73,6.73,0,0,1-3.68,5.56,2,2,0,0,0-.58-.63,5.71,5.71,0,0,0,3.41-4.93h-3.18v-.77h3.23a12.22,12.22,0,0,0-.05-1.88l1,.1c.14,0,.2,0,.2.12s-.05.12-.2.16c0,.85,0,1.21-.05,1.5h3.17C231.53,157.48,231.22,158.32,228.88,158.32Z"/><path class="cls-9" d="M234.25,154.74v-.83h8.05v.83Z"/><path class="cls-9" d="M250.38,155.81a13.17,13.17,0,0,0-3.5-2.4v5H246V150.2l.86.07c.13,0,.18,0,.18.11s-.12.14-.19.14v2.7l.37-.51a15.09,15.09,0,0,1,3.64,2.41A5.37,5.37,0,0,0,250.38,155.81Zm.05-3.2a5.16,5.16,0,0,0-1-1l.46-.38a7.44,7.44,0,0,1,1,.91A4,4,0,0,0,250.43,152.61Zm.82-.74a6.22,6.22,0,0,0-1-.94l.45-.38a6.85,6.85,0,0,1,1,.91A2.38,2.38,0,0,0,251.25,151.87Z"/><path class="cls-9" d="M210.23,184.74a13.34,13.34,0,0,0-3.5-2.4v5h-.85v-8.19l.86.07c.12,0,.18,0,.18.11s-.13.13-.19.14v2.7l.37-.51a15.07,15.07,0,0,1,3.63,2.41A5,5,0,0,0,210.23,184.74Z"/><path class="cls-9" d="M216.37,186.31c-.28.14-1.56.74-1.8.88l-.61-.62a3.53,3.53,0,0,0,0-.56v-6.63l.85,0c.13,0,.2,0,.2.09s-.13.18-.2.21v6.34a12.77,12.77,0,0,0,5.56-3.93,5.53,5.53,0,0,0,.43.85A14.43,14.43,0,0,1,216.37,186.31Z"/><path class="cls-9" d="M223.07,183.67v-.83h8.05v.83Z"/><path class="cls-9" d="M232.86,186.09v-.79H241v.79Zm1.16-4.91v-.78h5.77v.78Z"/><path class="cls-9" d="M245.94,181.88a10.62,10.62,0,0,0-2.68-1.8l.49-.7a12.91,12.91,0,0,1,2.71,1.79A5.65,5.65,0,0,0,245.94,181.88ZM244.1,187c0,.16,0,.22-.13.22a.2.2,0,0,1-.15-.11l-.52-.85a11.24,11.24,0,0,0,7.23-5.2,5.63,5.63,0,0,0,.52.74A12.81,12.81,0,0,1,244.1,187Z"/><path class="cls-9" d="M260,181.41c-.9,2.12-2,4.82-5.51,6.21a3.25,3.25,0,0,0-.62-.62,8.27,8.27,0,0,0,5.19-5.71H255.9a12.86,12.86,0,0,1-2.41,2.71,6,6,0,0,0-.64-.58,10.18,10.18,0,0,0,3.29-4.39l.79.34c.09,0,.13.06.13.13s-.14.12-.22.13c-.24.48-.35.67-.49.9h2.83a1.36,1.36,0,0,0,.63-.14l.47.44A3.6,3.6,0,0,0,260,181.41Zm-.9-1.36a5.82,5.82,0,0,0-.83-.93l.47-.37a8.48,8.48,0,0,1,.85.95A2.77,2.77,0,0,0,259.08,180.05Zm1.43-.06a6.56,6.56,0,0,0-.82-1l.45-.37a10.52,10.52,0,0,1,.86,1A2.28,2.28,0,0,0,260.51,180Z"/><path class="cls-9" d="M205.83,216.53h-.75v-4.25a11.88,11.88,0,0,1-1.56,2.64,2.17,2.17,0,0,0-.73-.46,10.81,10.81,0,0,0,2.2-3.25h-2v-.68h2.07v-1.45a11.78,11.78,0,0,1-1.61.22,3.44,3.44,0,0,0-.37-.66,10.72,10.72,0,0,0,3.79-.78l.45.49a.24.24,0,0,1,.09.16.11.11,0,0,1-.11.11.63.63,0,0,1-.25-.09,9.82,9.82,0,0,1-1.24.4v1.6h1.78v.68H205.9a8.87,8.87,0,0,0,1.62,2.19,3.48,3.48,0,0,0-.55.53,6.45,6.45,0,0,1-1.14-1.77Zm3.24-7.86c.07,0,.23,0,.23.11s-.11.13-.23.16v5.37h-.78v-5.7Zm2.14-.74c.09,0,.21,0,.21.12s-.1.13-.25.17v7c0,.94-.12,1.36-1.89,1.3a2.49,2.49,0,0,0-.29-.83,4.82,4.82,0,0,0,.8.07c.44,0,.61-.06.61-.53v-7.37Z"/><path class="cls-9" d="M218.26,216.08h-.78v-2.79h-2.39a7,7,0,0,1-1,3.26,1.58,1.58,0,0,0-.84-.38c.57-.77,1.07-1.74,1.07-4.41v-3.52h7.09v6.93c0,.94-.24,1.37-1.89,1.31a2.16,2.16,0,0,0-.31-.88,3.17,3.17,0,0,0,.74.08c.67,0,.67-.21.67-.66v-1.73h-2.37Zm-.78-5h-2.32v.53c0,.29,0,.62,0,.9h2.35Zm0-2.16h-2.32v1.44h2.32Zm.78,1.44h2.37V209h-2.37Zm0,2.15h2.37v-1.43h-2.37Z"/><path class="cls-9" d="M223.64,213.61a14.63,14.63,0,0,0,1.86-.9v-4.9l.82.05c.1,0,.2,0,.2.12s-.14.17-.24.19v8.33h-.78v-3c-.16.09-.67.41-1.33.74,0,.11,0,.3-.18.3s-.11,0-.15-.17Zm.7-4.44a11.19,11.19,0,0,1,1,1.79,3.41,3.41,0,0,0-.67.41,8.72,8.72,0,0,0-1-1.77Zm4.71-1.39.86.06c.06,0,.18,0,.18.14s-.14.16-.24.18v2.42h2.56v.73H229.9a6.5,6.5,0,0,0,2.72,4.6,2.32,2.32,0,0,0-.6.6,7.71,7.71,0,0,1-2.49-3.79,7,7,0,0,1-2.41,3.77,1.93,1.93,0,0,0-.6-.57,5.85,5.85,0,0,0,2.5-4.61h-2.16v-.73h2.19Zm2.12.14a11.71,11.71,0,0,1,1.09,1.66,2.92,2.92,0,0,0-.64.41,10.88,10.88,0,0,0-1.05-1.66Z"/><path class="cls-9" d="M236,212a9.19,9.19,0,0,0-1.61-1l.42-.65a10.32,10.32,0,0,1,1.64,1A3.81,3.81,0,0,0,236,212Zm-.66,4.15a1,1,0,0,1,0,.22.11.11,0,0,1-.09.1.28.28,0,0,1-.16-.06l-.7-.44a14.4,14.4,0,0,0,2-3.14,2.57,2.57,0,0,0,.49.62A18.92,18.92,0,0,1,235.33,216.15Zm1.31-6.43a8.7,8.7,0,0,0-1.57-1.13l.46-.61a13.45,13.45,0,0,1,1.56,1.08A3.34,3.34,0,0,0,236.64,209.72Zm2.77,2.78a4.52,4.52,0,0,1-2.58,4.06,2.73,2.73,0,0,0-.55-.69c1.81-.83,2.26-2,2.37-3.79l.84.12s.2,0,.2.15S239.62,212.46,239.41,212.5Zm2.86,3.74h-.86c-.8,0-1-.19-1-.9V212h-2.77v-3.86h5V212H241.2v3.06c0,.36.06.42.31.42H242c.41,0,.5-.19.58-1.23a1.8,1.8,0,0,0,.68.37C243.23,215.37,243,216.24,242.27,216.24Zm-.39-7.35h-3.45v2.43h3.45Z"/><path class="cls-9" d="M206.23,238.84V240h-.7v-1.2h-.9a3.55,3.55,0,0,1-.89,1.68,1.47,1.47,0,0,0-.69-.38,2.91,2.91,0,0,0,.94-2.34,5.72,5.72,0,0,0,0-.74l.55.11a7.8,7.8,0,0,0,2.12-.44l.34.56a.58.58,0,0,1,0,.13.08.08,0,0,1-.09.09.57.57,0,0,1-.24-.1,13.71,13.71,0,0,1-2,.34c0,.18,0,.26,0,.52h2.51v.57Zm4.69,6.67a10.06,10.06,0,0,1-2.8-1.33l.4-.34h-2.64l.41.32c.09.07.12.11.12.15s-.08.11-.17.11l-.16,0a14.21,14.21,0,0,1-2.47,1.1,2,2,0,0,0-.48-.62,8.56,8.56,0,0,0,2.41-1h-1.2v-3.56h5.95v3.56h-1.36a7.47,7.47,0,0,0,2.5,1A5.47,5.47,0,0,0,210.92,245.51Zm-1.38-4.69h-4.43v.49h4.43Zm0,1h-4.43v.5h4.43Zm0,1h-4.43v.53h4.43Zm.53-3.9V240h-.74v-1.2h-1a3.28,3.28,0,0,1-.85,1.39,2.14,2.14,0,0,0-.65-.44,2.38,2.38,0,0,0,.93-2.2c0-.23,0-.38,0-.53l.47.08a9.91,9.91,0,0,0,2.42-.43l.38.53c.05.09.07.12.07.15s0,.07-.11.07a.87.87,0,0,1-.23-.08,16.77,16.77,0,0,1-2.27.34c0,.29,0,.39,0,.55h3.15v.57Z"/><path class="cls-9" d="M217.13,237v3.28H214.6v5.16h-.77V237Zm-.74,1.37v-.77H214.6v.77Zm-1.79.54v.78h1.79v-.78Zm2,5.66h-.77v-3.46h3.43v2.68h-2.66Zm1.9-1.43v-1.39h-1.9v1.39Zm2.93-6.13v7.34a1,1,0,0,1-.48,1,3,3,0,0,1-1.15.12,2.08,2.08,0,0,0-.29-.88,3.46,3.46,0,0,0,.66.07c.46,0,.49-.15.49-.48v-3.88h-2.55V237Zm-.77,1.37v-.77h-1.83v.77Zm-1.83.55v.77h1.83v-.77Z"/><path class="cls-9" d="M225.28,244v.5h-.85v-6.44h6.64v6.44h-.85V244Zm4.94-.77v-4.41h-4.94v4.41Z"/><path class="cls-9" d="M241,239.27c-.9,2.12-2,4.81-5.51,6.2a3.25,3.25,0,0,0-.62-.61,8.27,8.27,0,0,0,5.19-5.71h-3.14a12.86,12.86,0,0,1-2.41,2.71,6,6,0,0,0-.64-.59,10.06,10.06,0,0,0,3.29-4.39l.79.35c.09,0,.13.06.13.13s-.14.12-.22.13c-.24.47-.35.67-.48.9h2.82a1.51,1.51,0,0,0,.63-.14l.47.44A3.23,3.23,0,0,0,241,239.27Zm-.9-1.36a5.41,5.41,0,0,0-.83-.93l.47-.37a7.69,7.69,0,0,1,.85.95A2.32,2.32,0,0,0,240.07,237.91Zm1.43-.06a7,7,0,0,0-.82-1l.45-.36a9.36,9.36,0,0,1,.86,1A1.75,1.75,0,0,0,241.5,237.85Z"/><path class="cls-9" d="M251.83,245.33a9.08,9.08,0,0,1-3.55-2v2.17h-.77v-2.2a10.21,10.21,0,0,1-3.56,2.08,3,3,0,0,0-.55-.62,9.08,9.08,0,0,0,3.37-1.59h-3.23v-.6h4v-.64H245v-3.11a8.14,8.14,0,0,1-1,1,2.79,2.79,0,0,0-.63-.42,8.75,8.75,0,0,0,2.3-2.65l.66.19c.07,0,.16.07.16.15s-.2.13-.28.13a6.71,6.71,0,0,1-.37.59h1.78a7.31,7.31,0,0,0,.59-1l.84.15s.14.05.14.12-.09.1-.3.14c-.13.22-.27.42-.41.62h3.29v.58h-3.35v.6h2.74v.56h-2.74v.6h2.74v.57h-2.74v.65h3.44v.58h-3.3a.11.11,0,0,1,0,.06c0,.12-.2.14-.26.15v.43h3.88v.6H249a9.23,9.23,0,0,0,3.34,1.56A2.8,2.8,0,0,0,251.83,245.33Zm-4.21-7h-1.89v.6h1.89Zm0,1.16h-1.89v.6h1.89Zm0,1.17h-1.89v.65h1.89Z"/><path class="cls-9" d="M254,239.13v-.65h3.9v.65Zm2.84,6.17v-.4h-1.71v.57h-.76v-3.13h3.23v3Zm-2.33-7.47v-.64h3v.64Zm0,2.56v-.6h3v.6Zm0,1.29v-.61h3v.61Zm2.33,1.31h-1.71v1.26h1.71Zm3.91-2.49v5h-.82v-5H258v-.72h1.95v-3l.82.07c.16,0,.23,0,.23.12s-.08.12-.23.17v2.61h2.06v.72Z"/><polygon class="cls-10" points="178.19 82.19 178.19 73.61 169.41 77.85 178.19 82.19"/><path class="cls-10" d="M170.9,75.77,178.57,72l-3.16-3.16a1,1,0,0,0-1.48,0l-3,3Z"/><path class="cls-10" d="M183.73,77.14,179.57,73l-.08,0v9.82h0l4.23-4.22A1.06,1.06,0,0,0,183.73,77.14Z"/><path class="cls-10" d="M169.59,79.3l-2.9-1.45,2.9-1.43V73.17l-4,4a1,1,0,0,0,0,1.48l4,4Z"/><path class="cls-10" d="M170.9,80v4l3,3a1,1,0,0,0,1.48,0l3.16-3.16Z"/><g id="logo"><polygon class="cls-10" points="178.11 82.08 178.11 73.5 169.33 77.74 178.11 82.08"/><path class="cls-10" d="M170.82,75.66l7.67-3.78-3.16-3.16a1,1,0,0,0-1.48,0l-3,3Z"/><path class="cls-10" d="M183.65,77l-4.16-4.16-.08,0v9.82h0l4.23-4.22A1.06,1.06,0,0,0,183.65,77Z"/><path class="cls-10" d="M169.51,79.18l-2.9-1.44,2.9-1.44V73.06l-4,4a1,1,0,0,0,0,1.48l4,4Z"/><path class="cls-10" d="M170.82,79.83v4l3,3a1,1,0,0,0,1.48,0l3.16-3.16Z"/><path id="logo_svg" data-name="logo svg" class="cls-11" d="M284.56,81.4V74h1.3V81.4Zm-9.33,0-1.81-2.59h-1.63V81.4h-1.31V74h3.3a3,3,0,0,1,2.14.74,2.27,2.27,0,0,1,.62,1.6v0a2.23,2.23,0,0,1-1.76,2.24l2,2.81Zm0-5v0c0-.79-.57-1.23-1.53-1.23h-1.89v2.49h1.9C274.62,77.66,275.21,77.17,275.21,76.42Zm-15,5.09a2.92,2.92,0,0,1-3.15-3.26V74h1.3V78.2c0,1.38.71,2.11,1.87,2.11s1.86-.69,1.86-2.06V74h1.3v4.2C263.4,80.4,262.16,81.51,260.22,81.51Zm-11-.11-2.53-3.34-1.15,1.19V81.4h-1.3V74h1.3v3.73L249,74h1.61l-3.09,3.19,3.23,4.22Zm-13.67-1.79H232l-.76,1.79h-1.34l3.26-7.46h1.21l3.26,7.46h-1.38Zm-1.76-4.12-1.27,3h2.56ZM222.37,81.4l-1.82-2.58h-1.63V81.4h-1.3V74h3.3a3,3,0,0,1,2.14.74,2.22,2.22,0,0,1,.61,1.6v0a2.2,2.2,0,0,1-1.76,2.24l2,2.81Zm0-5v0c0-.79-.57-1.23-1.54-1.23h-1.89v2.49h1.9c.94,0,1.53-.49,1.53-1.24Zm-13.42,3.19h-3.5l-.76,1.79h-1.34l3.26-7.46h1.21l3.26,7.46h-1.37Zm-1.75-4.12-1.27,3h2.54ZM196,81.4l-2.53-3.34-1.15,1.19V81.4H191V74h1.31v3.73L195.82,74h1.61l-3.09,3.19,3.23,4.22Z"/></g><line class="cls-3" x1="154" y1="378.14" x2="154" y2="48.14"/><line class="cls-3" x1="752" y1="378.14" x2="161" y2="378.14"/><line class="cls-3" x1="759" y1="56.14" x2="759" y2="378.14"/><line class="cls-3" x1="160" y1="48.14" x2="759" y2="48.14"/><line class="cls-3" x1="62" y1="404.73" x2="62" y2="418.6"/><line class="cls-3" x1="95.31" y1="423.23" x2="101.79" y2="423.23"/><line class="cls-3" x1="821.62" y1="422.31" x2="829.94" y2="422.31"/><line class="cls-3" x1="109.19" y1="423.23" x2="144.35" y2="423.23"/><rect class="cls-12" x="298" y="133.14" width="47" height="3"/><rect class="cls-13" width="904.83" height="452.66"/></g></g></svg>