<svg xmlns="http://www.w3.org/2000/svg" width="212.59" height="241.67" viewBox="0 0 212.59 241.67"><defs><style>.cls-1,.cls-2,.cls-3{fill:none;}.cls-1{stroke:#54e2b3;}.cls-1,.cls-3{stroke-miterlimit:10;stroke-width:2px;}.cls-2,.cls-3{stroke:#000;}.cls-2{stroke-linecap:round;stroke-linejoin:round;stroke-width:1.84px;}</style></defs><title>img_answer</title><g id="レイヤー_2" data-name="レイヤー 2"><g id="レイヤー_1のコピー" data-name="レイヤー 1のコピー"><path d="M72.58,159.35v-1.49H87.93v1.49Z"/><path d="M98,151.22v5.9H93.47v9.26H92.11l0-15.16Zm-1.33,2.47V152.3H93.47v1.39Zm-3.23,1v1.4H96.7v-1.39Zm3.67,10.16H95.76V158.6h6.16v4.83H97.13Zm3.41-2.57v-2.5H97.13v2.5Zm5.24-11v13.2c0,.78-.18,1.49-.84,1.76a5.31,5.31,0,0,1-2.08.23,3.66,3.66,0,0,0-.53-1.58,6.29,6.29,0,0,0,1.19.13c.84,0,.89-.27.89-.87v-7H99.83v-5.9Zm-1.37,2.47v-1.39h-3.28v1.39Zm-3.28,1v1.38h3.28v-1.37Z"/><path d="M110,159.32v-1.49l15.35,0v1.5Z"/><path d="M143.58,160.6A21,21,0,0,1,140,159v.79h-7.17v-.78a17.89,17.89,0,0,1-3.32,1.57,7.14,7.14,0,0,0-1.09-1.16c2.69-.75,5.95-2.47,7.7-4.94a5.44,5.44,0,0,0-.63-.13c.27-.29.51-.53.82-.92h-2.55a14.94,14.94,0,0,1,.47,2.21,6.41,6.41,0,0,0-1.36.22,12.58,12.58,0,0,0-.42-2.43h-1.09a14.92,14.92,0,0,1-1.58,2.45,3.93,3.93,0,0,0-1.31-.56,14.26,14.26,0,0,0,2.6-4.69l1.41.32c.15,0,.34.09.34.26s-.21.22-.55.23c-.17.45-.25.62-.32.8h4.44v1.09a11.56,11.56,0,0,0,1.6-2.74l1.42.32c.16,0,.28.07.28.22s-.26.26-.53.28c-.14.25-.22.44-.43.83h5.48v1.19h-3.64a19.34,19.34,0,0,1,.84,2.39,4.11,4.11,0,0,0-1.43.26,11.91,11.91,0,0,0-.82-2.65H138a11.37,11.37,0,0,1-1,1.29c.26.07.53.15.53.31s-.25.22-.53.24a15.11,15.11,0,0,0,7.37,4A5.46,5.46,0,0,0,143.58,160.6Zm-3.48,5.82v-.76h-7.48v.77H131.2v-5.54h10.3v5.54Zm0-4.32h-7.48v2.34h7.48Zm-3.83-5.81a16.76,16.76,0,0,1-2.8,2.33h5.79A16.5,16.5,0,0,1,136.27,156.29Z"/><path class="cls-1" d="M139.16,214.77A97.37,97.37,0,0,1,63.71,35.7"/><path class="cls-1" d="M90.14,26.87a97.39,97.39,0,0,1,71.24,176.89"/><line class="cls-1" x1="80.86" y1="4.3" x2="83.72" y2="12.18"/><line class="cls-1" x1="132.59" y1="4.3" x2="129.72" y2="12.18"/><line class="cls-1" x1="106.94" x2="106.94" y2="8.6"/><path class="cls-2" d="M96.14,227.59A105.38,105.38,0,1,1,169.5,207q-3.36,2.52-6.91,4.77a104.77,104.77,0,0,1-45.83,15.77c-2.86,3-10.47,13.19-10.47,13.19s-2.52-3-5.13-6.13"/><path class="cls-3" d="M72.38,101.73h-14v-38m55,18v20h-30a2,2,0,0,0-1.27.46l-10.75,8.94m-10-46.4h52v11"/><path class="cls-3" d="M103.38,98.73v-20l55,.1v36.9h-14m1,9.42-10.75-9a2,2,0,0,0-1.27-.47h-30v-11"/><path d="M89.3,91.1a.29.29,0,0,1,.08.17c0,.08,0,.13-.15.16a6.94,6.94,0,0,1-2.42.39,6.4,6.4,0,0,1-3.61-1A5.27,5.27,0,0,1,81.07,88a9.29,9.29,0,0,1-.36-1.76c-.06-.63-.09-1.56-.09-2.8s0-2.16.09-2.79a9.56,9.56,0,0,1,.36-1.77,5.42,5.42,0,0,1,1.86-2.68A6,6,0,0,1,86.06,75h0a.19.19,0,0,1,.15.06.24.24,0,0,1,0,.15v2.14a.23.23,0,0,1-.21.24,2.81,2.81,0,0,0-2.28,2A6.7,6.7,0,0,0,83.58,81c-.06.58-.08,1.38-.08,2.42s0,1.85.08,2.43a7,7,0,0,0,.23,1.32,2.85,2.85,0,0,0,1.09,1.52,3,3,0,0,0,1.79.52c.14,0,.37,0,.69-.05l.17,0a.44.44,0,0,1,.15.1Zm4.58-.23s0,.08,0,.13a.38.38,0,0,1-.09.13l-.08.09-1.51,1.37a.24.24,0,0,1-.36,0L88.58,89a.24.24,0,0,1,0-.32,2.29,2.29,0,0,0,.79-.76,3.16,3.16,0,0,0,.48-1.16,7.88,7.88,0,0,0,.2-1.36c0-.53,0-1.2,0-2,0-1,0-1.82-.08-2.4a6.43,6.43,0,0,0-.25-1.34,2.8,2.8,0,0,0-2.31-2,.23.23,0,0,1-.21-.24V75.23a.21.21,0,0,1,.07-.18.17.17,0,0,1,.17,0,5.87,5.87,0,0,1,3.14,1.11,5.35,5.35,0,0,1,1.87,2.7,7.68,7.68,0,0,1,.36,1.73,28.21,28.21,0,0,1,.1,2.83,27.58,27.58,0,0,1-.1,2.82A8.42,8.42,0,0,1,92.54,88a5.13,5.13,0,0,1-.4,1l1.68,1.77A.24.24,0,0,1,93.88,90.87Z"/><path d="M124.93,105.23a.25.25,0,0,1,0-.17l5.14-14.38a.35.35,0,0,1,.07-.12.17.17,0,0,1,.24,0,.24.24,0,0,1,.07.12l1,3.27a.27.27,0,0,1,0,.16.31.31,0,0,1,0,.17l-1.73,5.09h3.33a.28.28,0,0,1,.29.19l.65,2,0,.07a.17.17,0,0,1-.06.14.24.24,0,0,1-.18,0h-4.87l-1.08,3.22a.32.32,0,0,1-.31.24h-2.45A.16.16,0,0,1,124.93,105.23Zm11.26-.17L131,89.29a.26.26,0,0,1,0-.14c0-.12.07-.17.19-.17h2.07a.3.3,0,0,1,.31.24l5.59,15.84,0,.07a.17.17,0,0,1-.05.12.21.21,0,0,1-.15,0h-2.44A.31.31,0,0,1,136.19,105.06Z"/></g></g></svg>