<svg xmlns="http://www.w3.org/2000/svg" xmlns:xlink="http://www.w3.org/1999/xlink" viewBox="0 0 893.76 597" width="894" height="597"><defs><style>.cls-1,.cls-4,.cls-5,.cls-7{opacity:0.4;}.cls-10,.cls-13,.cls-14,.cls-15,.cls-18,.cls-19,.cls-2,.cls-20,.cls-3,.cls-35,.cls-36{fill-rule:evenodd;}.cls-2{fill:url(#名称未設定グラデーション_41);}.cls-3{fill:url(#名称未設定グラデーション_41-2);}.cls-4{fill:url(#名称未設定グラデーション_41-3);}.cls-5{fill:url(#名称未設定グラデーション_41-4);}.cls-6{opacity:0.5;fill:url(#名称未設定グラデーション_41-5);}.cls-7{fill:url(#名称未設定グラデーション_41-6);}.cls-8{opacity:0.6;fill:url(#名称未設定グラデーション_41-7);}.cls-11,.cls-14,.cls-20,.cls-9{fill:#fff;}.cls-10,.cls-12,.cls-18,.cls-21,.cls-25,.cls-28,.cls-31,.cls-33,.cls-35,.cls-36{fill:none;}.cls-10,.cls-11,.cls-12,.cls-18,.cls-20,.cls-21,.cls-25,.cls-28,.cls-31,.cls-34,.cls-35{stroke:#000;}.cls-10,.cls-11,.cls-12,.cls-18,.cls-20,.cls-28,.cls-31{stroke-linecap:round;}.cls-10,.cls-11,.cls-12,.cls-20,.cls-21,.cls-34,.cls-35,.cls-36{stroke-miterlimit:10;}.cls-10,.cls-11,.cls-12,.cls-18,.cls-20,.cls-21,.cls-25,.cls-28,.cls-34,.cls-35{stroke-width:2px;}.cls-13,.cls-16,.cls-34{fill:#d1d1d1;}.cls-15{fill:#f4f4f4;}.cls-17{fill:#17ba8f;}.cls-18,.cls-28,.cls-31{stroke-linejoin:round;}.cls-22{fill:url(#名称未設定グラデーション_41-8);}.cls-23{fill:url(#名称未設定グラデーション_41-9);}.cls-24{fill:url(#名称未設定グラデーション_41-10);}.cls-26{fill:url(#名称未設定グラデーション_41-11);}.cls-27{fill:url(#名称未設定グラデーション_41-12);}.cls-29{fill:url(#名称未設定グラデーション_41-13);}.cls-30{fill:url(#名称未設定グラデーション_41-14);}.cls-31{stroke-width:1.84px;}.cls-32{fill:url(#名称未設定グラデーション_41-15);}.cls-36{stroke:#d1d1d1;stroke-width:3px;}</style><linearGradient id="名称未設定グラデーション_41" x1="275.76" y1="487" x2="893.76" y2="487" gradientUnits="userSpaceOnUse"><stop offset="0" stop-color="#97e297"/><stop offset="1" stop-color="#54e2b3"/></linearGradient><linearGradient id="名称未設定グラデーション_41-2" x1="26.76" y1="509.67" x2="387.76" y2="509.67" xlink:href="#名称未設定グラデーション_41"/><linearGradient id="名称未設定グラデーション_41-3" x1="98.76" y1="444.44" x2="831.74" y2="444.44" xlink:href="#名称未設定グラデーション_41"/><linearGradient id="名称未設定グラデーション_41-4" x1="104.46" y1="856.32" x2="216.09" y2="856.32" gradientTransform="translate(111.63 -309.26) rotate(9.61)" xlink:href="#名称未設定グラデーション_41"/><linearGradient id="名称未設定グラデーション_41-5" x1="32.91" y1="159.53" x2="79.26" y2="159.53" gradientTransform="translate(-63.29 352.8) rotate(-11.37)" xlink:href="#名称未設定グラデーション_41"/><linearGradient id="名称未設定グラデーション_41-6" x1="117.56" y1="696.01" x2="151.98" y2="696.01" gradientTransform="translate(96.9 -344.09) rotate(11.06)" xlink:href="#名称未設定グラデーション_41"/><linearGradient id="名称未設定グラデーション_41-7" x1="990.02" y1="-138.53" x2="1051.4" y2="-138.53" gradientTransform="matrix(0.96, -0.47, 0.57, 0.94, -215.15, 1179.96)" xlink:href="#名称未設定グラデーション_41"/><linearGradient id="名称未設定グラデーション_41-8" x1="252.49" y1="184.79" x2="271.92" y2="184.79" xlink:href="#名称未設定グラデーション_41"/><linearGradient id="名称未設定グラデーション_41-9" x1="167.55" y1="278.45" x2="171.9" y2="278.45" xlink:href="#名称未設定グラデーション_41"/><linearGradient id="名称未設定グラデーション_41-10" x1="166.16" y1="262.47" x2="173.24" y2="262.47" xlink:href="#名称未設定グラデーション_41"/><linearGradient id="名称未設定グラデーション_41-11" x1="350.24" y1="327.46" x2="358.83" y2="327.46" xlink:href="#名称未設定グラデーション_41"/><linearGradient id="名称未設定グラデーション_41-12" x1="361.25" y1="311.28" x2="369.48" y2="311.28" xlink:href="#名称未設定グラデーション_41"/><linearGradient id="名称未設定グラデーション_41-13" x1="688.76" y1="245.3" x2="698.36" y2="245.3" xlink:href="#名称未設定グラデーション_41"/><linearGradient id="名称未設定グラデーション_41-14" x1="549.74" y1="370.11" x2="575.16" y2="370.11" xlink:href="#名称未設定グラデーション_41"/><linearGradient id="名称未設定グラデーション_41-15" x1="782" y1="314.12" x2="806.38" y2="314.12" xlink:href="#名称未設定グラデーション_41"/></defs><title>mv</title><g id="レイヤー_2" data-name="レイヤー 2"><g id="レイヤー_1-2" data-name="レイヤー 1"><g class="cls-1"><path class="cls-2" d="M893.76,543,667.13,431,275.76,520.39Z"/></g><g class="cls-1"><path class="cls-3" d="M381.88,422.34,26.76,436l361,161Z"/></g><polygon class="cls-4" points="831.74 375.05 98.76 302 487.25 586.89 831.74 375.05"/><polygon class="cls-5" points="185.1 550.94 72.1 549.64 99.76 578 185.1 550.94"/><polygon class="cls-6" points="46.76 503 0 500.56 44.01 484.33 46.76 503"/><polygon class="cls-7" points="112.76 367 80.33 353.49 91 372.31 112.76 367"/><polygon class="cls-8" points="719.46 562.68 648.46 571.68 705.76 587 719.46 562.68"/><ellipse class="cls-9" cx="175.23" cy="460.27" rx="39.99" ry="19.23"/><ellipse class="cls-9" cx="261.76" cy="388.77" rx="39.99" ry="19.23"/><ellipse class="cls-9" cx="350.23" cy="520.52" rx="39.99" ry="19.23"/><ellipse class="cls-9" cx="558.33" cy="550.91" rx="39.99" ry="19.23"/><ellipse class="cls-9" cx="793.23" cy="518.57" rx="39.99" ry="19.23"/><ellipse class="cls-9" cx="702.23" cy="446.44" rx="39.99" ry="19.23"/><path class="cls-10" d="M361,498.94c16.84,2.33,29.2,10,29.2,19,0,10.92-17.91,19.77-40,19.77s-40-8.85-40-19.77c0-7.11,7.59-13.34,19-16.83"/><line class="cls-11" x1="489.76" y1="455" x2="378.76" y2="503"/><line class="cls-12" x1="300.76" y1="392" x2="402.76" y2="412"/><line class="cls-12" x1="214.88" y1="457.6" x2="463.76" y2="444"/><line class="cls-11" x1="548.01" y1="532.75" x2="511.76" y2="463"/><line class="cls-12" x1="664.26" y1="453" x2="630.76" y2="456"/><path class="cls-10" d="M275.76,368.53c15.42,2.62,26.46,9.59,26.46,17.78,0,10.43-17.91,18.89-40,18.89s-40-8.46-40-18.89c0-6.83,7.67-12.81,19.17-16.13"/><path class="cls-13" d="M599.76,470.75c9.92-.94,22-5.11,22-15.25V102.24c0-6.68-4.37-13.56-10.76-15.48L439.76,35.67c-15.67-5-25.67,5.66-26,7a39.85,39.85,0,0,0-2.5,9.83c-.5,5,2,360.75,3.5,363.25S589.26,471.75,599.76,470.75Z"/><path class="cls-14" d="M599.09,85c16.92,3.5,16.69,12.17,18,10.33,1.67-2.33-1.47-9.18-6.09-10.57L439.76,33.67c-15.67-5-25.67,5.66-26,7,0,0-2.83-1-3.33,4-.08.8,8.83-11.67,20-9.34C478.17,45.31,593.09,82.83,599.09,85Z"/><path class="cls-14" d="M587.27,470.12,422.52,421.24a15.11,15.11,0,0,1-10.76-14.48V56.35a15.12,15.12,0,0,1,19.49-14.47L596,90.76a15.11,15.11,0,0,1,10.76,14.48V455.65A15.12,15.12,0,0,1,587.27,470.12Z"/><path class="cls-15" d="M587.27,465.12,426.52,416.24a15.11,15.11,0,0,1-10.76-14.48V55.35a15.12,15.12,0,0,1,19.49-14.47L596,89.76a15.11,15.11,0,0,1,10.76,14.48V450.65A15.12,15.12,0,0,1,587.27,465.12Z"/><path class="cls-10" d="M606.76,454.65a15.12,15.12,0,0,1-19.49,14.47L422.52,420.24a15.11,15.11,0,0,1-10.76-14.48V61"/><path class="cls-10" d="M593,88.75l4.5,1.25c6.39,1.93,9.25,7.56,9.25,14.24V448.5"/><path class="cls-10" d="M411.76,55.35a15.12,15.12,0,0,1,19.49-14.47L588.16,87.43"/><ellipse class="cls-16" cx="507.1" cy="419.53" rx="12.75" ry="16.56" transform="translate(-30.65 40.08) rotate(-4.39)"/><polygon class="cls-14" points="598.76 420.33 421.76 370.35 421.76 73 598.76 126.65 598.76 420.33"/><polyline class="cls-10" points="598.76 420.33 421.76 370.35 421.76 79"/><polyline class="cls-10" points="593.26 125 598.76 126.65 598.76 415.5"/><line class="cls-12" x1="421.76" y1="73" x2="584.76" y2="124"/><path class="cls-10" d="M508.49,436c-7.44.57-14.05-6.43-14.76-15.64-.53-6.9,2.41-13.09,7-16"/><path class="cls-10" d="M504.62,402.8c7.37-1.16,14.52,5.3,16,14.42,1.21,7.67-2,14.78-7.44,17.54"/><path class="cls-10" d="M593.76,78.25,611,83.76c6.39,1.92,10.76,8.8,10.76,15.48V452.5c0,10.14-6.5,14.5-16,17.5"/><path class="cls-10" d="M412.76,39.67c.33-1.34,11.33-12,27-7L581.76,73"/><path class="cls-10" d="M524.76,90.32,492,80.66a3.12,3.12,0,0,1-2.24-3h0a3.12,3.12,0,0,1,4-3l32.77,9.66a3.12,3.12,0,0,1,2.23,3h0A3.12,3.12,0,0,1,524.76,90.32Z"/><path class="cls-17" d="M540,306.16l.6-80.87c-24.51,5.63-49.1,10.88-73.67,16.26C491.48,262.83,515.75,284.45,540,306.16Z"/><path class="cls-17" d="M479.27,226.27c21.54-5,43.07-10,64.56-15.19q-13-18.72-26.27-37.26c-3.42-4.76-9-6.43-12.49-3.73q-12.9,10.07-25.72,20.21Z"/><path class="cls-17" d="M585.34,272.61C574.3,256,563.22,239.37,552,222.9l-.64.17q-.33,46.37-.67,92.74l.1.09q17.63-14.25,34.58-29.2C588.58,283.77,588.57,277.47,585.34,272.61Z"/><path class="cls-17" d="M468.35,255.26q-11.87-10.38-23.83-20.64c9.43-2.38,14.21-3.52,23.86-5.8l0-29.78q-16.37,13.2-32.52,26.63c-3.28,2.75-3.28,8.74,0,13.4q16.29,23.18,32.43,46.43Z"/><path class="cls-17" d="M479.19,264.78q0,18.18-.08,36.36,12.57,18.3,25.1,36.64c3.37,4.93,8.86,6.88,12.28,4.35q13.34-9.94,26.5-20.1C521.77,302.89,500.58,283.72,479.19,264.78Z"/><ellipse class="cls-9" cx="506.51" cy="419.3" rx="8.24" ry="12.06" transform="translate(-30.63 40.04) rotate(-4.39)"/><path class="cls-10" d="M505.28,408.15c4.8-.76,9.48,3.66,10.46,9.87.74,4.74-.88,9.14-3.82,11.3"/><path class="cls-18" d="M295.64,265.13a9,9,0,0,1-4.09.67,7.4,7.4,0,0,1-4-.72"/><path class="cls-18" d="M289.21,261.32a7.7,7.7,0,0,1,2.34-.25c3.2,0,6,1,6,2.35l-.16,2.95c0,1.31-2.65,2.37-5.91,2.37s-5.91-1.06-5.91-2.37l0-2.87c0-.73,1.12-1.24,1.72-1.59"/><path class="cls-18" d="M296.34,268.89s-.4,7.13-.59,8.24c-.15.91-1.83,1.67-4.09,1.67s-4.09-.75-4.09-1.67c0-.38-.7-7.49-.7-7.49"/><path class="cls-18" d="M291.6,264.16a2.9,2.9,0,0,0,1.8-.35"/><path class="cls-14" d="M278.15,278.72l7.24-3.72s-.51-3.81.87-3.75,4.63,3.31,4.63,3.31l5.58-3.85s1.4,1.63,1.21,2.71-1.35,5.85-1.35,5.85l-10.44,3.39-.43,2.42-4.32,1.78Z"/><path class="cls-19" d="M257,223.91s10.58,1.36,11.4,3a76.06,76.06,0,0,1,2.44,7.33l-7.33,2.71-1.08,2.44s-4.07-2.17-4.35-.81.55,4.61.55,4.61l-.55,1.36-4.34.54-4.61-6s-1.36-8.41-.27-9.77,7.05-3.25,7.05-3.25Z"/><path class="cls-13" d="M263,388.07s4.07-4.07,6-3.26,13.84,5.43,13.84,5.43,1.89.81,1.89,2.44-2.17,2.71-6,2.71S263.77,393,263.77,393l-.27.24s-7.05.81-7.05-.54a21.08,21.08,0,0,0-.27-3s.54-5.42,1.62-4.34S263,388.07,263,388.07Z"/><polygon class="cls-14" points="269.33 235.45 271.1 240.19 269.2 242.91 269.2 246.98 263.77 246.98 264.27 250.51 267.69 254.68 264.79 254.17 263.91 256.34 252.88 251.91 254.82 244.81 258.89 244.26 258.07 238.57 261.6 238.02 269.33 235.45"/><polygon class="cls-14" points="266.21 378.57 266.21 385.08 262.96 387.66 258.24 384.49 258.07 378.84 266.21 378.57"/><polygon class="cls-14" points="249.12 374.5 249.39 381.01 256.45 382.1 256.99 378.57 254.28 377.76 254 373.96 249.12 374.5"/><path class="cls-13" d="M247.22,389.15l6.51.27,1.63.55.54-4.62.82-1.35-.27-1.9s-5.7-.82-7.06-1.09S247.22,389.15,247.22,389.15Z"/><path class="cls-13" d="M264.79,254.17a25.55,25.55,0,0,1,2.24,4.27c.2,1,1.83,22.39,1.83,22.39l10-2s3.55,5.44,2.71,7.46-.67,1.08-.67,1.08l-9.57,4s0,18.72-.61,18.92-11.29-4.8-11-5.29-3.86,5.29-6.31,6.11-9.36-3.67-9.15-6.31,1.22-8.75,1.22-8.75.68-22.86,1.08-24.69,4.82-17.64,4.82-17.64h3.46l8.75,3.26Z"/><path class="cls-14" d="M269.47,338.14c0-.81-1.36-25.77-1.36-25.77s-7.05-6.79-7.86-7.6-3,3.26-3,3.26l-4.88,3.79-3.53-.54-.54,4.34a28.8,28.8,0,0,0,2.34,4.56l-1.8-.49,1.09,19.81-.82,4.61-.27,22.25-2.17,1.36,1.08,6,7.2.51-.14,2.74a9.58,9.58,0,0,0,3.25,1.9c2.18.82,9.77-1.63,9.77-1.63l.27-5.15-.81-1.63s.81-26.32,1.36-27.4A16.8,16.8,0,0,0,269.47,338.14Z"/><path class="cls-19" d="M264.18,396.31s-8,.51-8.14-1.19c-.08-1.12-.2-5.43.2-3.8s3.06,2.55,6,2.24a5.8,5.8,0,0,0,2.07-.75Z"/><path class="cls-19" d="M255.19,389.59s-8.17,1-8.2-1.24c0-1.18-.21-5.38.2-3.68s3.08,2.66,6.05,2.35a5.78,5.78,0,0,0,2.09-.78Z"/><path class="cls-19" d="M285.34,394.58a66.09,66.09,0,0,1-10.38.95c-5,0-10-1-10-1.43a9.84,9.84,0,0,0-.24-2,61.13,61.13,0,0,0,10.41,1.42,36.38,36.38,0,0,0,9.84-1.32Z"/><path class="cls-10" d="M257.36,306.77c-1.51,2.06-3,4.86-4.59,5.11-6.21,1-8.89-6.09-7.81-9.3,1.22-3.58,1.57-10,1.37-14.89-.76-19.14,3.2-26.94,4.71-32.81"/><path class="cls-10" d="M270.64,295.86c-.78,8.75,1.2,14.35-.61,15.23s-7.14-6.84-10-6.53l-.05-8"/><path class="cls-10" d="M267,257.77c.7,2.81,2.46,15.49,2.81,20.94"/><path class="cls-10" d="M270,235.89s-.16.79,1.55,4.58c.49,1.08-1.18,1.24-1.31,2.12-.4,2.65-.3,4.2-2.09,5l-5.22-.94"/><path class="cls-10" d="M248.49,313.62c.17,5.55,2.48,5.71,3.07,7.78,2.59,9.14,3.5,14.92,3.66,17.51a4,4,0,0,1-.25,1.29c-.22,1.67,2.81,1.19,3.73,2.25"/><path class="cls-10" d="M256,369.36c-.28-4.12-1.5-21.68.05-24.63"/><path class="cls-10" d="M266.14,371.89a4.07,4.07,0,0,0,1.73-.64c.9-.71.1,4.28,0,5.87-.13,2.2-11.45,2.34-12.74.63-.34-.45-.25-3.48-.16-5.23,0-.68,1.16-2,1.64-1.55,1.43,1.38,3.26,1.42,5.74,1.2"/><path class="cls-10" d="M249.7,368c2.36.28,3.87.14,4.43-.28"/><path class="cls-10" d="M253.28,374c-2.24.63-6.4-.06-6.4-.85s.22-8.52.22-6.39"/><path class="cls-10" d="M268.39,313.42s0,11.3.27,20.59c.08,2.92.85,5.48.85,6.58s-1.51,4.56-1.91,8.07c-.7,6.13-.36,14.81-.36,20.68"/><path class="cls-10" d="M250.54,340.27a7.28,7.28,0,0,0-1.12,2.67c-.93,6.2-.32,22-.32,22"/><path class="cls-10" d="M249.28,323.4c.5,9.29.34,10.38.64,14.29,0,0-1.27,1.45.62,1.74"/><path class="cls-10" d="M257.86,225.22c6.39-3.19,11.66,4.4,11.66,4.4s2.13,2.68.53,4.54c-1.16,1.33-6,3.73-5.7,1.84.11-.77-2.64,3.73-2.64,3.73s-.65-2.38-2-2c-2.08.55-2.59,4.55.15,5.5"/><path class="cls-10" d="M254.76,245.68c-1.36-2.73-3.18-.64-5.18-7.2-2-6.38.82-11.49,5.6-12.48"/><path class="cls-10" d="M279.4,287.41c-4.77,2.36-7.64,2.56-11.69,4.79-1.65.91-2,.76-2.6.43s-2.41-1.12-3-2.57c-3.14-7.33-9.4-16.52-9.2-20.38"/><path class="cls-20" d="M281.21,284.33c-.31-2.18-1.75-5-3.1-5-2.4-.08,2.53-1.55,3.66-1.92,1.55-.5,4.93,6.53,3.69,7.69-.19.18-4.76,2.08-3.75,1.8"/><path class="cls-10" d="M261.23,264.44a15.72,15.72,0,0,0-4.07-1.72c-1.32-.23-2.78,1.43-2.78,1.43"/><path class="cls-10" d="M268.53,280.26c.36-1.2-.42-1.9-1-2.79-1.35-2-1.93-4.84-2.88-7a46.17,46.17,0,0,0-1.94-4.19"/><line class="cls-12" x1="277.88" y1="388.41" x2="275.98" y2="390.8"/><path class="cls-10" d="M265.93,394a35,35,0,0,0,6.38,1.34,29.3,29.3,0,0,0,13.11-1.47c.51-.22-.48-3.06-.63-3.54s-.36-.73-2.34-.29a11,11,0,0,1-3.22-1.06"/><path class="cls-18" d="M287.61,282.39c1.9-.9,5-1.27,8.32-3.21,1.3-.77,1.15-2.56,1.54-3.55,1.48-3.75.28-4.57-1.58-4.44-1,.06-3.39,2.83-4.94,2.87-3.21.1-2.24-3-4.81-3.37-.49-.07-.5,1.12-.63,2.06-.07.51,1,2.63.22,3.31a6.85,6.85,0,0,1-2,1.06"/><path class="cls-10" d="M267.69,254.68l-2.95-4.78-2,.86c-2.76,0-6.33-1.49-7-2.54s-3.65,2.64-2.84,3.69,2.29,1.68,3.75,2.4,7.36,2.48,7.36,2.48l.14-2.62"/><path class="cls-10" d="M272.07,385.33l-1.45-.9a15.9,15.9,0,0,0-6.06,2.68c-3.16,2.5-5.65-1.38-6.32-2.22s-1.63,2.79-1.83,4.69-.75,2.24.09,5.47c.47,1.82,7.14.95,7.14.95s-.48-1.93,0-2.46"/><line class="cls-12" x1="270.78" y1="388.06" x2="273.17" y2="386.02"/><line class="cls-12" x1="273.32" y1="389.49" x2="275.42" y2="387.35"/><path class="cls-10" d="M266.54,383.46s-.06-2.22-.06-5.24"/><line class="cls-12" x1="258.24" y1="384.89" x2="258.27" y2="381.03"/><path class="cls-10" d="M254.13,381.75c-1.13,1.27-4.52-.5-5.09-1.2s-1.38,2.35-1.55,4a33.4,33.4,0,0,0,.08,4.61l6,.8s-.29-1.18.09-1.63"/><line class="cls-12" x1="249.04" y1="380.55" x2="249.07" y2="375.55"/><line class="cls-12" x1="264.32" y1="249.33" x2="264.46" y2="247.23"/><circle cx="267.16" cy="238.41" r="0.91"/><line class="cls-21" x1="269.83" y1="243.43" x2="266.99" y2="243.75"/><path class="cls-10" d="M266.49,283.77s1.55-1.9,2.41-1.74c0,0,3.37-.84,6.85-1.8"/><path class="cls-10" d="M187,439.27c16.16,2.46,27.87,9.74,27.87,18.33,0,10.62-17.9,19.24-40,19.24s-40-8.62-40-19.24c0-5.73,5.21-10.87,13.46-14.39"/><path class="cls-16" d="M287,220.37l-19.71-6.22-3.41,4.25-3.55-5.91L239,205.83a3,3,0,0,1-2.23-2.9v-36a3,3,0,0,1,3.79-2.9l48,14.54a3,3,0,0,1,2.22,2.9v36A3,3,0,0,1,287,220.37Z"/><path class="cls-9" d="M283.61,216.57,264,210.39l-3.4,4.23-3.52-5.88-21.21-6.63a3,3,0,0,1-2.21-2.89v-35.8a3,3,0,0,1,3.76-2.89L285.16,175a3,3,0,0,1,2.22,2.88v35.81A3,3,0,0,1,283.61,216.57Z"/><path class="cls-12" d="M257.08,208.74l-21.21-6.63a3,3,0,0,1-2.21-2.89V166.36"/><path class="cls-12" d="M287.38,213.69a3,3,0,0,1-3.77,2.88L264,210.39l-3.4,4.23-2.12-3.36"/><path class="cls-12" d="M234,163.42a3,3,0,0,1,3.77-2.89L285.55,175a3,3,0,0,1,2.21,2.88V210"/><path class="cls-22" d="M257,193.49s.27-.81-2.31-4.2-3-12.21-.68-13,6.38-3.25,10.72-.54,8.55,10.58,6.79,13-5.57,5.57-5.43,6.24S257,193.49,257,193.49Z"/><path class="cls-21" d="M266.6,193.57c2.7-1,4.37-3.68,4.37-7a12.53,12.53,0,0,0-9.33-11.61,8.07,8.07,0,0,0-4.57.15"/><path class="cls-21" d="M255.43,176.32a7.81,7.81,0,0,0-2.94,6.37,11.79,11.79,0,0,0,4.31,8.89c0,.9,0,1.34,0,2.24,4,.91,6.17,1.5,10.19,2.39"/><path class="cls-21" d="M259.3,193c-.35-3.23-.52-4.84-.87-8.06"/><path class="cls-21" d="M263.88,194.11c.36-3.06.55-4.59.91-7.65"/><path class="cls-21" d="M259.78,185.94c.36.62.55.93.91,1.56l1.37-1L263,188"/><path class="cls-21" d="M266.52,198.85c-3.86-.86-5.94-1.42-9.75-2.29"/><path class="cls-21" d="M265.6,201.39c-3.15-.71-4.81-1.14-7.93-1.88"/><path class="cls-21" d="M264.67,201.17v2.75c-2.62-.6-4-.94-6.55-1.56"/><path class="cls-16" d="M195,297.91l-19.71-6.22-3.41,4.25L168.3,290,147,283.37a3,3,0,0,1-2.23-2.91v-36a3,3,0,0,1,3.79-2.91l48,14.54a3,3,0,0,1,2.22,2.91v36A3,3,0,0,1,195,297.91Z"/><path class="cls-9" d="M192.32,294.11l-19.61-6.18-3.4,4.22-3.52-5.87-21.21-6.63a3,3,0,0,1-2.21-2.89V241a3,3,0,0,1,3.76-2.88l47.74,14.46a3,3,0,0,1,2.22,2.89v35.8A3,3,0,0,1,192.32,294.11Z"/><path class="cls-12" d="M165.79,286.28l-21.21-6.63a3,3,0,0,1-2.21-2.89V243.9"/><path class="cls-12" d="M196.09,291.22a3,3,0,0,1-3.77,2.89l-19.61-6.18-3.4,4.22-2.12-3.35"/><path class="cls-12" d="M142,241a3,3,0,0,1,3.77-2.88l47.74,14.46a3,3,0,0,1,2.21,2.89V288"/><circle class="cls-23" cx="169.73" cy="278.45" r="2.17"/><path class="cls-24" d="M169.52,272.86c-1.39-.11-1.77-1.11-2-2.48a41.87,41.87,0,0,0-.83-4.24c-1.09-4.2-.31-8.08-.11-10.56s-.34-4.47,4.66-3c1.76.52,2.17,6.42,1.86,9.52s-1,8.41-1,9.11C172,272.2,170.27,272.92,169.52,272.86Z"/><path class="cls-25" d="M170.68,280.21a2.17,2.17,0,0,1-1.15.1,2.77,2.77,0,0,1-2.3-2.66,1.9,1.9,0,0,1,.38-1.23m1.18-.63a3.1,3.1,0,0,1,.74,0,2.67,2.67,0,0,1,2.28,2.63,2,2,0,0,1-.3,1.08m-2-6.46a2,2,0,0,1-1.86-1.84c-.3-6.06-.56-9.48-1.09-14.66,0-.36-.13-1.31-.18-1.92m.3-1.59c.5-.66,1.63-.86,3-.6,2,.37,3.36,1.54,3.33,3,0,.84-.22,2.26-.28,2.83-.51,4.48-.91,7.45-1.28,13.09"/><path class="cls-16" d="M384.87,349l-19.6-6.19-3.4,4.23-3.53-5.88-21.21-6.63a3,3,0,0,1-2.21-2.89v-35.8a3,3,0,0,1,3.77-2.89l47.74,14.47a3,3,0,0,1,2.21,2.89v35.8A3,3,0,0,1,384.87,349Z"/><path class="cls-9" d="M382,346.13l-19.71-6.22-3.41,4.25-3.55-5.91L334,331.59a3,3,0,0,1-2.23-2.9v-36a3,3,0,0,1,3.79-2.9l48,14.54a3,3,0,0,1,2.22,2.9v36A3,3,0,0,1,382,346.13Z"/><path class="cls-12" d="M355.19,338.15,334,331.52a3,3,0,0,1-2.22-2.89V295.77"/><path class="cls-12" d="M385.5,343.1a3,3,0,0,1-3.77,2.89l-19.61-6.19-3.4,4.23-2.12-3.36"/><path class="cls-12" d="M332,292.83a3,3,0,0,1,3.77-2.89l47.74,14.47a3,3,0,0,1,2.21,2.89V339"/><path class="cls-26" d="M350.4,328.47c-1.09-2.44,3.72-6.07,6.37-4.48,2,1.22,2.85,3,1.09,5.43S352.13,332.36,350.4,328.47Z"/><path class="cls-27" d="M361.25,311.92c1.09-2.58,1.22-6.43,2.44-7,2,1.22,7.19,10.22,5.43,12.66C367.08,314.63,364.51,313.14,361.25,311.92Z"/><path class="cls-28" d="M357,324.43a9.19,9.19,0,0,0-2.81-.7c-2.57.2-3.76,1.57-3.78,3.59s2,3.78,4.58,3.45,3.75-2.24,4.11-4.69L362.5,306a1.23,1.23,0,0,1,1.19-1s7.48,8.79,4.88,13.08c-1.14-3-2.8-3.38-3.7-3.69"/><path class="cls-10" d="M723.88,429.37c11,3.51,18.34,9.63,18.34,16.58,0,10.89-17.91,19.72-40,19.72s-40-8.83-40-19.72c0-8.61,11.18-15.93,26.78-18.62"/><line class="cls-12" x1="752.76" y1="514" x2="619.76" y2="471"/><path class="cls-10" d="M572.55,533.74c16.2,2.56,27.8,9.44,27.8,17.53,0,10.27-18.68,18.6-41.72,18.6s-41.72-8.33-41.72-18.6c0-9.11,14.7-16.68,34.1-18.28"/><path class="cls-16" d="M729.2,274l-19.7-6.21L706.09,272l-3.55-5.91-21.31-6.66a3,3,0,0,1-2.22-2.9v-36a3,3,0,0,1,3.79-2.9l48,14.53a3,3,0,0,1,2.22,2.9v36A3,3,0,0,1,729.2,274Z"/><path class="cls-9" d="M725.63,269.49,706,263.31l-3.39,4.23-3.53-5.88L677.89,255a3,3,0,0,1-2.21-2.89v-35.8a3,3,0,0,1,3.77-2.89l47.74,14.47a3,3,0,0,1,2.21,2.88v35.81A3,3,0,0,1,725.63,269.49Z"/><path class="cls-12" d="M699.28,261.66,678.08,255a3,3,0,0,1-2.22-2.89v-33"/><path class="cls-12" d="M729.4,266.61a3,3,0,0,1-3.77,2.88L706,263.31l-3.39,4.23-2.13-3.36"/><path class="cls-12" d="M676.11,216.34a3,3,0,0,1,3.77-2.89l47.74,14.47a3,3,0,0,1,2.22,2.88v32.41"/><path class="cls-29" d="M688.76,249.87l.21-12.34s5.84,2.17,8.14,1.35.68,13.43.82,14.11S688.76,249.87,688.76,249.87Z"/><path class="cls-28" d="M697.4,237.59s.29,10.18.41,15.72c-3.33-1.15-5-1.74-8.12-2.77"/><path class="cls-28" d="M690.57,236l4.65,1.38"/><path class="cls-28" d="M699.94,252.37s9.52,3.14,12.58,3.92c1.33.34,3.26.55,3.19-.63a2.2,2.2,0,0,0-1.47-2.21s2,0,2-1.06a2.61,2.61,0,0,0-1.46-2.45,1.5,1.5,0,0,0,1.55-1.45c0-1.38-1.69-2.54-1.69-2.54s1.92,0,1.84-1.34-.61-2-4.26-3.2c.95-1.16,2.77-7.32.86-9.5s-2.46.48-3,2.39c-2.18,4.49-10.28,5-10.28,5"/><polygon class="cls-14" points="561.39 526.97 559.22 527.57 551.72 526.97 552.84 546.08 548.04 550.76 557.57 550.36 558.69 544.51 559.92 545.56 563.19 544.69 563.05 526.52 561.39 526.97"/><path class="cls-13" d="M553.22,458.3c.81-.81,13.79,1.28,13.79,1.28l2.25,10.59c.34,5.4,2.11,5.59-1.2,23-2.27,11.94-.81,3.62-.81,3.62l.06,22.24-.75,5.7s-14,3.9-16.19,1.2C550.59,519.55,552.4,459.12,553.22,458.3Z"/><path class="cls-14" d="M573.26,444.08c-.41-1.83,0-11.8-6.45-16.06l-.94-.6-.78-9.75s-1.33-6.84-4.5-6.5-4.83-1.29-4.83.71-1.17,10.45-1.17,10.45l2.75.56.67,6.34-2.58.59s-3.62,1.34-3.82,2.36-3.26,17.35-3.26,17.35-1.53,12-.92,16.13l-2.64,8.26s-2.21,1.88-1.34,2.6a6.15,6.15,0,0,1,1.43,1.6l-.16,2.4s.61,1.73,1.46,1.48,3.37-1.31,3-2.84l1.67-6.8,1.45-4.12c1,.11,1.69.14,1.69.14s-.12-8.38,0-8.88,5.43-1.26,7.87-.45,5.74,5.79,7.25,3.62C571,459.92,573.67,445.92,573.26,444.08Z"/><path class="cls-10" d="M570.1,443.77c-1,5.34-3.09,8.73-2.86,14.38-.23,1.58-8.16,3.91-12,.68"/><path class="cls-10" d="M555.64,411.13s-.75,6.62-.5,8.12a8.8,8.8,0,0,0,1.89,3.34"/><path class="cls-10" d="M552.59,468.83c.67-4.33,2.07-12,2.42-15.75.33-3.58.1-9.16.25-11.41"/><path class="cls-10" d="M560.43,428.83a11.57,11.57,0,0,0,5.11-.6s-.36-4.33.22-5.56"/><path class="cls-10" d="M548.43,449.42c.08-1.92.76-14.21,2.33-16.09,0,0,5.61-4.34,5.61-4"/><path class="cls-10" d="M556.82,554.63c-2,.45-2.12,2-4.93,1.11-3.32-1.07-3.92-1.71-4.74-3.43-.91-1.9-2.1-5.48-1-5.7s3.64.82,5.32,1.16"/><path class="cls-18" d="M549.84,550.77s.7.29,3.68,0c2.48-.27,3.09-1.41,4.5-1.73.56,0,1.47-.37,2,.22a4.5,4.5,0,0,1,1.2,2.78c.22,3.52,0,1.21-.38,4.42-.19,1.87-2.54.82-2.54.82a6.92,6.92,0,0,0-.45-2.62"/><path class="cls-18" d="M559.7,545.41c1.8.11,2.53-.71,3.83-1,.52,0,.86-.25,1.37.29s.82.7.91,1.67c.36,3.77-.37,2.7-.35,6,0,1.73-2.27,1-2.27,1a25.37,25.37,0,0,0-1.07-3.26"/><path class="cls-10" d="M553.52,527.64c.56,3.08,1.12,18.44,1.12,18.44l-4.27,3.38"/><polyline class="cls-10" points="560.12 548.93 559.29 544.59 560.12 527.57"/><path class="cls-10" d="M564.65,526.29l-.9,14.51a17.64,17.64,0,0,1,1.39,3.41"/><path class="cls-18" d="M548.74,452l-2.27,16,5.12,1.28a42.94,42.94,0,0,0-.62,5.56c-.54,2.41-.39,4.66-1.55,5.85-2.45,2.51-3.52,1.76-3.84,1.23-.62-1-.59-3.87-.39-5.25.15-1.09-.85,2.49-1.2.2-.16-1,1.6-4.19,2.32-4.79.56-.46.91-4,.91-4"/><path class="cls-10" d="M551.26,480.33s-.83,5.34-.14,16.35c.18,2.92-2.6,26.52-1,28.32,4,4.27,18.17,2,18.17-.83s-1.57-19.14-1.82-19.51l.35-3.85c.18-2.38,3.49-13.75,3.3-26-.12-7.87-3.27-11.61-3.08-15.25"/><path class="cls-19" d="M555.84,407.17c-1.12,1.26-2.23,2.33-1,5.16,1.38,3.15,1.68,1.92,3.25,4.92a6.62,6.62,0,0,1,0,6.83c-2,3.09.16,4.49.34,5.59.33,2-1.33,3.77-2.92,3.41,3.19.25,4-1.56,4.08-3.33.1-1.4-2.66-3.17-.16-5.33,1.08-.94,1-4.84-.25-9.34.06.17,2.74.49,3,2.45.05.38-1.13,2.38-1.08,2.76.2,1.49,2.08,2.89,2.36,3,1.41.44,3.54-.85,5.8-3.39-1,5.21,2.25,3.37-1,8.42-2,3.14-3.52,2.83-3.39,5.51.1,2.26,2.56,1.07,2.43,4.07-.12,2.82-2.23,6.29-4.23,4.79,2.17,3.16,5.78-1.81,6.2-4.54.46-2.91-1.85-2.45-1.65-4.44.39-3.94,6.68-2.91,7.25-9.56.54-6.42-3.08-4.94-4.38-5.25,3.3-3.13,3.35-7.25,1.16-10.19s-6.8-4.28-8.64-2.84C561.06,405,558.69,404.65,555.84,407.17Z"/><path class="cls-10" d="M554.94,463.1s8.7,2.92,11-.52"/><path class="cls-10" d="M571.26,434.5s3.5-1.75,1.17,15.5c-.29,2.15-3.42,14.5-3.42,14.5"/><path class="cls-10" d="M808.79,498.37c14.36,3,24.43,10.15,24.43,18.43,0,11.05-17.91,20-40,20s-40-8.95-40-20c0-9.23,12.51-17,29.51-19.31"/><path class="cls-16" d="M587.16,402.41l-19.61-6.18-3.39,4.23-3.53-5.88L539.42,388a3,3,0,0,1-2.21-2.89v-35.8a3,3,0,0,1,3.77-2.89l47.74,14.47a3,3,0,0,1,2.21,2.88v35.81A3,3,0,0,1,587.16,402.41Z"/><path class="cls-9" d="M584.41,398.76l-19.6-6.18-3.4,4.23-3.53-5.88-21.21-6.63a3,3,0,0,1-2.21-2.89v-35.8a3,3,0,0,1,3.77-2.89L586,357.18a3,3,0,0,1,2.21,2.89v35.8A3,3,0,0,1,584.41,398.76Z"/><path class="cls-12" d="M557.18,390.93,536,384.3a3,3,0,0,1-2.21-2.89V349"/><path class="cls-12" d="M588.18,395.87a3,3,0,0,1-3.77,2.89l-19.6-6.18-3.4,4.23-2.12-3.36"/><path class="cls-12" d="M534,345.61a3,3,0,0,1,3.77-2.89l47.74,14.46a3,3,0,0,1,2.21,2.89V392"/><path class="cls-30" d="M562.14,383.82c-5.7-.81-11.47-10.46-12.21-14.45-1-5.49,2.37-11.19,4.68-12s6.58-2.17,10.92.55,9.63,5.76,9.63,14.31A11.38,11.38,0,0,1,562.14,383.82Z"/><path class="cls-31" d="M569.29,383.71a10.73,10.73,0,0,1-6.8.15h0c-7.07-2-12.67-9.5-12.69-17.11v-.05c0-4.44,1.87-7.86,4.89-9.52"/><path class="cls-31" d="M556.43,356.45a11.54,11.54,0,0,1,6.13,0h0c7.18,1.74,12.86,8.91,12.85,16.83v.05c0,4.38-1.77,7.85-4.57,9.64"/><path class="cls-28" d="M558.75,372.37c.53,3.56,6.59,5.22,7.66,2"/><path class="cls-28" d="M559.1,365.14h0a1.29,1.29,0,0,1,.9,1.21h0a.7.7,0,0,1-.9.75h0a1.32,1.32,0,0,1-.91-1.22h0"/><path class="cls-28" d="M565.53,366.77h0a1.15,1.15,0,0,1,.64.45,1.26,1.26,0,0,1,.27.77h0a.72.72,0,0,1-.92.76h0a1.3,1.3,0,0,1-.91-1.22h0"/><path class="cls-19" d="M796.71,351.07a17.91,17.91,0,0,0-5.85.79c-.52.14-2.81,2.25-5.73,1.8,0,1.08.22,2.24,1.12,2.36a4.19,4.19,0,0,1-3.15.9,3.5,3.5,0,0,0,1.13,4l7-.53,1.2,5.73s4.07-2.17,4.34-.82-.54,4.62-.54,4.62l.54,1.35,4.34.55s1.7-1.08,2.94-4.34c3-3,3-10.05,1.94-11.4s-7.05-3.26-7.05-3.26Z"/><path class="cls-14" d="M791,513s-4.07-4.07-6-3.25-13.84,5.42-13.84,5.42-1.9.82-1.9,2.45,2.17,2.71,6,2.71,14.92-2.44,14.92-2.44l.27.24s7.06.81,7.06-.55a21,21,0,0,1,.27-3s-.55-5.42-1.63-4.34S791,513,791,513Z"/><polygon class="cls-14" points="785.48 362.19 783.71 366.94 785.61 369.65 785.61 373.72 791.04 373.72 790.54 377.26 787.12 381.42 790.02 380.92 790 383.08 801.93 378.65 799.99 371.55 795.92 371.01 796.74 365.31 793.21 364.77 785.48 362.19"/><polygon class="cls-14" points="787.7 503.52 787.7 510.03 790.95 512.61 795.67 509.43 795.84 503.79 787.7 503.52"/><polygon class="cls-14" points="804.81 472.06 804.52 505.96 796.56 507.65 791.54 512.76 787.83 509.5 788.73 505.57 788.87 473.26 799.92 471.52 804.81 472.06"/><path class="cls-14" d="M806.69,514.1l-6.51.27-1.63.54L798,510.3l-.82-1.36.28-1.89s5.69-.82,7-1.09S806.69,514.1,806.69,514.1Z"/><path class="cls-13" d="M790,380.91s-2.93,1.46-3.14,2.48c-.11.55,0,6.53-1.49,11.05a15.76,15.76,0,0,1-4,6.29l-12.29-7.34s-4.88,4.87-4,6.89,8.7,7.05,8.7,7.05l8.57,5.21s.86,14.38,1.47,14.58,10.2.64,9.9.15,4.15-.51,6.59.3,7.55,2.2,7.35-.45a19.86,19.86,0,0,1,.87-6.08s-1.21-22.67-1.62-24.51-3.38-16-3.38-16L799,376.74l-5.69,3.3Z"/><path class="cls-14" d="M784.44,463.09c0-.81.8-33.57.8-33.57s7.13-1.59,8-2.4,12.74,1.95,12.74,1.95l-.32,11.5a8.72,8.72,0,0,1-1,4.84l2,25.86h-4.28l-.11,4.61-17.43-1.23s-.13-4.77-.67-5.85S784.44,463.9,784.44,463.09Z"/><path class="cls-19" d="M789.73,521.26s8,.51,8.14-1.19c.08-1.12.21-5.43-.2-3.8s-3,2.54-6,2.24a5.92,5.92,0,0,1-2.07-.75Z"/><path class="cls-19" d="M798.72,514.54s8.17,1,8.21-1.24c0-1.18.2-5.38-.21-3.68s-3.07,2.66-6.05,2.34a5.78,5.78,0,0,1-2.08-.78Z"/><polygon class="cls-13" points="765.43 392 773.93 388 763.18 374.75 757.1 378 755.93 378.5 751.01 378.75 757.93 386.83 765.43 392"/><path class="cls-14" d="M768.76,393.33l-3.44-2.11s-2-8.89-2.43-7.59-2.38,5-2.38,5l-4.67-5.25s-1.45,1.77-1.44,2.86,1.78,7.71,1.78,7.71l8,3.93Z"/><path class="cls-19" d="M768.57,519.53a66.26,66.26,0,0,0,10.38,1c5,0,10-1,10-1.43a10.41,10.41,0,0,1,.23-2,61.57,61.57,0,0,1-10.41,1.43,36.73,36.73,0,0,1-9.83-1.32Z"/><path class="cls-10" d="M795.74,427.42c1.51,2.06,3.8.79,5.39,1.05,6.21,1,6-1.5,5.85-3.9-.24-3.77.11-9.08.3-13.94.75-18.94-2-23.06-3.51-29"/><path class="cls-10" d="M784.19,413.18c-.3,4.49-.45,12.89,0,14.24s6.71.75,9.6,1.05l.6-5"/><path class="cls-10" d="M787,385.37a33.37,33.37,0,0,0-1.65,9.07"/><path class="cls-10" d="M784.83,362.64s.17.79-1.55,4.58c-.48,1.07,1.18,1.23,1.31,2.12.4,2.64.3,4.2,2.09,5l5.22-.93"/><path class="cls-10" d="M806.38,430.12c1,8.84-2.53,17-2.81,19.11a188.72,188.72,0,0,0-1.46,18.89"/><path class="cls-10" d="M786.82,469a6.26,6.26,0,0,1-2.41-.72c-1.26-.79-.14,4.79,0,6.56.19,2.45,16.8,2.47,18.6.56.48-.5.35-3.88.22-5.84-.05-.76-1.61-2.25-2.3-1.72-2,1.53-5.34,1.71-8.8,1.48"/><path class="cls-10" d="M803.31,466c-2.35.28-2,1-2.55.56"/><path class="cls-10" d="M802.33,472c2.25.63,3.81-.05,3.81-.84s-.22-8.52-.23-6.39"/><path class="cls-10" d="M784.94,430.42s-.13,19-.37,28.26c-.08,2.92-.45,7.22-.45,8.32"/><path class="cls-10" d="M805.37,448.45c-.5,9.29.3,10.93,0,14.84"/><path class="cls-18" d="M796.71,352.64c-6.39-3.18-11.24,4.73-11.24,4.73a2.62,2.62,0,0,0-.7,3.53c.55.89,3.06.49,3.51-.38s1.46,0,2.7.22c2.36.34,2.12,5.74,2.12,5.74s.65-2.38,2-2c2.08.55,2.59,4.55-.15,5.5"/><path class="cls-10" d="M800.05,372.43c1.37-2.73,3.18-.64,5.19-7.2,2-6.38-.83-11.49-5.61-12.48"/><path class="cls-10" d="M783.11,403.61s-1-2.21-1.91-2.27c0,0-3.06-1.64-6.2-3.44,0,0-4.14-3.59-5.14-4.22-1.38-.87-6.38,5.12-5.46,6.55.14.22,4.1,3.18,3.19,2.66L769.7,404c4,3.45,6.78,4.35,10.15,7.51,1.38,1.29,1.8,1.24,2.42,1.05s2.61-.5,3.56-1.74c4.85-6.34,13.18-13.71,13.93-17.5"/><path class="cls-10" d="M793,386.17a15.74,15.74,0,0,1,4.36-.67c1.34.1,2.35,2.07,2.35,2.07"/><path class="cls-10" d="M782,399.71c0-1.25.87-1.74,1.66-2.45,1.81-1.62,3.07-4.22,4.52-6.1a45.84,45.84,0,0,1,2.91-3.58"/><path class="cls-10" d="M788,519a35,35,0,0,1-6.38,1.34,29.11,29.11,0,0,1-13.11-1.48c-.51-.21.48-3.05.63-3.54s.36-.72,2.34-.28a11.24,11.24,0,0,0,3.23-1.07s5-2.33,7.15-3.67l1.45-.9a16,16,0,0,1,6.06,2.67c3.16,2.51,5.65-1.37,6.32-2.21s1.63,2.79,1.83,4.69.75,2.23-.09,5.46c-.47,1.83-7.14,1-7.14,1s.48-1.94,0-2.47"/><path class="cls-18" d="M763,397.09c-1.62-1.34-3.71-1.84-6.21-4.34-1.07-1.07-1.92-4.2-2.27-5.21-1.21-3.58-1-4.29.77-3.71.93.31,4.47,3.76,6,4.07,1.21.24-1-4.57,1.63-4.27.49.05,1.47,2.16,2.22,3.67.23.46.63,3.26,1.24,4.11a6.7,6.7,0,0,0,1.71,1.53"/><path class="cls-10" d="M788.09,382.89l2.25-4.5,2.4,1.95c2.76,0,6.1-2.84,6.74-3.9s2.7,2.7,3.3,4.05"/><path class="cls-10" d="M788.5,508.15c2.14-3.82.26-26.91-.86-32.75"/><path class="cls-10" d="M795.67,509.84a29.49,29.49,0,0,1,.17-6c1-7.44,3.34-19.55,1.4-26.3"/><path class="cls-10" d="M799.78,506.7c1.13,1.27,4.53-.5,5.09-1.21s1.38,2.36,1.55,4a34.05,34.05,0,0,1-.07,4.61l-6,.8s.29-1.18-.1-1.63"/><path class="cls-10" d="M804.87,505.49a31.45,31.45,0,0,1-.51-8.47c.48-8.83,2.47-19.08.9-24.4"/><line class="cls-12" x1="790.49" y1="376.08" x2="790.35" y2="373.97"/><circle cx="787.65" cy="365.16" r="0.91"/><line class="cls-21" x1="784.98" y1="370.18" x2="787.82" y2="370.5"/><line class="cls-12" x1="783.44" y1="514.68" x2="789.35" y2="512.05"/><polygon class="cls-14" points="752.6 374 757.1 378 751.76 379.17 752.6 374"/><path class="cls-10" d="M788.61,506.92s4.61,2.7,7.43.22"/><path class="cls-10" d="M797.27,503.09s4.5,2.14,6.41-.67"/><path class="cls-18" d="M753,382.13c-.9-1.65-.75-2-.75-2l10.92-5.38L773.93,388s-4.17,2-5.42,2.75"/><path class="cls-18" d="M752.76,380,751,378.75s.88-3.67.13-5.62l4.5,3.25"/><path class="cls-16" d="M820,345.61l-19.6-6.19-3.4,4.23-3.53-5.88-21.21-6.63a3,3,0,0,1-2.21-2.88V292.45a3,3,0,0,1,3.77-2.89L821.55,304a3,3,0,0,1,2.21,2.89v35.8A3,3,0,0,1,820,345.61Z"/><path class="cls-9" d="M815.55,342l-19.61-6.19-3.4,4.23L789,334.12l-21.21-6.63a3,3,0,0,1-2.22-2.89V288.8a3,3,0,0,1,3.77-2.89l47.74,14.47a3,3,0,0,1,2.22,2.89v35.8A3,3,0,0,1,815.55,342Z"/><path class="cls-12" d="M789.32,334.12l-21.21-6.63a3,3,0,0,1-2.21-2.89V292.26"/><path class="cls-12" d="M820.22,339.07a3,3,0,0,1-3.77,2.89l-19.61-6.19-3.4,4.23-2.12-3.35"/><path class="cls-12" d="M766.15,288.8a3,3,0,0,1,3.77-2.89l47.74,14.47a3,3,0,0,1,2.21,2.89v32.39"/><path class="cls-32" d="M793.72,328.33s-6.94-9.38-9.38-12.6-2.84-10.52-1.8-12.59c2.82-5.66,7.32-2.83,11.05.51,5.81-3.76,13.55,4.16,12.73,9.77C804.9,323.06,793.72,328.33,793.72,328.33Z"/><path class="cls-21" d="M793.82,303.67c7.37-5.79,16.82,6.25,10.92,13.8s-11.14,10.4-11.14,10.4-5.16-4.07-10.54-15.33c-5-10.38,1.18-17.51,8.78-10.91"/><path class="cls-13" d="M177.87,349.17l-.23-9.52-1.45-4.1a11.44,11.44,0,0,1-11.26-2.06l-6.63,8a312.18,312.18,0,0,1-.45,38.53c-1.94,25.7-5.73,55.61-5.39,57.35.6,3.15,29,12.82,33.5,2,1.29-3.08-5.39-47.81-8-73.47-.53-5.38,3.45-1.51,3.25-5C181,356.51,177.87,349.17,177.87,349.17Z"/><polygon class="cls-14" points="173.76 333.19 174.2 329.94 173.7 326.41 179.13 326.41 179.13 322.34 181.03 319.62 178.66 312.52 171.53 317.45 168 318 168.82 323.69 164.66 323.04 164.97 331.18 164.68 333.96 173.39 335.88 173.76 333.19"/><polygon class="cls-14" points="177.33 444.86 178.3 453.83 187.16 458.54 192.94 459.92 192.65 463.49 159.43 460.12 160.85 451.98 161.72 443.63 169.96 445.48 177.33 444.86"/><path class="cls-28" d="M177.76,453c-.7-1.39-2.14,3.26-2.14,3.26.2.28-2.7-.52-4.27-1.12-.88-.34-3-1.51-3.25-.17a24.16,24.16,0,0,0-.88,5.28"/><path class="cls-28" d="M192.56,460.6a4.35,4.35,0,0,0-.15-.47.72.72,0,0,0-.58-.38,37.83,37.83,0,0,1-5.69-1.63c-1.5-.74-1.24-.55-2.21-1.1"/><path d="M193.17,462.7a3.69,3.69,0,0,1,0,1.11c-.23.81-1,1.43-2.8,1.76-6.06,1.13-21,.71-21,.71s-2.11.05-2.28-1.1a30.48,30.48,0,0,1,0-3.47s4.75.22,5.76.3,6.07.45,7.63.82A21.09,21.09,0,0,0,188,463a24.27,24.27,0,0,0,4.79-1.34"/><line class="cls-28" x1="181.94" y1="457.74" x2="182.96" y2="456.26"/><line class="cls-28" x1="180.43" y1="456.97" x2="181.46" y2="455.44"/><line class="cls-28" x1="178.7" y1="456.19" x2="180.23" y2="454.57"/><path class="cls-14" d="M176,365.5a108.42,108.42,0,0,1,7.69,9.44l2.65,3.17c1.34,1.52.83,3.09,3.49,5.64,1.06,1,3.83.63,4,.4s2.76-1.52,2.89-1.77-.5-1.27-.67-2.75c1.34,1.75,2.66,2,2.25-1a12.56,12.56,0,0,0-3.91-3.75c-.85-.44-3.29-.17-4.13-.73-.47-.32.43.4-2.18-1.58l-6.61-9.32S174.77,364.25,176,365.5Z"/><path class="cls-10" d="M163,333.66c-2.4,4.94-5.08,5.44-4.28,31.71.25,8.1-.63,14-.45,15.29s-7,53.23-4.94,57.79c2.92,6.53,27.66,9.67,33.5,1.13,1-1.53-8.31-68.38-8.1-70.83"/><path class="cls-10" d="M174.72,335c.61,2,1.92,2.88,2,3.59,0,0,2.29,13.62,2.29,14.87"/><path class="cls-10" d="M179.52,313.49a17.93,17.93,0,0,0,1.79,6c.49,1.08-1.17,1.24-1.31,2.12-.4,2.65-.3,4.2-2.09,5l-3.79-.87"/><path class="cls-10" d="M165,349.25c.44,1.68,7.65,15.39,8.18,16.43s8.82-2,8.26-5.74c-.21-1.44-5.64-11.55-7.71-15.27"/><path class="cls-10" d="M165.12,328.41c.3,2.4-.52,4.8,1,5.7,2.1,2.24,8.17,2,8.17,2"/><path class="cls-10" d="M176.29,452a67.51,67.51,0,0,0,.45-6.75"/><line class="cls-12" x1="169.4" y1="453.15" x2="169.1" y2="443.85"/><line class="cls-12" x1="162.42" y1="449.63" x2="162.45" y2="444.63"/><line class="cls-12" x1="173.82" y1="335.01" x2="173.9" y2="330.51"/><ellipse cx="177.07" cy="317.55" rx="1.04" ry="1.07"/><line class="cls-21" x1="179.61" y1="322.41" x2="176.77" y2="322.73"/><path class="cls-10" d="M178,367.87a56.18,56.18,0,0,1,5.74,7.07l2.65,3.17c1.34,1.52.83,3.09,3.49,5.64,1.06,1,3.83.63,4,.4s2.76-1.52,2.89-1.77-.5-1.27-.67-2.75c1.34,1.75,2.66,2,2.25-1a12.56,12.56,0,0,0-3.91-3.75c-.85-.44-3.29-.17-4.13-.73-.47-.32.43.4-2.18-1.58l-6-8.9"/><path class="cls-28" d="M169.66,450.6a1.26,1.26,0,0,0-1.91-.68,17.65,17.65,0,0,1-2.25,1.8c-.86.5-4.18-1.69-4.39-1.46s-.07-.31-.29,1.11c-.18,1.18-1.21,4.22-1.17,6.57"/><path d="M167.52,463.72a28.23,28.23,0,0,1-5.44-.31s-2.24,0-2.42-1.16a32.52,32.52,0,0,1,0-3.69s6.24.21,7.32.28Z"/><path class="cls-14" d="M168.87,382.91l4.89-6.66s3.43,2.78,2.75,5.25.91,9.05-1.34,8.83S168.87,382.91,168.87,382.91Z"/><path class="cls-10" d="M173.82,374.36s-1.12,6.15-4.72,7.65"/><path class="cls-19" d="M167.69,303.83s5.18-.7,6.84,0c2.06.87,4.29,4.22,4.61,6.88.42,3.37-7,6.86-7.44,10-.59,4.69,3.19,9,4.47,9.45-1.11.32-4.54-.21-5.36-1.86-.36-.72-1.49.77-2.08.67-1.06-.18-1.43-.93-2.38-1-1.14-.14-1.12-.23-1.86,0s-1.76-1.65-2.75-3.05c-2.39-3.35-4.66-8.46-4.06-10.94a26.64,26.64,0,0,1,2.34-6.26,6.29,6.29,0,0,1,5.7-2.67Z"/><path class="cls-10" d="M169.1,384.26s1.8,4.72,2.47,5.39a4.1,4.1,0,0,0,3.6.68c.9-.45,1.8-5.78,1.59-7.83a15.86,15.86,0,0,0-1-4.25"/><path class="cls-33" d="M237.53,477.69a3.67,3.67,0,0,0-1,4c.17.76,1.59,1.4,1.42,2.25s-1.14.92-2.67.58-.58-1.34-1.25-2c-.83-.82-.84-3-.58-5-3.09-.75-3.14-3.2-4.25-3.91-2,0-9.88.52-11.84-.42s-3.83-1.1-4.68.09-2.82,3.12-2.82,4.74-.76,4.63.18,4.71,1.75,1.29,1.41,1.54-2.94.51-3.45-.09-1.8-2.91-1-5c.18-.51,1.35-3.23.66-4.42"/><path class="cls-16" d="M235,463.86c.68-1.11,1.13-4.44,4.87-4.61,2-.09,4.84-.25,5.78.86s1.53,2.64,2.81,2.64,3.58-.17,3.83.68.35,2.47-.42,3.07a14.13,14.13,0,0,1-6.9,1.45c-2.39-.26-2.47,2.21-2.81,4s-3.75,4.94-5.45,6.38.74,5.4.91,6.17-3.24,0-3.41.83-1.14.93-2.67.59-.58-1.35-1.25-2c-.83-.83-.84-3-.58-5-3.09-.75-3.14-3.21-4.25-3.92-2,0-9.88.53-11.84-.41s-3-1.37-3.83-.17,1.08,7.45.58,9c-.58,1.83-4,.58-3.08.66s.76,1.33.42,1.59-2.94.5-3.45-.1a5.75,5.75,0,0,1-1-5,12.07,12.07,0,0,0,.87-3.29,2,2,0,0,0-.21-1.12c-.68-1.2-2-4.39-1.23-5.93a12.57,12.57,0,0,1,1.12-1.77c.61-.83,1.18-1.46,1.18-1.46s-6.22-1.7-6.13-4.6.48-4.35.48-3.41,2.46,5,4.17,4.92,3.78.7,4.29.62,7.66-1.19,10.81-.34,6.9,2.55,8.61,2.3,4.25-.6,4.85-.68"/><path class="cls-16" d="M243,463.26a14.24,14.24,0,0,0-1.07,5.16c.23.93-3.78,1.08-4.63-.07s-.46-4.32,1.08-6"/><path class="cls-21" d="M212.18,474.83c-.67.92-2.34,1.59-2.34,3.21s-.76,4.63.18,4.71,1.75,1.29,1.41,1.54-2.94.51-3.45-.09"/><path class="cls-21" d="M237.53,477.69a3.67,3.67,0,0,0-1,4c.17.76,1.59,1.4,1.42,2.25s-1.14.92-2.67.58"/><path class="cls-21" d="M204.91,467s-6.22-1.7-6.13-4.6.48-4.35.48-3.41"/><path class="cls-21" d="M203.84,476.17a15.73,15.73,0,0,1-.58-6.84"/><path class="cls-21" d="M229.68,478.92c-3.09-.75-3.14-3.21-4.25-3.92-2,0-9.88.53-11.84-.41s-3.83-1.11-4.68.08-2.57,2.89-2.73,4.5-.69,4.49.25,4.58,1.84,1.74,1.5,2-3.67.67-3.7-.18-1.72-4.15-.8-7.57"/><path class="cls-21" d="M242.51,470.75c-.5,2.08-7,6.86-8.73,8.31a3.68,3.68,0,0,0-1,4c.17.77,1.59,1.4,1.42,2.25s-1.14.93-2.67.59-.58-1.35-1.25-2a6.43,6.43,0,0,1-.83-3.25"/><path class="cls-21" d="M200.39,461.39a5.91,5.91,0,0,0,3,2.53,23.9,23.9,0,0,0,4.29.62c.51-.09,7.66-1.19,10.81-.34s6.9,2.55,8.61,2.3,4.25-.6,4.85-.68a5.37,5.37,0,0,0,3-2c.68-1.11,1.13-4.44,4.87-4.61,2-.09,4.84-.25,5.78.86s1.53,2.64,2.81,2.64,3.58-.17,3.83.68.35,2.47-.42,3.07a14.13,14.13,0,0,1-6.9,1.45l-.85,1.3"/><path class="cls-34" d="M243,463.26a14.24,14.24,0,0,0-1.07,5.16c.23.93-3.78,1.08-4.63-.07s-.46-4.32,1.08-6"/><ellipse cx="245.84" cy="462.93" rx="1.04" ry="1.07"/><path class="cls-35" d="M234.51,466.08s3.17,4.92,5.67,4.92"/><path class="cls-35" d="M198.34,377.63a9.68,9.68,0,0,1,2.59,4.54c.33,2.33-1.67,11.83-1.67,11.83"/><path class="cls-35" d="M232.51,464.75S200.76,398.83,199.26,394c-4.82-6.14-8.92-7.75-8.5-8.67"/><path class="cls-19" d="M353.32,352.66s5.11-1.12,6.78-.41c2.08.89,6.91,7,6.51,7.19,0,0,0,3.53-2.44,3.67a34,34,0,0,0-5.44.89l-1.09,2.44s-3.78-1.57-4.05-.21a14.36,14.36,0,0,0,.25,4l-.52,2.23-4.48.4s-5.56-3.52-6.1-6,1.56-2.38,2.17-4.88c.57-2.33.16-4.77.68-5.43a8.45,8.45,0,0,1,5.54-3.44Z"/><path class="cls-14" d="M365,363.91l1.76,4.75-1.9,2.71v4.07h-5.42l.5,3.53,3.44,9.72,6-1.35,3-.15,7.8-15.14s-2.46-10.48-.21-11.08c.48-.13,1.47,4.08,3.06,3.88s1.71-6,3.3-6.75c2.16-1.07,5.5,2.94,6,4.5.64,2-6.45,11.29-6.45,11.29L377.15,395l-6.3.45-.3,2.55-5.09,1.35s.45,26.84-.6,31.64-22.19,3.45-22.79.3,1.56-42.73,1.56-42.73l5.79-8.7.95-7.77,4.16.66-.81-5.7,3.53-.54Z"/><polygon class="cls-14" points="361.71 506.58 363.36 512.23 371.75 517.92 377.75 519.42 377.45 523.32 342.99 519.64 344.47 510.77 345.07 502.48 350.91 502.33 352.55 506.26 361.71 506.58"/><path class="cls-13" d="M365,466.27c0-.82-.48-33.66-.48-33.66s-7.93,1.1-8.74.29-13.34-.39-13.34-.39l1.4,11.24a28.33,28.33,0,0,0,2.35,4.56l-1.81-.49,1.09,19.81-.82,4.61-2,21-.42,2.58,1.09,6,7.19.52-.14,2.74a9.91,9.91,0,0,0,3.26,1.9c2.17.81,9.77-1.63,9.77-1.63l.27-5.16-.82-1.62s.82-26.32,1.36-27.41A16.74,16.74,0,0,0,365,466.27Z"/><path class="cls-36" d="M342.78,404.5c.56,3.83,17.43,5.51,22.23.08"/><path class="cls-36" d="M342.67,411.36c.56,3.83,17.43,5.51,22.23.08"/><path class="cls-36" d="M342.89,418.22c.57,3.83,17.43,5.51,22.23.08"/><path class="cls-36" d="M342.67,424.3c.56,3.82,17.43,5.5,22.23.07"/><path class="cls-36" d="M343.34,398.32c.38,4.76,17.43,5.51,22.23.08"/><path class="cls-36" d="M343.91,391.69c.22.78,2.24,3.59,4.94,2.58"/><path class="cls-36" d="M355.71,399.33c3.6-2,3.83-8.77,1.91-10.34"/><path class="cls-36" d="M362.91,398.1c2.27-.74,2.7-6,.45-9"/><path class="cls-13" d="M343.27,518.22l7.79-.15.78,3.47,14.22,1.33a34.83,34.83,0,0,0,6.8,0c2.94-.42,4.11-1.34,4.59-.27s-1.05,2.7-1.05,2.7-12.14.75-15.59.75-8.85.3-8.7-.6c.05-.27.39-1-.75-1.95s-6.13.27-7.79-.75S343.27,518.22,343.27,518.22Z"/><path class="cls-36" d="M345.14,384.94c.56,3.82,12.07,5.1,16.87-.34"/><path class="cls-28" d="M361.13,510.1c-.7-1.39-1.58-.79-1.58-.79a43.86,43.86,0,0,1-3.52,3c-.81.47-2.32.87-2.52,1.09s-.39,0-.6,1.37A24.16,24.16,0,0,0,352,520"/><path class="cls-28" d="M377.38,520.43a3.38,3.38,0,0,0-.16-.48.73.73,0,0,0-.58-.37A37.47,37.47,0,0,1,371,518c-1.5-.75-1.24-.55-2.21-1.1"/><polyline class="cls-28" points="363.78 511.49 364.86 512.8 358.1 516.55 356.31 513.93 363 510.33"/><path class="cls-28" d="M378,522.53a3.75,3.75,0,0,1,0,1.11c-.23.81-1,1.43-2.81,1.76-6.05,1.13-21,.71-21,.71s-2.11,0-2.28-1.1a28.78,28.78,0,0,1,0-3.47s4.75.22,5.77.3,6.07.45,7.63.81a20.83,20.83,0,0,0,7.62.19,24.86,24.86,0,0,0,4.78-1.34"/><line class="cls-28" x1="366.76" y1="517.57" x2="367.78" y2="516.08"/><line class="cls-28" x1="365.24" y1="516.8" x2="366.27" y2="515.27"/><line class="cls-28" x1="363.52" y1="516.02" x2="365.05" y2="514.4"/><path class="cls-28" d="M377,519.68a10.18,10.18,0,0,1-4.08.67c-2.6,0-4.15-.21-3.12-1.83"/><path class="cls-10" d="M347,380.14c-2.4,4.95-6,9.3-5.19,35.57.25,8.1-.1,14.84.09,16.16s7.05,3,12,2.25,10.45-1.81,10.8-2.7c.67-1.73-.07-2.35.15-4.8.63-7.23-.95-20.68-.8-27.29"/><path class="cls-10" d="M361.36,381.79c.61,2,1.58,4.69,1.69,5.4"/><path class="cls-10" d="M365.48,363.91s-.17.79,1.54,4.57c.49,1.08-1.17,1.24-1.3,2.12-.41,2.65-.31,4.2-2.1,5l-5.21-.93"/><path class="cls-10" d="M343.42,435.14c0,6.46,4.51,18.64,5.1,20.71,2.59,9.14-.56,8.57,1.49,11.25a2,2,0,0,1,.46,1.11c-.15,1.72,4.25,5.19,4,5"/><path class="cls-10" d="M352.11,501.43c-2.66,1.86-2.63-25.69-.54-28.69"/><path class="cls-10" d="M363.38,500.8c.87-.7-.23,2.05-.32,3.63-.13,2.2-9.18,2.38-10.42.68a7,7,0,0,1-1.2-3.9c0-.68.85-.12,1.5,0"/><path class="cls-10" d="M350.31,501.28c-2.24.63-6.14.5-6.14-.3s-1.65-3.45-.45-3.6"/><path class="cls-10" d="M364,433.37s0,19.37.2,28.65c.07,2.92.85,5.48.85,6.58s-.65,5.93-1.05,9.44c-.7,6.13-1.35,16.35-.9,21.07"/><path class="cls-10" d="M345.43,467.51c-.25.38-.23,2.3-.52,3.44-3,12-3,25.53-.74,25.38"/><path class="cls-10" d="M344.77,451.42c-1.2,6.38-.6,8.62-.3,12.53a4.26,4.26,0,0,0,1.57,3.49"/><path class="cls-10" d="M353.35,353.23c3.42-1.7,5.26-2.47,8-.71,1.21.79,1,2,1.9,3a10.74,10.74,0,0,0,3.12,2s.81,2.77-.8,4.63c-1.15,1.33-4.35,1.07-5.84,1.75-.71.32-2.5,3.83-2.5,3.83s-.65-2.38-2-2c-2.08.55-2.6,4.55.15,5.49"/><path class="cls-10" d="M350.26,373.69c-1.37-2.72-5.52-.23-7.52-6.79-.7-2.29,1.88-3.65,2-5.69.41-5.29,2.84-6.56,5.91-7.19"/><path class="cls-10" d="M349.42,398.28c.15-.45,3.29,1.35,5.09,1.5s13.5-.75,14.7-.9.75-11.35-2-11.13c-1.5.12-10.47,0-14.84.68"/><path class="cls-10" d="M350.46,377.59a3.82,3.82,0,0,0,2.55,4.65c3.51,1,6.9-1.8,6.9-1.8"/><path class="cls-10" d="M362,511.48s-.06-2.23-.06-5.24"/><line class="cls-12" x1="353.74" y1="512.91" x2="353.77" y2="509.04"/><line class="cls-12" x1="344.54" y1="508.56" x2="344.56" y2="503.56"/><line class="cls-12" x1="359.81" y1="377.35" x2="359.95" y2="375.24"/><circle cx="362.65" cy="366.43" r="0.91"/><line class="cls-21" x1="365.33" y1="371.45" x2="362.48" y2="371.76"/><path class="cls-10" d="M373.55,394.68c1.44.64,2.81-.33,3.34-.44s1-.29,1.62-2.09c1.44-4.39,5.61-14.19,5.61-14.19l1.72-4.07c.81-2,3.27-2.06,4.41-5.83.45-1.5,2.83-5.27,2-6.06-.38-.39-2.16,3.1-2.39,2.7-.44-.74,2.86-6,1.12-6.1-1-.05-2.74,5.27-3,5.19s1.56-5.9.4-5.86c-1.52.05-2.2,5.26-2.51,5.26-.47,0,2.2-6,.09-5.48-1,.23-1.89,6.79-3.23,7.67-2.31,1.53-.13-6.24-2.78-4.41-.41.29-1.42,4.78-1.42,6.51,0,1,1.76,3.49,1.63,4.57s-.45,2.84-.45,2.84L373,387c-.29.74-3.59,1-3.59,1"/><path class="cls-28" d="M352.55,506.26c-.74-1.48-1.67-.84-1.67-.84a43.27,43.27,0,0,1-3.74,3.17c-.86.5-2.46.93-2.67,1.16s-.41,0-.63,1.45a25.68,25.68,0,0,0-.94,5.6"/><polyline class="cls-28" points="351.81 512.08 349.34 513.1 347.44 510.32 351.36 508.33"/><path class="cls-28" d="M351.36,523.47a47.43,47.43,0,0,1-6.27-.23s-2.24,0-2.42-1.16a31.94,31.94,0,0,1,0-3.69s6.24.21,7.31.28"/><path class="cls-10" d="M349.86,390a4.24,4.24,0,0,0-1,4.27"/><line class="cls-12" x1="355.11" y1="501.28" x2="355.04" y2="504.66"/><line class="cls-12" x1="347.54" y1="497.23" x2="347.47" y2="500.61"/><line class="cls-12" x1="358.34" y1="501.66" x2="358.26" y2="505.03"/><line class="cls-12" x1="361.63" y1="501.13" x2="361.56" y2="504.51"/><path class="cls-10" d="M359,432.77s0,6.89-3.6,8.39"/><path class="cls-19" d="M704,279.33c-2.08-.41-8.17,1.51-9,3.14s-.13,4.28-.13,4.28l4.7,4.92L701,295s4.07-2.17,4.34-.82-.54,4.62-.54,4.62l.54,1.35,4.34.55,4.62-6s1.21-8.31.27-9.77c-2.22-3.41-7.47-3.41-7.47-3.41A4.92,4.92,0,0,0,704,279.33Z"/><path class="cls-10" d="M700.45,443.63s-4.07-4.07-6-3.25-13.84,5.42-13.84,5.42-1.9.82-1.9,2.45,2.17,2.71,6,2.71,14.92-2.44,14.92-2.44l.28.24s7.05.81,7.05-.55a21,21,0,0,1,.27-2.95s-.54-5.42-1.63-4.34S700.45,443.63,700.45,443.63Z"/><polygon class="cls-14" points="694.07 291.01 692.31 295.76 694.21 298.48 694.21 302.55 699.63 302.55 699.13 306.08 695.72 310.24 698.62 309.74 699.5 311.91 710.53 307.48 708.59 300.38 704.52 299.83 705.33 294.13 701.8 293.59 694.07 291.01"/><path class="cls-14" d="M685.25,334.29l-9-4.07s-1.18-8.24-1.46-6.89-3.42,5.26-3.42,5.26l-2.91-.92s-2.09,1.09-1.9,2.17.46,5,.46,5l10.45,3.39.43,2.43,4.32,1.78Z"/><polygon class="cls-14" points="697.19 434.14 697.19 440.65 700.45 443.23 705.16 440.05 705.33 434.41 697.19 434.14"/><polygon class="cls-14" points="714.28 430.07 714.01 436.58 706.96 437.67 706.42 434.14 709.13 433.32 709.4 429.52 714.28 430.07"/><path class="cls-14" d="M716.18,444.72l-6.51.27-1.63.54-.54-4.61-.81-1.36.27-1.89s5.7-.82,7-1.09S716.18,444.72,716.18,444.72Z"/><path class="cls-14" d="M698.62,309.74a25.55,25.55,0,0,0-2.24,4.27c-.21,1-1.83,22.38-1.83,22.38l-10-2s-3.55,5.44-2.72,7.46.68,1.08.68,1.08l9.56,4s0,18.73.61,18.93,11.3-4.81,11-5.29,3.87,5.29,6.31,6.1,9.36-3.66,9.16-6.3-1.22-8.75-1.22-8.75-.68-22.86-1.09-24.7-4.81-17.63-4.81-17.63h-3.46l-8.75,3.25Z"/><path class="cls-13" d="M693.94,393.71c0-.81,1.15-27.71,1.15-27.71s7.26-4.85,8.07-5.66,3,3.25,3,3.25l4.88,3.8,3.53-.54.54,4.34a28.33,28.33,0,0,1-2.35,4.56l1.81-.49-1.09,19.81.82,4.61.27,22.25,2.17,1.35-1.09,6-7.19.52.14,2.74a9.7,9.7,0,0,1-3.26,1.9c-2.17.81-9.77-1.63-9.77-1.63l-.27-5.15.82-1.63s-.82-26.32-1.36-27.41A16.74,16.74,0,0,1,693.94,393.71Z"/><path class="cls-19" d="M699.23,451.88s8,.51,8.14-1.19c.07-1.12.2-5.43-.21-3.8s-3,2.54-6,2.24a5.92,5.92,0,0,1-2.07-.75Z"/><path class="cls-19" d="M708.22,445.16s8.17,1,8.2-1.24c0-1.18.21-5.38-.2-3.68s-3.08,2.66-6.06,2.34a5.78,5.78,0,0,1-2.08-.78Z"/><path class="cls-19" d="M678.06,450.15a66.26,66.26,0,0,0,10.38,1c5,0,10-1,10-1.43a10,10,0,0,1,.24-2,61.77,61.77,0,0,1-10.41,1.43,36.75,36.75,0,0,1-9.84-1.32Z"/><path class="cls-10" d="M706.76,361.33c1.52,2.07,4.33,3.34,5.33,4.34,4.45,4.44,7.44-4.31,6.35-7.52-1.21-3.58-1.56-10-1.37-14.89.76-19.14-3.19-26.94-4.71-32.82"/><path class="cls-10" d="M692.76,351.42c.78,8.76-1.86,13.6,0,14.48s6.72-6.57,10.69-5.78l.05-8"/><path class="cls-10" d="M694.59,328c.07.75-.33,3.88-.45,6.19"/><path class="cls-10" d="M693.51,288.5a19.45,19.45,0,0,1-1.63,7.54c-.49,1.07,1.17,1.23,1.31,2.12.4,2.64.3,4.2,2.09,5l5.21-.94"/><path class="cls-10" d="M714.92,369.19c-.18,5.55-2.48,5.7-3.07,7.78-2.6,9.14-3.51,14.91-3.67,17.51a4,4,0,0,0,.26,1.29c.22,1.66-2.82,1.19-3.73,2.24"/><path class="cls-10" d="M707.38,424.93c.28-4.12,1.49-21.68,0-24.63"/><path class="cls-10" d="M697.26,427.46a4,4,0,0,1-1.73-.65c-.9-.7-.1,4.29,0,5.87.14,2.2,11.46,2.35,12.75.64.34-.45.25-3.48.16-5.24,0-.67-1.16-2-1.65-1.54-1.43,1.38-3.25,1.41-5.73,1.2"/><path class="cls-10" d="M713.71,423.59c-2.36.29-3.87.14-4.43-.28"/><path class="cls-10" d="M710.12,429.57c2.25.63,6.41-.06,6.41-.85s-.22-8.52-.22-6.39"/><path class="cls-10" d="M695,369s0,11.3-.26,20.59c-.08,2.92-.85,5.48-.85,6.58s1.51,4.55,1.91,8.07c.7,6.12.36,14.81.36,20.68"/><path class="cls-10" d="M712.86,395.84a7.1,7.1,0,0,1,1.13,2.67c.92,6.2.32,22,.32,22"/><path class="cls-10" d="M714.13,379c-.5,9.29-.35,10.38-.65,14.29,0,0,1.28,1.45-.62,1.73"/><path class="cls-18" d="M705.55,280.79c-6.39-3.19-11.66,4.4-11.66,4.4s-.1-.64,1,1.56c.87,1.75.52,3,5.37,4.75a2.6,2.6,0,0,1,1.75,2.88,1.39,1.39,0,0,1,1.72-1.09c2.08.55,2.6,4.55-.14,5.5"/><path class="cls-10" d="M708.65,301.25c1.36-2.73,3.17-.64,5.18-7.2,1.95-6.38-.83-11.49-5.61-12.48"/><path class="cls-10" d="M684,343c4.76,2.36,7.64,2.56,11.69,4.79,1.65.91,2,.76,2.6.43s2.41-1.13,3-2.57c3.14-7.34,9.4-16.53,9.2-20.38"/><path class="cls-20" d="M682.2,339.9c.31-2.19,1.74-5,3.09-5,2.4-.08-2.53-1.56-3.66-1.92-1.54-.5-4.92,6.53-3.68,7.69.19.18,4.76,2.08,3.75,1.79"/><path class="cls-10" d="M702.18,320a16,16,0,0,1,4.06-1.73c1.33-.22,2.79,1.44,2.79,1.44"/><path class="cls-10" d="M696.26,333.5c.38-1.87,2.49-5.53,3.25-7.5.86-2.24.8-3.51,1.19-4.16"/><path class="cls-10" d="M697.47,449.6a35,35,0,0,1-6.38,1.34A29.11,29.11,0,0,1,678,449.46c-.51-.21.48-3,.63-3.54s.36-.72,2.35-.28a11.2,11.2,0,0,0,3.22-1.07"/><path class="cls-18" d="M672.83,326.5c.2-1.58.56-3.34,2.43-3,1.38.25-.16,2.8.2,4.44a6.68,6.68,0,0,0,1.55,3.23,15,15,0,0,0,2.7,1.52"/><path class="cls-18" d="M675.8,338c-1.91-.9-5.23-.77-8.54-2.71-1.31-.76-.7-2.77-.75-3.83-.08-1.84.56-4,2.42-3.84a12.7,12.7,0,0,1,3.16,1.25"/><path class="cls-10" d="M695.72,310.24l2.95-4.78,2,.86c2.77,0,6.34-1.48,7-2.54s3.66,2.64,2.85,3.69-2.3,1.68-3.75,2.41-7.36,2.48-7.36,2.48l-.15-2.62"/><path class="cls-10" d="M691.34,440.9l1.44-.9a16,16,0,0,1,6.06,2.67c3.17,2.51,5.65-1.37,6.32-2.21s1.63,2.79,1.84,4.69.75,2.23-.09,5.46c-.47,1.83-7.14,1-7.14,1s.48-1.94,0-2.47"/><path class="cls-10" d="M696.87,439s.06-2.22.06-5.24"/><line class="cls-12" x1="705.16" y1="440.46" x2="705.13" y2="436.59"/><path class="cls-10" d="M709.27,437.32c1.13,1.27,4.53-.5,5.1-1.21s1.37,2.36,1.54,4a34.05,34.05,0,0,1-.07,4.61l-6,.8s.29-1.18-.09-1.63"/><line class="cls-12" x1="714.37" y1="436.11" x2="714.34" y2="431.11"/><line class="cls-12" x1="699.09" y1="304.9" x2="698.95" y2="302.79"/><circle cx="696.39" cy="293.47" r="0.91"/><circle cx="696.95" cy="313.02" r="0.98"/><circle cx="696.14" cy="316.89" r="0.98"/><circle cx="695.51" cy="320.77" r="0.98"/><circle cx="695.14" cy="325.14" r="0.98"/><line class="cls-21" x1="693.57" y1="299" x2="696.42" y2="299.32"/><path class="cls-10" d="M696.92,339.33s-1.55-1.89-2.41-1.73c0,0-3.37-.84-6.85-1.81"/><line class="cls-28" x1="667.43" y1="329.75" x2="668.93" y2="330.5"/><line class="cls-28" x1="666.84" y1="332.08" x2="668.34" y2="332.83"/><path class="cls-16" d="M425.49,170.88l-24.66-4.46L403.45,181l-21.94-19.94-62.3-17.88a7.69,7.69,0,0,1-5.69-7.43V34.47A7.69,7.69,0,0,1,323.21,27L429.49,56.32a7.68,7.68,0,0,1,5.69,7.42v99.71A7.69,7.69,0,0,1,425.49,170.88Z"/><path class="cls-9" d="M421.26,164.55l-25.71-4.47,3.5,15.84-21.77-20.11L315,136.87a7.69,7.69,0,0,1-5.69-7.43V28.13A7.69,7.69,0,0,1,319,20.7L425.26,50a7.69,7.69,0,0,1,5.7,7.43v99.71A7.7,7.7,0,0,1,421.26,164.55Z"/><path class="cls-11" d="M431,157.12a7.7,7.7,0,0,1-9.7,7.43l-25.71-4.47,3.5,15.84-19.26-16.28"/><path class="cls-11" d="M309.45,26.6A7.69,7.69,0,0,1,319,20.7L425.26,50a7.69,7.69,0,0,1,5.7,7.43V153"/><path class="cls-11" d="M377.28,155.81,315,136.87a7.69,7.69,0,0,1-5.69-7.43V30"/><path d="M347.83,41.17l3.78,1.08c1.23.36,1.65.81,1.65,1.67v.62c0,.37-.37.44-.75.34s-.74-.4-.74-.77v-.48c0-.28-.08-.41-.46-.52l-3.48-1c0,.9,0,1.36,0,2.29,0,.35-.38.42-.74.32s-.76-.39-.76-.74c0-.93,0-1.39,0-2.3L343,40.76c-.38-.11-.47,0-.47.25v.56c0,.35-.38.44-.74.34s-.75-.4-.75-.75v-.69c0-.85.44-1.07,1.66-.74l3.67,1v-.42c-1.47-.42-2.2-.62-3.67-1a.66.66,0,0,1-.45-.66c0-.26.15-.48.46-.39,3.62,1,5.44,1.5,9.09,2.56a.66.66,0,0,1,.47.65c0,.28-.15.5-.48.4l-3.93-1.12ZM343,43.23a.53.53,0,0,1-.37-.53c0-.21.13-.38.38-.31l2.42.68a.51.51,0,0,1,.37.51c0,.22-.12.39-.37.32Zm1.26,5.1c-1.13-.32-1.62-.77-1.61-1.61v-1.8c0-.8.5-1,1.62-.71L350,45.86c1.12.32,1.62.83,1.62,1.63s0,1.07,0,1.8c0,1-.69,1-1.61.69l-2.28-.65v.33c0,.34.17.48,1.9,1,2.14.62,2.34.54,2.45-.14.05-.34.38-.41.7-.31a.94.94,0,0,1,.74.82v.06c-.14,1.37-.78,1.56-3.94.65-2.89-.84-3.29-1.26-3.29-2.26,0-.22,0-.33,0-.54Zm-.79-6.22a.52.52,0,0,1-.36-.52c0-.2.12-.37.36-.3l2,.54a.54.54,0,0,1,.38.51c0,.22-.13.39-.38.32Zm1.05,3.11c-.34-.09-.42,0-.42.17v.39l2.25.64c0-.28,0-.41,0-.68Zm-.43,1.4V47c0,.22.08.32.42.41l1.84.52v-.7Zm3.7.21,2.43.69v-.39c0-.21-.08-.31-.41-.41l-2-.58Zm0,1.54,2,.58c.33.09.42,0,.42-.17v-.41c-1-.29-1.46-.42-2.43-.7C347.74,48,347.74,48.09,347.73,48.37Zm1-4.76a.54.54,0,0,1-.38-.52c0-.21.13-.38.38-.3l2,.56a.55.55,0,0,1,.39.52c0,.22-.13.39-.4.31Zm0,1.25a.53.53,0,0,1-.37-.53c0-.21.13-.38.38-.31l2.57.74a.54.54,0,0,1,.39.53c0,.22-.13.39-.39.31Z"/><path d="M356.12,45.26a.84.84,0,0,1-.56-.8c0-.32.2-.58.56-.47l4.56,1.36a.85.85,0,0,1,.58.81c0,.31-.2.57-.59.46Zm1.62,8.67c-1.08-.33-1.43-.84-1.43-1.68,0-.61,0-.92,0-1.52,0-.84.35-1.13,1.44-.81l1.49.45c1.08.32,1.43.82,1.43,1.66,0,.6,0,.91,0,1.52,0,1-.47,1.11-1.44.82ZM357,43.67a.78.78,0,0,1-.53-.74c0-.3.18-.53.54-.43l3,.9a.78.78,0,0,1,.55.75.4.4,0,0,1-.55.42Zm0,3.61a.81.81,0,0,1-.53-.77c0-.31.19-.55.54-.44l3,.89a.79.79,0,0,1,.55.77c0,.3-.19.55-.55.44Zm0,1.81a.82.82,0,0,1-.53-.78c0-.31.19-.55.54-.45l3,.9a.79.79,0,0,1,.55.77c0,.3-.19.56-.55.45Zm2,4c.24.07.31,0,.31-.21v-1a.35.35,0,0,0-.3-.4l-.9-.27c-.26-.08-.33,0-.33.21v1c0,.22.08.33.32.4Zm5.21-3.68-2.32-.7a.85.85,0,0,1-.57-.81.42.42,0,0,1,.58-.45l2.31.7c0-.69,0-1,0-1.72-.59-.11-1.55-.31-1.78-.38a.94.94,0,0,1-.7-.84c0-.28.21-.5.64-.4a29.49,29.49,0,0,0,4.65.64.74.74,0,0,1,.24,0,1,1,0,0,1,.73.88c0,.25-.18.45-.6.43s-1.12-.08-1.7-.16c0,.78,0,1.17,0,2l2.53.78a.86.86,0,0,1,.59.81.43.43,0,0,1-.6.45l-2.52-.78c0,.68,0,1,0,1.71l.65.2c1.14.36,1.6.89,1.6,1.84,0,.77,0,1.16,0,1.94,0,1.07-.64,1.18-1.67.86l-2.59-.79c-1.14-.35-1.66-.91-1.65-1.88V51.79c0-.95.48-1.2,1.62-.85l.58.17C364.14,50.42,364.14,50.08,364.15,49.39Zm1.79,5.67c.32.1.42,0,.42-.25,0-.57,0-.86,0-1.43,0-.27-.1-.4-.42-.5l-2.09-.64c-.32-.1-.42,0-.42.24,0,.57,0,.86,0,1.44,0,.29.12.41.42.5Z"/><path d="M378.05,51.53c-1.7-.34-3.95-.74-6-1.11l-.14,0a1.1,1.1,0,0,1-.79-1c0-.33.23-.56.74-.46,2.94.59,6.59,1.39,9.53,2.09l.08,0a1,1,0,0,1,.76.91c0,.3-.22.53-.65.47a4.54,4.54,0,0,0-1.56,0c-2.21.42-2.68,1.61-2.69,2.86,0,1.45,1.07,2.7,3,3.55a1.18,1.18,0,0,1,.76,1c0,.4-.28.7-.84.52a6.48,6.48,0,0,1-.64-.25c-2.57-1.27-4-3.38-4-5.33a3.45,3.45,0,0,1,2.34-3.29Zm2.06,2.72c0-.26.29-.4.6-.3a.91.91,0,0,1,.4.26,9.9,9.9,0,0,1,1.09,1.48.67.67,0,0,1,.13.39.4.4,0,0,1-.57.34.93.93,0,0,1-.47-.4,12.64,12.64,0,0,0-1-1.43A.7.7,0,0,1,380.11,54.25Zm1.41-.58c0-.26.27-.39.59-.28a1,1,0,0,1,.43.28,11.56,11.56,0,0,1,1.08,1.4.8.8,0,0,1,.15.44c0,.28-.27.4-.57.3a.88.88,0,0,1-.49-.39c-.32-.47-.71-1-1-1.4A.55.55,0,0,1,381.52,53.67Z"/><path d="M386.09,57.9c0-3,2.7-4.43,6.57-3.16,3.44,1.12,5.41,3.66,5.4,6.21,0,2.33-1.52,3.61-3.95,3.56a1.13,1.13,0,0,1-.32-.05,1.16,1.16,0,0,1-.79-1c0-.3.17-.53.6-.54,2,0,2.81-.9,2.82-2.49A4.87,4.87,0,0,0,393,56.14a9.42,9.42,0,0,1-1.62,4.94,2.16,2.16,0,0,1-2.7.79A4,4,0,0,1,386.09,57.9Zm1.63.52c0,1.19.49,1.81,1,2a1,1,0,0,0,1.23-.48,8.36,8.36,0,0,0,1.44-4.22C389.29,55.37,387.73,56.5,387.72,58.42Z"/><path d="M330.69,59.19a8.87,8.87,0,0,1,2.35.35c2.19.6,3.58,2,3.58,3.84s-1.2,2.72-3.21,2.48a.44.44,0,0,1-.15,0,1,1,0,0,1-.72-1,.53.53,0,0,1,.63-.58c1.34.12,1.88-.37,1.88-1.31s-.7-1.66-2-2a7.69,7.69,0,0,0-2.36-.26v2.56c0,1.5-.62,1.89-1.88,1.55a3.58,3.58,0,0,1-2.55-2.94c0-1.05.57-2.05,3-2.57V56.89c-.68-.11-1.35-.23-1.88-.36a.92.92,0,0,1-.67-.9c0-.36.22-.67.67-.56a18.05,18.05,0,0,0,1.88.36V53.3c0-.46.37-.59.74-.49a1,1,0,0,1,.74.88v1.92c.46,0,.91.07,1.3.08a.51.51,0,0,1,.24,0,1,1,0,0,1,.73.91.52.52,0,0,1-.58.54c-.5,0-1.08,0-1.7-.11Zm-1.47,1.68c-1.19.39-1.43.8-1.43,1.36s.49.89,1,1,.44-.16.44-.52Zm8-2.74a1.14,1.14,0,0,1,.32.75.6.6,0,0,1-.8.59,1.18,1.18,0,0,1-.57-.4,16.61,16.61,0,0,0-1.66-1.69,1,1,0,0,1-.39-.74.62.62,0,0,1,.79-.61.85.85,0,0,1,.37.2A15.11,15.11,0,0,1,337.18,58.13Z"/><path d="M341.93,61.48c0,2.82,0,4.25,0,7.14,0,.41-.38.51-.77.4a1,1,0,0,1-.76-.83c0-4.31,0-6.44,0-10.61,0-1,.37-1.45,1.84-1l1.45.41c1.48.42,1.85,1,1.84,2v2c0,.44-.07.9-.45,1.07a2.39,2.39,0,0,1-1.41-.1Zm2.14-2.88c0-.28-.1-.38-.46-.48l-1.22-.35c-.35-.1-.45-.05-.45.23v.41l2.12.6C344.06,58.84,344.06,58.76,344.07,58.6Zm-.47,2.16c.36.11.46.06.46-.21v-.42l-2.12-.6v.76Zm1.45,7.16c-1.12-.33-1.61-.93-1.6-1.92V64.58c0-1,.49-1.3,1.62-1l2.24.65a1.86,1.86,0,0,1,1.61,1.91v1.42c0,1.13-.63,1.27-1.62,1Zm2-.71c.32.1.4,0,.4-.24,0-.42,0-.63,0-1s-.09-.39-.41-.48l-1.76-.51c-.32-.09-.4,0-.41.24v1c0,.29.14.4.4.47Zm1.57-3.81c-1.49-.44-1.85-1-1.85-2,0-.81,0-1.22,0-2,0-1,.37-1.41,1.86-1l1.58.46c1.48.43,1.85,1.08,1.85,2.11,0,3.62,0,5.46,0,9.19,0,1.39-.6,1.75-1.78,1.4a7,7,0,0,1-1-.38,1.07,1.07,0,0,1-.62-1c0-.39.25-.73.71-.59a.34.34,0,0,1,.14,0,5.63,5.63,0,0,0,.6.23c.32.1.45,0,.45-.33,0-2.25,0-3.37,0-5.58Zm1.91-2.94c0-.28-.09-.38-.44-.48l-1.36-.39c-.36-.11-.46-.06-.46.22v.41l2.26.66Zm0,1.54-2.26-.66v.43c0,.27.09.36.46.47l1.79.52C350.54,62.46,350.54,62.3,350.54,62Z"/><path d="M367.42,68.36a1.25,1.25,0,0,1,.5.93.55.55,0,0,1-.76.55,1.38,1.38,0,0,1-.51-.3,31.5,31.5,0,0,1-5.44-6.08,14.46,14.46,0,0,1-5.45,3.05.71.71,0,0,1-.41,0,1.06,1.06,0,0,1-.72-1,.57.57,0,0,1,.43-.58,12.43,12.43,0,0,0,5.54-3.36.66.66,0,0,1,.71-.14,1.06,1.06,0,0,1,.78.9.43.43,0,0,1-.06.22A27.84,27.84,0,0,0,367.42,68.36Zm-8.63,5.49c-1.36-.41-1.88-1.08-1.88-2.13,0-.83,0-1.24,0-2.07,0-1.05.53-1.4,1.89-1l4.95,1.49c1.36.41,1.89,1.08,1.89,2.12,0,.83,0,1.24,0,2.08,0,1.28-.81,1.31-1.91,1Zm.14-6.67a.86.86,0,0,1-.57-.84c0-.35.2-.62.57-.51l4.63,1.4a.84.84,0,0,1,.57.84c0,.33-.18.62-.58.5Zm4.51,6.76c.51.16.62.06.62-.32,0-.65,0-1,0-1.61,0-.38-.11-.53-.61-.68L359.1,70c-.51-.15-.61-.07-.61.31v1.61c0,.46.2.58.6.7Z"/><path d="M380.08,71.05l2.43.63.05,0a1.06,1.06,0,0,1,.76,1,.52.52,0,0,1-.72.52l-2.55-.65a10.15,10.15,0,0,1-.16,1.91c-.25,1.27-.82,1.56-2,1.19a5.15,5.15,0,0,1-1-.4,1.06,1.06,0,0,1-.59-.94c0-.39.24-.7.71-.56a.42.42,0,0,1,.14.06,3.94,3.94,0,0,0,.63.27c.33.1.47,0,.54-.34a8.5,8.5,0,0,0,.14-1.57l-3.77-.9a1.77,1.77,0,0,0,0,.23c0,1.4,0,2.39.07,3.43s.61,1.66,1.84,2a17.79,17.79,0,0,0,3.64.77l.21,0a1.12,1.12,0,0,1,.76,1,.58.58,0,0,1-.73.59,19.82,19.82,0,0,1-3.9-.85c-2.06-.64-3.3-1.74-3.4-3.92,0-1-.08-2.12-.07-3.58v-.14c-.76-.18-1.52-.34-2.28-.5l-.1,0a1.08,1.08,0,0,1-.71-1,.56.56,0,0,1,.73-.59l2.37.53c0-.9,0-1.35,0-2.24,0-.45.4-.56.8-.43a1.06,1.06,0,0,1,.79.92c0,.85,0,1.27,0,2.13,1.26.29,2.53.61,3.79.92,0-1,0-1.46,0-2.42,0-.48.4-.58.79-.46a1,1,0,0,1,.77.94C380.08,69.65,380.08,70.11,380.08,71.05Z"/><path d="M387.23,75.81l-.41.5a.65.65,0,0,1-.68.17,1.09,1.09,0,0,1-.76-1,.6.6,0,0,1,.17-.44,12.33,12.33,0,0,0,2.33-4.62c.09-.34.43-.41.76-.3a1.11,1.11,0,0,1,.82.95,1.77,1.77,0,0,1,0,.21,15,15,0,0,1-1.3,3.1.91.91,0,0,1,.63.77c0,3,0,4.56,0,7.66,0,.39-.38.48-.76.36s-.77-.44-.76-.83C387.21,79.72,387.22,78.41,387.23,75.81Zm10.18.15a.88.88,0,0,1,.55.84c0,.34-.19.62-.56.5L395,76.53c0,.86,0,1.28,0,2.15l3.16,1a.87.87,0,0,1,.55.86c0,.34-.19.64-.56.53l-3.16-1c0,1.81,0,2.72,0,4.55,0,.42-.38.52-.76.4a1,1,0,0,1-.76-.87c0-1.83,0-2.75,0-4.56l-3.32-1a.91.91,0,0,1-.55-.88c0-.35.19-.64.56-.52l3.31,1c0-.86,0-1.29,0-2.15l-1.86-.59a8.29,8.29,0,0,1-.64,1,.54.54,0,0,1-.65.16,1.07,1.07,0,0,1-.75-.92.63.63,0,0,1,.15-.41,9.12,9.12,0,0,0,1.45-2.85c.1-.33.4-.39.7-.29a1.06,1.06,0,0,1,.76.9,1.52,1.52,0,0,1,0,.21c-.12.36-.25.73-.4,1.09l1.28.4c0-1,0-1.48,0-2.45,0-.42.38-.49.77-.37a1,1,0,0,1,.76.85c0,1,0,1.47,0,2.45Z"/><path d="M406.81,84.62a4.43,4.43,0,0,1-1,1.47c.27.23.52.45.76.68a1,1,0,0,1,.35.69.5.5,0,0,1-.71.47,1,1,0,0,1-.44-.28c-.3-.29-.61-.59-.95-.88a6,6,0,0,1-2.95.58l-.22,0a1,1,0,0,1-.69-.9.46.46,0,0,1,.55-.49,5.88,5.88,0,0,0,2.05-.25c-.24-.21-.49-.41-.73-.6a.61.61,0,0,1-.62.11,1,1,0,0,1-.68-.8.5.5,0,0,1,.17-.37,8.61,8.61,0,0,0,.74-.74l-1.24-.39a.82.82,0,0,1-.54-.79c0-.31.19-.57.54-.46l2,.62.3-.55a.47.47,0,0,1,.61-.19,1,1,0,0,1,.7.8.54.54,0,0,1-.05.21l-.08.19,2.84.88a.84.84,0,0,1,.55.79c0,.31-.19.57-.55.46Zm-1.72-5.21a17.27,17.27,0,0,1,1.75,1.49,1,1,0,0,1,.34.65.45.45,0,0,1-.62.43,1,1,0,0,1-.43-.3c-.33-.34-.69-.69-1-1v.48c0,.38-.34.47-.68.36a.91.91,0,0,1-.69-.79v-.24l0-.53a7.23,7.23,0,0,1-1.94.91.72.72,0,0,1-.41,0,.93.93,0,0,1-.63-.8.47.47,0,0,1,.38-.46,6.41,6.41,0,0,0,2-.94l-1.8-.57a.8.8,0,0,1-.52-.76c0-.31.18-.54.52-.44l2.38.75c0-.89,0-1.34,0-2.22,0-.39.33-.46.69-.35a.9.9,0,0,1,.67.78c0,.88,0,1.33,0,2.22l2.18.69a.78.78,0,0,1,.52.76c0,.29-.17.55-.52.44l-2.18-.69Zm-3.52-3.92c0-.32.3-.47.65-.36a1.1,1.1,0,0,1,.56.44,7.45,7.45,0,0,1,.5.84.73.73,0,0,1,.11.36c0,.35-.33.51-.69.4a1,1,0,0,1-.54-.5c-.13-.24-.27-.47-.44-.74A.85.85,0,0,1,401.57,75.49ZM404,83.76l-.45.57c.35.23.69.5,1,.76a3.27,3.27,0,0,0,.78-.91Zm2.65-7.32a.92.92,0,0,1,.63.77.5.5,0,0,1-.11.32,3.36,3.36,0,0,1-.65.6.53.53,0,0,1-.49.06.9.9,0,0,1-.62-.76.47.47,0,0,1,.19-.36,3.51,3.51,0,0,0,.52-.51A.47.47,0,0,1,406.67,76.44ZM412.72,82a10.56,10.56,0,0,1-1.36,4.3,14.59,14.59,0,0,0,2.1,2.84,1.29,1.29,0,0,1,.4.82.56.56,0,0,1-.77.54,1.17,1.17,0,0,1-.52-.36,17.2,17.2,0,0,1-2-2.78,6.69,6.69,0,0,1-2.41,1.73.66.66,0,0,1-.46,0,1,1,0,0,1-.69-.88.55.55,0,0,1,.37-.52,6.16,6.16,0,0,0,2.42-1.84,17.87,17.87,0,0,1-1.12-3.22.58.58,0,0,1-.65.16,1,1,0,0,1-.71-.89.67.67,0,0,1,.13-.39,12.16,12.16,0,0,0,1.77-4.12c.09-.36.41-.42.73-.32a1.06,1.06,0,0,1,.77.88,1,1,0,0,1,0,.17c-.15.58-.35,1.15-.56,1.73l3.06,1a.85.85,0,0,1,.56.84c0,.33-.18.6-.56.49Zm-3.1-1a.93.93,0,0,1-.05.1,18.22,18.22,0,0,0,1,3.47,9.57,9.57,0,0,0,.76-3Z"/><path d="M357.08,134c-1-.29-1.36-.77-1.36-1.62s0-1.38,0-2.32.41-1.13,1.37-.84l.52.15v-.67l-1.94-.57a.79.79,0,0,1-.52-.76c0-.31.18-.55.53-.45l1.94.57v-1.09c0-.35.35-.43.7-.32s.7.38.7.73,0,.66,0,1.09l1.61.48a.78.78,0,0,1,.54.76c0,.29-.18.55-.55.44l-1.6-.47c0,.27,0,.4,0,.67l.55.16c1,.28,1.37.79,1.36,1.64s0,1.41,0,2.33-.44,1.08-1.38.81l-.54-.16v.67l1.85.54a.77.77,0,0,1,.55.74c0,.3-.19.53-.55.43l-1.86-.55c0,.67,0,1,0,1.66,0,.31-.35.37-.7.26s-.7-.36-.69-.67V136l-2-.59a.78.78,0,0,1-.53-.74c0-.29.18-.53.53-.43l2,.59v-.66Zm.1-3.62c-.18,0-.22,0-.22.17s0,.3,0,.5l.76.22v-.73Zm-.23,1.72v.5c0,.17,0,.26.22.31l.53.16v-.75Zm1.94-.48.78.23v-.5c0-.18,0-.25-.21-.3l-.57-.17C358.89,131.22,358.89,131.37,358.89,131.66Zm0,1.8.58.17c.16.05.21,0,.21-.19v-.5l-.78-.23C358.89,133,358.88,133.16,358.88,133.46Zm5,3.4-1.61-.46a.8.8,0,0,1-.55-.77c0-.31.18-.55.56-.44l1.61.47c0-.4,0-.6,0-1s.38-.46.74-.35.75.41.74.78v1l1.71.5a.8.8,0,0,1,.57.76.42.42,0,0,1-.58.44l-1.71-.5c0,.58,0,.87,0,1.43l2.33.68a.81.81,0,0,1,.58.76.43.43,0,0,1-.58.44l-6.4-1.85a.8.8,0,0,1-.55-.77c0-.3.18-.55.56-.44,1,.31,1.54.46,2.58.75Zm2-7.61c1,.3,1.55.87,1.55,1.48a1.3,1.3,0,0,1-.3.78,5.26,5.26,0,0,1-1.31,1.15,12.19,12.19,0,0,0,2,1.5,1,1,0,0,1,.57.83c0,.33-.29.57-.72.45a2.92,2.92,0,0,1-.37-.17,13.79,13.79,0,0,1-2.53-2.06,8.78,8.78,0,0,1-2.59.68,1,1,0,0,1-.35,0,1,1,0,0,1-.67-.82.46.46,0,0,1,.44-.44,7.45,7.45,0,0,0,2.21-.52,11.53,11.53,0,0,1-1.45-2.6l-.43-.13a.81.81,0,0,1-.56-.78c0-.31.2-.56.56-.46Zm-2.11.63a9.18,9.18,0,0,0,1,1.68,4,4,0,0,0,1-.84.22.22,0,0,0,.06-.14c0-.06-.07-.12-.21-.16Z"/><path d="M372.47,134.93a1,1,0,0,1,.22.59.56.56,0,0,1-.78.48,1,1,0,0,1-.55-.4c-.31-.42-.76-.95-1.06-1.28a.82.82,0,0,1-.27-.56c0-.35.37-.55.79-.42a1.06,1.06,0,0,1,.51.3A12.25,12.25,0,0,1,372.47,134.93Zm0,2.59a1,1,0,0,1,.77.85.51.51,0,0,1,0,.17,9.91,9.91,0,0,1-1.45,3,.68.68,0,0,1-.75.2,1,1,0,0,1-.75-.82.64.64,0,0,1,.12-.34,9.37,9.37,0,0,0,1.38-2.76C371.91,137.5,372.21,137.43,372.52,137.52Zm.75-5.6a1.06,1.06,0,0,1,.23.59c0,.4-.37.59-.77.48a1.17,1.17,0,0,1-.56-.43c-.3-.42-.72-.93-1-1.27a1,1,0,0,1-.27-.57c0-.36.37-.53.78-.42a1.2,1.2,0,0,1,.52.33A10.26,10.26,0,0,1,373.27,131.92Zm9.26,3.75a.75.75,0,0,1,.53.77c0,.31-.17.58-.54.48l-2.12-.6c0,.4,0,.8.06,1.2,0,.72.09,1.45.19,2.18a6.86,6.86,0,0,0,.79-1.73.5.5,0,0,1,.68-.31,1,1,0,0,1,.72.83.54.54,0,0,1,0,.22,7.62,7.62,0,0,1-1.81,2.93c.32,1.46.56,1.76.73,1.81s.31,0,.43-.86c0-.32.34-.41.63-.33a.83.83,0,0,1,.63.75v.06c-.22,1.62-.82,2-1.67,1.73s-1.37-.86-1.85-2.3a7.46,7.46,0,0,1-2.84,1,1.12,1.12,0,0,1-.41,0,.92.92,0,0,1-.7-.8c0-.21.13-.38.45-.43a6.36,6.36,0,0,0,3.13-1.27,1.83,1.83,0,0,1-.07-.32,35.39,35.39,0,0,1-.5-4.77l-3.11-.88c-.38-.11-.52,0-.52.32,0,.75,0,1.13,0,1.87,0,2.43-.44,4.06-1.24,5.15a.63.63,0,0,1-.73.22.92.92,0,0,1-.7-.78.58.58,0,0,1,.11-.31c.78-1,1.13-2.35,1.15-4.75,0-.79,0-1.19,0-2,0-1.06.44-1.39,1.64-1.05l3.37,1c0-.63,0-1.27,0-1.93,0-.41.37-.51.73-.41a.93.93,0,0,1,.72.81c0,.66,0,1.31,0,1.94Zm-4.32.75a.72.72,0,0,1,.5.7c0,.29-.16.53-.5.44l-2-.58a.74.74,0,0,1-.49-.71c0-.28.17-.52.5-.43ZM376.86,141c-.94-.26-1.16-.66-1.16-1.3v-1.23c0-.65.27-.93,1.21-.66l.68.19c.9.25,1.15.68,1.15,1.32v1.23c0,.74-.36.88-1.16.66Zm.58-.83c.19.06.23,0,.23-.16v-.75c0-.18,0-.24-.22-.29l-.47-.13c-.15,0-.2,0-.2.17v.75c0,.13,0,.24.19.28Zm5-5.84a.91.91,0,0,1,.15.47c0,.36-.33.52-.67.43a.9.9,0,0,1-.51-.41,7.24,7.24,0,0,0-.57-.87.74.74,0,0,1-.16-.41c0-.31.31-.48.66-.38a1,1,0,0,1,.47.3A7.7,7.7,0,0,1,382.41,134.34Z"/><path class="cls-17" d="M325.24,95.9V94.56c0-1.29.61-1.8,1.69-1.48l8.62,2.47A2.14,2.14,0,0,1,337.1,98c0,.53,0,.8-.06,1.33-.07,1.32-.68,1.8-1.73,1.5l-8.43-2.45A2.26,2.26,0,0,1,325.24,95.9Z"/><path class="cls-17" d="M340.09,102.44c0-.18,0-.27,0-.46a3.82,3.82,0,0,1,.71-2.23c4.64-6.33,7-10.09,11.44-15a1.62,1.62,0,0,1,1.91-.48l2.85.8a1.82,1.82,0,0,1,1.46,2c-.25,5.89-.36,10-.6,17.16l1.91.53a2.14,2.14,0,0,1,1.57,2.37c0,.47,0,.71,0,1.17,0,1.25-.51,1.76-1.37,1.52l-2.25-.61c-.09,2.55-.14,3.78-.23,6,0,1.09-.62,1.43-1.73,1.13l-1.74-.48a1.81,1.81,0,0,1-1.52-2c.12-2.19.18-3.41.3-6-4.5-1.24-6.75-1.87-11.23-3.14A2,2,0,0,1,340.09,102.44Zm12.94.49c.18-4.17.28-6.39.46-10.4.08-1.6.35-3.23.35-3.23l-.08,0a15.26,15.26,0,0,1-1.45,2.5c-2.67,3.43-4,5.36-6.8,9v.09C348.52,101.68,350,102.1,353,102.93Z"/><path class="cls-17" d="M377.63,90.42a17.82,17.82,0,0,1,4,1.69,1.91,1.91,0,0,1,1.05,2.32c-.16.48-.24.73-.39,1.23-.29,1.08-.94,1.12-1.81.64a10.67,10.67,0,0,0-2.42-1.09c-4.31-1.18-6.36,2.38-7,7l.08,0c.86-1.15,2.76-1.9,5.38-1.19,5.12,1.38,8.69,7.32,9,13.1.3,6.26-3.25,9.55-9,8.1-6-1.53-11-7.36-10.9-17.37C365.7,95.64,369.58,88.19,377.63,90.42Zm-1.25,27.16c2.59.67,4.19-1.07,4.07-4.33s-1.93-6.63-5.47-7.57c-2.42-.65-4.24.46-4.22,2.83C370.78,111.93,373.15,116.75,376.38,117.58Z"/><path class="cls-17" d="M390.4,105.3c-.18-3.23,1.94-5.14,4.92-4.35a8.26,8.26,0,0,1,5.73,7.11c.17,3.26-2.12,5.33-5.06,4.59S390.58,108.61,390.4,105.3Zm18.22.4a1.64,1.64,0,0,1,1.8-.39l.73.19c1.31.34,1.72,1.22.94,2-6.91,7.05-9.57,12.34-15.35,18.57a1.5,1.5,0,0,1-1.61.35l-.68-.16c-1.14-.27-1.54-1-.88-1.75C399.35,118,402,112.72,408.62,105.7Zm-10.76,1.54a3.49,3.49,0,0,0-2.34-3c-1.21-.32-2.08.54-2,1.88a3.39,3.39,0,0,0,2.29,3C397,109.46,397.93,108.62,397.86,107.24Zm11.19,12.41a7.63,7.63,0,0,1,5.55,6.76c0,2.87-2.32,4.31-5.2,3.66a7,7,0,0,1-5.52-6.14A4,4,0,0,1,409.05,119.65Zm.25,7.65a1.61,1.61,0,0,0,2.13-1.64,3.12,3.12,0,0,0-2.28-2.77,1.63,1.63,0,0,0-2.09,1.75A3,3,0,0,0,409.3,127.3Z"/><path class="cls-16" d="M567.12,151.45l-43.36-8.78-9.7,12.12-6-18.15-47.25-12.87a7.68,7.68,0,0,1-5.69-7.42V15a7.69,7.69,0,0,1,9.69-7.42L571.13,36.88a7.69,7.69,0,0,1,5.69,7.43V144A7.69,7.69,0,0,1,567.12,151.45Z"/><path class="cls-9" d="M562.9,145.11l-40.76-9.48L512,145.83l-8.08-14.47-47.24-13.92a7.7,7.7,0,0,1-5.7-7.43V8.7a7.69,7.69,0,0,1,9.7-7.43L566.9,30.55A7.68,7.68,0,0,1,572.59,38v99.71A7.69,7.69,0,0,1,562.9,145.11Z"/><path class="cls-11" d="M572.59,137.68a7.69,7.69,0,0,1-9.69,7.43l-40.76-9.48L512,150.83l-5.57-15.64"/><path class="cls-11" d="M451.08,7.17a7.7,7.7,0,0,1,9.55-5.9L566.9,30.55A7.68,7.68,0,0,1,572.59,38v95.62"/><path class="cls-11" d="M503.87,131.36l-47.24-13.92a7.7,7.7,0,0,1-5.7-7.43V10.61"/><path d="M503.73,29.48a1.07,1.07,0,0,1,.5.81.52.52,0,0,1-.71.5,1.4,1.4,0,0,1-.47-.24,27.32,27.32,0,0,1-5.2-5.16A14.55,14.55,0,0,1,492.64,28a.63.63,0,0,1-.36,0,1,1,0,0,1-.68-.85.47.47,0,0,1,.41-.5,12.4,12.4,0,0,0,5.26-2.8.65.65,0,0,1,.65-.11c.38.1.75.44.75.77a.42.42,0,0,1,0,.18A25.57,25.57,0,0,0,503.73,29.48Zm-5.12,1.72,3.06.82a.76.76,0,0,1,.54.75c0,.3-.18.56-.54.46l-3.06-.81V34l4.67,1.25a.78.78,0,0,1,.54.78c0,.31-.17.58-.54.48-4.27-1.13-6.4-1.7-10.67-2.86a.8.8,0,0,1-.55-.78c0-.32.19-.58.55-.48l4.56,1.23V32l-3-.8a.77.77,0,0,1-.54-.75c0-.31.17-.56.54-.46l3,.79V29.47l-2.39-.64a.77.77,0,0,1-.54-.74c0-.31.18-.55.54-.45l6.32,1.7a.74.74,0,0,1,.55.74.42.42,0,0,1-.55.45l-2.49-.67Z"/><path d="M507,31.77l-.28.34a.59.59,0,0,1-.64.19,1,1,0,0,1-.71-.83.57.57,0,0,1,.15-.39,11.28,11.28,0,0,0,2-4.15c.08-.3.4-.37.72-.28a1,1,0,0,1,.77.82.88.88,0,0,1,0,.16,14,14,0,0,1-1.17,2.8.78.78,0,0,1,.57.65c0,2.69,0,4.07,0,6.9,0,.35-.36.43-.7.34S507,38,507,37.6Zm6.84,3.42v1.07l1.2.32a.73.73,0,0,1,.52.72c0,.3-.17.55-.52.46l-1.2-.32c0,.75,0,1.12,0,1.88,0,.38-.35.47-.71.38a.89.89,0,0,1-.71-.76c0-.75,0-1.13,0-1.88l-1.26-.33a.75.75,0,0,1-.52-.73c0-.29.18-.54.52-.45l1.26.33V34.81c0-.66,0-1,.06-1.64a10.45,10.45,0,0,1-2.63,2.9.61.61,0,0,1-.56.11.89.89,0,0,1-.65-.79.53.53,0,0,1,.23-.44,10.19,10.19,0,0,0,3-3.51l-2.2-.58a.78.78,0,0,1-.55-.76c0-.31.19-.56.55-.46l2.75.73c0-.85,0-1.27,0-2.1,0-.35.36-.44.71-.35s.71.37.71.72c0,.84,0,1.26,0,2.1l3.14.83a.76.76,0,0,1,.55.76c0,.3-.18.56-.55.46l-2.77-.73a20.05,20.05,0,0,0,3.37,4.83,1.11,1.11,0,0,1,.36.74.57.57,0,0,1-.77.53,1.07,1.07,0,0,1-.53-.37,22.29,22.29,0,0,1-2.87-4.33C513.76,34.15,513.78,34.49,513.8,35.19Z"/><path d="M519.9,36.38c0-2.92,2.56-4.53,6.28-3.54,3.3.88,5.21,3.27,5.2,5.8,0,2.3-1.48,3.66-3.81,3.76a1,1,0,0,1-.31,0,1,1,0,0,1-.76-.95.56.56,0,0,1,.58-.57c1.92-.15,2.7-1.06,2.71-2.64a4.41,4.41,0,0,0-3.25-4,10,10,0,0,1-1.55,5,2.14,2.14,0,0,1-2.59,1A3.66,3.66,0,0,1,519.9,36.38Zm1.55.41c0,1.18.48,1.75,1,1.88s.78,0,1.18-.55A9,9,0,0,0,525,33.86,3,3,0,0,0,521.45,36.79Z"/><path d="M475.93,42a9.15,9.15,0,0,1,2.32.37c2.17.6,3.53,2,3.53,3.78s-1.16,2.69-3.14,2.44l-.15,0a1,1,0,0,1-.72-1,.52.52,0,0,1,.62-.56c1.33.12,1.85-.36,1.85-1.28s-.69-1.64-2-2a7.87,7.87,0,0,0-2.33-.28V46c0,1.48-.61,1.86-1.88,1.51a3.64,3.64,0,0,1-2.56-3c0-1,.58-2,3-2.49V39.66c-.68-.12-1.34-.26-1.88-.41a.94.94,0,0,1-.67-.9c0-.36.22-.66.67-.53s1.2.28,1.88.39V36.1c0-.45.37-.57.74-.46a1,1,0,0,1,.73.88v1.89c.47.05.91.09,1.29.1a1.09,1.09,0,0,1,.25,0,1,1,0,0,1,.72.91.49.49,0,0,1-.57.52,15.23,15.23,0,0,1-1.68-.12Zm-1.47,1.64c-1.19.36-1.43.76-1.43,1.32s.5.89,1,1,.44-.15.44-.5Zm7.85-2.65a1.15,1.15,0,0,1,.31.74.58.58,0,0,1-.78.58,1.15,1.15,0,0,1-.55-.39,16.2,16.2,0,0,0-1.64-1.67,1,1,0,0,1-.38-.73.6.6,0,0,1,.77-.6.85.85,0,0,1,.37.2A15.24,15.24,0,0,1,482.31,40.94Z"/><path d="M486.4,44c0,2.77,0,4.18,0,7,0,.4-.36.51-.73.41a.94.94,0,0,1-.74-.81c0-4.22,0-6.31,0-10.4,0-1,.36-1.43,1.78-1l1.39.38c1.44.39,1.79,1,1.79,2v2c0,.44-.06.89-.43,1.06a2.18,2.18,0,0,1-1.35-.07Zm2-2.85c0-.27-.09-.37-.44-.46s-.7-.2-1.18-.32c-.33-.1-.43,0-.43.22s0,.24,0,.4l2.05.56C488.45,41.43,488.45,41.35,488.44,41.19ZM488,43.32c.35.1.44,0,.44-.21v-.42l-2.05-.56v.75Zm1.43,7a1.78,1.78,0,0,1-1.56-1.84V47.06c0-1,.47-1.28,1.55-1l2.15.58a1.75,1.75,0,0,1,1.55,1.82v1.39c0,1.11-.59,1.26-1.54,1Zm1.92-.73c.31.09.39,0,.39-.25,0-.41,0-.61,0-1,0-.25-.08-.37-.38-.46l-1.7-.45c-.31-.09-.39,0-.39.24v1a.43.43,0,0,0,.39.46Zm1.49-3.77c-1.43-.38-1.78-.91-1.78-1.94v-2c0-1,.34-1.38,1.77-1l1.51.41c1.41.38,1.77,1,1.77,2,0,3.54,0,5.34,0,9,0,1.36-.55,1.72-1.69,1.42a7.49,7.49,0,0,1-1-.33,1,1,0,0,1-.6-.94c0-.38.24-.72.68-.6l.13,0a4.37,4.37,0,0,0,.57.21c.31.08.43,0,.43-.34,0-2.2,0-3.29,0-5.45Zm1.81-2.92c0-.27-.1-.37-.43-.46l-1.29-.35c-.35-.09-.44-.05-.44.23v.4l2.16.58Zm0,1.5-2.16-.58v.41c0,.27.09.36.44.46l1.72.46Z"/><path d="M499.92,44a1,1,0,0,1,.78.94c0,.2-.05.86-.05,1.29,0,4.87.94,6.46,1.5,6.61.32.09.61-.06.86-1.06a.52.52,0,0,1,.68-.42,1,1,0,0,1,.76,1,.58.58,0,0,1,0,.23c-.49,1.77-1.34,2.25-2.23,2-1.92-.51-3.09-3.42-3.1-8.7,0-.64,0-1.05.05-1.4S499.56,43.9,499.92,44Zm10,8.58a1,1,0,0,1,.05.31.55.55,0,0,1-.74.55,1.08,1.08,0,0,1-.71-.73,17.24,17.24,0,0,0-2.29-4.42,1,1,0,0,1-.23-.57.56.56,0,0,1,.76-.51,1.21,1.21,0,0,1,.59.42A15.42,15.42,0,0,1,509.94,52.57Z"/><path d="M523.81,53.4a1.15,1.15,0,0,1,.48.88.55.55,0,0,1-.73.57,1.21,1.21,0,0,1-.48-.26,28.68,28.68,0,0,1-5.19-5.7,14.45,14.45,0,0,1-5.18,3.19.65.65,0,0,1-.39,0,1,1,0,0,1-.69-.93.57.57,0,0,1,.42-.57,12.52,12.52,0,0,0,5.26-3.51.66.66,0,0,1,.67-.16,1,1,0,0,1,.75.84.43.43,0,0,1-.06.22A25.13,25.13,0,0,0,523.81,53.4Zm-8.21,5.71c-1.29-.34-1.78-1-1.78-2v-2c0-1,.5-1.38,1.8-1l4.7,1.25c1.3.35,1.81,1,1.81,2,0,.81,0,1.21,0,2,0,1.25-.77,1.32-1.82,1Zm.13-6.5a.82.82,0,0,1-.55-.8c0-.34.19-.61.55-.51l4.4,1.16a.79.79,0,0,1,.55.8c0,.32-.18.61-.55.51ZM520,59c.48.13.59,0,.59-.34V57.1c0-.37-.1-.51-.58-.63l-4.15-1.1c-.48-.13-.57,0-.57.33,0,.62,0,.94,0,1.57,0,.44.2.55.57.65Z"/><path d="M535.43,55.31l2.36.51.06,0a1,1,0,0,1,.74.95.53.53,0,0,1-.71.54l-2.47-.52a10.74,10.74,0,0,1-.16,1.87c-.24,1.25-.79,1.56-1.92,1.26a6,6,0,0,1-.94-.36,1,1,0,0,1-.57-.89c0-.38.24-.7.69-.58a.35.35,0,0,1,.13,0,2.31,2.31,0,0,0,.62.23c.31.09.45,0,.52-.35a9.43,9.43,0,0,0,.13-1.54c-1.22-.24-2.43-.49-3.64-.71V56c0,1.37,0,2.33.06,3.35s.59,1.6,1.78,1.92a17.79,17.79,0,0,0,3.51.6.76.76,0,0,1,.21,0,1,1,0,0,1,.73,1,.59.59,0,0,1-.7.61,18.14,18.14,0,0,1-3.77-.67c-2-.53-3.17-1.56-3.28-3.68,0-1-.07-2.07-.06-3.49v-.14l-2.19-.39-.1,0a.85.85,0,0,1-.59-.53,1.08,1.08,0,0,1-.08-.38.55.55,0,0,1,.69-.61l2.28.41c0-.89,0-1.33,0-2.2,0-.44.38-.56.76-.46a1,1,0,0,1,.76.87c0,.83,0,1.25,0,2.08,1.2.23,2.43.49,3.65.73,0-1,0-1.42,0-2.37,0-.46.38-.58.75-.48a.94.94,0,0,1,.75.89C535.44,53.94,535.44,54.4,535.43,55.31Z"/><path d="M540.77,60.62c0-3.2,2.63-5,6.48-4,3.43.95,5.44,3.61,5.44,6.39a3.81,3.81,0,0,1-4,4.09,1,1,0,0,1-1.11-1.06.58.58,0,0,1,.6-.61c2-.17,2.81-1.16,2.81-2.89a4.81,4.81,0,0,0-3.39-4.41,11.47,11.47,0,0,1-1.6,5.49,2.17,2.17,0,0,1-2.68,1.05A3.92,3.92,0,0,1,540.77,60.62Zm1.59.43c0,1.29.5,1.91,1,2.05s.81,0,1.22-.61a10.29,10.29,0,0,0,1.41-4.7A3.16,3.16,0,0,0,542.36,61.05Z"/><path d="M478.1,105.2l4.13,1.08a.85.85,0,0,1,.6.82c0,.33-.2.61-.6.51L478,106.5c-.32,2.46-1.45,3.66-3.35,4.2a1,1,0,0,1-.51,0,1,1,0,0,1-.8-.91.52.52,0,0,1,.44-.52,3.41,3.41,0,0,0,2.62-3.19l-4.53-1.18a.83.83,0,0,1-.6-.82c0-.33.2-.61.6-.51l4.62,1.21a2.49,2.49,0,0,0,0-.4c0-.59,0-.89,0-1.48a28.82,28.82,0,0,1-2.91-.49,1,1,0,0,1-.76-.92c0-.34.24-.6.75-.5a29.89,29.89,0,0,0,6.6.62,1,1,0,0,1,.25,0,1.07,1.07,0,0,1,.78,1,.5.5,0,0,1-.54.51,21.28,21.28,0,0,1-2.58-.07C478.09,103.92,478.1,104.35,478.1,105.2Z"/><path d="M493.32,109.24a1.77,1.77,0,0,1,.4.08,1.45,1.45,0,0,1,1.23,1.3,1.26,1.26,0,0,1-.21.7,4.81,4.81,0,0,1-1.56,1.58.62.62,0,0,1-.54.08.92.92,0,0,1-.69-.8.49.49,0,0,1,.25-.41,4,4,0,0,0,1.17-1.07.17.17,0,0,0,.05-.12c0-.06-.05-.12-.16-.14l-.11,0-2.95-.32c.37,2,.56,2.92.94,4.8a.41.41,0,0,1,0,.11c0,.34-.34.44-.69.35a.85.85,0,0,1-.64-.61c-.38-1.88-.57-2.84-.95-4.79l-2.25-.25-.12,0a.83.83,0,0,1-.6-.77.41.41,0,0,1,.51-.44l2.21.25c-.17-.88-.26-1.33-.43-2.22a.66.66,0,0,1,0-.13c0-.37.33-.46.68-.37a.92.92,0,0,1,.68.67c.16.88.25,1.32.42,2.19Z"/><path d="M500.31,112a.67.67,0,0,1,0,.24c0,.36-.38.52-.75.42a.88.88,0,0,1-.6-.55,16.68,16.68,0,0,0-.85-1.87.75.75,0,0,1-.09-.33c0-.33.36-.5.72-.4a1,1,0,0,1,.61.49A13.31,13.31,0,0,1,500.31,112Zm5.32-.91a1,1,0,0,1,.76.82.5.5,0,0,1,0,.16,7.66,7.66,0,0,1-5.43,5.46.92.92,0,0,1-.37,0,.93.93,0,0,1-.67-.82.47.47,0,0,1,.41-.48A6.55,6.55,0,0,0,505,111.4C505.08,111.11,505.34,111,505.63,111.12Zm-2.8.95a.74.74,0,0,1,0,.23c0,.37-.36.52-.72.42a.83.83,0,0,1-.6-.57,16.16,16.16,0,0,0-.79-1.84.63.63,0,0,1-.09-.32c0-.34.34-.48.71-.38a.93.93,0,0,1,.61.49A11.54,11.54,0,0,1,502.83,112.07Z"/><path d="M511.68,113.85a.58.58,0,0,1,.65-.23,1,1,0,0,1,.34.17,23,23,0,0,1,2.79,2.36,1.09,1.09,0,0,1,.36.76.56.56,0,0,1-.75.54,1.12,1.12,0,0,1-.55-.33c-.77-.75-1.88-1.7-2.46-2.16a1.43,1.43,0,0,1-.38-.46c0,2.2,0,3.28,0,5.38,0,.43-.38.54-.78.43a.94.94,0,0,1-.77-.83c0-3.72,0-5.67,0-9.69,0-.45.39-.59.77-.49a1,1,0,0,1,.78.9C511.69,111.68,511.68,112.41,511.68,113.85Z"/><path d="M522.09,117.64a1,1,0,0,1,.77.89.65.65,0,0,1-.06.3,5.68,5.68,0,0,1-1.92,2.2.77.77,0,0,1-.62.1,1,1,0,0,1-.78-.88.53.53,0,0,1,.28-.47,5,5,0,0,0,1.61-1.87A.61.61,0,0,1,522.09,117.64Zm3.89,5.08c0,1.24-.68,1.53-1.85,1.23a7.15,7.15,0,0,1-1-.34,1,1,0,0,1-.63-.86.55.55,0,0,1,.75-.54l.15.05a3.3,3.3,0,0,0,.57.2c.3.08.42,0,.42-.33,0-2,0-3,0-5.1l-3.86-1a.85.85,0,0,1-.63-.85c0-.35.21-.63.64-.52l3.86,1c0-.77,0-1.16,0-1.94,0-.45.42-.56.82-.46a1,1,0,0,1,.79.85c0,.8,0,1.19,0,2l3.86,1a.86.86,0,0,1,.64.85.48.48,0,0,1-.65.51l-3.86-1C526,119.6,526,120.66,526,122.72Zm4.46-.31a1.16,1.16,0,0,1,.25.64c0,.41-.4.61-.82.5a1.33,1.33,0,0,1-.75-.58,19.06,19.06,0,0,1-1.61-3,1,1,0,0,1-.08-.35c0-.4.38-.55.77-.44a1.07,1.07,0,0,1,.74.62A17.24,17.24,0,0,0,530.44,122.41Zm-2.5-8.1c0-.26.28-.39.56-.31a.71.71,0,0,1,.43.31,10.91,10.91,0,0,1,.87,1.51.71.71,0,0,1,.08.32.39.39,0,0,1-.53.37.81.81,0,0,1-.5-.44,15,15,0,0,0-.81-1.46A.54.54,0,0,1,527.94,114.31Zm1.48-.44c0-.25.26-.39.54-.31a.78.78,0,0,1,.46.32,9.92,9.92,0,0,1,.91,1.46.75.75,0,0,1,.09.35.39.39,0,0,1-.54.37.85.85,0,0,1-.52-.45c-.23-.45-.55-1-.83-1.42A.61.61,0,0,1,529.42,113.87Z"/><path d="M536.81,121.56a.67.67,0,0,1,0,.24c0,.37-.4.51-.79.41a.88.88,0,0,1-.63-.55,16.14,16.14,0,0,0-.87-1.88.63.63,0,0,1-.09-.33c0-.33.37-.5.75-.4a1,1,0,0,1,.64.5A14.1,14.1,0,0,1,536.81,121.56Zm5.66-.83c.39.11.82.45.82.83l0,.16a7.92,7.92,0,0,1-5.82,5.38.86.86,0,0,1-.39,0,1,1,0,0,1-.7-.83.48.48,0,0,1,.43-.48,6.7,6.7,0,0,0,5-4.78C541.88,120.71,542.16,120.65,542.47,120.73Zm-3,.91a.66.66,0,0,1,0,.23c0,.37-.39.51-.77.41a.91.91,0,0,1-.64-.59,15.32,15.32,0,0,0-.82-1.84.63.63,0,0,1-.09-.32c0-.34.36-.48.75-.38a1.07,1.07,0,0,1,.65.51A12.76,12.76,0,0,1,539.48,121.64Z"/><path d="M548.89,123.55a.64.64,0,0,1,.71-.22,1.26,1.26,0,0,1,.37.18,25.78,25.78,0,0,1,3.09,2.43,1.06,1.06,0,0,1,.41.77c0,.4-.36.64-.83.52a1.41,1.41,0,0,1-.62-.35c-.85-.77-2.08-1.75-2.71-2.22a1.27,1.27,0,0,1-.42-.46c0,2.2,0,3.27,0,5.38,0,.43-.42.52-.86.41s-.84-.42-.84-.85c0-3.73,0-5.67,0-9.68,0-.46.43-.58.85-.47a1,1,0,0,1,.85.91C548.89,121.38,548.89,122.11,548.89,123.55Z"/><path class="cls-17" d="M479.39,89.5c0-10.35,12-10.66,12-17.23a5.25,5.25,0,0,0-3.93-5.38,3.9,3.9,0,0,0-3.81,1.51,1.24,1.24,0,0,1-2.13,0l-1-1.13a1.88,1.88,0,0,1-.4-2.48A7.16,7.16,0,0,1,487.89,62c4.5,1,8.42,4.71,8.42,11,0,10.62-11.59,10.12-11.81,15.83,4.24,1.11,6.39,1.68,10.7,2.84a2,2,0,0,1,1.55,2.19V95c0,1.14-.51,1.52-1.55,1.24-5.74-1.57-8.6-2.36-14.2-3.87a2,2,0,0,1-1.61-2Z"/><path class="cls-17" d="M501.37,81.8c0-9.93,2.25-15.92,9.41-13.89s9.6,9.23,9.69,19.12-2.24,15.89-9.48,14S501.4,91.74,501.37,81.8Zm14.16,3.88c-.06-6.71-1.14-11.9-4.72-12.9s-4.59,3.62-4.56,10.35,1.09,12.05,4.71,13S515.58,92.48,515.53,85.68Z"/><path class="cls-17" d="M526,83.94c0-3.27,2.09-5.24,4.8-4.53s4.88,3.78,4.91,7-2.11,5.52-4.79,4.84S526,87.29,526,83.94Zm16.36-.37a1.33,1.33,0,0,1,1.52-.55l.59.13a1.17,1.17,0,0,1,.75,2c-5.73,8-8.52,13.28-14.22,19.77a1.35,1.35,0,0,1-1.51.39l-.62-.15c-1.05-.26-1.38-1-.73-1.77C533.82,96.68,536.62,91.34,542.34,83.57Zm-9.51,2.16a3.15,3.15,0,0,0-2-3c-1.1-.29-1.95.6-1.94,2a3.17,3.17,0,0,0,2,3C532,88,532.84,87.13,532.83,85.73ZM542.44,98c2.66.59,4.81,3.78,4.82,6.74s-2.12,4.59-4.75,4a6.38,6.38,0,0,1-4.84-6.14C537.65,99.59,539.76,97.35,542.44,98Zm0,7.89c1.09.24,2-.51,2-1.79a2.9,2.9,0,0,0-2-2.76c-1.09-.24-1.93.65-1.93,1.89A2.72,2.72,0,0,0,542.49,105.85Z"/><path class="cls-16" d="M708,206.81,640.09,189l-22.66,10,4.79-14.66-20.48-5.21a7.69,7.69,0,0,1-5.7-7.43V70.39a7.7,7.7,0,0,1,9.7-7.43L712,92.24a7.69,7.69,0,0,1,5.69,7.43v99.71A7.69,7.69,0,0,1,708,206.81Z"/><path class="cls-9" d="M703.78,200.47l-67.51-17.14L619.66,193.7,618,179.06l-20.49-6.26a7.69,7.69,0,0,1-5.69-7.43V64.06a7.69,7.69,0,0,1,9.69-7.43L707.79,85.9a7.69,7.69,0,0,1,5.69,7.43V193A7.69,7.69,0,0,1,703.78,200.47Z"/><path class="cls-11" d="M713.48,193a7.69,7.69,0,0,1-9.7,7.43l-67.51-17.14L613.66,195.7l4.1-12.7"/><path class="cls-11" d="M592,62.53a7.69,7.69,0,0,1,9.54-5.9L707.79,85.9a7.69,7.69,0,0,1,5.69,7.43V189"/><path class="cls-11" d="M618,179.06l-20.49-6.26a7.69,7.69,0,0,1-5.69-7.43V66"/><path d="M616,76.52c0-.47-.2-.65-.84-.82l-5.78-1.57a.92.92,0,0,1-.65-.88.49.49,0,0,1,.65-.52l6.07,1.65c1.49.4,2.07,1.1,2.06,2.24,0,1.86,0,2.81,0,4.74,0,1.18-.58,1.6-2.06,1.19l-6.22-1.71a.93.93,0,0,1-.65-.91c0-.37.23-.67.65-.56L615.13,81c.64.18.84.1.84-.38C616,79,616,78.13,616,76.52Z"/><path d="M630.69,81.68a1,1,0,0,1,.71.93.52.52,0,0,1-.72.54l-9.61-2.65a1,1,0,0,1-.7-.93.52.52,0,0,1,.71-.54Z"/><path d="M636,80c0-.43.4-.54.8-.43a1,1,0,0,1,.76.86V81.8c0,3.49-1,5.42-2.81,6.48a.74.74,0,0,1-.59.08,1.12,1.12,0,0,1-.78-1,.62.62,0,0,1,.32-.55c1.58-1,2.28-2.42,2.29-5.5C636,80.76,636,80.49,636,80Zm4.91,8.13c0,.2.05.32.19.35a.59.59,0,0,0,.26,0,5.53,5.53,0,0,0,2.51-1.52.65.65,0,0,1,.65-.17,1.07,1.07,0,0,1,.78.93.63.63,0,0,1-.16.41,6.51,6.51,0,0,1-3.27,2,2.2,2.2,0,0,1-1.14,0,1.93,1.93,0,0,1-1.39-1.94c0-3.09,0-4.6,0-7.53,0-.42.4-.52.79-.41A1,1,0,0,1,641,81C641,83.76,641,85.18,640.93,88.08Z"/><path d="M655.84,86.64a2.84,2.84,0,0,1,.42.08,1.46,1.46,0,0,1,1,2.25,5.83,5.83,0,0,1-2,1.9.75.75,0,0,1-.56.06A1,1,0,0,1,654,90a.59.59,0,0,1,.33-.51,4,4,0,0,0,1.43-1.28s.06-.08.06-.12-.05-.12-.15-.15h-.11l-4-.45c0,1.4,0,2.1,0,3.54,0,.77.17,1,1.35,1.36a20.83,20.83,0,0,0,3.49.69l.16,0a1,1,0,0,1,.66.91.53.53,0,0,1-.65.55,20.69,20.69,0,0,1-3.53-.72c-2.49-.71-3-1.52-3-3s0-2.13,0-3.52l-2.32-.25a.35.35,0,0,1-.14,0,1,1,0,0,1-.67-.89.46.46,0,0,1,.57-.48l2.57.28c0-1.23,0-1.84,0-3,0-.42.39-.51.77-.4a1,1,0,0,1,.77.84c0,1.1,0,1.66,0,2.8Z"/><path d="M664.05,89.2a1,1,0,0,1,.24.61.65.65,0,0,1-.86.6,1.23,1.23,0,0,1-.6-.43,25.32,25.32,0,0,0-1.81-2,1,1,0,0,1-.32-.66.62.62,0,0,1,.86-.52,1.32,1.32,0,0,1,.53.32A17.24,17.24,0,0,1,664.05,89.2Zm5.87,1.33a1.09,1.09,0,0,1,.82.93.73.73,0,0,1-.14.36,11.44,11.44,0,0,1-8.29,4.48,1,1,0,0,1-.36,0,1.13,1.13,0,0,1-.79-1,.51.51,0,0,1,.52-.55,10.51,10.51,0,0,0,7.56-4A.58.58,0,0,1,669.92,90.53Z"/><path d="M680.58,92.91c1.11.31,1.67.89,1.67,1.64a1.7,1.7,0,0,1-.13.64,9.52,9.52,0,0,1-6.59,5.62.94.94,0,0,1-.44,0,1.09,1.09,0,0,1-.73-1,.56.56,0,0,1,.48-.58,9,9,0,0,0,3.46-1.74,19.39,19.39,0,0,0-1.54-1.66.92.92,0,0,1-.34-.66.53.53,0,0,1,.74-.46,1.21,1.21,0,0,1,.47.27,19.5,19.5,0,0,1,1.59,1.65,7.19,7.19,0,0,0,1.36-2.13.32.32,0,0,0,0-.16c0-.14-.11-.24-.36-.31L677,93.14A9.64,9.64,0,0,1,674.76,95a.73.73,0,0,1-.59.06,1,1,0,0,1-.75-.9.58.58,0,0,1,.33-.51,8.92,8.92,0,0,0,3.21-3.3.6.6,0,0,1,.75-.25,1,1,0,0,1,.76.85.51.51,0,0,1-.07.28,8.71,8.71,0,0,1-.56.89Z"/><path d="M695.37,100.23a1,1,0,0,1,.71.94.51.51,0,0,1-.71.52c-3.88-1.16-5.82-1.74-9.71-2.88a1,1,0,0,1-.72-1,.5.5,0,0,1,.72-.51C689.55,98.49,691.49,99.07,695.37,100.23Z"/><path d="M629.76,94.82c0-.39.35-.47.71-.37a.88.88,0,0,1,.71.77c0,.5,0,.75,0,1.25l4.28,1.2a.82.82,0,0,1,.53.83c0,.33-.18.64-.53.54l-8.07-2.26c-.6-.16-.77,0-.77.45,0,.63,0,.94,0,1.58a13.74,13.74,0,0,1-1.27,6.3.62.62,0,0,1-.73.32,1.05,1.05,0,0,1-.73-1,.88.88,0,0,1,.1-.4,12.43,12.43,0,0,0,1.16-5.68c0-.77,0-1.15,0-1.92,0-1.15.53-1.53,1.9-1.15l2.71.76C629.75,95.57,629.75,95.32,629.76,94.82Zm-1.68,6.09a1,1,0,0,1,.71.91.47.47,0,0,1,0,.17,9.18,9.18,0,0,1-.85,2.45.53.53,0,0,1-.66.28,1,1,0,0,1-.72-.91.76.76,0,0,1,.09-.35,8.19,8.19,0,0,0,.8-2.18A.47.47,0,0,1,628.08,100.91Zm1.2-.18c0-.42.37-.52.73-.42a.91.91,0,0,1,.72.83c0,1.83,0,2.75,0,4.61,0,.33.07.45.89.68,1.18.33,1.33.21,1.41-.6a.5.5,0,0,1,.7-.45,1,1,0,0,1,.71.9,2.36,2.36,0,0,1-.45,1.47c-.37.4-1.1.45-2.35.1-2-.55-2.37-1-2.36-2.28C629.27,103.62,629.27,102.65,629.28,100.73Zm3.34-.76a1.14,1.14,0,0,1,.29.72.56.56,0,0,1-.73.57,1,1,0,0,1-.5-.37,16,16,0,0,0-1.25-1.42,1,1,0,0,1-.32-.69.53.53,0,0,1,.71-.54,1.11,1.11,0,0,1,.45.26A12.87,12.87,0,0,1,632.62,100Zm3.72,5.3a1.08,1.08,0,0,1,.09.44.56.56,0,0,1-.76.56,1,1,0,0,1-.64-.65,16.5,16.5,0,0,0-1-2.26,1,1,0,0,1-.13-.46.53.53,0,0,1,.73-.52,1,1,0,0,1,.6.49A17.64,17.64,0,0,1,636.34,105.27Z"/><path d="M649.85,101.67a.75.75,0,0,1,.51.73c0,.29-.17.54-.52.44l-1.92-.53a8.79,8.79,0,0,1,.4.82.81.81,0,0,1,.06.32.47.47,0,0,1-.65.44,1,1,0,0,1-.59-.58,15,15,0,0,0-.63-1.4l-.72-.2-.36.46a.53.53,0,0,1-.6.18h0a.86.86,0,0,1,.24.57.45.45,0,0,1,0,.12,21.55,21.55,0,0,0,4.94,4.25,1,1,0,0,1,.53.87.52.52,0,0,1-.69.55,1.11,1.11,0,0,1-.34-.15,25.23,25.23,0,0,1-5.22-4.74,11.81,11.81,0,0,1-5.13,2.14.57.57,0,0,1-.29,0,1,1,0,0,1-.63-.91.51.51,0,0,1,.45-.53,9.8,9.8,0,0,0,5.16-2.36.53.53,0,0,1,.53-.12h0a.88.88,0,0,1-.21-.55.54.54,0,0,1,.13-.35,7.56,7.56,0,0,0,1.15-1.88.47.47,0,0,1,.61-.26.93.93,0,0,1,.69.82.76.76,0,0,1-.06.25,5.11,5.11,0,0,1-.29.63Zm-6.3-1.77a.74.74,0,0,1,.51.73c0,.3-.17.55-.51.45l-1.09-.31c.13.28.25.55.34.8a.8.8,0,0,1,.05.29.46.46,0,0,1-.65.43.88.88,0,0,1-.61-.62c-.13-.39-.29-.81-.5-1.28l-.53-.15a8.11,8.11,0,0,1-.91,1.06.62.62,0,0,1-.61.15,1,1,0,0,1-.66-.85.62.62,0,0,1,.2-.43,7.46,7.46,0,0,0,1.59-2.34.52.52,0,0,1,.67-.27.92.92,0,0,1,.69.81.66.66,0,0,1-.06.27c-.08.2-.19.4-.29.6Zm-1.35,11c-1.14-.32-1.61-.9-1.61-1.77v-1.31c0-.86.48-1.17,1.62-.85l4.24,1.19c1.15.32,1.62.89,1.62,1.76v1.31c0,1.09-.76,1.1-1.63.86Zm4-.06c.37.1.45,0,.45-.24v-.85c0-.26-.08-.38-.45-.48l-3.76-1.06c-.37-.1-.45,0-.46.24v.85c0,.28.1.39.45.48Zm-3.4-4.56a.77.77,0,0,1-.48-.77c0-.31.17-.58.49-.49l3,.84a.75.75,0,0,1,.49.77c0,.31-.16.58-.49.49Z"/><path d="M659,105a.62.62,0,0,1,.15.4.49.49,0,0,1-.08.25,6.18,6.18,0,0,1-.9,1l.5.67a7.5,7.5,0,0,0,.79-1,.47.47,0,0,1,.55-.18.89.89,0,0,1,.65.79.53.53,0,0,1-.12.32,14.8,14.8,0,0,1-2,2c.45.08.9.18,1.36.25,0-.11-.12-.23-.19-.35a.74.74,0,0,1-.1-.32.4.4,0,0,1,.55-.36,1,1,0,0,1,.56.48c.29.48.69,1.25.91,1.73a.93.93,0,0,1,.11.4.44.44,0,0,1-.61.41.83.83,0,0,1-.54-.52c0-.08-.07-.15-.1-.23-.38,0-.77-.1-1.16-.17v1.07l4.91,1.38a.8.8,0,0,1,.55.8c0,.32-.18.6-.55.49l-4.92-1.38c0,1,0,1.42,0,2.38,0,.41-.37.52-.73.41a.91.91,0,0,1-.73-.82c0-1,0-1.43,0-2.38l-4.83-1.35a.81.81,0,0,1-.53-.8c0-.33.18-.59.54-.49l4.83,1.35v-.93c-.53-.1-1-.22-1.52-.34a.84.84,0,0,1-.64-.81.42.42,0,0,1,.58-.43l.63.16a10.91,10.91,0,0,0,.95-.81,17,17,0,0,0-1.34-1.64.91.91,0,0,1-.28-.61.45.45,0,0,1,.61-.44.91.91,0,0,1,.4.24,5.6,5.6,0,0,0,.67-.85.36.36,0,0,1,.1-.11l-4.68-1.32a.77.77,0,0,1-.51-.76c0-.31.18-.56.52-.47l4.55,1.28c0-.31,0-.47,0-.79s.36-.48.72-.38a.92.92,0,0,1,.72.79c0,.32,0,.47,0,.79l4.69,1.33a.77.77,0,0,1,.52.76c0,.3-.18.56-.52.47Zm-5.63,4.25a.9.9,0,0,1-.61-.84.46.46,0,0,1,.4-.49,9.25,9.25,0,0,0,2.22-.67.62.62,0,0,1,.38,0,1,1,0,0,1,.62.82.45.45,0,0,1-.26.41,9.59,9.59,0,0,1-2.46.8A.56.56,0,0,1,653.37,109.29Zm.16-4.75a.49.49,0,0,1,.67-.44.88.88,0,0,1,.42.27,14,14,0,0,1,1,1.2,1,1,0,0,1,.21.55.5.5,0,0,1-.66.5,1.06,1.06,0,0,1-.52-.43c-.2-.3-.62-.84-.89-1.17A.82.82,0,0,1,653.53,104.54Zm8.25,4.19a.94.94,0,0,1-.62-.83.45.45,0,0,1,.27-.43,6.67,6.67,0,0,0,1.31-.84.46.46,0,0,1,.47-.1,1,1,0,0,1,.65.81.45.45,0,0,1-.16.36,6.52,6.52,0,0,1-1.53,1A.53.53,0,0,1,661.78,108.73Zm-.14.92a.5.5,0,0,1,.66-.48.91.91,0,0,1,.37.22,18.8,18.8,0,0,1,1.59,1.7,1,1,0,0,1,.26.63.5.5,0,0,1-.66.48,1,1,0,0,1-.49-.35c-.36-.45-1-1.13-1.48-1.66A.79.79,0,0,1,661.64,109.65Z"/><path d="M668.88,117.17a.61.61,0,0,1-.73.25,1,1,0,0,1-.73-.92.81.81,0,0,1,.12-.41,19.15,19.15,0,0,0,2.07-5,15.1,15.1,0,0,0-1.59-.17.53.53,0,0,1-.17,0,.92.92,0,0,1-.64-.9.52.52,0,0,1,.6-.56c.69,0,1.42.16,2.13.28.17-.81.3-1.64.4-2.46,0-.43.39-.54.74-.44a1,1,0,0,1,.75.91v.09c-.09.73-.21,1.48-.36,2.21.27.06.51.13.72.19,1.71.48,2.34,1.47,2.33,3.69a12.67,12.67,0,0,1-.38,3.3c-.43,1.53-1,2-2.39,1.57a7.31,7.31,0,0,1-.91-.33,1.07,1.07,0,0,1-.65-1c0-.4.24-.72.69-.6l.1.05c.26.1.46.18.74.26.47.13.71,0,.94-.74a10.75,10.75,0,0,0,.36-3c0-1.27-.22-1.67-.86-1.85q-.45-.14-1-.24A21.08,21.08,0,0,1,668.88,117.17Zm9.74-3a1.28,1.28,0,0,1,.1.51.57.57,0,0,1-.78.59,1.18,1.18,0,0,1-.73-.74,18.48,18.48,0,0,0-1.89-3.44,1,1,0,0,1-.21-.57c0-.39.38-.59.78-.47a1.22,1.22,0,0,1,.61.44A18,18,0,0,1,678.62,114.17Zm-2.43-5.53a.41.41,0,0,1,.56-.36.7.7,0,0,1,.37.26,10,10,0,0,1,1,1.5.7.7,0,0,1,.12.41.41.41,0,0,1-.54.41.81.81,0,0,1-.44-.39,15.59,15.59,0,0,0-1-1.47A.69.69,0,0,1,676.19,108.64Zm1.32-.72c0-.28.26-.44.57-.35a1,1,0,0,1,.4.28,10.19,10.19,0,0,1,1,1.43.82.82,0,0,1,.15.45.39.39,0,0,1-.54.38.88.88,0,0,1-.47-.39c-.3-.49-.67-1-1-1.43A.59.59,0,0,1,677.51,107.92Z"/><path d="M640.35,167.64c-.37-.1-.46,0-.46.3,0,1.12,0,1.67,0,2.76,0,.36.15.5.79.68,1.25.35,1.43.29,1.52-.53,0-.36.36-.46.68-.37a.89.89,0,0,1,.7.78v.07c-.17,1.55-.73,1.85-2.88,1.25-1.75-.5-2.21-1-2.21-2.12s0-1.84,0-3.1c0-1,.43-1.32,1.55-1l1.18.33c.37.1.46.05.46-.27,0-.57,0-.86,0-1.43,0-.32-.09-.43-.46-.53l-2.41-.68a.79.79,0,0,1-.53-.77c0-.32.18-.58.54-.48l2.73.77a1.74,1.74,0,0,1,1.54,1.88c0,.73,0,1.1,0,1.82,0,1-.43,1.29-1.56,1Zm8.73.83a10.42,10.42,0,0,1-.66,2.32,7,7,0,0,1-.9,1.52,13.36,13.36,0,0,0,2.34,2.74,1,1,0,0,1,.41.73.54.54,0,0,1-.74.48A1.15,1.15,0,0,1,649,176a15.87,15.87,0,0,1-2.31-2.79,6.9,6.9,0,0,1-3,1.59.58.58,0,0,1-.37,0,.92.92,0,0,1-.68-.82.46.46,0,0,1,.4-.46,6.38,6.38,0,0,0,2.84-1.63,13.54,13.54,0,0,1-1.16-2.93l-.14.19a.64.64,0,0,1-.67.21.94.94,0,0,1-.69-.82.54.54,0,0,1,.15-.38,11,11,0,0,0,1.86-3.9.51.51,0,0,1,.69-.36,1,1,0,0,1,.74.85.61.61,0,0,1,0,.17,12.54,12.54,0,0,1-.52,1.53l3.51,1a.79.79,0,0,1,.53.78c0,.32-.18.59-.54.49Zm-3.47-.89a14.56,14.56,0,0,0,1.1,3.28,7.74,7.74,0,0,0,.73-1.66,10.48,10.48,0,0,0,.25-1.11l-2.05-.57Z"/><path d="M653.48,168.12a.66.66,0,0,1-.45-.66c0-.26.15-.49.46-.41l2.76.75c-.13-.24-.29-.47-.45-.71a.72.72,0,0,1-.14-.4c0-.32.31-.49.66-.4a1,1,0,0,1,.5.36,6.58,6.58,0,0,1,.53.78.79.79,0,0,1,.12.38.4.4,0,0,1-.11.29l1.72.47a7.51,7.51,0,0,0,.68-1,.49.49,0,0,1,.61-.24.86.86,0,0,1,.66.73.41.41,0,0,1-.1.26,7.07,7.07,0,0,1-.42.61l3,.82a.65.65,0,0,1,.46.65c0,.27-.15.49-.47.41l-4.48-1.2v.63l3.36.9a.66.66,0,0,1,.47.64c0,.26-.15.49-.47.4l-3.37-.9V172l4.8,1.29a.66.66,0,0,1,.47.64c0,.26-.17.48-.47.4l-2.42-.65a.81.81,0,0,1,.36.58.41.41,0,0,1-.08.24,2.27,2.27,0,0,1-.29.36l2.74.73a.67.67,0,0,1,.47.64c0,.26-.16.47-.47.39-4.62-1.23-6.92-1.85-11.5-3.09a.66.66,0,0,1-.45-.64c0-.25.16-.46.46-.38l2.62.71c-.08-.15-.18-.31-.28-.48a.65.65,0,0,1-.11-.31c0-.23.21-.37.46-.38l-2.47-.67a.64.64,0,0,1-.45-.64c0-.26.16-.48.45-.4l4.76,1.29c0-.27,0-.4,0-.67l-3.28-.88a.66.66,0,0,1-.45-.65c0-.25.15-.48.46-.39l3.27.88c0-.25,0-.38,0-.63Zm2.34,10c-1.15-.31-1.57-.77-1.57-1.52v-1c0-.77.44-1,1.59-.7l5.2,1.4c1.17.31,1.58.78,1.58,1.54v1c0,.95-.69.92-1.59.68Zm4.91.35c.35.1.44,0,.44-.18s0-.38,0-.63-.09-.32-.44-.41L656.13,176c-.35-.09-.43,0-.43.18s0,.38,0,.63.18.35.43.42Zm-4.88-6.35a1.07,1.07,0,0,1,.31.29,6.52,6.52,0,0,1,.48.8.83.83,0,0,1,.08.31v0l.92.25c0-.47,0-.71,0-1.18ZM659,173c0,.48,0,.71,0,1.19l.86.23a.41.41,0,0,1,.1-.13,3.25,3.25,0,0,0,.5-.6.48.48,0,0,1,.31-.22Z"/><path class="cls-17" d="M607.91,130.06c0-.24,0-.36,0-.59,0-1.07.36-1.56,1.07-1.37l4.53,1.27c.05-3.08.08-4.63.13-7.54,0-1,.42-1.43,1.16-1.23l.55.16c.74.2,1.12.85,1.1,1.85-.05,2.91-.08,4.46-.14,7.53l4.95,1.35c.78.21,1.18.92,1.16,2,0,.23,0,.35,0,.58,0,1.06-.44,1.54-1.22,1.33L616.25,134c-.06,3-.09,4.55-.13,7.32,0,1-.41,1.37-1.14,1.17l-.54-.15c-.73-.2-1.12-.78-1.11-1.78,0-2.78.07-4.29.12-7.32L608.93,132C608.23,131.81,607.89,131.12,607.91,130.06Z"/><path class="cls-17" d="M627,145c.31-.45.46-.69.77-1.16.58-.87,1.32-.73,2.15.17a10.56,10.56,0,0,0,4.85,3.25c2.86.75,5.05-.6,5.12-3.43.09-3.48-2.6-5.94-5.81-6.78l-.58-.16a2.34,2.34,0,0,1-1.72-1.86l-.15-.43a2.45,2.45,0,0,1,.41-2.51c1.72-2,2.6-3,4.35-4.93a12.64,12.64,0,0,1,2.05-1.86v-.09a19.42,19.42,0,0,1-2.47-.52L629.44,123a2,2,0,0,1-1.51-2.15c0-.46,0-.69,0-1.14,0-1.08.54-1.49,1.56-1.23L643.15,122a1.91,1.91,0,0,1,1.65,2v.44a2.41,2.41,0,0,1-.8,2c-2.55,2.43-3.83,3.81-6.34,6.59A12.88,12.88,0,0,1,645.1,145c-.14,5.62-4,8.88-10.11,7.27a16.32,16.32,0,0,1-7.72-4.7A1.85,1.85,0,0,1,627,145Z"/><path class="cls-17" d="M649.71,139.72c.25-9.8,2.93-15.66,10.86-13.59s10.43,9.34,10.24,19.06-3,15.47-11,13.45S649.47,149.52,649.71,139.72Zm15.65,4.06c.14-6.59-.92-11.76-4.89-12.8s-5.21,3.53-5.37,10.14S656,152.94,660,154,665.21,150.47,665.36,143.78Z"/><path class="cls-17" d="M676.15,142c.05-3.24,2.42-5.18,5.32-4.42a7.48,7.48,0,0,1,5.09,7.14c0,3.3-2.35,5.37-5.24,4.63S676.1,145.35,676.15,142Zm17.38.11a1.3,1.3,0,0,1,1.54-.48l.59.16a1.2,1.2,0,0,1,.75,2c-5.78,7.64-8.94,12.7-15.35,18.89a1.6,1.6,0,0,1-1.67.35l-.68-.17c-1.14-.29-1.49-1.06-.75-1.76C684.43,154.78,687.63,149.69,693.53,142.15Zm-10,1.82a3.15,3.15,0,0,0-2.1-3c-1.18-.31-2.13.55-2.15,1.91a3.12,3.12,0,0,0,2.09,3C682.55,146.21,683.52,145.36,683.53,144Zm10,12.38c2.76.71,4.94,3.93,4.94,6.83s-2.2,4.41-5,3.73a6.59,6.59,0,0,1-5.06-6.23C688.4,157.76,690.69,155.64,693.49,156.35Zm0,7.74a1.6,1.6,0,0,0,2.07-1.67,3,3,0,0,0-2-2.79,1.66,1.66,0,0,0-2.06,1.77A2.79,2.79,0,0,0,693.45,164.09Z"/></g></g></svg>