<svg xmlns="http://www.w3.org/2000/svg" width="212.59" height="241.67" viewBox="0 0 212.59 241.67"><defs><style>.cls-1,.cls-2,.cls-3{fill:none;}.cls-1{stroke:#54e2b3;}.cls-1,.cls-3{stroke-miterlimit:10;stroke-width:2px;}.cls-2,.cls-3{stroke:#000;}.cls-2{stroke-linecap:round;stroke-linejoin:round;stroke-width:1.84px;}</style></defs><title>img_ui</title><g id="レイヤー_2" data-name="レイヤー 2"><g id="レイヤー_1のコピー" data-name="レイヤー 1のコピー"><path class="cls-1" d="M139.08,214.77A97.37,97.37,0,0,1,63.62,35.7"/><path class="cls-1" d="M90.06,26.87a97.39,97.39,0,0,1,71.23,176.89"/><line class="cls-1" x1="80.77" y1="4.3" x2="83.64" y2="12.18"/><line class="cls-1" x1="132.5" y1="4.3" x2="129.64" y2="12.18"/><line class="cls-1" x1="106.85" x2="106.85" y2="8.6"/><path d="M69.09,151.34v1.27h4.83v8.18H65v-8.17h2.74v-1.27h-7v-1.18h7v-1.69l1.48.16c.15,0,.35,0,.35.23s-.17.22-.42.31v1h7v1.17Zm-5.94,11.89v.93H61.74V153l1.46.1c.17,0,.36,0,.36.24s-.24.27-.41.32V162h13v1.22Zm9.39-9.53H66.36V155h6.18Zm0,2.26H66.36v1.33h6.19Zm0,2.33H66.36v1.41h6.19Z"/><path d="M93.05,159.15c-1,0-2.17-1.22-2.65-1.74a17.36,17.36,0,0,1-2,1.9,4.45,4.45,0,0,0-1.13-.86,10.73,10.73,0,0,0,2.3-2.1,11,11,0,0,1-1.6-4.74H81.84a14.86,14.86,0,0,1-1.48,7.68,3.55,3.55,0,0,0-1.28-.64c1.14-1.93,1.46-3.71,1.46-6.77v-1.46H87.9c-.06-1.07-.07-1.43-.07-1.95l1.47.11c.14,0,.31,0,.31.19s-.17.26-.44.36a10.43,10.43,0,0,0,0,1.29H92A10.55,10.55,0,0,0,90.48,149l.9-.7a11.71,11.71,0,0,1,1.82,1.66,3.93,3.93,0,0,0-.71.5H94.8v1.19H89.29a9.23,9.23,0,0,0,1.14,3.74A9.55,9.55,0,0,0,92,152.2l1.31.58c.13.07.2.15.2.24,0,.25-.19.25-.49.27a15.87,15.87,0,0,1-1.8,3.15c.47.57,1.29,1.27,1.61,1.27s.73-.75.94-1.79a2.44,2.44,0,0,0,1.12.73C94.62,157.73,94.12,159.15,93.05,159.15ZM82.33,160.3a14.68,14.68,0,0,1-2.09,3.61,3.35,3.35,0,0,0-1.16-.73,11.63,11.63,0,0,0,2.21-3.93l1.28.54c.13.05.28.12.28.29S82.55,160.32,82.33,160.3Zm.25-6.8v-1h4.77v1Zm1.22,4.32v.71H82.63v-4.16h4.55v3.45Zm5.47,5.93H85.43c-1.81,0-1.88-.76-1.88-1.75v-2.8l1.38.13c.2,0,.39,0,.39.24s-.29.22-.43.24v2c0,.64.12.76,1,.76H89c.82,0,1.22-.21,1.51-2a3.32,3.32,0,0,0,1.21.7C91.15,163.64,90.46,163.75,89.27,163.75Zm-3.21-8.45H83.8v1.57h2.26Zm1.64,6.22a10.66,10.66,0,0,0-1.63-2.43l.93-.59a12.72,12.72,0,0,1,1.77,2.34A7.5,7.5,0,0,0,87.7,161.52Zm6,2a15,15,0,0,0-2.21-3.45l1.07-.73a18.13,18.13,0,0,1,2.33,3.38A5.85,5.85,0,0,0,93.67,163.52Z"/><path d="M103.19,163v-.71H100v1.19H98.59v-11.9h2a20.23,20.23,0,0,0,.9-3.08l1.31.27c.13,0,.42.09.42.27s-.17.22-.44.31c-.15.46-.56,1.6-.85,2.23h2.65V163Zm0-10.17H100v3.36h3.23Zm0,4.59H100v3.58h3.23Zm8.81,5.33c-.75,1.26-2.62,1.35-3.71,1.28a4.4,4.4,0,0,0-.49-1.54,8,8,0,0,0,1.36.11c1.26,0,1.66-.25,2-1.43.62-2.24.62-6.78.62-8.21h-4.32a16.69,16.69,0,0,1-1.36,2.78,4,4,0,0,0-1.37-.52,18.25,18.25,0,0,0,2.61-6.68l1.27.32c.17.05.39.12.4.27s-.26.24-.45.26a19.64,19.64,0,0,1-.62,2.29h5.21C113.16,154.17,113.08,160.92,112,162.79Zm-3.56-3.41a21.29,21.29,0,0,0-1.24-3.79l1.22-.49a24.87,24.87,0,0,1,1.35,3.75A5.1,5.1,0,0,0,108.44,159.38Z"/><path d="M122.6,152.82a35.11,35.11,0,0,1-3.95,8.34,14.86,14.86,0,0,0-1.38-.61A30.83,30.83,0,0,0,121,153a23.83,23.83,0,0,1-3.21.12l-.19-1.49a14.19,14.19,0,0,0,1.77.1,17.41,17.41,0,0,0,2.06-.12,30.8,30.8,0,0,0,.71-3.08l1.54.42c.19.06.28.11.28.23s-.22.2-.36.22c-.27.91-.36,1.2-.59,2a16.21,16.21,0,0,0,2.8-.74,7.39,7.39,0,0,0,0,1.48A24.31,24.31,0,0,1,122.6,152.82ZM130.53,163a15.94,15.94,0,0,0-2.87-2c0,2.6-2.5,2.6-3.08,2.6-1.9,0-3.43-.89-3.43-2.48,0-1.15.86-2.34,3.06-2.34a6.48,6.48,0,0,1,1.88.28,12.47,12.47,0,0,1-.2-1.87,3.22,3.22,0,0,1,1.18-2.36l1.2.8a2.15,2.15,0,0,0-.92,1.83,9.37,9.37,0,0,0,.26,2.06,18.58,18.58,0,0,1,3.81,2.36C131.09,162.29,130.87,162.59,130.53,163Zm-6.29-3.09c-.9,0-1.75.38-1.75,1.21,0,1.3,1.91,1.29,2,1.29,1.9,0,1.84-1.22,1.8-2A4.58,4.58,0,0,0,124.24,159.94Zm6.74-4.81a10.82,10.82,0,0,0-4.38-2.21l.81-1.21a12.05,12.05,0,0,1,4.39,2.16C131.53,154.28,131.21,154.75,131,155.13Z"/><path d="M140.05,149.37V158a3.83,3.83,0,0,0,7.65,0v-8.6h1.69v8.41c0,2.55-1.23,5.36-5.52,5.36-3.79,0-5.47-2.29-5.48-5.35v-8.41Z"/><path d="M156.57,162.76h-1.68v-13.4h1.68Z"/><path class="cls-2" d="M96.14,227.59A105.38,105.38,0,1,1,169.5,207q-3.36,2.52-6.91,4.77a104.77,104.77,0,0,1-45.83,15.77c-2.86,3-10.47,13.19-10.47,13.19s-2.52-3-5.13-6.13"/><path class="cls-3" d="M123.29,66.73h6.61a4.39,4.39,0,0,1,4.39,4.4v34.6M74.94,71.13h0a4.4,4.4,0,0,1,4.4-4.4h9m-13,39V73.4"/><path class="cls-3" d="M143.29,112.73h.5a2.5,2.5,0,0,0,2.5-2.5h0a2.5,2.5,0,0,0-2.5-2.5H70.29"/><path class="cls-3" d="M68.29,107.73h-1.5a2.5,2.5,0,0,0-2.5,2.5h0a2.5,2.5,0,0,0,2.5,2.5h74.5"/><polyline class="cls-3" points="122.29 71.73 129.29 71.73 129.29 103.73"/><polyline class="cls-3" points="90.29 71.73 80.29 71.73 80.29 102.73 126.29 102.73"/><path class="cls-3" d="M117.86,73A54.78,54.78,0,0,1,106,85.31S100.19,82,94.17,73s2.56-18.31,11.65-10.58C113.63,54.83,123.88,64.68,117.86,73Z"/><line class="cls-3" x1="98.82" y1="50.85" x2="100.06" y2="55.32"/><line class="cls-3" x1="112.39" y1="50.68" x2="111.15" y2="55.14"/><line class="cls-3" x1="105.67" y1="49.73" x2="105.67" y2="54.73"/></g></g></svg>