<svg xmlns="http://www.w3.org/2000/svg" width="212.59" height="242.04" viewBox="0 0 212.59 242.04"><defs><style>.cls-1,.cls-2,.cls-3{fill:none;}.cls-1{stroke:#54e2b3;}.cls-1,.cls-3{stroke-miterlimit:10;stroke-width:2px;}.cls-2,.cls-3{stroke:#000;}.cls-2{stroke-linecap:round;stroke-linejoin:round;stroke-width:1.84px;}</style></defs><title>img_channel</title><g id="レイヤー_2" data-name="レイヤー 2"><g id="レイヤー_1のコピー" data-name="レイヤー 1のコピー"><path d="M95.68,161H94.44v-6.69a12.35,12.35,0,0,1-1.61,1.44,5.65,5.65,0,0,0-1-.88,13.18,13.18,0,0,0,4.47-5.21h-4v-1.23h2.18v-3.13l1.25.09c.15,0,.35,0,.35.2s-.18.26-.35.32v2.52h1.66L98,149a14.69,14.69,0,0,1-2,3.57A17.9,17.9,0,0,0,98.78,155a4.38,4.38,0,0,0-.88,1,18.59,18.59,0,0,1-2.23-2.33Zm3.78-9.44a.28.28,0,0,1,.17.23c0,.2-.29.18-.44.17A16.93,16.93,0,0,1,98,153.56a3.32,3.32,0,0,0-1-.64A10.71,10.71,0,0,0,98.37,151Zm7.08,3.5.46.56a11.52,11.52,0,0,1-2.81,2.77,11.17,11.17,0,0,0,4,1.41,4.26,4.26,0,0,0-.71,1.21,13.71,13.71,0,0,1-4.34-1.92A16.54,16.54,0,0,1,98.26,161a2.78,2.78,0,0,0-.76-1.21,13.61,13.61,0,0,0,4.6-1.47,10.09,10.09,0,0,1-1.46-1.51,14.12,14.12,0,0,1-2.45,1.89,2.54,2.54,0,0,0-1-.9,10.87,10.87,0,0,0,4.16-3.73H100v-5.15a16.17,16.17,0,0,1-1,1.39,5.56,5.56,0,0,0-1.17-.64,11,11,0,0,0,2.59-4.49l1.25.27c.18,0,.32.06.32.22s-.24.22-.41.24-.08.25-.3.76h6.52v1.1h-7.07c-.07.13-.29.49-.58.95h6.77v5.34h-4a11.59,11.59,0,0,1-.66,1Zm-5.29-4.21h4.36v-1.11h-4.37Zm4.37,1h-4.37v1.18h4.37Zm-4.08,4.25a8.33,8.33,0,0,0,1.62,1.6,7.17,7.17,0,0,0,1.91-1.6Z"/><path d="M118.27,155.26c.07,0,.24.12.24.24s-.22.19-.48.19a6.84,6.84,0,0,1-1.27,2.43,14.58,14.58,0,0,1,1.6,1.31,7,7,0,0,0-.87,1,17.56,17.56,0,0,0-1.63-1.41,9.21,9.21,0,0,1-3.5,1.94,3.53,3.53,0,0,0-.78-1.08,7.84,7.84,0,0,0,3.28-1.57c-.79-.54-1.45-.9-1.72-1.05l-.54.7a3.17,3.17,0,0,0-1.14-.56,20.12,20.12,0,0,0,1.61-2.16H111v-1.16h2.78a16.87,16.87,0,0,0,.78-1.62v-2.14a11.84,11.84,0,0,1-2.75,2.89,2.9,2.9,0,0,0-1-.85,12,12,0,0,0,3.18-2.82h-2.84v-1.12h3.47v-3.13l1.23.1c.25,0,.41.1.41.22s-.07.17-.45.29v2.52h3.36v1.13h-2.85a9.89,9.89,0,0,0,2.38,2.1,7.6,7.6,0,0,0-1,.89,11.68,11.68,0,0,1-1.94-2.14v2.29h-.71l.73.33c.13.05.25.13.25.23s-.35.19-.52.17c-.21.41-.24.48-.33.67h4.08v1.16Zm-5.53-6.93a14.17,14.17,0,0,0-1.26-2.19l1-.58a10,10,0,0,1,1.38,2.24A4.82,4.82,0,0,0,112.74,148.33Zm1.79,6.93c-.19.29-.3.5-.71,1.09.59.31,1.43.78,1.94,1.11a6.24,6.24,0,0,0,1.17-2.2Zm4.11-8.77a14.48,14.48,0,0,1-1.21,1.89,4.2,4.2,0,0,0-1.05-.56,12,12,0,0,0,1.36-2.28l1,.44c.23.1.32.15.32.27S118.77,146.49,118.64,146.49ZM125.75,161a13.24,13.24,0,0,1-2.89-2.94,13.38,13.38,0,0,1-3.36,3,3,3,0,0,0-1-1,10.9,10.9,0,0,0,3.63-3.15,13.8,13.8,0,0,1-1.58-4.56,9,9,0,0,1-1,1.64,3.18,3.18,0,0,0-1.12-.73,14.25,14.25,0,0,0,2.51-7.74l1.38.2c.2,0,.3.1.3.24s-.27.26-.42.31a17.82,17.82,0,0,1-.41,2.45h4.8V150h-1a14.79,14.79,0,0,1-1.86,6.89,10.33,10.33,0,0,0,3.06,3A7.25,7.25,0,0,0,125.75,161Zm-4.31-11a1.29,1.29,0,0,1-.08.26,14.43,14.43,0,0,0,1.55,5.34,14.79,14.79,0,0,0,1.31-5.6Z"/><path d="M65,180.23c-.39,4.86-4,6.65-6,7.49a16,16,0,0,0-1.08-1.21c1.69-.61,5.23-1.91,5.57-6.28h-7V178.9h7V175.8a31.31,31.31,0,0,1-5.05.66,8.44,8.44,0,0,0-.73-1.36c3.67,0,8-.92,10.15-2.3l1.26,1a.26.26,0,0,1,.1.19.2.2,0,0,1-.22.2.5.5,0,0,1-.27-.08A19.59,19.59,0,0,1,65,175.44v3.45h5.74v1.35Z"/><path d="M86.78,179.23A36,36,0,0,1,84,183.07a9.17,9.17,0,0,0-1.2-.63A14.66,14.66,0,0,0,85.44,179L81,179.9l1.48,7.35-1.27.29-1.49-7.37-3.94.82-.34-1.24,4-.79-.68-3.35,1.31-.1c.15,0,.34,0,.34.17s-.07.19-.24.31l.57,2.73,5-1a1.82,1.82,0,0,0,.92-.43l1,.79A9.87,9.87,0,0,0,86.78,179.23Z"/><path d="M103.41,178a37.76,37.76,0,0,1-3.56,3.51v6.35H98.36v-5.25a24.08,24.08,0,0,1-5.67,2.81,6.77,6.77,0,0,0-.79-1.31,19.44,19.44,0,0,0,9.72-6.29H93.52v-1.32h9a3.6,3.6,0,0,0,1-.17l.8.88A11.59,11.59,0,0,0,103.41,178Zm-2.26-2.34a20.62,20.62,0,0,0-5-2.17l.77-1.16a24.88,24.88,0,0,1,5,2.09A7.12,7.12,0,0,0,101.15,175.63Zm4.22,9.72a21.68,21.68,0,0,0-4.45-3.45l1-1a30,30,0,0,1,4.42,3.3A10.76,10.76,0,0,0,105.37,185.35Z"/><path d="M115.4,174.36v4.18c0,2.8-.49,5.49-4.24,8a3.85,3.85,0,0,0-1.21-1.07c3.74-2.1,3.91-4.61,3.91-6.74v-5l1.5.1c.17,0,.39,0,.39.23S115.57,174.29,115.4,174.36Zm4.43,11.52a4.23,4.23,0,0,0-1,.77l-1.09-.77c0-.34,0-.85,0-1.32v-11l1.51.07c.19,0,.34,0,.34.19s-.15.22-.34.3v10.19a18,18,0,0,0,5.74-5.35,6.79,6.79,0,0,0,.82,1.3A23.78,23.78,0,0,1,119.83,185.88Z"/><path d="M135.92,176.47a20.89,20.89,0,0,1-1.9,5.61,28.39,28.39,0,0,1,2.18,4,5.77,5.77,0,0,0-1.36.71,27.53,27.53,0,0,0-1.56-3.36,18.49,18.49,0,0,1-3.79,4.42,3.36,3.36,0,0,0-1.19-.9,16,16,0,0,0,4.13-4.8,25.61,25.61,0,0,0-3.15-3.9l1.09-.79a27.85,27.85,0,0,1,2.75,3.33,18.59,18.59,0,0,0,1.44-4.33h-5.89v-1.26h3.62v-2.94l1.48.1c.07,0,.41,0,.41.22s-.2.22-.41.27v2.35h3.47v1.25Zm2.07,7.32a16,16,0,0,0-1.77-3.36l1.17-.69a18.78,18.78,0,0,1,1.91,3.34A7,7,0,0,0,138,183.79Zm4.41-5.54v7.25c0,2.28-.83,2.42-3.23,2.42a3.38,3.38,0,0,0-.58-1.61,12.4,12.4,0,0,0,1.48.15c.88,0,.9-.31.9-1.24v-7h-4.28V177H141v-4.62l1.44.1c.24,0,.38.07.38.22s-.07.17-.39.27v4h2v1.29Z"/><path d="M150,175.84v4.95a14.44,14.44,0,0,1-1.56,7.26,3.53,3.53,0,0,0-1.34-.56c1.26-2,1.46-3.86,1.46-6.89v-6h6v-2.31l1.5.1c.2,0,.39,0,.39.22s-.2.27-.42.34v1.65h6.78v1.29Zm3,5.61a18,18,0,0,1-1.36,5.18,4.68,4.68,0,0,0-1.22-.55,13.89,13.89,0,0,0,1.3-5.43l1.43.27c.15,0,.29.07.29.22S153.14,181.42,153,181.45Zm4.63,6.2h-1.36c-2.15,0-2.28-.73-2.28-2.11v-6.47l1.33.1c.1,0,.4,0,.4.22s-.11.19-.32.26v5.74c0,.94.17.94,1.85.93,1,0,1.36,0,1.53-2.27a3.16,3.16,0,0,0,1.36.52C159.79,187.41,159,187.65,157.6,187.65Zm.72-7.4a16.18,16.18,0,0,0-3-3.09l1-.85a17.92,17.92,0,0,1,3,3A3.79,3.79,0,0,0,158.32,180.25Zm3.56,6.53a23.33,23.33,0,0,0-2.5-5.42l1.2-.6a25.08,25.08,0,0,1,2.64,5.36A4.75,4.75,0,0,0,161.88,186.78Z"/><path class="cls-1" d="M138.36,214.77A97.37,97.37,0,0,1,62.9,35.7"/><path class="cls-1" d="M89.33,26.87a97.39,97.39,0,0,1,71.24,176.89"/><line class="cls-1" x1="80.05" y1="4.3" x2="82.92" y2="12.18"/><line class="cls-1" x1="131.78" y1="4.3" x2="128.91" y2="12.18"/><line class="cls-1" x1="106.13" x2="106.13" y2="8.6"/><path class="cls-2" d="M96.14,228A105.38,105.38,0,1,1,169.5,207.4q-3.36,2.52-6.91,4.77a104.77,104.77,0,0,1-45.83,15.77c-2.86,3-10.47,13.18-10.47,13.18s-2.52-3-5.13-6.13"/><path class="cls-3" d="M100.2,101.11h-11v-24m3,0h33v24H107.55a1.28,1.28,0,0,0-.82.29l-7,5.8"/><line class="cls-3" x1="107.2" y1="74.11" x2="107.2" y2="64.11"/><circle class="cls-3" cx="107.2" cy="60.11" r="3"/><line class="cls-3" x1="90.39" y1="72.62" x2="83.91" y2="66.14"/><line class="cls-3" x1="124.93" y1="104.48" x2="131.87" y2="111.43"/><line class="cls-3" x1="125.26" y1="72.75" x2="131.65" y2="66.36"/><line class="cls-3" x1="90.63" y1="103.81" x2="83.69" y2="110.76"/><line class="cls-3" x1="107.2" y1="105.11" x2="107.2" y2="113.11"/><circle class="cls-3" cx="107.2" cy="117.11" r="3"/><circle class="cls-3" cx="82.2" cy="112.05" r="3"/><circle class="cls-3" cx="74.07" cy="88.23" r="3"/><circle class="cls-3" cx="82.26" cy="64.48" r="3"/><circle class="cls-3" cx="132.82" cy="64.61" r="3"/><circle class="cls-3" cx="139.95" cy="87.73" r="3"/><circle class="cls-3" cx="132.82" cy="112.8" r="3"/><line class="cls-3" x1="128.2" y1="88.11" x2="138.2" y2="88.11"/><line class="cls-3" x1="86.2" y1="88.11" x2="76.2" y2="88.11"/></g></g></svg>