<svg xmlns="http://www.w3.org/2000/svg" width="212.59" height="241.67" viewBox="0 0 212.59 241.67"><defs><style>.cls-1,.cls-2,.cls-3{fill:none;}.cls-1,.cls-3{stroke:#000;}.cls-1{stroke-linecap:round;stroke-linejoin:round;stroke-width:1.84px;}.cls-2{stroke:#54e2b3;}.cls-2,.cls-3{stroke-miterlimit:10;stroke-width:2px;}</style></defs><title>img_scenario</title><g id="レイヤー_2" data-name="レイヤー 2"><g id="レイヤー_1のコピー" data-name="レイヤー 1のコピー"><path d="M58,156.45a19,19,0,0,0-4.36-2.36l.85-1.21a23.29,23.29,0,0,1,4.42,2.29A4.89,4.89,0,0,0,58,156.45Zm-2,7c0,.17,0,.41-.27.41s-.2-.14-.27-.27l-.7-1.33a24.07,24.07,0,0,0,12.5-9.61,9.39,9.39,0,0,0,1,1.22A26.63,26.63,0,0,1,55.91,163.45Zm4.05-11a18.1,18.1,0,0,0-4.57-2.35l.85-1.13a20.53,20.53,0,0,1,4.62,2.22A7,7,0,0,0,60,152.47Z"/><path d="M80.52,154.39c-.09,5-2.35,7.72-6.07,9.5a4.09,4.09,0,0,0-1.14-1.17c5.43-2.11,5.6-6.24,5.68-8.33H71.84V153H79v-4.08l1.53,0c.17,0,.37,0,.37.21s-.25.27-.37.32V153h5.8v1.37Z"/><path d="M93.36,149.89V158H91.86v-8.7l1.51.1c.21,0,.36,0,.36.19S93.46,149.85,93.36,149.89Zm8.08-.31V155a9.1,9.1,0,0,1-1.27,5.17A10.07,10.07,0,0,1,94.68,164a3.14,3.14,0,0,0-1-1.21c6.22-1.71,6.22-5.87,6.22-7.76V149l1.55.1c.25,0,.32.09.32.17S101.56,149.54,101.44,149.58Z"/><path d="M118.17,153.93v7.72c0,1,0,2.36-4,2.13a5.81,5.81,0,0,0-.58-1.62,9.8,9.8,0,0,0,1.87.19c1.18,0,1.18-.36,1.17-1.79v-5.25a18.34,18.34,0,0,1-7.58,6.46,3.48,3.48,0,0,0-1-1.22,16.45,16.45,0,0,0,7.8-6.62h-7.38v-1.4h8.13V148.8l1.52.12c.22,0,.34,0,.34.18s-.19.24-.34.31v3.13h4.06v1.4Z"/><path d="M130.12,164.12h-1.41v-9.38a21.45,21.45,0,0,1-1.49,1.8,3.94,3.94,0,0,0-1.23-.9,17.6,17.6,0,0,0,4.45-7.24l1.5.45c.13,0,.22.09.22.22s-.26.22-.48.23a22,22,0,0,1-1.65,3.4c.41.17.57.25.57.37s-.28.26-.48.29Zm6.71-9h4.53v1.28h-4.54v2.4h4.95v1.33h-4.95v4h-1.44V152.59h-.87a18.73,18.73,0,0,1-2.63,3.62,4.41,4.41,0,0,0-1.24-.78,15.75,15.75,0,0,0,4.12-7l1.38.4c.19,0,.34.12.34.26s-.2.22-.51.24a21,21,0,0,1-.8,1.95h6.77v1.3h-5.12Z"/><path d="M158.77,163.86c-1.38,0-2.71-2.19-3.18-3a15.16,15.16,0,0,1-3.54,3.16,3.58,3.58,0,0,0-1.15-1,13,13,0,0,0,4-3.45,21.09,21.09,0,0,1-1.63-6.67h-5.19c0,.27,0,2.18,0,2.4h4c0,.95-.05,4.25-.56,5.41s-1.7,1.07-2.84,1a5.71,5.71,0,0,0-.54-1.43,7.39,7.39,0,0,0,1.31.14c.53,0,.76-.06.95-.65a16.45,16.45,0,0,0,.3-3.21H148a13.38,13.38,0,0,1-2,7.24,4.08,4.08,0,0,0-1.36-.61c1.93-2.64,1.93-5.31,1.93-8.45v-3.18h6.52c-.08-1.28-.1-2.32-.12-3l1.48.1c.12,0,.41,0,.41.2s-.24.26-.44.31c0,.51,0,1.22.1,2.4h5.93v1.31H154.7a18.09,18.09,0,0,0,1.16,5.34,19,19,0,0,0,2-4.32l1.38.63c.12.05.26.14.26.27s-.22.22-.51.22a24.74,24.74,0,0,1-2.46,4.65c1.1,2.15,1.83,2.54,2.09,2.54.56,0,.88-1.36,1-2.09a4.41,4.41,0,0,0,1.23.8C160.63,161.58,160.08,163.86,158.77,163.86Zm-.9-12.29a16.5,16.5,0,0,0-1.94-2.26l1-.77a15.38,15.38,0,0,1,2,2.14A5.25,5.25,0,0,0,157.87,151.57Z"/><path class="cls-1" d="M96.14,227.59A105.38,105.38,0,1,1,169.5,207q-3.36,2.52-6.91,4.77a104.77,104.77,0,0,1-45.83,15.77c-2.86,3-10.47,13.19-10.47,13.19s-2.52-3-5.13-6.13"/><path class="cls-2" d="M138.39,214.77A97.37,97.37,0,0,1,62.93,35.7"/><path class="cls-2" d="M89.37,26.87a97.39,97.39,0,0,1,71.24,176.89"/><line class="cls-2" x1="80.09" y1="4.3" x2="82.95" y2="12.18"/><line class="cls-2" x1="131.82" y1="4.3" x2="128.95" y2="12.18"/><line class="cls-2" x1="106.17" x2="106.17" y2="8.6"/><path class="cls-3" d="M85.65,108.73h35.5c-4.06,0-5.38,4.64-3.43,7.26a4.57,4.57,0,0,0,3.84,1.74c3.76,0-34.39.1-39.57.1s-4.34-9.1.15-9.1"/><path class="cls-3" d="M129.4,74c5.19,0,5.25-6,3.25-7"/><path class="cls-3" d="M125.65,94.73v19c0,2.25-3.25,3.75-3.25,3.75"/><path class="cls-3" d="M93.65,65.73h36.5s-4.5-.75-4.5,6.75v8.25"/><path class="cls-3" d="M84.65,105.73v-33c0-7.75,4.5-7,4.5-7"/><polyline class="cls-3" points="120.16 92.98 141.91 81.98 139.96 78.15 119.01 89.46"/><polyline class="cls-3" points="117.16 89.48 113 94.12 118.41 94.23"/><line class="cls-3" x1="93.65" y1="77.73" x2="106.4" y2="77.73"/><line class="cls-3" x1="108.65" y1="77.73" x2="117.65" y2="77.73"/><line class="cls-3" x1="103.65" y1="83.73" x2="117.65" y2="83.73"/><line class="cls-3" x1="93.65" y1="83.73" x2="101.15" y2="83.73"/><line class="cls-3" x1="93.65" y1="89.73" x2="103.4" y2="89.73"/><line class="cls-3" x1="105.9" y1="89.73" x2="109.65" y2="89.73"/><line class="cls-3" x1="93.65" y1="95.73" x2="108.65" y2="95.73"/></g></g></svg>