<svg xmlns="http://www.w3.org/2000/svg" width="212.59" height="241.68" viewBox="0 0 212.59 241.68"><defs><style>.cls-1,.cls-2,.cls-3{fill:none;}.cls-1{stroke:#54e2b3;}.cls-1,.cls-3{stroke-miterlimit:10;stroke-width:2px;}.cls-2,.cls-3{stroke:#000;}.cls-2{stroke-linecap:round;stroke-linejoin:round;stroke-width:1.84px;}</style></defs><title>img_analyze</title><g id="レイヤー_2" data-name="レイヤー 2"><g id="レイヤー_1のコピー" data-name="レイヤー 1のコピー"><path d="M79.92,154.55c.12.07.2.15.2.26s-.23.2-.52.18a20.1,20.1,0,0,1-5.3,6,3.14,3.14,0,0,0-1.11-1.09,16.59,16.59,0,0,0,5.45-6.17Zm-3,5.94v-1.36h9.18c0,.34,0,6.41-1,8-.46.78-1.07,1.43-3.81,1.37a3.87,3.87,0,0,0-.44-1.57,7.25,7.25,0,0,0,1.29.1c1.38,0,1.79-.36,2-1.61a29.21,29.21,0,0,0,.39-5H81A8.33,8.33,0,0,1,78.84,166a11,11,0,0,1-3.58,2.62,4,4,0,0,0-1-1.19c5.15-2.11,5.28-5.77,5.33-6.91Zm7.83-6.93a9.79,9.79,0,0,0,4.8,6.15,4,4,0,0,0-1,1.31,13.68,13.68,0,0,1-5-6.13H81v-1.33Z"/><path d="M96.11,157.7V158a17.63,17.63,0,0,0,2.57,4.33,6.88,6.88,0,0,0-1,1.09A22.2,22.2,0,0,1,96.11,160v8.63H94.86v-7.94a27.63,27.63,0,0,1-2,5,4.79,4.79,0,0,0-1.14-1,22.67,22.67,0,0,0,3-7H92.2v-1.2h2.65V153l1.29.1c.21,0,.46,0,.46.24s-.19.24-.49.34v2.77h2.65v1.21Zm9.42,2v9h-1.43v-9h-3v.48c0,2.7-.11,5.57-2.25,8.62A4.23,4.23,0,0,0,97.5,168c1.92-2.48,2.24-4.64,2.23-7.55v-6l.83.17a15.47,15.47,0,0,0,5.7-1.59l1,1.06a.41.41,0,0,1,.11.25c0,.15-.06.24-.18.24a1,1,0,0,1-.43-.17,21.94,21.94,0,0,1-5.64,1.42v2.48h6.73v1.34Z"/><path d="M110.94,157.5v-1.17h2.24v-3.27l1.22.09c.19,0,.39.1.39.22a.23.23,0,0,1-.11.17,2.58,2.58,0,0,1-.31.13v2.65h1.89v1.18h-1.89v.64a13.23,13.23,0,0,0,1.88,3.08,3.13,3.13,0,0,0-.8.8,15.27,15.27,0,0,1-1.08-2.13v8.72h-1.19v-8.33a31.56,31.56,0,0,1-1.58,4.08,2.81,2.81,0,0,0-1.11-.94,17,17,0,0,0,2.6-5.93Zm13.38,2a9.58,9.58,0,0,1,1.12,1.29l-.7.37h1.81v1.09h-4.2a15.25,15.25,0,0,0,.73,2.15,9.12,9.12,0,0,0,1.36-2l1,.69a.37.37,0,0,1,.17.31.17.17,0,0,1-.19.17l-.25,0a16.41,16.41,0,0,1-1.57,2.06c.8,1.46,1.28,1.54,1.4,1.54.46,0,.75-1.41.8-1.7a2.5,2.5,0,0,0,1,.61,5.06,5.06,0,0,1-.9,2.23.92.92,0,0,1-.74.32c-.6,0-1.52-.54-2.5-2.09a13.38,13.38,0,0,1-2.81,2,3.6,3.6,0,0,0-1-.93,11.94,11.94,0,0,0,3.19-2.16,14.34,14.34,0,0,1-1-3.14h-2.7a13.76,13.76,0,0,1-.09,1.66l.63-.52a16.62,16.62,0,0,1,1.92,2.12,4.2,4.2,0,0,0-.88.78,13.4,13.4,0,0,0-1.7-2A6.92,6.92,0,0,1,116,168.6a4.05,4.05,0,0,0-1.13-.85c2-1.41,2.43-2.88,2.38-5.46h-.82V161.2h4.52a41.46,41.46,0,0,1-.43-8.18l1.34.14c.12,0,.36.05.36.22s-.12.17-.44.29a40.72,40.72,0,0,0,.38,7.53h2.23a10.32,10.32,0,0,0-.94-1.12Zm-8.13-4.69.56.48A16.08,16.08,0,0,0,118,153l1,.56c.12.07.26.14.26.26s-.23.18-.5.17c-.29.58-.81,1.41-1.25,2.09l.59.59c.44-.76.61-1.07.83-1.46l.87.48c.09.05.24.15.24.27s-.31.15-.43.14a33.25,33.25,0,0,1-2,3c1-.07,1.14-.07,1.42-.1a6.91,6.91,0,0,0-.27-.9l.9-.29a14.63,14.63,0,0,1,.63,2.63,4.21,4.21,0,0,0-1,.24c0-.29-.07-.54-.12-.87-.77.16-1.41.26-2.52.4,0,.08-.1.3-.25.3s-.21-.2-.22-.28l-.26-1.06.63,0c.63-.93.87-1.34,1-1.56a12.13,12.13,0,0,0-2-1.8Zm10,.78a.35.35,0,0,1,.19.25c0,.1-.1.14-.19.14a.49.49,0,0,1-.22,0,20.81,20.81,0,0,1-2,2.57c.48,0,1.17-.12,1.36-.13a6.64,6.64,0,0,0-.22-.77l.92-.25a14.1,14.1,0,0,1,.66,2.63,3.81,3.81,0,0,0-1,.29c0-.2-.05-.41-.17-1.07-1.09.22-1.84.34-2.57.43,0,.12-.13.29-.29.29s-.18-.14-.2-.26l-.21-1.09h.46a16.88,16.88,0,0,0,1.11-1.34,14.49,14.49,0,0,0-1.93-1.87l.7-.9c.37.36.54.51.7.66.56-.85.93-1.5,1.31-2.19l.88.51c.08.05.25.13.25.27s-.23.15-.44.13c-.44.72-1,1.52-1.32,2,.3.32.39.44.49.54.38-.49.63-.92.87-1.29Z"/><path d="M135.73,154.45a21,21,0,0,1,1.94,3.39,7,7,0,0,0-1.23.64c-.34-.81-.49-1.14-.61-1.39-2.43.46-3.25.61-5.44.87-.07.2-.12.39-.29.39s-.2-.18-.22-.29l-.31-1.27c.8,0,1.14-.09,1.42-.12a26.73,26.73,0,0,0,1.42-3.61l1.29.32c.09,0,.34.09.34.24s0,.16-.47.27c-.38.94-1.17,2.5-1.22,2.62.45-.06,2.53-.34,3-.41-.27-.47-.49-.8-.69-1.12ZM132,165.08v3.5H130.6v-9.72h6v7.51c0,1.68-.28,2.28-2.61,2.23a3.91,3.91,0,0,0-.51-1.38,6.83,6.83,0,0,0,.83.05c.9,0,1-.19,1-.78v-1.41Zm3.24-3.69V160H132v1.36Zm0,2.57v-1.45H132V164Zm8.85-9.19a.43.43,0,0,1,.1.25.15.15,0,0,1-.17.16,1,1,0,0,1-.38-.15,20.53,20.53,0,0,1-4.24,1.8v1.09c0,.71.12.81,1.14.81h2c1.12,0,1.34-.15,1.64-1.9a4.12,4.12,0,0,0,1.24.62c-.45,2.2-1,2.49-2.68,2.49h-2.55c-1.56,0-2.11-.27-2.11-1.88v-5l1.39.12s.37.07.38.22-.17.2-.45.27v1.92a12.7,12.7,0,0,0,3.82-1.87Zm.39,7.17a.4.4,0,0,1,.14.29c0,.09-.07.15-.2.15a1,1,0,0,1-.36-.11,18.88,18.88,0,0,1-4.66,2.53v1.31c0,.75.23.82,1.09.82h1.94c.82,0,1.38,0,1.72-2.22a3.1,3.1,0,0,0,1.25.59c-.49,2.3-.84,2.87-2.73,2.88h-2.53c-2,0-2.06-1.09-2.06-2v-5.68l1.4.12c.08,0,.35.07.35.22s-.15.2-.42.29v2.34a15,15,0,0,0,4.11-2.52Z"/><path class="cls-1" d="M138.24,214.77A97.37,97.37,0,0,1,62.78,35.7"/><path class="cls-1" d="M89.21,26.87a97.39,97.39,0,0,1,71.24,176.89"/><line class="cls-1" x1="79.93" y1="4.3" x2="82.8" y2="12.18"/><line class="cls-1" x1="131.66" y1="4.3" x2="128.79" y2="12.18"/><line class="cls-1" x1="106.01" x2="106.01" y2="8.6"/><path class="cls-2" d="M96.14,227.61A105.38,105.38,0,1,1,169.5,207q-3.36,2.52-6.91,4.77a104.77,104.77,0,0,1-45.83,15.77c-2.86,3-10.47,13.18-10.47,13.18s-2.52-3-5.13-6.13"/><path class="cls-3" d="M127.83,76.22A20.75,20.75,0,0,1,101,107.44"/><path class="cls-3" d="M97.21,104.23a20.75,20.75,0,0,1,28.34-30.17"/><path class="cls-3" d="M127.14,84.62a15.69,15.69,0,0,1-16.76,21.09,16.35,16.35,0,0,1-10.12-5.29"/><path class="cls-3" d="M98.17,96.59a15.68,15.68,0,0,1,27.07-15.52"/><path class="cls-3" d="M126.63,109.53l6.64,6.49a2.59,2.59,0,0,0,3.46.15h0a2.59,2.59,0,0,0,.29-3.71l-6.08-6.88"/><circle class="cls-3" cx="59.15" cy="97.37" r="2.94"/><line class="cls-3" x1="83.64" y1="76.09" x2="90.67" y2="79.94"/><line class="cls-3" x1="61.02" y1="94.91" x2="77.95" y2="76.09"/><line class="cls-3" x1="115.95" y1="89.82" x2="121.64" y2="83.29"/><line class="cls-3" x1="102.22" y1="86.47" x2="108.08" y2="90.49"/><line class="cls-3" x1="129.66" y1="72.11" x2="136.42" y2="64.39"/><circle class="cls-3" cx="111.9" cy="91.96" r="3.73"/><circle class="cls-3" cx="80.73" cy="73.45" r="3.14"/><circle class="cls-3" cx="138.94" cy="61.45" r="3.14"/></g></g></svg>