<svg xmlns="http://www.w3.org/2000/svg" width="212.59" height="241.68" viewBox="0 0 212.59 241.68"><defs><style>.cls-1,.cls-2,.cls-3{fill:none;}.cls-1{stroke:#54e2b3;}.cls-1,.cls-3{stroke-miterlimit:10;stroke-width:2px;}.cls-2,.cls-3{stroke:#000;}.cls-2{stroke-linecap:round;stroke-linejoin:round;stroke-width:1.84px;}</style></defs><title>img_operator</title><g id="レイヤー_2" data-name="レイヤー 2"><g id="レイヤー_1のコピー" data-name="レイヤー 1のコピー"><path class="cls-1" d="M139.08,214.77A97.37,97.37,0,0,1,63.62,35.7"/><path class="cls-1" d="M90.06,26.87a97.39,97.39,0,0,1,71.23,176.89"/><line class="cls-1" x1="80.77" y1="4.3" x2="83.64" y2="12.18"/><line class="cls-1" x1="132.5" y1="4.3" x2="129.64" y2="12.18"/><line class="cls-1" x1="106.85" x2="106.85" y2="8.6"/><path d="M52.92,140.15c.15,0,.39.06.39.27s-.27.25-.46.25c-.17.68-.29,1.07-.41,1.48h8.3v1.22H52a10.41,10.41,0,0,1-1,2h7.29v7.92c0,2.2-.65,2.35-3.35,2.35a3.73,3.73,0,0,0-.46-1.49,7,7,0,0,0,1.43.15c1,0,1-.43,1-1.12v-1.38H50.56v3.84H49.16v-8a13.88,13.88,0,0,1-3.09,2.48,5.75,5.75,0,0,0-1.11-1,12.14,12.14,0,0,0,5.52-5.82H45.2v-1.22H51a17,17,0,0,0,.56-2.26Zm3.91,7.91V146.6H50.56v1.46Zm-6.27,1.15v1.48h6.27V149.2Z"/><path d="M78.47,155.59a13.65,13.65,0,0,1-4.22-3.29,10.85,10.85,0,0,1-2.49-4.62,10.67,10.67,0,0,1-2.58,4.73A13.51,13.51,0,0,1,65,155.59a5.2,5.2,0,0,0-1.14-1.24,10.46,10.46,0,0,0,6.61-7.11c.5-2.06.5-3.35.5-7.16l1.48.12c.24,0,.42.1.42.22s-.1.19-.42.29a24.94,24.94,0,0,0,.4,6,11.21,11.21,0,0,0,6.7,7.58A4.17,4.17,0,0,0,78.47,155.59Z"/><path d="M93.12,145.47v7.71c0,1,0,2.37-4,2.13a5.74,5.74,0,0,0-.58-1.61,9.72,9.72,0,0,0,1.87.18c1.17,0,1.17-.35,1.17-1.78v-5.25A18.43,18.43,0,0,1,84,153.31a3.72,3.72,0,0,0-1-1.22,16.6,16.6,0,0,0,7.8-6.62H83.48v-1.39H91.6v-3.73l1.51.11c.22,0,.34,0,.34.19s-.19.24-.34.31v3.12h4.06v1.39Z"/><path d="M116.23,152.66a56.57,56.57,0,0,1-5.8-6.2c-1.76-2.16-1.94-2.4-2.55-2.4s-.94.44-1.82,1.46-2.89,3.42-3.31,4c0,.17,0,.39-.21.39s-.15-.07-.25-.17l-1.07-1.12a17.81,17.81,0,0,0,3-3.12c2-2.36,2.58-2.92,3.64-2.92s1.72.69,3.49,2.92a40.53,40.53,0,0,0,5.78,5.86A7.64,7.64,0,0,0,116.23,152.66Zm-2-9.45a1.53,1.53,0,1,1,1.53-1.54A1.52,1.52,0,0,1,114.18,143.21Zm0-2.4a.88.88,0,1,0,.88.86A.87.87,0,0,0,114.18,140.81Z"/><path d="M127.18,153.33c-.51.25-2.8,1.32-3.24,1.58l-1.09-1.12a6.63,6.63,0,0,0,.08-1V140.87l1.53.07c.24,0,.36,0,.36.17s-.24.32-.36.37v11.39a23,23,0,0,0,10-7.06,10.26,10.26,0,0,0,.77,1.53A26.53,26.53,0,0,1,127.18,153.33Z"/><path d="M139.27,148.57v-1.49h14.46v1.49Z"/><path d="M170.92,144.25c-1.27,3.21-1.56,3.87-2.51,5.22a14.94,14.94,0,0,1,2.14,2.17,10,10,0,0,0-1,1.24,16.82,16.82,0,0,0-2-2.26,17.68,17.68,0,0,1-7.07,4.74,11.32,11.32,0,0,0-1-1.33,15.25,15.25,0,0,0,6.95-4.36,29.85,29.85,0,0,0-3.59-2.44l.9-1a41.05,41.05,0,0,1,3.55,2.36,15.72,15.72,0,0,0,1.89-4.17H163.9a18.81,18.81,0,0,1-4.09,4.39,4.79,4.79,0,0,0-1.14-1.07,15.18,15.18,0,0,0,5.72-7.57l1.53.46c.21.06.29.1.29.23s-.27.21-.39.21c-.32.61-.71,1.39-1.09,2h4.68a3.16,3.16,0,0,0,1.1-.17l.75.66A5.4,5.4,0,0,0,170.92,144.25Z"/><path d="M95.64,172.79v4.64c0,2.52,2.15,2.52,4.77,2.51a60,60,0,0,0,7.32-.24,3.09,3.09,0,0,0-.47,1.46H99.93c-3.43,0-4-.56-4.93-1.75A24.68,24.68,0,0,1,93,181c0,.18.05.49-.18.49s-.19-.12-.26-.24l-.71-1.19a7.29,7.29,0,0,0,1.18-.69l1.28-.92v-4.41H92v-1.3Zm-2.5-6.41a34.62,34.62,0,0,1,2.91,2.71,5.28,5.28,0,0,0-1,1,24.89,24.89,0,0,0-2.84-2.77Zm8-.34,1.36.08c.12,0,.41,0,.41.22s-.1.19-.42.29v.82h4.84v1.07h-4.84v1.12h3.69v5.74h-3.69v1.22h5v1.1H102.5v1.69h-1.35v-1.68H96.53v-1.11h4.62v-1.22H97.58v-5.75h3.57v-1.12H96.59v-1.07h4.55Zm0,4.6H98.89V172h2.26Zm0,2.3H98.89v1.46h2.26Zm1.34-1h2.38v-1.31h-2.38Zm0,2.45h2.38v-1.46h-2.38Z"/><path d="M124.85,170v.85H122v1h2.9v.83H122v1.06h3.7v1H117v-4.08c-.51.76-.83,1.17-1.09,1.51a2.33,2.33,0,0,0-1.1-.71,12.72,12.72,0,0,0,.91-1H114v3.25c.68-.28,1.39-.55,2-.84a5.75,5.75,0,0,0,0,1.24,17,17,0,0,1-2,.89v5.11c0,1.5-1,1.55-2.67,1.55a3.57,3.57,0,0,0-.45-1.51,6.62,6.62,0,0,0,1.11.12c.44,0,.66-.07.66-.56v-4.22l-1.4.51c-.06.28-.11.45-.3.45s-.19-.14-.24-.4l-.27-1.22c1.17-.31,1.8-.53,2.21-.66v-3.71h-2v-1.26h2v-3.09l1.34,0c.34,0,.5,0,.5.22s-.17.27-.5.39v2.43H116v1a14.21,14.21,0,0,0,2.22-4.18l1.16.37c.2.07.29.08.29.24s-.24.24-.5.25c-.34.7-.44.89-.54,1.09h2a9.7,9.7,0,0,0,1-2l1.36.42c.14,0,.27.08.27.22s-.27.24-.57.26L122,168h3.4v1H122v1ZM116,176.58v-1.09h7.38l.54.51c-.07.18-.37,1-.42,1.15h2.38c-.12.87-.41,3.25-1.36,3.95a5.7,5.7,0,0,1-3,.51,3.07,3.07,0,0,0-.49-1.4,8,8,0,0,0,1.46.14c1.12,0,1.39-.21,1.83-2.09h-1.27c-.14.25-.19.37-.29.58a4.43,4.43,0,0,0-1.38-.19,11.82,11.82,0,0,0,.88-2.07h-2.09a6.49,6.49,0,0,1-3.82,5.15,3.07,3.07,0,0,0-1.07-.93c2.55-1.16,3.28-2.59,3.55-4.22Zm4.7-6.62v-1h-2.46v1Zm0,1.89v-1h-2.46v1Zm-2.47.84v1.05h2.47v-1.06Z"/><path class="cls-2" d="M96.14,227.61A105.38,105.38,0,1,1,169.5,207q-3.36,2.52-6.91,4.77a104.77,104.77,0,0,1-45.83,15.77c-2.86,3-10.47,13.18-10.47,13.18s-2.52-3-5.13-6.13"/><path class="cls-3" d="M130.68,80.2a9.77,9.77,0,0,1,.17,19.26"/><path class="cls-3" d="M93.83,64A16.67,16.67,0,0,0,89.67,74.3V99.71H88a10,10,0,0,1-10-8.52,9.78,9.78,0,0,1,8-10.88"/><path class="cls-3" d="M126.67,95.71V74s0-15.63-18.65-15.63a22.07,22.07,0,0,0-10.47,2.27"/><path class="cls-3" d="M126.67,98.71V103a2.66,2.66,0,0,1-1.59,2.44l-12,5.3h-5.23a2,2,0,0,1-2-2h0a2,2,0,0,1,2-2h4.8"/></g></g></svg>