<svg xmlns="http://www.w3.org/2000/svg" width="205.91" height="123.69" viewBox="0 0 205.91 123.69"><defs><style>.cls-1{fill:#d1d1d1;}.cls-2{fill:#fff;}.cls-3,.cls-4,.cls-5,.cls-6,.cls-7,.cls-8,.cls-9{fill:none;}.cls-3,.cls-4,.cls-6,.cls-7,.cls-8,.cls-9{stroke:#000;}.cls-3,.cls-4,.cls-5,.cls-6{stroke-linecap:round;stroke-linejoin:round;}.cls-3,.cls-5,.cls-8{stroke-width:2px;}.cls-4{stroke-width:1.81px;}.cls-5{stroke:#2e936c;}.cls-6,.cls-7,.cls-9{stroke-width:1.91px;}.cls-7,.cls-8,.cls-9{stroke-miterlimit:10;}.cls-8,.cls-9{fill-rule:evenodd;}</style></defs><title>bg_jirei</title><g id="レイヤー_2" data-name="レイヤー 2"><g id="レイヤー_1のコピー" data-name="レイヤー 1のコピー"><path class="cls-1" d="M191.93,56.09a1.32,1.32,0,0,1,2.13-1.31,11.44,11.44,0,0,1,3.21,3.63c1,2.47,3.33,12.13,1.61,16.1s-2.9,5-5.68,5c-.78,0-1.39,0-1.88,0a1.33,1.33,0,0,1-1.22-1.68C191.15,74.08,193.57,64,191.93,56.09Z"/><path class="cls-1" d="M179.45,95.87a5.47,5.47,0,0,1,5.4-5c6.64,0,17.68,0,18.07.87.56,1.23,1.46,3.25.56,3.59s2.39,1,1.08,2.26-1.87,2-1.87,2.79,1.74,2.21-1,2.58-23,1.35-23,1.35Z"/><path class="cls-1" d="M160,40.69s-3.63-1.33-5.56-.39-15.91,7.38-16.19,13.93,3.53,8.31,4.74,8.26S151.16,42.94,160,40.69Z"/><path class="cls-1" d="M145.3,77.63S135.63,78,131.15,80,121,84.87,121,84.87s5.78,2.54,7,4.16,4.49,6.27,4.49,6.27l2.81-2.22L146.22,78.6Z"/><path class="cls-2" d="M131.09,95.36s12.82-18.06,14.82-18.73-2.91-3.74-3.34-6.33-1.66-11.67,4-17.67,15-21.66,29-15S191.24,56.3,190.24,63.3,185.91,83,181.57,83.63s-5,1.34-5.33,3.67-1.57,33.79-4.08,36.12c-2.5-.12-28.88-.06-28.88-.06Z"/><path class="cls-3" d="M133.41,93.17c1-1.86,3.13-4.88,4.12-6.62,2.43-4.25,5.9-8.9,9.24-10.54m21.5-39.55c2.58.12,3.34-.3,8.51,1.75,6.21,2.46,11.41,9.19,12.62,12.42a27.85,27.85,0,0,1,1.34,11c-.3,6.5-1.28,15.78-6.35,20.47a11.26,11.26,0,0,1-3.82,2.34c-.79.29-3.14.32-3.67.79-1.3,1.18-.27,5.09-.36,7.26a185.33,185.33,0,0,1-2.19,21.45,46.9,46.9,0,0,1-1.59,7.69m-29-49.74a11.47,11.47,0,0,1-1.57-4.18c-.48-3.25.69-6,1.91-8.94,2.88-6.93,6.8-14.33,13.07-18.74a19.42,19.42,0,0,1,6.31-2.94"/><path class="cls-3" d="M139.43,61.83a6.93,6.93,0,0,1-3.72-3.08,5.28,5.28,0,0,1-.5-3.18,13.27,13.27,0,0,1,1.42-4.74,22,22,0,0,1,3.29-4.89,26.51,26.51,0,0,1,3-2.7A29,29,0,0,1,146.15,41a35.15,35.15,0,0,1,3.38-1.79,26.47,26.47,0,0,1,2.57-1.1,29.23,29.23,0,0,1,3.08-1"/><path class="cls-3" d="M192.08,48.39c3.29,3.48,6.62,8.83,7.64,19.2,0,1.43-.7,6.91-3,10-1.7,2.31-3.49,2.37-5.57,1.68"/><path d="M163.9,65.82a2.33,2.33,0,0,1-1.15,1.65,2.07,2.07,0,0,1-.83.18,2.4,2.4,0,0,1-2.32-1.15,2.36,2.36,0,0,1,0-2.54,2.06,2.06,0,0,1,2.64-1.05,3.51,3.51,0,0,1,.73.26,1.68,1.68,0,0,0,1.89-.25.76.76,0,0,0,.38-.68,2.51,2.51,0,0,1,2.32-2.51,2.4,2.4,0,0,1,2.28,1.15,2.35,2.35,0,0,1,.05,2.55,1.51,1.51,0,0,0,.15,2,.84.84,0,0,0,.47.29c.42.14.85.29,1.28.41A2.29,2.29,0,0,1,173,69a2.51,2.51,0,0,1-3.86,1.16,2.1,2.1,0,0,1-.53-3,2.07,2.07,0,0,0-.18-2.11,1,1,0,0,0-.59-.42c-.59-.21-1.18-.39-1.76-.62a1.85,1.85,0,0,0-2,1.06C164,65.34,164,65.58,163.9,65.82Z"/><path d="M176.35,59.08a3,3,0,0,1,3.82-1.93,3,3,0,0,1,2,3.92,2.88,2.88,0,0,1-3.66,2A3,3,0,0,1,176.35,59.08Z"/><path d="M162.57,54.51a2.92,2.92,0,0,1-3.78,2,3,3,0,0,1-1.95-3.91,3,3,0,0,1,3.81-1.89A3,3,0,0,1,162.57,54.51Z"/><path class="cls-3" d="M182.54,87.65c.19.09,6.71.2,12.64.64,1.39.19,6.19.85,6.58.92a4.42,4.42,0,0,1,2.54,1.84c.5.61-.73,2.1-1,2.21s-.24.23,0,.34c.35.18.6.52.94.69a2.32,2.32,0,0,1,.7,1.9A3.3,3.3,0,0,1,202.75,98c-.42.1-.4.27-.09.5a1.58,1.58,0,0,1,.66,1.36c0,.92-.67,1.36-1.31,1.71a12.52,12.52,0,0,1-3.41,1.06,129.1,129.1,0,0,1-13.34,1.09c-4.6.09-5.84.33-7.06.22"/><path class="cls-3" d="M118.91,82a45.35,45.35,0,0,1,12.44-4.61c1.75-.35,7.24-1.64,8.75-1.72"/><path class="cls-1" d="M104.37,79.63l6.69,4.21s17.77,8.07,22.39,17.85c2.19,4.64,9.54,21.61,9.54,21.61l-53.39-.08C90.93,123.22,104.37,79.63,104.37,79.63Z"/><path class="cls-1" d="M4.24,123.27l21.38-29,5.95,5.48,28.09-23.1s.72,7.15.48,8.81S74.82,123.3,74.82,123.3Z"/><path class="cls-2" d="M24.66,95.05s5-8.75,5.5-11.5,2.65-7.5,2-8.75-3.75-7-1.75-8,5.5,3,6.25,4.75,3.23,8,3.23,8,6.73-4.08,7.52-2.76S47,82.35,47,82.35s4.57-1.43,4.76,0S50.41,87,50.41,87s3.54.81,3.14,1.7-2.14,3.89-2.14,3.89,4.58,1.57,3.16,2.28S38.41,107.3,38.41,107.3,25.41,102.3,24.66,95.05Z"/><path class="cls-2" d="M59.66,43.8s-7-.53-5.77,4.11,4,10.89,8,10.64,1.85,15.67,1.85,15.67l-5.09.9,16.07,46.93V98.38A14.27,14.27,0,0,1,74,92.13c.42-3.25,3.67-7.25,3.67-7.25l7,.09s3.91,6.33,4,9.25-3.09,5-3.09,5l1.09,22.16s13.25-37.83,13.75-40.83-2.65-4.57-4.25-5a3.14,3.14,0,0,1-2-2.25l.4-4.16s7.35-10.84,7.6-14.34-.5,3,2.75.75,5.18-9.38,2.5-11.5a33.68,33.68,0,0,0-6-3.62s-4.77-10.88-4.52-12.38-20.25,10-20.25,10l-4.53-.61Z"/><path class="cls-1" d="M54.57,51s-2.74-5.26-2.74-6.7-4.1-17.92-.33-22S62.27,6.7,71.5,4.6C83.05,2,93.32,5.41,95.44,9.73s3.77,4.08,5.19,5,6.83,5.75,6.36,9.35S104.22,42,104.22,42l-1.94,1.79L98,29.4a162,162,0,0,1-17,8.39c-7.31,2.88-7.57-.1-7.57-.1l-7.75,7.54s-6.37-2.4-8.49.48A16.13,16.13,0,0,0,54.57,51Z"/><path class="cls-4" d="M23.55,91.69c-2.82,3.19,8,16.67,19.37,16.74l-6.61,11.72"/><line class="cls-4" x1="0.91" y1="122.26" x2="20.16" y2="95.8"/><path class="cls-4" d="M26.7,92.56s6.08-16.06,4.8-19-3.24-6.86.48-6.68,7.75,10.08,7.91,12.7c4.51-3.13,7-3.5,8.3-1.44,1,1.67-1.23,4.23-1.23,4.23s4-1.45,4.76,0c1.21,2.26-1.31,4.6-1.31,4.6s2.63.2,3.14,1.7-1.49,3.64-1.49,3.64,2.62.3,2.51,2.53-14,10.62-14,10.62"/><line class="cls-5" x1="16.89" y1="55.02" x2="20.8" y2="58.1"/><line class="cls-5" x1="23.88" y1="48.87" x2="25.84" y2="54.74"/><line class="cls-5" x1="32.55" y1="46.91" x2="32.83" y2="53.06"/><path class="cls-6" d="M102.33,44.92c-.6,10.08-1.78,17.41-5.68,21.53-2.91,3.07-6.58,7.47-11.66,7.47s-11.07-1.79-17-8.67"/><path class="cls-6" d="M104.72,41.93s3.91.17,2.69,6.28c-.84,4.25-.93,6.67-3.88,6.88"/><path class="cls-6" d="M86.93,56.88s3.29.06,3.52-.75S88,45.07,88,45.07"/><path class="cls-6" d="M58.38,44.62s-3.77-.27-4.49,3.29c-.53,2.64,1.83,12.09,9.27,10.46.38,3.89.31,8.14.31,8.14l.29,7.71"/><path class="cls-6" d="M105.62,38.64c1.49-2.39,5.08-23.62-6.88-26C90.67-1.43,74.82-.83,64.65,4.25s-10.76,9-16.14,15.85C42.94,32.22,50.3,45.52,50.3,45.52"/><path class="cls-6" d="M63.16,44.32a51.65,51.65,0,0,0,9-6.88c1.2-.37,1.3,3,3,2.4,9.57-3.29,18.24-6,22.43-12.56,2.09,8.07,3.88,13.15,3.88,13.15"/><path class="cls-3" d="M141.41,122.67s-7.9-25.79-15.76-32.6c-2.75-2.39-15.25-9-15.25-9"/><path class="cls-6" d="M89.32,62.41a8.61,8.61,0,0,1-9.12-.15"/><path class="cls-7" d="M77.32,86c-3.14.79-4.19,11.88-4.19,11.88L67,92.32"/><path class="cls-7" d="M96.35,73.92c2.69,3.29-6.41,8-10.81,10-2,.92-3.29.59-5.11.92-1.48.27-2.36-.07-4.25-.92-4.36-2-11.86-8.39-14.52-10.6"/><path class="cls-7" d="M83.44,85.68c3.88,0,5.76,10.48,5.76,10.48l4.37-2.09"/><polyline class="cls-8" points="104.24 98.51 108.61 103.23 95.93 123.16"/><path class="cls-8" d="M86.76,122s15.94-40.77,13.67-46.53C98.75,71.22,109,86,109,86c-.33.64-5.75,9.8-5.75,9.8"/><path class="cls-9" d="M75.24,123S56.4,80.88,58.67,75.12c.78-2-1.57.52-4.26,3.88"/><polyline class="cls-9" points="67.15 122.6 52.01 105.14 55.29 99.59"/><polyline class="cls-9" points="79.6 100.01 84.31 99.66 87.11 120.27"/><polyline class="cls-9" points="74.36 96.86 75.93 99.66 73.13 119.92"/><ellipse cx="94.56" cy="45.03" rx="1.78" ry="1.84"/><ellipse cx="75.82" cy="45.48" rx="1.78" ry="1.84"/><line class="cls-7" x1="94.56" y1="69.14" x2="94.56" y2="75.12"/></g></g></svg>
