<svg xmlns="http://www.w3.org/2000/svg" width="146" height="118" viewBox="0 0 146 118"><defs><style>.cls-1,.cls-2,.cls-3{fill:none;}.cls-2{stroke:#000;stroke-linecap:round;stroke-linejoin:round;stroke-width:1.84px;}.cls-3{stroke:#54e2b3;stroke-miterlimit:10;stroke-width:2px;}</style></defs><title>three</title><g id="レイヤー_2" data-name="レイヤー 2"><g id="レイヤー_3" data-name="レイヤー 3"><rect class="cls-1" width="146" height="118"/></g><g id="レイヤー_1のコピー" data-name="レイヤー 1のコピー"><circle class="cls-2" cx="75.3" cy="62.02" r="45"/><path d="M61.65,77.81c0-.3.19-.52.59-.67l2.36-.59.29-.07a.61.61,0,0,1,.45.15,1,1,0,0,1,.22.44,11.44,11.44,0,0,0,2.54,4.58,9.38,9.38,0,0,0,4.84,2.73.82.82,0,0,1,.66.81v2.29a.53.53,0,0,1-.29.51,1.39,1.39,0,0,1-.82.08,13.26,13.26,0,0,1-7.15-3.62A13.51,13.51,0,0,1,61.65,78Zm2.43-35.35a12.18,12.18,0,0,1,3.54-3.54,13.37,13.37,0,0,1,5.17-2h.15a.69.69,0,0,1,.48.19.65.65,0,0,1,.18.48V39.8a.75.75,0,0,1-.66.81,8.45,8.45,0,0,0-4.5,2.59,10,10,0,0,0-2.29,4.5.86.86,0,0,1-.3.48.55.55,0,0,1-.51.11L62.9,47.7a.86.86,0,0,1-.48-.3.67.67,0,0,1-.11-.59A12.57,12.57,0,0,1,64.08,42.46Zm8.49,17.93a.67.67,0,0,1,.22-.55.81.81,0,0,1,.52-.19h2.21a9.75,9.75,0,0,0,5-1.25,8.86,8.86,0,0,0,3.4-3.47,10.41,10.41,0,0,0,1.21-5.09,9.49,9.49,0,0,0-1.88-5.94,8.57,8.57,0,0,0-5.13-3.21.83.83,0,0,1-.66-.81V37.59a.69.69,0,0,1,.22-.56.71.71,0,0,1,.59-.11A12.48,12.48,0,0,1,84,39.14a11.9,11.9,0,0,1,3.76,4.5,13.74,13.74,0,0,1,1.33,6.12,12,12,0,0,1-2,7,13.91,13.91,0,0,1-4.76,4.39v.15A12.33,12.33,0,0,1,86,63.75,13.53,13.53,0,0,1,88.88,68a14.63,14.63,0,0,1,1.18,6,15.43,15.43,0,0,1-1.48,6.82,13,13,0,0,1-4.13,5,13.13,13.13,0,0,1-6.2,2.36H78.1a.68.68,0,0,1-.48-.18.65.65,0,0,1-.18-.48V85.26a.67.67,0,0,1,.66-.74A9.34,9.34,0,0,0,83.93,81a10.94,10.94,0,0,0,2.14-6.86,11.67,11.67,0,0,0-1.29-5.54,9.51,9.51,0,0,0-3.69-3.83,10.64,10.64,0,0,0-5.5-1.41H73.31a.75.75,0,0,1-.74-.73Z"/><path class="cls-3" d="M88.3,99.68A39.84,39.84,0,0,1,57.43,26.42"/><path class="cls-3" d="M68.25,22.81A39.84,39.84,0,0,1,97.39,95.17"/><line class="cls-3" x1="59.92" y1="7.68" x2="61.58" y2="12.26"/><line class="cls-3" x1="90" y1="7.68" x2="88.33" y2="12.26"/><line class="cls-3" x1="75.08" y1="5.18" x2="75.08" y2="10.18"/></g></g></svg>
