<svg xmlns="http://www.w3.org/2000/svg" width="146" height="118" viewBox="0 0 146 118"><defs><style>.cls-1,.cls-2,.cls-3{fill:none;}.cls-2{stroke:#000;stroke-linecap:round;stroke-linejoin:round;stroke-width:1.84px;}.cls-3{stroke:#54e2b3;stroke-miterlimit:10;stroke-width:2px;}</style></defs><title>two</title><g id="レイヤー_2" data-name="レイヤー 2"><g id="レイヤー_3" data-name="レイヤー 3"><rect class="cls-1" width="146" height="118"/></g><g id="レイヤー_1のコピー" data-name="レイヤー 1のコピー"><circle class="cls-2" cx="75.3" cy="65.31" r="45"/><path d="M63.12,52.46c-.44-.15-.64-.42-.59-.81a14.19,14.19,0,0,1,1.74-5.13,13.09,13.09,0,0,1,3.65-4.1,12.13,12.13,0,0,1,5.31-2.21h.15a.65.65,0,0,1,.48.18.68.68,0,0,1,.18.48v2.29a.83.83,0,0,1-.66.81,8.08,8.08,0,0,0-4.72,2.88,11.59,11.59,0,0,0-2.29,5.61.68.68,0,0,1-.33.44.93.93,0,0,1-.63.08Zm-.37,38.23a.74.74,0,0,1-.22-.52V88.1a.84.84,0,0,1,.22-.59,1.36,1.36,0,0,1,1-.29h25a.65.65,0,0,1,.74.74v2.21a.76.76,0,0,1-.19.52.69.69,0,0,1-.55.22H63.27A.74.74,0,0,1,62.75,90.69Zm3.62-7.46a.48.48,0,0,1,.15-.59l14.9-19.55a21.94,21.94,0,0,0,3-5,12.87,12.87,0,0,0,1-5,9.66,9.66,0,0,0-1.85-5.94,8.74,8.74,0,0,0-5-3.28.73.73,0,0,1-.67-.74V40.87q0-.81.81-.66a12.3,12.3,0,0,1,5.69,2.21A12,12,0,0,1,88.14,47a14,14,0,0,1,1.33,6.16,15.17,15.17,0,0,1-1.26,6.09,30.46,30.46,0,0,1-3.76,6.24L71,83.09a1,1,0,0,1-.89.44H67A.59.59,0,0,1,66.37,83.23Z"/><path class="cls-3" d="M88.3,103A39.84,39.84,0,0,1,57.43,29.7"/><path class="cls-3" d="M68.25,26.09A39.84,39.84,0,0,1,97.39,98.46"/><line class="cls-3" x1="58.92" y1="9.31" x2="60.58" y2="13.89"/><line class="cls-3" x1="89" y1="9.31" x2="87.33" y2="13.89"/><line class="cls-3" x1="74.08" y1="6.81" x2="74.08" y2="11.81"/></g></g></svg>
