<svg xmlns="http://www.w3.org/2000/svg" width="146" height="118" viewBox="0 0 146 118"><defs><style>.cls-1,.cls-2,.cls-3{fill:none;}.cls-2{stroke:#000;stroke-linecap:round;stroke-linejoin:round;stroke-width:1.84px;}.cls-3{stroke:#54e2b3;stroke-miterlimit:10;stroke-width:2px;}</style></defs><title>one</title><g id="レイヤー_2" data-name="レイヤー 2"><g id="レイヤー_3" data-name="レイヤー 3"><rect class="cls-1" width="146" height="118"/></g><g id="レイヤー_1のコピー" data-name="レイヤー 1のコピー"><circle class="cls-2" cx="75.3" cy="63.33" r="45"/><path d="M65.56,47a1.34,1.34,0,0,1,.51-1l9.23-6.79a1.9,1.9,0,0,1,1.11-.44h2.43a.65.65,0,0,1,.74.74v.88a1.19,1.19,0,0,1-.44,1L66.37,50.41a1.17,1.17,0,0,1-.44.15c-.25,0-.37-.2-.37-.59Zm10,1.92A1,1,0,0,1,76,48l2.65-1.85a1.15,1.15,0,0,1,.45-.15.43.43,0,0,1,.29.15.6.6,0,0,1,.15.44V88.2a.78.78,0,0,1-.18.51.69.69,0,0,1-.56.22H76.33a.68.68,0,0,1-.51-.22.69.69,0,0,1-.23-.51Z"/><path class="cls-3" d="M88.3,101A39.84,39.84,0,0,1,57.43,27.73"/><path class="cls-3" d="M68.25,24.12A39.84,39.84,0,0,1,97.39,96.48"/><line class="cls-3" x1="59.83" y1="7.77" x2="61.5" y2="12.35"/><line class="cls-3" x1="89.92" y1="7.77" x2="88.25" y2="12.35"/><line class="cls-3" x1="75" y1="5.27" x2="75" y2="10.27"/></g></g></svg>
