<svg xmlns="http://www.w3.org/2000/svg" width="429" height="178.2" viewBox="0 0 429 178.2"><defs><style>.cls-1{fill:none;stroke:#17ba8f;stroke-linecap:round;stroke-linejoin:round;stroke-width:2px;}.cls-2,.cls-3{fill:#17ba8f;}.cls-2{fill-rule:evenodd;}</style></defs><title>mv</title><g id="レイヤー_2" data-name="レイヤー 2"><g id="レイヤー_1-2" data-name="レイヤー 1"><g id="レイヤー_1のコピー" data-name="レイヤー 1のコピー"><path class="cls-1" d="M5.2,41.1V36.2a4.06,4.06,0,0,1,4.1-4.1h4.9"/><path class="cls-1" d="M5.2,66.2v4.9a4.06,4.06,0,0,0,4.1,4.1h4.9"/><path d="M18.2,6.7c-1.1,0-3.9.1-5.2.2l-.1-2a12.75,12.75,0,0,0,2,.1c.3,0,3-.1,3.8-.1.1-.8.1-2.3.1-3.2V.9l2.1.1a.27.27,0,0,1,.3.3c0,.2-.1.2-.4.4,0,1.1-.1,1.8-.1,3.2l4.7-.1.3-.2,1.3,1c.2.1.2.2.2.3s0,.1-.4.3V7.7c0,3.7-.3,6.7-.9,7.8s-1.5,1.7-3.3,1.7H20.8a7.61,7.61,0,0,0-.3-2.1,12.1,12.1,0,0,0,1.9.1c1.2,0,1.6-.2,1.9-1.1s.6-3.5.6-6.9V6.6l-4.3.1c-.4,5.3-2.2,8.1-7.2,10.8a3.86,3.86,0,0,0-1.1-1.7c2.8-1.6,4.1-2.7,5-4.5a10.49,10.49,0,0,0,1.2-4.6Z"/><path d="M32.8,3.3c2.8,0,3.7,0,5.5-.1L42,3.1l.3-.4L43.8,4c.1.1.1.1.1.2s-.1.2-.3.3A22.24,22.24,0,0,1,40.7,10a20.74,20.74,0,0,1,6.2,5.2l-1.6,1.6a22.9,22.9,0,0,0-5.8-5.4,22.36,22.36,0,0,1-7.2,5.4A4.63,4.63,0,0,0,31,15a18.27,18.27,0,0,0,8-6,22.18,22.18,0,0,0,2.5-4.2l-3,.2c-.5,0-1.3.1-2.4.1l-2.9.2Z"/><path d="M55.5,7.8a15,15,0,0,1,3.3,2.3,2.65,2.65,0,0,0,.6.5,14.9,14.9,0,0,0,2.2-4.8H56.2a21.44,21.44,0,0,1-4.6,4.9,5,5,0,0,0-1.4-1.5A15.66,15.66,0,0,0,56.3.8l1.9.7c.2.1.2.1.2.2s0,.2-.4.3a18,18,0,0,1-.8,2.1h5.1l.3-.3,1.3,1.4c.2.2.2.2.2.3s-.1,0-.4.1a18.76,18.76,0,0,1-3.4,7.3c-1.7,2-3.8,3.5-7.4,5.2a5.67,5.67,0,0,0-1.2-1.8,19.63,19.63,0,0,0,6.4-4,17.4,17.4,0,0,0-3.7-3Z"/><path d="M83.8,4.9c.1.2.2.2.2.3s-.1.2-.4.3a53,53,0,0,1-4.2,5.2l-2.1,2a12.27,12.27,0,0,1,2.3,2.8l-1.8,1.4a19.48,19.48,0,0,0-3.6-4,18.31,18.31,0,0,0-3.1-2.4L72.4,9a19.42,19.42,0,0,1,3.3,2.3,35.22,35.22,0,0,0,5.2-5.7l-7.1.1c-2.7,0-3.5,0-5.4.1l-.1-2.1c1.2,0,2.2.1,4.4.1h1.1l8.3-.1.3-.3Z"/><path d="M103,10.3c-.8,0-2.2-.1-3-.1H90.3a28.12,28.12,0,0,0-3,.1V8.2c.8,0,2,.1,3,.1H100a29.08,29.08,0,0,0,3-.1Z"/><path d="M116.8,5.7V4a28.1,28.1,0,0,0-.1-2.9l2.2.2c.2,0,.3.1.3.2s-.1.3-.4.4V5.6H120c1,0,2,0,3-.1v2h-4.2v.2a12.48,12.48,0,0,1-.8,5.4c-.9,1.9-2.7,3.4-5.8,4.7a3.27,3.27,0,0,0-1.2-1.9,10.23,10.23,0,0,0,3.7-2c1.6-1.4,2.1-2.8,2.1-6.1V7.6H112V9.5a19.47,19.47,0,0,0,.1,2.8H110V7.6h-1a28.12,28.12,0,0,0-3,.1v-2c.8,0,2,.1,3,.1h1.1V1.5l2.1.1c.2,0,.3.1.3.2s-.1.2-.4.4V5.7Z"/><path d="M131,9.3a.22.22,0,0,1,.2.2c0,.1-.1.2-.4.3a15.69,15.69,0,0,1-3.6,6.1,3.64,3.64,0,0,0-1.6-1.4,13.27,13.27,0,0,0,3.6-6Zm4.1,3.8c0,1.9,0,3.5.1,4.4h-2.1c0-1,.1-2.5.1-4.4V6.7h-4a21.75,21.75,0,0,0-2.6.1v-2c.7,0,1.8.1,2.6.1h4a24.13,24.13,0,0,0-.1-3.8l2.2.1c.2,0,.3.1.3.2s-.1.2-.3.4V4.9h4a20.92,20.92,0,0,0,2.6-.1v2c-.7,0-1.9-.1-2.6-.1h-4Zm3.8-4.5a19.94,19.94,0,0,0,3.7,5.4c-.2.2-.4.3-.5.4a10.59,10.59,0,0,0-1.2,1,19,19,0,0,1-3.7-5.9Zm3.7-6.2a1.9,1.9,0,0,1-3.8,0A2,2,0,0,1,140.7.5h0a1.9,1.9,0,0,1,1.9,1.9Zm-3,0a1,1,0,1,0,2,0,.94.94,0,0,0-1-1,1.28,1.28,0,0,0-1,1Z"/><path d="M161.4,10.3c-.8,0-2.2-.1-3-.1h-9.6a28.12,28.12,0,0,0-3,.1V8.2c.8,0,2.1.1,3,.1h9.6a29.08,29.08,0,0,0,3-.1Z"/><path d="M170.5,6a27.34,27.34,0,0,1,6.6,3.9l-1.4,1.8a20.07,20.07,0,0,0-5.8-3.8v5.3c0,2,0,3.5.1,4.4h-2.3c.1-1,.1-2.6.1-4.4V5.4a41.62,41.62,0,0,0-.1-4.5l2.2.1c.2,0,.3.1.3.2s-.1.2-.3.4V7.1Z"/><path d="M196.1,9.9a17.72,17.72,0,0,0,2.4-.1v1.8c-.6,0-1.6-.1-2.4-.1v4.3c0,1.7-.6,2-3.5,2h-.2a4.48,4.48,0,0,0-.4-2,6.25,6.25,0,0,0,1.2.1c.8,0,.9-.1.9-.8V11.6h-3.9a21.75,21.75,0,0,0-2.6.1V10c-.6.3-1.3.6-1.9.9v1.6c0,2.5,0,4.3.1,5.5h-2c.1-1.2.1-3.1.1-5.6v-.9l-1.9.8c-.1.3-.3.4-.4.4s-.2-.1-.3-.2l-.9-1.8c1.2-.4,2.4-.7,3.4-1.1V6h-1.2a19.81,19.81,0,0,1-.8,3.3c-.5-.4-1.1-.7-1.6-1.1a28,28,0,0,0,1.3-6.4l1.9.5q.3.15.3.3c0,.1,0,.2-.4.3-.1.4-.1.9-.2,1.3h.9c0-2-.1-3.2-.1-3.7l2,.1c.2,0,.3.1.3.2s-.1.2-.3.4v3h2.2V6H186V9a22,22,0,0,0,2.1-.9l.5,1.6c-.1.1-.3.1-.4.2.7,0,1.6.1,2.3.1h3.9V8h-4a24.37,24.37,0,0,0-2.7.1V6.2c.7,0,1.8.1,2.7.1h1.7v-2h-3.6V2.5h3.6A12.22,12.22,0,0,0,192,.3l1.9.1c.2,0,.3.1.3.2s-.1.2-.4.4V2.5h3.8V4.3h-3.8v2h1.9a20.92,20.92,0,0,0,2.6-.1V8H196V9.9Zm-5.8,1.9a13.26,13.26,0,0,1,2.7,2.6l-1.4,1.3a10.3,10.3,0,0,0-2.5-2.6Z"/><path d="M204.6,8.5a19.18,19.18,0,0,1-2.3,3.5,11.78,11.78,0,0,0-1.1-1.9A26,26,0,0,0,204,5.6,32.72,32.72,0,0,0,205.7.3l1.9.7c.1,0,.2.1.2.3s0,.2-.4.3a29.91,29.91,0,0,1-1.5,4.2h.6c.2,0,.3.1.3.2s-.1.2-.3.4V14c0,1.8,0,3.1.1,4h-2c.1-1,.1-2.2.1-4Zm7-1.7a19,19,0,0,0,4.9-3l1.7,1.3c.1,0,.2.2.2.3s-.1.2-.7.2a29.2,29.2,0,0,1-6.1,3.1V15c0,.4.1.5.6.6a8.6,8.6,0,0,0,1.6.1,6.26,6.26,0,0,0,2.7-.3c.4-.2.5-.9.5-1.8v-.9a11.7,11.7,0,0,0,2,.5c-.1,2.7-.4,3.7-1.4,4.1-.6.2-1.4.3-4.4.3a7.44,7.44,0,0,1-2.6-.2q-.9-.3-.9-1.8V3.4a18,18,0,0,0-.1-2.8l2,.1c.2,0,.3.1.3.2s-.1.2-.4.4Z"/><path d="M226.5,7.1a5.29,5.29,0,0,1-.9,3,7.29,7.29,0,0,1-2.7,2.2,3.77,3.77,0,0,0-.9-1.5,5.74,5.74,0,0,0,2.2-1.9,3.37,3.37,0,0,0,.5-1.7h-2.6V5.4h2.7V3h-2V1.3h9.1V3h-2.2V5.4h2.6V7.1h-2.6V8.2a28.32,28.32,0,0,0,.1,3.3h-1.9c0-.7.1-1.8.1-3.3V7.1Zm3.5,7.1h-3a28.12,28.12,0,0,0-3,.1V12.4c.8,0,2.1.1,3,.1h3V10.8l1.9.1c.2,0,.3.1.3.2s-.1.2-.4.4v1h2.9a29.08,29.08,0,0,0,3-.1v1.9c-.8,0-2.2-.1-3-.1h-2.9v1.5h4c1.2,0,2.8,0,3.8-.1v1.9c-1,0-2.6-.1-3.8-.1H226c-1.1,0-2.8,0-3.8.1V15.6c1,0,2.7.1,3.8.1h4Zm-3.4-8.8h1.3V3h-1.3Zm8.4.8V9h-1.9V4.3a18,18,0,0,0-.1-2.8l1.9.1c.2,0,.3.1.3.2s-.1.2-.4.4Zm.1,5.4a4.48,4.48,0,0,0-.4-2c.6,0,.9.1,1.2.1.9,0,1-.1,1-.8V3.6a26.2,26.2,0,0,0-.1-2.8l2.1.1c.2,0,.3.1.3.2s-.1.2-.4.4V9.9c0,1.4-.6,1.7-3.5,1.7Z"/><path d="M257.2,2l4.9,14.5h-2.3l-1.1-3.4h-5.3l-1.1,3.4H250L255,2Zm-1.1,2.7-2,6.5h4.1Z"/><path d="M266,16.5V2h2.3V16.5Z"/><path d="M293.8,7.4a29.08,29.08,0,0,0,3-.1v2c-.8,0-2.1-.1-3-.1h-4a8.48,8.48,0,0,1-1.5,5.1c-1,1.3-2.6,2.3-5.3,3.4a4.53,4.53,0,0,0-1.1-1.9,9.87,9.87,0,0,0,2.8-1.2,5.88,5.88,0,0,0,2.7-2.9,7.27,7.27,0,0,0,.4-2.5h-4.6a28.12,28.12,0,0,0-3,.1v-2c.8,0,2,.1,3,.1h4.6v-3a47.76,47.76,0,0,1-5.3.6,5.92,5.92,0,0,0-.5-1.9c4.9-.1,9-.9,11-2.1l1.4,1.4a.37.37,0,0,1,.1.3c0,.1-.1.2-.3.2h-.3a19.56,19.56,0,0,1-4.1,1.3V7.4Z"/><path d="M300.3,8.9c1-.1,3-.3,4.1-.5a30.67,30.67,0,0,0-.7-4.2l2-.1c.2,0,.3.1.4.3h0c0,.1-.1.2-.2.4a25.56,25.56,0,0,0,.4,3.3l5.7-.9.3-.3,1.3,1.2c.1.1.2.2.2.3s-.1.2-.3.4a9.38,9.38,0,0,1-1.9,3.2,9.76,9.76,0,0,1-1.7,1.8,3.16,3.16,0,0,0-1.4-1.4,10.18,10.18,0,0,0,2.9-3.3l-4.8.8.5,3.5c.4,2.6.4,3.2.6,3.9a2.18,2.18,0,0,1,.1.6l-2,.2c-.1-1.3-.3-2.7-.5-4.5l-.4-3.4-1.1.2a15,15,0,0,0-2.9.6Z"/><path d="M319,6.8a11.52,11.52,0,0,1,2.2,3.5l-1.9.9a15.13,15.13,0,0,0-2-3.5Zm11.1-.1c.1,0,.2.2.3.3s-.1.3-.4.4c-1,3.6-2.1,5.7-4,7.4a15.06,15.06,0,0,1-5.3,3.2,6.19,6.19,0,0,0-1.1-1.7,12.62,12.62,0,0,0,3.3-1.6,10.85,10.85,0,0,0,4.8-6.5,16,16,0,0,0,.5-2.1Zm-6.9-1.2a13,13,0,0,1,1.9,3.7l-1.9.7-.2-.7a11.08,11.08,0,0,0-1.4-2.9Z"/><path d="M339.7,6a27.34,27.34,0,0,1,6.6,3.9l-1.4,1.8a20.07,20.07,0,0,0-5.8-3.8v5.3c0,2,0,3.5.1,4.4h-2.3c.1-1,.1-2.6.1-4.4V5.4a41.62,41.62,0,0,0-.1-4.5l2.2.1c.2,0,.3.1.3.2s-.1.2-.3.4V7.1Z"/><path d="M355.2,9.3a.22.22,0,0,1,.2.2c0,.1-.1.2-.4.3a15.69,15.69,0,0,1-3.6,6.1,3.64,3.64,0,0,0-1.6-1.4,13.27,13.27,0,0,0,3.6-6Zm4.2,3.8c0,1.9,0,3.5.1,4.4h-2.1c0-1,.1-2.5.1-4.4V6.7h-4a21.75,21.75,0,0,0-2.6.1v-2c.7,0,1.8.1,2.6.1h4a24.13,24.13,0,0,0-.1-3.8l2.2.1c.2,0,.3.1.3.2s-.1.2-.3.4V4.9h4a20.92,20.92,0,0,0,2.6-.1v2c-.7,0-1.9-.1-2.6-.1h-4Zm3.7-4.5a19.94,19.94,0,0,0,3.7,5.4c-.2.2-.4.3-.5.4a10.59,10.59,0,0,0-1.2,1,19,19,0,0,1-3.7-5.9Zm.5-6.9A11.17,11.17,0,0,1,366,3.6l-.9,1a11,11,0,0,0-2.3-2ZM365.1,0a11.17,11.17,0,0,1,2.4,1.9l-1,1A13,13,0,0,0,364.3,1Z"/><path d="M372.1,6.8a11.52,11.52,0,0,1,2.2,3.5l-1.8.9a15.13,15.13,0,0,0-2-3.5Zm11.1-.1q.3.15.3.3c0,.1-.1.3-.4.4-1,3.6-2.1,5.7-4,7.4a15.06,15.06,0,0,1-5.3,3.2,6.19,6.19,0,0,0-1.1-1.7,15,15,0,0,0,3.4-1.6,11.7,11.7,0,0,0,4.8-6.5,14.19,14.19,0,0,0,.5-2.2Zm-6.9-1.2a13,13,0,0,1,1.9,3.7l-1.9.7-.2-.8a11.08,11.08,0,0,0-1.4-2.9Z"/><path d="M392.9,6a27.34,27.34,0,0,1,6.6,3.9l-1.4,1.8a20.07,20.07,0,0,0-5.8-3.8v5.3c0,2,0,3.5.1,4.4H390c.1-1,.1-2.6.1-4.4V5.4A41.62,41.62,0,0,0,390,.9l2.2.1c.2,0,.3.1.3.2s-.1.2-.3.4V7.1Z"/><path id="logo_svg" data-name="logo svg" class="cls-2" d="M365.8,67.4v-26h4.6v26Zm-32.7,0-6.4-9.1H321v9.1h-4.6v-26H328a10.46,10.46,0,0,1,7.5,2.6,7.68,7.68,0,0,1,2.1,5.6v.1a7.85,7.85,0,0,1-6.2,7.9l7,9.8ZM333,50h0c0-2.9-2-4.4-5.4-4.4H321v8.7h6.7C330.9,54.3,333,52.6,333,50ZM280.4,67.8c-6.8,0-11.1-3.9-11.1-11.5v-15h4.6V56.1c0,4.8,2.5,7.4,6.6,7.4s6.6-2.4,6.6-7.2v-15h4.6V56.1C291.5,63.9,287.1,67.8,280.4,67.8Zm-38.8-.4-8.9-11.7-4.1,4.2v7.5H224v-26h4.6V54.5L241,41.4h5.6L235.7,52.6,247,67.4Zm-48-6.3H181.3l-2.7,6.3H174l11.4-26.2h4.2L201,67.4h-4.8Zm-6.1-14.4L183,57.1h9Zm-40,20.7L141,58.3h-5.7v9.1h-4.6v-26h11.6a10.46,10.46,0,0,1,7.5,2.6,7.77,7.77,0,0,1,2.2,5.6v.1a7.85,7.85,0,0,1-6.2,7.9l7,9.9ZM147.3,50h0c0-2.9-2-4.4-5.4-4.4h-6.6v8.7H142c3.3,0,5.4-1.7,5.3-4.3ZM100.2,61.2H87.9l-2.7,6.3H80.5L92,41.2h4.2l11.4,26.2h-4.8ZM94,46.7,89.5,57.1h8.9ZM54.7,67.4,45.8,55.7l-4,4.2v7.6H37.2v-26h4.6V54.6L54.2,41.5h5.6L48.9,52.6,60.2,67.4Z"/><path class="cls-1" d="M405.2,41.1V36.2a4.06,4.06,0,0,0-4.1-4.1h-4.9"/><path class="cls-1" d="M405.2,66.2v4.9a4.06,4.06,0,0,1-4.1,4.1h-4.9"/><path d="M7,155.1c0-3.3,0-5-.1-6.2l4.3.3c.4,0,.7.2.7.4s-.2.5-.8.8v18.4h7.1V142.6h-9c-2,0-5.6.1-7.4.1v-4.1c1.7.1,5.3.1,7.4.1h20c2.3,0,5.6,0,7.4-.1v4.1c-1.9-.1-5.2-.2-7.4-.2h-7v10.4h7.9c.9,0,2.4,0,3.3-.1v4c-.9,0-2.2-.1-3.3-.1H22.2v12h7.7c2.6,0,6.1-.1,8.2-.2v4.1c-2.2-.1-5.7-.2-8.2-.2H8.2c-2.3,0-6,.1-8.2.2v-4.1c1.8.1,4.7.1,6.9.2Z"/><path d="M49.6,144.4a40.52,40.52,0,0,1-5.6,6.8,12,12,0,0,0-2.6-2.9c4.1-4,5.7-6.3,8.5-12.3l3.5,1.3a.73.73,0,0,1,.6.6c0,.2-.2.5-1.2.6-.4.9-.8,1.6-1.2,2.4H60v2.5a30.89,30.89,0,0,0,5.1-7.3l3.2,1.3q.6.3.6.6c0,.2-.2.4-1.2.6-.5.9-1,1.6-1.4,2.4H79.5v3.7c-.9-.1-2.6-.1-3.3-.1h-5a20.65,20.65,0,0,1,2.5,4l-3.5,2c-.3-.6-.9-1.8-1.8-3.5a21.28,21.28,0,0,0-1.6-2.5H64a35.67,35.67,0,0,1-4.4,4.3A7.29,7.29,0,0,0,57,146c.7-.5,1.3-1,1.9-1.4H55a25.64,25.64,0,0,1,2.2,3.5L53.8,150a29.53,29.53,0,0,0-3.2-5.4ZM64,149.2c.7.3.8.4.8.7s-.3.5-1,.7c4.2,3.2,8.5,4.9,17.4,7.1a19.75,19.75,0,0,0-2,3.8,61.12,61.12,0,0,1-10.4-3.7v2.8c-.9,0-2.2-.1-3.3-.1H56.9c-1.1,0-2.4,0-3.3.1V158a65.91,65.91,0,0,1-10.2,4.5,15.86,15.86,0,0,0-1.8-3.7c8.8-2.7,14-5.6,19.7-10.9ZM52.7,174.6H48.6c.1-1,.1-2.4.1-4.4v-4.5c0-1.3,0-2.9-.1-3.6,1.4,0,2.7.1,4.5.1H69.2c1.8,0,3.1,0,4.5-.1-.1.7-.1,2.4-.1,3.6v4.5c0,1.9,0,3.3.1,4.3H69.6v-1.4H52.7Zm16.9-5v-3.9H52.7v3.9Zm-2.7-12.7a39,39,0,0,1-5.9-4.1,42.86,42.86,0,0,1-5.5,4Z"/><path d="M107.1,143.7c-1.2,1.8-2.6,3.5-3.9,5.2.7.5,1.4,1.1,2.1,1.7a58,58,0,0,0,3.4-5.2L112,147c.3.1.4.2.4.4s-.2.5-.8.6a73.83,73.83,0,0,1-7.3,8.6c1.8-.2,3.6-.3,5.4-.6a21.28,21.28,0,0,0-1.6-2.5l2.7-1.6a32.17,32.17,0,0,1,4.6,7.5l-3.5,1.7a11.39,11.39,0,0,0-.9-1.9,31.06,31.06,0,0,1-3.2.4v3.3h8.8c2.6,0,6.1-.1,8.2-.2v4.1c-2.2-.1-5.7-.2-8.2-.2H108v1.9c0,2.7,0,4.8.1,6H104c.1-1.4.1-3.4.1-6v-1.9h-9c-2.3,0-6,.1-8.2.2v-4.1c2.2.1,5.9.2,8.2.2h9v-2.7c-1.6.2-3.4.4-5.3.7-.3.4-.5.6-.8.6a.54.54,0,0,1-.5-.5l-1.2-3.9c1,0,2.1,0,3.2-.1,1.1-1.1,2.2-2.2,3.2-3.4a48.77,48.77,0,0,0-5.9-5.2l2-2.6c.6.4,1.1.8,1.6,1.1.7-1.1,1.4-2.1,2.1-3.3H96.2c-2.3,0-6,.1-8.2.2v-4c2.1.1,5.9.2,8.2.2H104v-3.8l4.1.3c.5,0,.7.2.7.4s-.2.5-.8.8v2.2h8c2.6,0,6.2-.1,8.3-.2v4c-2.2-.1-5.7-.2-8.2-.2Zm-7.6,10.9a53.32,53.32,0,0,1-5.1,3.1c-3.4,1.8-3.7,1.9-4.2,2.2-.3.5-.5.7-.7.7s-.4-.2-.6-.5l-1.6-3.3a56.13,56.13,0,0,0,11-5.4Zm-8.8-9.5a26.18,26.18,0,0,1,6,4.5l-2.6,2.7a63,63,0,0,0-5.5-4.8Zm22.5,3.8a31.75,31.75,0,0,0,6.8-4.4l2.8,2.3a.71.71,0,0,1,.3.6c0,.2-.2.3-.5.3h-.5c-1,.6-1.4.8-4,2.4-.7.4-1.6.9-3.2,1.7Zm2,3.4a31.16,31.16,0,0,1,8.7,5.7l-2.2,3.2a43,43,0,0,0-8.1-6.1Z"/><path d="M328.4,155a36.79,36.79,0,0,1-2.3,4.4,12.83,12.83,0,0,0-2.5-4,61.5,61.5,0,0,0,7.5-19.3l4,1.5q.6.15.6.6c0,.3-.1.4-1,.7a73.21,73.21,0,0,1-3.3,9.3l1.2.1c.4,0,.7.2.7.4s-.2.5-.8.8c0,2.1-.1,4-.1,7.1v9.8c0,3.7,0,6.6.1,8.5h-4.2c.1-1.9.1-4.7.1-8.5Zm23.1,4.3a35.07,35.07,0,0,0,3.7,4,30.81,30.81,0,0,0,8.6,5.5,16.94,16.94,0,0,0-2.3,3.6,34.62,34.62,0,0,1-9-6.7c-.7-.8-1.4-1.6-2-2.4v5.4c0,2.8,0,4.9.1,6.1h-4.2c.1-1.4.1-3.4.1-6.1v-5.2c-2.6,3.8-5.5,6.3-10.8,9.8a15.23,15.23,0,0,0-2.2-3.4c5.7-3.5,8.7-6.1,11.8-10.5h-4.9c-1.7,0-4,0-5.8.1v-4c1.6,0,4,.1,5.8.1h6.1a42.44,42.44,0,0,0-.2-4.5l4.2.3c.5,0,.7.2.7.4s-.2.5-.8.8v3H357c1.6,0,4.3,0,5.7-.1v4c-1.5-.1-4.2-.1-5.7-.1Zm-9-6.6h-4.1c.1-1,.1-2.4.1-4.4v-6.6c0-1.3,0-2.9-.1-3.6h20.5c-.1.7-.1,2.3-.1,3.6v6c0,1.9,0,3.4.1,4.3h-4v-1.4H342.5Zm12.4-5.8v-5.1H342.5v5.1Z"/><path d="M383.2,147.8c-.9,0-2.2-.1-3.3-.1h-7.6c-1.1,0-2.4,0-3.3.1v-3.9c.9,0,2.4.1,3.3.1h7.6c.9,0,2.4,0,3.3-.1Zm-9.1,26.5h-3.9c.1-1,.1-2.4.1-4.4v-5.4c0-1.3,0-2.9-.1-3.6,1,0,1.8.1,3,.1H379a27.19,27.19,0,0,0,3-.1c-.1.7-.1,2.4-.1,3.6v5.1c0,1.9,0,3.3.1,4.3h-3.9v-1.3h-4Zm7.3-15.2H370.7v-3.8h10.7Zm0-5.7H370.7v-3.8a19.29,19.29,0,0,0,2.5.1h8.2Zm-2.5-11.3h-8.2v-3.8c.6,0,1.7.1,2.5.1H379a19.29,19.29,0,0,0,2.5-.1v3.8Zm-.8,22.2h-4v5.1h4Zm8.5-8.1c0-3.3,0-5-.1-6.2l4.2.3c.5,0,.7.2.7.4s-.2.4-.8.8v18.2h4V143.5h-4.3c-1.7,0-4,0-5.8.1v-4c1.6.1,4,.1,5.8.1H401c1.7,0,4.3,0,5.7-.1v4c-1.5,0-4.2-.1-5.7-.1h-2.4v10H403c.9,0,2.4,0,3.3-.1v3.9h-7.7v12.4h3.2c1.7,0,4.3,0,5.8-.1v4c-1.5-.1-4.2-.1-5.8-.1h-13c-1.7,0-4,0-5.7.1v-4c1,.1,2.3.1,3.6.1Z"/><path d="M428.9,151.9l-.5.4-7-7-7,7-.4-.4,7-7-7-7,.5-.4,7,7,7-7,.5.4-7,6.9Zm-10.4-7a1.7,1.7,0,1,1-1.7-1.7,1.92,1.92,0,0,1,1.7,1.7Zm4.6,4.7a1.7,1.7,0,1,1-1.7-1.7,1.63,1.63,0,0,1,1.7,1.7Zm0-9.4a1.7,1.7,0,1,1-1.7-1.7,1.75,1.75,0,0,1,1.7,1.7Zm4.7,4.7a1.7,1.7,0,1,1-1.7-1.7h0a1.92,1.92,0,0,1,1.7,1.7Z"/><path class="cls-3" d="M161.6,107.9c-12.7,0-22,9.7-22,23,0,12.5,8.8,22,20.5,22,5.5,0,11.1-2.1,13.5-5.2l.3-.4h1.7l-.2,1.1c-2.2,12.6-9.6,20.1-19.6,20.1a20.39,20.39,0,0,1-6-1l-.5-.1a5.7,5.7,0,0,0-1.3-.1c-1.2,0-1.9.5-2.5,2.2h0l-1.2,3.3a3.11,3.11,0,0,0-.1,2.5,3,3,0,0,0,1.9,1.4,35.48,35.48,0,0,0,10.2,1.5c20.5,0,31.2-19.3,31.2-38.4C187.7,120.9,177,107.9,161.6,107.9Zm3,36.3c-8.6,0-14.2-5.4-14.2-13.7,0-7.7,4.6-12.8,11.3-12.8,8.1,0,14.6,9.5,14.6,17.3C176.4,140.3,171.4,144.2,164.6,144.2Z"/><path class="cls-3" d="M222.2,133.1a17.75,17.75,0,0,0-7.1,1.5l-.2.1h-1.6l.3-1.2c.2-1,.4-2,.5-3l1.2-12.3h22.4c2.2,0,3.2-1,3.2-3.1v-2.8c0-2.2-1-3.2-3.2-3.2H209a3,3,0,0,0-3.3,2.7v.4L203.1,140a3.47,3.47,0,0,0,2.5,4l.8.3a6.4,6.4,0,0,0,4.9-.2,20.13,20.13,0,0,1,8.4-1.8c8.7,0,14.9,5.3,14.9,13,0,8.3-7.2,12.8-14,12.8a19.83,19.83,0,0,1-12.1-4.5,4.31,4.31,0,0,0-2.2-.9h-.4a2.65,2.65,0,0,0-1.7,1.4l-2,3c-1.2,1.6-1.1,3.2.4,4.3a29.87,29.87,0,0,0,19,6.8c14,0,24.2-9.7,24.2-23C245.8,142.1,236.1,133.1,222.2,133.1Z"/><path class="cls-3" d="M281.4,128.4a12.65,12.65,0,0,0-25.3,0,12.38,12.38,0,0,0,12.4,12.3h.3A12.55,12.55,0,0,0,281.4,128.4Zm-19.1,0a6.45,6.45,0,1,1,6.5,6.4h-.1a6.36,6.36,0,0,1-6.4-6.3Z"/><path class="cls-3" d="M301.1,151.1a12.51,12.51,0,0,0-12.7,12.3,12.36,12.36,0,0,0,12.7,12.2,12.14,12.14,0,0,0,12.7-11.7,12.26,12.26,0,0,0-11.7-12.7,3.75,3.75,0,0,0-1-.1Zm0,18.6a6.36,6.36,0,0,1-6.4-6.3v-.1a6.45,6.45,0,1,1,6.4,6.4Z"/><path class="cls-3" d="M309,117.9c-.2-.5-1-.7-2-.7h-1.7a4,4,0,0,0-3.5,1.7h0l-40.5,52.9a2.51,2.51,0,0,0-.7,2.1c.2.5,1,.7,2,.7h1.8a4,4,0,0,0,3.5-1.7L308.4,120C309,119.1,309.2,118.3,309,117.9Z"/><path d="M332.7,84v5.7a4.75,4.75,0,0,0,.2,2,2,2,0,0,0,2,1.1,2,2,0,0,0,2-1.2,5.73,5.73,0,0,0,.2-1.8V84h1.5v5.8a6.51,6.51,0,0,1-.3,2.5c-.5,1.2-1.8,1.8-3.4,1.8a3.57,3.57,0,0,1-3.4-1.8,5,5,0,0,1-.3-2.5V84Z"/><path d="M343.4,93.9V84h1.5v9.9Z"/><path d="M359.6,89.4h1.6v1.3h-1.6v3c0,1.2-.4,1.4-2.4,1.4h-.1a7.84,7.84,0,0,0-.2-1.4c.4,0,.6.1.8.1.6,0,.6,0,.6-.5V90.8h-4.5V89.7c-.4.2-.9.4-1.3.6v1.1a37.76,37.76,0,0,0,.1,3.8h-1.4a37.76,37.76,0,0,0,.1-3.8v-.6a5.84,5.84,0,0,1-1.3.5c-.1.2-.2.2-.3.2s-.1-.1-.2-.2L349,90a22.5,22.5,0,0,0,2.4-.8V86.7h-.9c-.2.8-.4,1.5-.6,2.3a6.73,6.73,0,0,0-1.1-.7,20.52,20.52,0,0,0,.9-4.4l1.3.3a.22.22,0,0,1,.2.2c0,.1,0,.1-.3.2,0,.3-.1.6-.1.9h.6a13,13,0,0,0-.1-2.5l1.4.1a.35.35,0,0,1,.2.1c0,.1-.1.1-.2.2v2.1h1.5v1.2h-1.5v2.1l1.5-.6.3,1.1a.37.37,0,0,1-.3.1h4.3V88.1H354V86.8h2.9V85.5h-2.5V84.3h2.5V82.8l1.3.1a.35.35,0,0,1,.2.1,1.24,1.24,0,0,0-.2.3v1h2.6v1.2h-2.6v1.3h3.1v1.3h-1.6v1.3Zm-4,1.3a8.13,8.13,0,0,1,1.9,1.8l-1,.9a9.76,9.76,0,0,0-1.7-1.8Z"/><path d="M369.2,86.4h-4.7V85.2h4.7ZM366,94.8h-1.2V90.6h4v4.1h-1.2v-.4H366Zm1.8-10.2h-2.9V83.4h3.7v1.2Zm.8,3.6h-3.7V87h3.7Zm0,1.8h-3.7V88.8h3.7Zm-1,1.6H366v1.6h1.6Zm5.7-2.8h3.1V90h-3.1v5H372V90h-3V88.7h3V86.2h-.9c-.4.8-.8,1.5-1.2,2.3a4.13,4.13,0,0,0-1.1-.7,13.71,13.71,0,0,0,2.1-4.9l1.2.3c.2.1.3.1.3.2s0,.1-.3.2a8.8,8.8,0,0,1-.5,1.5h4.3v1.2h-2.5v2.5Z"/><path d="M384.7,92.3V95h-1.3V92.2c-1.1.4-2.6.7-3.8,1-.1.2-.2.2-.2.2s-.1,0-.2-.2l-.4-1.2a8.87,8.87,0,0,1,1.5-.2V84.7h-1.5V83.4h7.9v1.3h-2v7.6Zm-3.2-7.6v1.4h1.9V84.7Zm0,2.5v1.4h1.9V87.2Zm0,4.3a10.55,10.55,0,0,0,1.9-.5V89.8h-1.9Zm9.6,2.4a8.12,8.12,0,0,0-.9,1,11.22,11.22,0,0,1-2.2-2.1,10.45,10.45,0,0,1-2.4,2.2,10.54,10.54,0,0,0-.7-1.1,10.45,10.45,0,0,0,2.4-2.2c-.1-.1-.1-.2-.2-.3a12.62,12.62,0,0,1-1.3-4.7h-.7V85.4h4.5l.2-.3.8.8a.31.31,0,0,1,.1.2.22.22,0,0,1-.2.2l-.1.1a12.3,12.3,0,0,1-1.7,5.2A8.87,8.87,0,0,0,391.1,93.9ZM387,86.7a12.56,12.56,0,0,0,1,3.8,12.74,12.74,0,0,0,1.1-3.8Z"/><path d="M395.1,89.9a5,5,0,0,1-1.2,1.3,5.42,5.42,0,0,0-.6-1.1A12,12,0,0,0,395,88a16.26,16.26,0,0,0,1.3-2.4l1.1.5c.2.1.2.1.2.2s0,.1-.4.2a3.33,3.33,0,0,1-.3.6,6.4,6.4,0,0,0-.6,1.1h.2a.35.35,0,0,1,.2.1c0,.1-.1.1-.2.2v6.3H395c0-.6.1-1.5.1-2.7Zm2-6.4c.2.1.2.1.2.2s0,.1-.4.2a11,11,0,0,1-3,2.7,3,3,0,0,0-.7-1.1,8.71,8.71,0,0,0,2.8-2.6Zm2.3,8.1a8.69,8.69,0,0,1,1.7,1.6l-1,.9a6.48,6.48,0,0,0-1.6-1.7l.7-.7h-2.4V90.5h5.7v-.7h-5.4V88.6h8.1v1.2h-1.5v.7h1.8v1.2h-1.8v1.9c0,1.2-.4,1.4-2.4,1.4h-.1a3.64,3.64,0,0,0-.2-1.4c.4,0,.6.1.8.1.6,0,.6,0,.6-.5V91.7h-3Zm.2-3.8v.5h-1.3V83.5h5.8v4.7h-1.3v-.4Zm3.3-3.3h-3.4v.6h3.4Zm0,1.6h-3.4v.6h3.4Z"/></g></g></g></svg>