<svg xmlns="http://www.w3.org/2000/svg" viewBox="0 0 526.63 218.88"><defs><style>.cls-1{fill:none;stroke:#17ba8f;stroke-linecap:round;stroke-linejoin:round;stroke-width:2px;}.cls-2,.cls-3{fill:#17ba8f;}.cls-2{fill-rule:evenodd;}</style></defs><title>mv_sp</title><g id="レイヤー_2" data-name="レイヤー 2"><g id="レイヤー_1-2" data-name="レイヤー 1"><g id="レイヤー_1のコピー" data-name="レイヤー 1のコピー"><path class="cls-1" d="M11.06,50.54v-6a5,5,0,0,1,5-5h6"/><path class="cls-1" d="M11.06,81.38v6a5,5,0,0,0,5,5h6"/><path d="M27,8.19c-1.4,0-4.86.14-6.4.26L20.48,6C21.48,6,21.83,6,23,6,23.4,6,26.76,6,27.7,6c.07-1,.11-2.89.11-3.87a8.34,8.34,0,0,0,0-1l2.61.16c.26,0,.42.14.42.33s-.11.28-.44.47c0,1.4-.07,2.19-.16,3.9L36,5.79l.33-.31,1.61,1.33c.21.17.24.22.24.33s0,.17-.42.42V9.41c0,4.55-.42,8.2-1.1,9.6s-1.82,2-4.11,2H30.29a12.51,12.51,0,0,0-.35-2.66c1.15.11,1.83.16,2.36.16,1.43,0,1.92-.28,2.34-1.31.49-1.21.77-4.25.77-8.46V8l-5.28.14c-.51,6.56-2.76,9.92-8.81,13.27A4.2,4.2,0,0,0,20,19.3c3.43-2,5-3.37,6.17-5.52a13.69,13.69,0,0,0,1.51-5.63Z"/><path d="M45.05,4c3.43,0,4.53,0,6.77-.12l4.58-.14.35-.44,1.73,1.59c.12.09.17.16.17.23s-.12.23-.43.33a24.91,24.91,0,0,1-3.55,6.75,27.65,27.65,0,0,1,7.64,6.4l-1.94,1.94A26.17,26.17,0,0,0,53.2,14c-2.43,2.78-4.62,4.42-8.9,6.63a4.89,4.89,0,0,0-1.61-2.19,23.53,23.53,0,0,0,9.79-7.34,21.27,21.27,0,0,0,3-5.18L52,6.07l-3,.16-3.62.21Z"/><path d="M73,9.5a19,19,0,0,1,4.11,2.83,4.78,4.78,0,0,0,.7.65A16.37,16.37,0,0,0,80.49,7H73.8a25,25,0,0,1-5.65,6,6.08,6.08,0,0,0-1.75-1.89A19,19,0,0,0,73.87.74l2.36.82c.23.09.3.16.3.3s-.07.21-.49.38a26.24,26.24,0,0,1-1,2.54h6.31l.35-.42L83.29,6c.21.23.26.23.26.35s-.17.35-.52.51c-1.12,4.16-2.31,6.66-4.16,8.93-2,2.48-4.65,4.34-9.06,6.38A6,6,0,0,0,68.26,20C72,18.41,74.69,16.7,76.09,15a22.12,22.12,0,0,0-4.6-3.69Z"/><path d="M107.74,6c.12.14.16.21.16.31s-.11.23-.51.32a52.63,52.63,0,0,1-5.23,6.41c-.21.21-1.08,1-2.62,2.47a21.66,21.66,0,0,1,2.9,3.44l-2.18,1.68a29.91,29.91,0,0,0-4.39-4.88,23.54,23.54,0,0,0-3.76-2.9l1.57-1.8a33.11,33.11,0,0,1,4.06,2.78,41.45,41.45,0,0,0,6.36-7L95.38,7c-3.32,0-4.25,0-6.61.11l-.16-2.53c1.47,0,2.75.07,5.44.07h1.33l10.26-.11L106,4.2Z"/><path d="M131.24,12.59c-1,0-2.67-.08-3.74-.08H115.63c-1.19,0-2.73,0-3.71.08V10c1,0,2.52.07,3.71.07H127.5c1.07,0,2.73,0,3.74-.07Z"/><path d="M148.24,7V4.88a26.43,26.43,0,0,0-.14-3.56l2.75.24c.26,0,.4.14.4.3s-.12.33-.49.54c0,.75,0,1.1,0,2.48V7h1.52c1.25,0,2.51,0,3.76-.06v2.4h-5.24v.3c0,3.35-.23,5-.95,6.66-1.06,2.39-3.28,4.18-7.15,5.8a3.91,3.91,0,0,0-1.47-2.25,13.17,13.17,0,0,0,4.55-2.43c2-1.65,2.55-3.41,2.55-7.54V9.29h-5.82v2.38c0,1.62,0,2.76.07,3.44H140V9.29h-1.31c-1.19,0-2.73,0-3.72.07V7c1,0,2.53.07,3.72.07H140V1.72l2.57.17c.28,0,.42.09.42.23s-.14.26-.47.47V7Z"/><path d="M165.71,11.39a.36.36,0,0,1,.21.28c0,.14-.12.24-.49.35a20.27,20.27,0,0,1-4.44,7.5,4.71,4.71,0,0,0-1.94-1.68,17,17,0,0,0,4.46-7.33Zm5.09,4.68c0,2.33,0,4.36.09,5.46h-2.64c.07-1.24.1-3.13.1-5.46V8.24h-4.89c-1,0-2.29,0-3.24.07V5.88c.88,0,2.21.07,3.24.07h4.89a36.38,36.38,0,0,0-.12-4.67l2.66.16c.21,0,.35.1.35.24s-.11.25-.42.44V6h4.9c.94,0,2.46,0,3.25-.07V8.31c-.84-.05-2.36-.07-3.25-.07h-4.9Zm4.58-5.54a23.32,23.32,0,0,0,4.53,6.59c-.26.21-.47.35-.59.44a8.84,8.84,0,0,0-1.49,1.24c-2-2.24-2.55-3.18-4.58-7.22ZM180,3a2.39,2.39,0,1,1-4.77.31,1.61,1.61,0,0,1,0-.31A2.39,2.39,0,0,1,180,3Zm-3.65,0a1.25,1.25,0,0,0,1.24,1.26h0A1.25,1.25,0,1,0,176.38,3Z"/><path d="M203.08,12.59c-1,0-2.67-.08-3.74-.08H187.47c-1.19,0-2.73,0-3.71.08V10c1,0,2.52.07,3.71.07h11.87c1.07,0,2.73,0,3.74-.07Z"/><path d="M214.29,7.31a32.85,32.85,0,0,1,8.08,4.76l-1.71,2.24a24.9,24.9,0,0,0-7.17-4.69v6.47c0,2.48,0,4.32.1,5.47h-2.78c.09-1.22.14-3.16.14-5.47V6.65a51.39,51.39,0,0,0-.12-5.51l2.76.16c.23,0,.35.1.35.24s-.1.25-.4.44c0,.49,0,1.61,0,4.67V8.71Z"/><path d="M245.77,12.19c.94,0,2.2,0,2.9-.07v2.26c-.75,0-2-.07-2.9-.07v2.27c0,.44,0,1.1,0,1.89v1.1c0,2.08-.77,2.52-4.3,2.52h-.21a7.19,7.19,0,0,0-.44-2.47,12.79,12.79,0,0,0,1.52.09c1,0,1.12-.07,1.12-1v-4.4h-4.79c-1,0-2.29,0-3.25.07V12.33c-.77.35-1.54.72-2.31,1.05v2c0,3.06,0,5.32.09,6.82h-2.43c.1-1.52.12-3.81.12-6.82v-1.1l-2.36,1c-.19.33-.33.44-.47.44s-.23-.11-.32-.3l-1.08-2.15c1.5-.44,2.92-.89,4.23-1.36V7.38H229.4a33.82,33.82,0,0,1-1.1,4.06,14.44,14.44,0,0,0-2-1.28,33.23,33.23,0,0,0,1.61-7.83l2.29.58c.26.07.38.19.38.33s0,.21-.54.42c-.07.54-.14,1-.23,1.57H231c0-2.46-.07-4-.14-4.54l2.48.17c.21,0,.35.11.35.23s-.12.26-.42.45c0,.79,0,1,0,3.69h2.73V7.42h-2.73v3.65c1-.38,1.82-.73,2.62-1.1l.6,1.91a4,4,0,0,1-.51.24c.86,0,2,.07,2.85.07h4.79V9.78h-4.81c-1,0-2.29,0-3.27.07V7.59c.91,0,2.24.07,3.27.07h2.05V5.25h-4.46V3.05h4.46a24.72,24.72,0,0,0-.07-2.64l2.36.16c.26,0,.4.1.4.24s-.12.25-.45.46V3.1h4.61V5.3H243V7.66h2.39c.93,0,2.45,0,3.24-.07V9.85l-2.87-.07Zm-7.12,2.31A16.63,16.63,0,0,1,242,17.65l-1.75,1.64a16.39,16.39,0,0,0-3.06-3.22Z"/><path d="M256.14,10.46a25.67,25.67,0,0,1-2.78,4.3A9.86,9.86,0,0,0,252,12.47a28.31,28.31,0,0,0,3.4-5.5A33,33,0,0,0,257.52.39l2.31.86a.39.39,0,0,1,.3.33c0,.21-.07.26-.56.38a30.61,30.61,0,0,1-1.82,5.18h.68c.25,0,.39.09.39.23s-.11.26-.42.45v9.39c0,2.22.05,3.88.12,4.9H256c.09-1.26.12-2.75.12-4.9Zm8.64-2.1a24.06,24.06,0,0,0,6-3.69l2.12,1.61a.35.35,0,0,1,.21.32c0,.24-.18.31-.81.31a34.37,34.37,0,0,1-7.55,3.83v7.73c0,.49.16.63.73.68s1.3.09,2,.09c2,0,2.85-.09,3.27-.35s.65-1.12.65-2.24V15.58a12.48,12.48,0,0,0,2.4.63c-.09,3.31-.47,4.48-1.66,5-.7.3-1.7.37-5.35.37a11.86,11.86,0,0,1-3.2-.23c-.79-.26-1.14-.94-1.14-2.25V4.2c0-1.85,0-2.83-.07-3.51l2.43.17c.25,0,.4.09.4.23s-.12.26-.45.47Z"/><path d="M283.11,8.66A6.74,6.74,0,0,1,282,12.33,8.82,8.82,0,0,1,278.7,15a6.93,6.93,0,0,0-1.15-1.87,6.83,6.83,0,0,0,2.67-2.36,5.62,5.62,0,0,0,.63-2.15H280c-.7,0-1.68,0-2.34.05V6.56H281V3.66h-.11c-.68,0-1.66,0-2.34,0V1.56h11.19V3.71c-.65,0-1.63,0-2.31,0H287V6.6h3.2V8.71c-.68,0-1.66-.05-2.33-.05H287v1.43c0,1.77,0,3.27.07,4.11h-2.31c.05-.91.07-2.22.07-4.11V8.66Zm4.26,8.81h-3.7c-1.19,0-2.73,0-3.71.07V15.27c1,0,2.52.07,3.71.07h3.7c0-1,0-1.33-.05-2.12l2.33.16c.26,0,.43.09.43.23s-.14.28-.45.47v1.26h3.62c1.08,0,2.74,0,3.74-.07v2.27c-1,0-2.66-.07-3.74-.07h-3.62v1.84h4.88c1.48,0,3.46,0,4.65-.09v2.34c-1.24,0-3.22-.1-4.65-.1H282.37c-1.31,0-3.41.05-4.68.1V19.22c1.22.05,3.32.09,4.68.09h5ZM283.21,6.6h1.61V3.66h-1.61Zm10.3,1.06c0,1.56,0,2.75.05,3.41h-2.34V5.32c0-1.85,0-2.83-.07-3.5l2.36.16c.25,0,.39.09.39.23s-.11.28-.44.47Zm.21,6.56a7.09,7.09,0,0,0-.44-2.41c.72,0,1.07.07,1.47.07,1.07,0,1.17-.07,1.17-1V4.41A19.8,19.8,0,0,0,295.73,1l2.57.16c.21,0,.35.12.35.24s-.14.28-.44.44c0,.44,0,1.07,0,2.57v4.9c0,.42,0,1.1,0,1.92v.89c0,1.7-.77,2.1-4.32,2.1Z"/><path d="M320.83,2.4l6.08,17.8h-2.85L322.75,16h-6.47L315,20.2h-2.83l6-17.8ZM319.5,5.69l-2.5,8h5Z"/><path d="M331.67,20.2V2.45h2.78V20.2Z"/><path d="M365.77,9.13c1.08,0,2.71,0,3.72-.07v2.43c-1,0-2.64-.1-3.72-.1h-4.95A10.43,10.43,0,0,1,359,17.72c-1.26,1.59-3.2,2.81-6.49,4.14a7.77,7.77,0,0,0-1.34-2.38,14,14,0,0,0,3.46-1.43,7.16,7.16,0,0,0,3.27-3.55,9.64,9.64,0,0,0,.49-3.11h-5.63c-1.19,0-2.73,0-3.71.1V9.06c1,0,2.52.07,3.71.07h5.63V5.48a55.57,55.57,0,0,1-6.56.75,7.85,7.85,0,0,0-.61-2.34c6.14-.21,11.19-1.19,13.64-2.68L366.54,3c.12.14.19.24.19.33a.39.39,0,0,1-.42.28h-.4a28.34,28.34,0,0,1-5.09,1.59v4Z"/><path d="M373.76,10.88c1.23-.09,3.69-.4,5-.63A47.21,47.21,0,0,0,378,5.09L380.37,5a.41.41,0,0,1,.46.34v.05c0,.17-.09.28-.3.49.07.84.14,1.48.49,4.12l7.06-1.08.32-.4L390,10c.17.17.21.24.21.35s-.11.31-.42.42a13.06,13.06,0,0,1-2.26,3.93,13.37,13.37,0,0,1-2.13,2.19,4.69,4.69,0,0,0-1.75-1.73,12.49,12.49,0,0,0,3.55-4l-5.91.95.58,4.26c.45,3.17.54,3.92.7,4.83,0,.17.07.31.14.73l-2.47.28c-.12-1.59-.38-3.32-.63-5.59l-.49-4.16-1.36.22a31.87,31.87,0,0,0-3.5.7Z"/><path d="M396.74,8.29a15,15,0,0,1,2.73,4.34l-2.26,1.1a15.73,15.73,0,0,0-2.46-4.28Zm13.64-.14a.43.43,0,0,1,.33.37c0,.23-.1.33-.47.49-1.19,4.37-2.59,7-4.86,9a18.87,18.87,0,0,1-6.47,3.9,6.36,6.36,0,0,0-1.35-2.05A20.67,20.67,0,0,0,401.67,18a13.6,13.6,0,0,0,5.86-8c.26-.87.48-1.76.66-2.66ZM402,6.7a14.43,14.43,0,0,1,2.31,4.6l-2.31.91-.31-1A12.64,12.64,0,0,0,400,7.62Z"/><path d="M422.27,7.31a32.85,32.85,0,0,1,8.08,4.76l-1.7,2.24a24.94,24.94,0,0,0-7.18-4.69v6.47c0,2.48,0,4.32.1,5.47h-2.78c.09-1.22.14-3.16.14-5.47V6.65a51.39,51.39,0,0,0-.12-5.51l2.76.16c.23,0,.35.1.35.24s-.1.25-.4.44V8.71Z"/><path d="M441.3,11.39a.33.33,0,0,1,.21.28c0,.14-.11.24-.49.35a20.06,20.06,0,0,1-4.44,7.5,4.71,4.71,0,0,0-1.94-1.68,17.07,17.07,0,0,0,4.47-7.33Zm5.09,4.68c0,2.33,0,4.36.1,5.46h-2.64c.07-1.24.09-3.13.09-5.46V8.24h-4.88c-1,0-2.29,0-3.25.07V5.88c.89,0,2.22.07,3.25.07H444a30.33,30.33,0,0,0-.12-4.67l2.67.16c.21,0,.35.1.35.24s-.12.25-.42.44V6h4.91c.93,0,2.45,0,3.25-.07V8.31c-.84-.05-2.36-.07-3.25-.07h-5Zm4.6-5.54a23.35,23.35,0,0,0,4.54,6.59c-.26.21-.47.35-.59.44a8.39,8.39,0,0,0-1.49,1.24c-2-2.24-2.55-3.18-4.58-7.22Zm.7-8.53a14.82,14.82,0,0,1,2.95,2.34l-1.15,1.28a14.54,14.54,0,0,0-2.82-2.43Zm1.83-2a16.68,16.68,0,0,1,3,2.36l-1.23,1.23a14.44,14.44,0,0,0-2.82-2.41Z"/><path d="M462.06,8.29a14.7,14.7,0,0,1,2.74,4.34l-2.27,1.1a16,16,0,0,0-2.45-4.28Zm13.65-.14a.4.4,0,0,1,.32.37c0,.23-.09.33-.46.49-1.19,4.37-2.6,7-4.86,9a18.87,18.87,0,0,1-6.47,3.9,6.55,6.55,0,0,0-1.36-2.05A19.88,19.88,0,0,0,467,18a13.58,13.58,0,0,0,5.87-8,24.36,24.36,0,0,0,.65-2.66ZM467.27,6.7a14.45,14.45,0,0,1,2.32,4.6l-2.32.91-.3-1a12.41,12.41,0,0,0-1.73-3.59Z"/><path d="M487.59,7.31a32.6,32.6,0,0,1,8.09,4.76L494,14.31a25.11,25.11,0,0,0-7.17-4.69v6.47c0,2.48.05,4.32.09,5.47h-2.78c.1-1.22.14-3.16.14-5.47V6.65c0-3.06,0-4.95-.11-5.51l2.75.16c.24,0,.35.1.35.24s-.09.25-.39.44c0,.49-.05,1.61-.05,4.67V8.71Z"/><path id="logo_svg" data-name="logo svg" class="cls-2" d="M454.37,82.87v-32H460v32Zm-40.25,0-7.86-11.15h-7V82.87h-5.62v-32h14.25a12.84,12.84,0,0,1,9.23,3.2,9.67,9.67,0,0,1,2.66,6.9v.09a9.59,9.59,0,0,1-7.59,9.68l8.65,12.11ZM414,61.39V61.3c0-3.43-2.45-5.3-6.61-5.3h-8.19V66.73h8.22C411.47,66.74,414,64.64,414,61.39Zm-64.74,22c-8.32,0-13.62-4.8-13.62-14.07V50.88h5.61V69.07c0,5.94,3.07,9.1,8.09,9.1s8.05-3,8.05-8.87V50.88H363V69c0,9.54-5.34,14.34-13.71,14.34Zm-47.61-.5L290.73,68.48l-5,5.12v9.28h-5.62v-32h5.62V67L301,50.9h6.95L294.58,64.65l13.93,18.23h-6.87Zm-59-7.72H227.5l-3.28,7.72h-5.77l14.07-32.21h5.22l14.07,32.19h-5.93ZM235.05,57.4l-5.5,12.77h11ZM185.84,82.87,178,71.73h-7V82.87h-5.63v-32h14.27a13,13,0,0,1,9.23,3.2,9.7,9.7,0,0,1,2.65,6.9v.09a9.61,9.61,0,0,1-7.59,9.69l8.63,12.11h-6.71Zm-.1-21.47v-.1c0-3.43-2.47-5.3-6.63-5.3H171V66.73h8.22c4,0,6.58-2.09,6.58-5.34ZM127.81,75.15H112.68l-3.3,7.72h-5.75L117.7,50.66h5.22L137,82.87h-5.93Zm-7.59-17.77-5.49,12.79h11ZM71.86,82.87,61,68.48,56,73.6v9.28H50.34v-32H56V67L71.19,50.9h6.94L64.79,64.65,78.73,82.88H71.86Z"/><path class="cls-1" d="M502.76,50.54v-6a5,5,0,0,0-5-5h-6"/><path class="cls-1" d="M502.76,81.38v6a5,5,0,0,1-5,5h-6"/><path d="M8.54,190.65c0-4,0-6.14-.14-7.61l5.27.36c.56,0,.87.2.87.51s-.26.56-1,1V207.6h8.72V175.37h-11c-2.49,0-6.9.09-9.09.19v-5c2.08.1,6.49.16,9.08.16H35.87c2.79,0,6.85-.05,9.08-.14v5c-2.39-.1-6.4-.21-9.09-.21H27.33v12.79H37c1.07,0,2.95,0,4.06-.1V193c-1.07,0-2.69-.1-4.06-.1H27.3v14.82h9.49c3.2,0,7.51-.09,10.1-.19v5c-2.69-.11-7-.21-10.1-.22H10.1c-2.79,0-7.36.1-10.1.19v-5c2.18.1,5.73.16,8.52.21Z"/><path d="M60.77,177.46a50.06,50.06,0,0,1-7,8.37,14.12,14.12,0,0,0-3.24-3.61c5.08-5,7.06-7.75,10.52-15.16l4.36,1.58c.46.15.76.51.76.76,0,.41-.25.56-1.42.76-.51,1.07-1,2-1.47,2.89h6.29c1.12,0,2.94,0,4.06-.05v3.1a37.29,37.29,0,0,0,6.3-9l3.91,1.58c.5.2.76.51.76.76,0,.41-.26.56-1.43.76-.61,1.07-1.16,2-1.67,2.89H97.78v4.52c-1.11-.06-3.25-.06-4.06-.06H87.57a30.66,30.66,0,0,1,3.09,4.93l-4.26,2.43c-.36-.71-1.12-2.18-2.23-4.32a22.52,22.52,0,0,0-1.93-3h-3.8A48.88,48.88,0,0,1,73,182.81a11.59,11.59,0,0,0-3.14-3.51c.81-.61,1.57-1.22,2.28-1.77-.5,0-1.57-.06-2.53-.06H67.42a38.86,38.86,0,0,1,2.74,4.32L66,184.17a38.64,38.64,0,0,0-3.9-6.7Zm17.71,5.91c.81.36,1,.51,1,.91s-.4.66-1.27.87c5.23,4,10.45,6,21.36,8.75a22.13,22.13,0,0,0-2.39,4.67A78.65,78.65,0,0,1,84.36,194v3.4c-1.06,0-2.69-.1-4.06-.1H69.63c-1.37,0-2.94,0-4,.09v-3.14A86.2,86.2,0,0,1,53,199.79a21.49,21.49,0,0,0-2.23-4.57C61.67,191.88,68,188.33,75,181.79Zm-13.94,31.3H59.47c.1-1.16.15-2.89.15-5.38v-5.58a38.41,38.41,0,0,0-.15-4.47c1.78.06,3.35.11,5.58.11H84.8c2.23,0,3.8,0,5.58-.09-.1.91-.16,2.89-.16,4.46v5.59a52.51,52.51,0,0,0,.14,5.28H85.3v-1.68H64.54Zm20.76-6.12v-4.82H64.54v4.82Zm-3.23-15.74a44.08,44.08,0,0,1-7.2-5,55.3,55.3,0,0,1-6.8,5Z"/><path d="M131.3,176.63c-1.52,2.23-3.15,4.31-4.83,6.39.87.66,1.73,1.37,2.54,2.08a76.68,76.68,0,0,0,4.22-6.44l4.11,2c.35.16.5.31.5.51s-.3.56-1,.76c-4.53,5.83-6.35,8.07-9,10.6,2.19-.2,4.42-.4,6.6-.7a25.44,25.44,0,0,0-1.92-3l3.35-2a41,41,0,0,1,5.67,9.25l-4.26,2c-.41-.91-.76-1.72-1.07-2.38-1.26.2-2.58.4-3.9.55v4h10.86c3.2,0,7.51-.09,10.1-.19v5.07c-2.69-.1-7-.21-10.1-.21H132.39v2.28c0,3.3.05,5.89.15,7.41h-5.13c.11-1.78.16-4.17.16-7.41V205h-11c-2.79,0-7.36.09-10.1.19v-5.07c2.64.1,7.2.21,10.1.21h11V197l-6.54.86c-.41.51-.66.71-.92.71a.78.78,0,0,1-.66-.66L118,193.06c1.22,0,2.53-.05,4-.1,1.37-1.37,2.69-2.74,4-4.21a66.31,66.31,0,0,0-7.25-6.35l2.49-3.14c.71.5,1.37,1,2,1.37.86-1.32,1.73-2.64,2.54-4H118c-2.79,0-7.36.1-10.1.19V171.9c2.64.11,7.21.21,10.1.22h9.59V170.7c0-1.43,0-2.54,0-3.25l5,.36c.56,0,.91.2.91.51s-.3.61-1,1v2.79h9.8c3.19,0,7.56-.09,10.15-.19v4.92c-2.74-.1-7-.21-10.15-.21ZM122,190.07a70.66,70.66,0,0,1-6.3,3.8c-4.21,2.17-4.52,2.33-5.13,2.73-.35.66-.61.86-.86.86s-.51-.25-.71-.66l-1.93-4a67,67,0,0,0,13.56-6.68Zm-10.85-11.74a30.34,30.34,0,0,1,7.35,5.54l-3.15,3.35a62.41,62.41,0,0,0-6.79-5.9ZM138.75,183a38.76,38.76,0,0,0,8.44-5.47l3.49,2.79a.88.88,0,0,1,.36.71c0,.26-.2.41-.56.41a3.11,3.11,0,0,1-.61,0c-1.27.76-1.73,1-4.92,3-.92.55-2,1.11-4,2.07Zm2.44,4.16a42.59,42.59,0,0,1,10.7,7l-2.7,4a53.54,53.54,0,0,0-10-7.52Z"/><path d="M403.32,190.53a46.31,46.31,0,0,1-2.8,5.48,18.44,18.44,0,0,0-3-4.88,75.14,75.14,0,0,0,9.16-23.74l4.87,1.88c.46.16.71.41.71.71s-.15.51-1.22.87a85.73,85.73,0,0,1-4,11.41l1.42.1c.51,0,.86.26.86.51s-.3.61-1,1c-.06,2.53-.11,5-.11,8.67v12.08c0,4.57.05,8.17.14,10.41h-5.17c.1-2.28.16-5.73.16-10.4Zm28.36,5.26a37.24,37.24,0,0,0,4.56,4.92,39,39,0,0,0,10.55,6.77,17.87,17.87,0,0,0-2.84,4.36,42,42,0,0,1-11.11-8.29,33.22,33.22,0,0,1-2.48-2.94v6.59c0,3.4,0,6,.14,7.46h-5.12c.1-1.78.15-4.21.16-7.46v-6.4c-3.2,4.67-6.7,7.76-13.31,12.07a17.15,17.15,0,0,0-2.73-4.17c7-4.35,10.66-7.55,14.48-12.92h-6c-2.13,0-5,0-7.11.15v-5c2,.06,4.87.11,7.1.11h7.57c0-2.74-.1-4.31-.2-5.48l5.17.31c.56.05.87.25.87.51s-.31.61-1,1c-.05.86-.05,1.88-.05,3.66h8.07c2,0,5.33,0,7.05-.1v5c-1.83-.1-5.13-.15-7.06-.16Zm-11.05-8.14h-5c.11-1.22.16-2.89.16-5.43V174.1a37.88,37.88,0,0,0-.15-4.47c1.78.06,3.35.06,5.64.06h19.64c-.11.91-.16,2.84-.16,4.47v7.35c0,2.39.05,4.12.15,5.28h-5v-1.73H420.63Zm15.28-7.13v-6.3H420.64v6.29Z"/><path d="M470.53,181.67c-1.06,0-2.69-.1-4.06-.11h-9.33c-1.37,0-3,0-4.06.1v-4.82c1.12,0,2.94.1,4.06.11h9.34c1.12,0,2.94,0,4.06-.1Zm-11.15,32.62h-4.82c.1-1.17.16-2.9.16-5.38v-6.6c0-1.58-.05-3.55-.15-4.47,1.17,0,2.23.11,3.7.11h7.16c1.47,0,2.54,0,3.65-.1-.1.91-.15,2.89-.15,4.46v6.3c0,2.38.05,4.11.15,5.28h-4.82v-1.62h-4.87Zm9-18.77c-.77-.05-2.08-.05-3.05-.05H455.28v-4.72c.76.05,2.08.05,3,.05h10Zm0-7c-.76-.05-2.08-.05-3-.06H455.33v-4.72c.76.06,2.08.06,3,.06h10.05Zm-3-13.91h-7l-3,0V170c.76,0,2.08.1,3.05.1h7a27.37,27.37,0,0,0,3-.1v4.72Zm-1,27.35h-4.87v6.24h4.87Zm10.46-10c0-4.06,0-6.2-.14-7.62l5.13.31c.55.06.86.26.86.56s-.26.56-1,1v22.38h4.92V176.32h-5.33c-2.13,0-5,0-7.11.09v-4.92c2,.1,4.87.16,7.1.16h13.15c2,0,5.33,0,7.05-.14v4.92c-1.83-.05-5.13-.1-7.06-.11h-3v12.33h5.38c1.12,0,2.95,0,4.06-.1v4.82h-9.44v15.28h3.91c2,0,5.33,0,7.11-.09v4.92c-1.88-.1-5.18-.16-7.1-.16H477.39c-2.13,0-5,.05-7.06.15v-4.92c1.22,0,2.84,0,4.47.1Z"/><path d="M526.63,186.71l-.55.55-8.64-8.64-8.62,8.62-.55-.55,8.62-8.61-8.55-8.57.55-.55,8.55,8.57L526,169l.54.55L518,178.08Zm-12.89-8.64a2.06,2.06,0,1,1-2.05-2.1,2.06,2.06,0,0,1,2.05,2.1Zm5.72,5.74a2.06,2.06,0,1,1-2.06-2.06h0a2.07,2.07,0,0,1,2.05,2.06Zm0-11.46a2.06,2.06,0,1,1-1.91-1.91A2.06,2.06,0,0,1,519.46,172.35Zm5.73,5.73a2.06,2.06,0,1,1-2.07-2.05h0a2.08,2.08,0,0,1,2.06,2.05Z"/><path class="cls-3" d="M198.34,132.58c-15.64,0-27,11.86-27,28.2,0,15.39,10.83,27,25.18,27,6.82,0,13.65-2.65,16.62-6.44l.33-.43h2.13l-.24,1.31c-2.75,15.47-11.78,24.7-24.14,24.7a24.91,24.91,0,0,1-7.37-1.18l-.6-.17a9.42,9.42,0,0,0-1.59-.16c-1.5,0-2.36.63-3,2.66h0l-1.45,4.1a4.07,4.07,0,0,0-.07,3.12,3.75,3.75,0,0,0,2.37,1.72,42.49,42.49,0,0,0,12.57,1.87c25.17,0,38.34-23.77,38.34-47.26C230.41,148.64,217.22,132.58,198.34,132.58ZM202,177.23c-10.57,0-17.41-6.6-17.41-16.81,0-9.4,5.6-15.72,13.92-15.72,10,0,18,11.64,18,21.27C216.48,172.49,210.37,177.23,202,177.23Z"/><path class="cls-3" d="M272.79,163.59a22.32,22.32,0,0,0-8.68,1.82l-.23.11h-2l.4-1.43a18.78,18.78,0,0,0,.56-3.73l1.43-15.18h27.57c2.73,0,3.94-1.18,3.94-3.82V138c0-2.7-1.25-3.95-3.94-3.95H256.62c-2.54,0-3.87,1.24-4.07,3.79L249.41,172a4.24,4.24,0,0,0,3,4.89l1,.34a8.24,8.24,0,0,0,6-.23,26.34,26.34,0,0,1,10.27-2.24c10.74,0,18.25,6.57,18.25,16,0,10.21-8.85,15.72-17.17,15.72-5.27,0-10.16-1.82-14.93-5.55a5,5,0,0,0-2.71-1.07,3.09,3.09,0,0,0-.43,0,3.45,3.45,0,0,0-2.11,1.72l-2.45,3.68c-1.51,2-1.32,4,.5,5.31A36.22,36.22,0,0,0,272,218.88c17.25,0,29.77-11.91,29.77-28.32C301.84,174.69,289.89,163.59,272.79,163.59Z"/><path class="cls-3" d="M345.54,157.81a15.6,15.6,0,0,0-31.19,0c0,8.45,6.85,15.08,15.6,15.08A15.36,15.36,0,0,0,345.54,157.81Zm-23.48,0a7.94,7.94,0,1,1,8,7.88H330a7.8,7.8,0,0,1-7.89-7.71v-.17Z"/><path class="cls-3" d="M369.74,185.69a15.37,15.37,0,0,0-15.6,15.09c0,8.4,6.85,15,15.6,15s15.59-6.72,15.59-15A15.36,15.36,0,0,0,369.74,185.69Zm0,22.87a7.8,7.8,0,0,1-7.89-7.71v-.18a7.94,7.94,0,1,1,8,7.89Z"/><path class="cls-3" d="M379.52,144.86c-.27-.57-1.21-.91-2.5-.91h-2a4.86,4.86,0,0,0-4.34,2.13h0l-49.84,65c-.81,1-1.12,2-.84,2.54s1.17.89,2.41.89h2.15a4.86,4.86,0,0,0,4.34-2.13l49.84-65C379.49,146.37,379.8,145.43,379.52,144.86Z"/></g><g id="レイヤー_1のコピー-2" data-name="レイヤー 1のコピー"><path d="M408.42,103.08v7a5.7,5.7,0,0,0,.25,2.45,2.84,2.84,0,0,0,4.91-.12,7.18,7.18,0,0,0,.24-2.21v-7.12h1.84v7.12a7.92,7.92,0,0,1-.37,3.07c-.61,1.47-2.21,2.21-4.17,2.21a4.38,4.38,0,0,1-4.17-2.21c-.37-.74-.37-1.23-.37-3.07v-7.12Z"/><path d="M421.55,115.23V103.08h1.85v12.15Z"/><path d="M441.44,109.71h2v1.6h-2V115c0,1.47-.49,1.72-2.95,1.72h-.12a9.82,9.82,0,0,0-.24-1.72c.49,0,.73.12,1,.12.73,0,.73,0,.73-.61v-3.07h-5.52v-1.35c-.49.24-1.1.49-1.6.73v1.36a43.73,43.73,0,0,0,.13,4.66h-1.72c.12-1,.12-2.58.12-4.66v-.74a6.92,6.92,0,0,1-1.59.61c-.13.25-.25.25-.37.25s-.12-.12-.25-.25l-.61-1.59a28.23,28.23,0,0,0,2.94-1V106.4h-1.1c-.25,1-.49,1.84-.74,2.82a8.45,8.45,0,0,0-1.35-.86,25.43,25.43,0,0,0,1.11-5.4l1.59.37a.26.26,0,0,1,.25.24c0,.13,0,.13-.37.25,0,.37-.12.73-.12,1.1h.73a16.3,16.3,0,0,0-.12-3.07L433,102a.46.46,0,0,1,.25.12c0,.12-.13.12-.25.25v2.57h1.84v1.48H433V109l1.84-.73.37,1.35a.46.46,0,0,1-.37.12h5.28v-1.6h-5.52v-1.59h3.56v-1.6h-3.07v-1.47h3.07v-1.84l1.59.12a.46.46,0,0,1,.25.12,1.53,1.53,0,0,0-.25.37v1.23h3.19v1.47h-3.19v1.6h3.81v1.59h-2v1.6Zm-4.91,1.6a9.6,9.6,0,0,1,2.33,2.21l-1.23,1.1a11.89,11.89,0,0,0-2.08-2.21Z"/><path d="M453.22,106h-5.76v-1.48h5.76Zm-3.92,10.31h-1.48v-5.16h4.91v5h-1.47v-.49h-2Zm2.21-12.52H448v-1.47h4.54v1.47Zm1,4.42H448v-1.48h4.54Zm0,2.21H448V109h4.54Zm-1.23,2h-2v2h2Zm7-3.44h3.8v1.48h-3.8v6.13h-1.6v-6.13H453v-1.6h3.68v-3.07h-1.1c-.49,1-1,1.84-1.48,2.83a4.79,4.79,0,0,0-1.35-.86,16.8,16.8,0,0,0,2.58-6l1.47.37c.25.12.37.12.37.25s0,.12-.37.24a10.17,10.17,0,0,1-.61,1.84h5.28v1.47h-3.07V109Z"/><path d="M472.25,113.27v3.31h-1.59v-3.43c-1.36.49-3.2.86-4.67,1.22-.12.25-.24.25-.24.25s-.13,0-.25-.25L465,112.9a11.21,11.21,0,0,1,1.84-.24v-8.72H465v-1.59h9.7v1.59h-2.46v9.33Zm-3.93-9.33v1.72h2.34v-1.72Zm0,3.07v1.72h2.34V107Zm0,5.28a12.51,12.51,0,0,0,2.34-.62V110.2h-2.34Zm11.79,2.94a11.1,11.1,0,0,0-1.11,1.23,13.8,13.8,0,0,1-2.7-2.58,12.44,12.44,0,0,1-2.94,2.7c-.37-.61-.5-.85-.86-1.35a12.44,12.44,0,0,0,2.94-2.7c-.12-.12-.12-.24-.24-.36a15.54,15.54,0,0,1-1.6-5.77h-.86v-1.6h5.53l.24-.37,1,1a.39.39,0,0,1,.13.25.27.27,0,0,1-.25.24l-.12.13a15.09,15.09,0,0,1-2.09,6.38A10.71,10.71,0,0,0,480.11,115.23Zm-5-8.83a15.74,15.74,0,0,0,1.23,4.66,15.37,15.37,0,0,0,1.35-4.66Z"/><path d="M485,110.32a6,6,0,0,1-1.48,1.6,6.83,6.83,0,0,0-.73-1.35,14.22,14.22,0,0,0,2.08-2.58,19.74,19.74,0,0,0,1.6-2.94l1.35.61c.25.12.25.12.25.24s0,.13-.5.25a4.27,4.27,0,0,1-.36.74,7.43,7.43,0,0,0-.74,1.35h.25a.42.42,0,0,1,.24.12c0,.12-.12.12-.24.25v7.73h-1.85c0-.74.13-1.84.13-3.32Zm2.45-7.85c.25.12.25.12.25.24s0,.13-.49.25a13.5,13.5,0,0,1-3.69,3.31,3.61,3.61,0,0,0-.86-1.35,10.62,10.62,0,0,0,3.44-3.19Zm2.83,9.94a10.85,10.85,0,0,1,2.08,2l-1.23,1.11a8,8,0,0,0-2-2.09l.86-.86H487.1v-1.47h7v-.86h-6.63v-1.47h9.95v1.47h-1.85v.86h2.21v1.47h-2.21v2.34c0,1.47-.49,1.71-2.94,1.71h-.13a4.55,4.55,0,0,0-.24-1.71c.49,0,.74.12,1,.12.74,0,.74,0,.74-.62v-1.84H490.3Zm.24-4.66v.61H489v-5.89h7.11v5.77h-1.59v-.49Zm4-4h-4.17v.73h4.17Zm0,2h-4.17v.74h4.17Z"/></g></g></g></svg>