<svg xmlns="http://www.w3.org/2000/svg" width="150" height="110" viewBox="0 0 150 110"><defs><style>.cls-1,.cls-2{fill:none;}.cls-2{stroke:#000;stroke-linecap:round;stroke-linejoin:round;stroke-width:2px;}</style></defs><title>reason3</title><g id="レイヤー_2" data-name="レイヤー 2"><g id="レイヤー_6" data-name="レイヤー 6"><rect class="cls-1" width="150" height="110"/></g><g id="レイヤー_1のコピー" data-name="レイヤー 1のコピー"><path class="cls-2" d="M93.33,31c.42,6.68-1.23,9.75-4.33,15.82-2.43,4.77-3,10.73-2.9,15.62"/><path class="cls-2" d="M78.52,24.92s-4.15-2.58-5.89-.64c-2.44,2.73-2.29,6.19,6,7.81s7.26.84,8.75-.13c.69-.45,6.52-4.67,8.62-5.46"/><path class="cls-2" d="M110.16,76.59c1.92,6.86,2.69,11.33-4.4,14.61-1.9.88-14.76,7.8-35.18,7.69-12.67-.06-39.91-.56-39.91-.56"/><path class="cls-2" d="M72.86,20.9c-3.26-.75-1.72-2.34-1.72-2.34.16-2.49,9.67-16,17.49-11.15,6.8,4.2,15.34,8.83,19.42,13.16,1.23,1.3-.12,18.4.15,24,.5,10.33.83,18.62,1.8,27.79"/><path class="cls-2" d="M88.64,70.57s-9.37-10.81-18.41-11C59.94,59.32,50.9,70.12,50.9,70.12"/><path class="cls-2" d="M50.85,63.7a20,20,0,0,0-20.72-4.49"/><path class="cls-2" d="M65.36,39.81c2.93,13.13,10.91,9.56,10.91,9.56"/><path class="cls-2" d="M40.24,49s5,.83,8.63-4.53a14.94,14.94,0,0,0,1.27-2.3,22.81,22.81,0,0,0,1.41-4.34c.35,9.48,6.3,12.88,10.45,8.89"/><path class="cls-2" d="M58.83,92S74,92.33,75,92"/><path class="cls-2" d="M48.5,92s4,.33,5,0"/></g></g></svg>
