<svg xmlns="http://www.w3.org/2000/svg" width="150" height="110" viewBox="0 0 150 110"><defs><style>.cls-1,.cls-2{fill:none;}.cls-2{stroke:#000;stroke-linecap:round;stroke-linejoin:round;stroke-width:2px;}</style></defs><title>reason2</title><g id="レイヤー_2" data-name="レイヤー 2"><g id="レイヤー_6" data-name="レイヤー 6"><rect class="cls-1" width="150" height="110"/></g><g id="レイヤー_1のコピー" data-name="レイヤー 1のコピー"><path class="cls-2" d="M74,108.33s21.9-21.52,33-41"/><path class="cls-2" d="M76.37,21.5c9.58-8,18.62-9.49,25.7-7,8.4,2.92,14.05,11.42,14.6,21.19"/><path class="cls-2" d="M47.33,78C37.87,65,29.5,51,28.85,40.15,27.8,22.55,50-1,72.85,24.18"/><path class="cls-2" d="M72.46,105.83A119.76,119.76,0,0,1,60,92.93"/><path class="cls-2" d="M113,71.68c0-9.7-4.76-16.32-10.25-16.32,3.73,0,6.43-1.49,8.22-6.68"/><path class="cls-2" d="M113,39.05c0,9.59,5.35,16.31,10.25,16.31-3.35,0-6.21,2.82-8.13,7.86"/><path class="cls-2" d="M52.12,99.77c0-7.73-3.79-13-8.17-13,3,0,4.61-1,6-5.15"/><path class="cls-2" d="M52.12,73.76c0,7.65,4.26,13,8.17,13-2.67,0-5.21,2.4-6.74,6.42"/><path class="cls-2" d="M93.33,75.33c1.24-1.87,1.32-1.54,2.34-3.33"/><path class="cls-2" d="M77.33,94s10-9.67,13.67-15.33"/><path class="cls-2" d="M75.33,32c7-8.33,14.83-10.88,20.34-11"/><path class="cls-2" d="M37.37,41.33c-1-9.87,6.14-21.52,17-21"/><path class="cls-2" d="M100.67,22a6.5,6.5,0,0,1,3,1.67"/></g></g></svg>
