<svg xmlns="http://www.w3.org/2000/svg" width="338" height="194" viewBox="0 0 338 194"><defs><style>.cls-1{fill:#f4dcdc;}.cls-2{fill:#d1d1d1;}.cls-3{fill:#fff;}.cls-4,.cls-5{fill:none;stroke-width:2px;}.cls-4{stroke:#000;stroke-linecap:round;stroke-linejoin:round;}.cls-5{stroke:#17ba8f;stroke-miterlimit:10;}</style></defs><title>kadai1</title><g id="レイヤー_2" data-name="レイヤー 2"><g id="レイヤー_1のコピー" data-name="レイヤー 1のコピー"><path class="cls-2" d="M149,88.1s-3.64-8.19-3.64-10.7.45-12.75,1.59-13.89,7.29-9.11,10-7.74,4.55.91,5.69-.23,5-.91,5.92,0,3.19.46,4.1,0c0,0,7.74,0,9.11,3s3.64,5.69,3.87,6.38.68,19.58.23,21.18-5.24,1.59-5.24,1.59-2-9.34-6.75-9.49c-3.27,2.89-8.28,7.44-16.25,8.81C155.65,87.31,149,88.1,149,88.1Z"/><path class="cls-3" d="M193.56,76.94a8.13,8.13,0,0,0-6-4.84c-4.84-1.16-9-2.16-8.34-4.33s3.17-1.5,5.84-2.67,1.5-1.16.66-3.83-5.16-6.83-7-5.17-6.66,2.17-4.83-.16,6.25-7.57,9.46-6.29,3.37,4.12,5.71,6.29,12.16,9.33,12.16,9.33,0,5.5-2.16,8S195.22,79.94,193.56,76.94Z"/><path class="cls-3" d="M135.14,77.1a8.12,8.12,0,0,1,6-4.83c4.83-1.17,9.42-4.33,8.75-6.5s-3.58.67-6.25-.5-1.5-1.17-.67-3.83,5.17-6.84,7-5.17,6.67,2.17,4.84-.17-6.25-7.56-9.46-6.28-3.38,4.12-5.71,6.28-12.17,9.34-12.17,9.34,0,5.5,2.17,8S133.47,80.1,135.14,77.1Z"/><path class="cls-3" d="M151.56,86.77s12.66-2.33,15.33-4.67,5.17-6.29,7.67-4.66c4.33,2.83,7.5,11.16,7.5,11.16l-30.67.17Z"/><path class="cls-2" d="M208.79,90.1s-17.23,7.34-44.57,7.34S122.89,92,122.89,92c-2.44,0-4.44,1-4.44,3.44v61.9a4.45,4.45,0,0,0,4.44,4.43h5.6l-6.69,7h-.58v6h25.32l-3.65,2.35-1.67,0-.2,1.23-.27.17H141l-1.1,6.6h46.33l-1.4-6.6h2.51l-5.79-3.73h23.35v-5.6H206l-7-7.4h9.79a4.44,4.44,0,0,0,4.43-4.43V94.54A4.45,4.45,0,0,0,208.79,90.1Z"/><path class="cls-4" d="M134.59,77.08c-4.5-2.25-7-7.46-8.09-10.56a1.78,1.78,0,0,0-2.86-.84C115,75.3,91.69,90.74,90.57,95c-1.32,5,.62,9.6,5.93,11.85s6.53,2,11.25,6.75"/><path class="cls-4" d="M216.92,116.3c2-1.66,12.33-10.4,20.61-13.08,5.24-1.69,2.31-7.28,1.32-9.6-.89-2.06-28-20.57-35.58-29.53-.42-.5-1.25-.12-1.37.51-.54,3-2.35,10.06-7.73,13.14"/><path class="cls-4" d="M193.17,80.72S202,85,202,86"/><path class="cls-4" d="M134.26,81.3S126.9,85,127,86.55"/><path class="cls-4" d="M129.65,63.6a66.36,66.36,0,0,0,7.5-4.35c2.4-1.8,6.15-9.47,8.1-8.1s10.2,2.85,7.5,6.9c-.68,1-4.41-1.71-6.9-.3-2.79,1.59-4.69,6.09-3.83,7.44,1.63,2.55,8.48-3.38,8.48-.24,0,7.5-12.84,10.1-12.84,10.1"/><path class="cls-4" d="M197.15,62c1.76,2.08-3.9-1.65-6.15-4.35s-3.9-8.7-7.65-8c-1.44.29-4.2.25-5.7,2.1-1.86,2.3-3.64,4.11-2.7,5.25,2,2.4,4.64-2.19,6.3-1.2a15.41,15.41,0,0,1,3.28,3.46c1.26,1.72,2.44,4.21,2.27,5.24-.33,2-8.73,0-8.4,2.25s2,3.79,5,4.12c2.71.3,7.94,3.48,7.94,3.48"/><path class="cls-4" d="M184.85,86.25c1.16-2.36,1.47-3.67,2-7.93"/><path class="cls-4" d="M142.89,74.77a12.5,12.5,0,0,0,2.66,11.48"/><path class="cls-4" d="M160.1,54.15c-7-1.74-5.14-9-3-9.82S160.5,47,158.63,48c-3.08,1.72-7.77-1.29-8.88-9.16"/><path class="cls-4" d="M165.5,46.36s-5.8,4.14,0,7.79"/><path class="cls-4" d="M171.25,47.54s-3.83.59-1.49,6.45"/><path class="cls-4" d="M180.89,86.1s-2.27-9-7.67-9c-4,5.67-10.58,8.42-19.85,8.42"/><path class="cls-4" d="M121.55,89.43l88.42.06c2.48,0,3.48,4.47,3.48,4.47l.08,63s-1,3-3,3.31"/><path class="cls-4" d="M151.64,162.22,117.39,162c.19.8-4.23-1.06-4.23-3.42,0-3.48.25-65,.25-65s.11-4.17,3-4.17"/><line class="cls-4" x1="206.75" y1="161.48" x2="175.47" y2="161.48"/><path class="cls-4" d="M121.85,95.36c-3.77-.34,19.86,6,41,6,9.49,0,28-1.16,28-1.16"/><path class="cls-4" d="M195.65,98.55s10.06-2.39,10.6-3.1"/><polyline class="cls-4" points="159.65 132.1 172.16 132.1 172.25 178.11"/><line class="cls-4" x1="154.62" y1="178.07" x2="154.62" y2="132.1"/><path class="cls-4" d="M149.75,174.38l-4.82-.24-3.6,6.83v3.94a.66.66,0,0,0,.65.64h44a.65.65,0,0,0,.65-.65v-4.3l-1.19-1.79-.84-1.26-2.45-3.66h-5.72"/><path class="cls-4" d="M139,174.8H122.67a1.32,1.32,0,0,1-1.32-1.34l.06-4.29,7.89-3.72"/><path class="cls-4" d="M197.75,164.85l8.25,4.32v3.74a1.56,1.56,0,0,1-1.56,1.56H188.71"/><line class="cls-4" x1="132.03" y1="168.92" x2="149.9" y2="168.92"/><line class="cls-4" x1="176.96" y1="168.92" x2="194.83" y2="168.92"/><path class="cls-5" d="M162.9,28.53c-4,3.64,8.81,5.27,8.59.78-.21-4-12.89,1.37-12.14-3,.41-2.37,5.12-1.43,5,.72-.18,2.81-9.82,3.78-10.43-2.6s9.59-5.37,10.36-4.63c1,.91,1.77,3.65-2.45,4.17-7.85,1-3.63-20.12,5.86-11.33,8.86,8.2-14,8.59-15,4-.78-3.48,7.41-11.94,13.64-6.77,4.7,3.91-9.08,9-9.75,2.28-1.09-10.88,17.65-7.16,18.27,0,.4,4.73-1.14,8-4.5,7-2-.63-3.88-1-3.41-3.26,1.23-5.92,16.22,3.19,9.41,7.88s-13.48.3-8.8-2.86c2.32-1.56,9.82,7.68-2.11,7.29"/><path class="cls-5" d="M114.13,41.2c.31-6,7.18-.88,3.88,2.19-1.69,1.57-9.42-6.53-5.74-10.3S120,35.22,119.86,36c-.14,1-1.46,2.9-3.71,1C112,33.4,127,24.24,125.85,34c-1,9.06-11.69-2.69-9.33-5.68,1.8-2.29,10.78-2.56,10.4,3.49-.28,4.57-9.72.11-5.85-3.88,6.25-6.43,12.48,5.38,8.32,9.57-2.75,2.76-5.49,3.73-6.37,1.4-.53-1.4-1.15-2.56.47-3.54,4.23-2.55,5.41,10.21-.6,9.17s-6.32-6.9-2.23-6.15"/><path class="cls-5" d="M216.85,42.28c2.91,3,3.58-7.2.21-6.83-3,.33,1.59,10.13-1.73,9.72-1.8-.22-1.3-4,.32-4,2.13,0,3.28,7.6-1.5,8.36s-4.46-7.37-3.94-8,2.67-1.55,3.25,1.77c1.07,6.16-15,3.71-8.8-4.17,5.8-7.35,7.09,10.7,3.7,11.7-2.59.76-9.33-5.36-5.7-10.5,2.74-3.89,7.19,6.8,2.14,7.61-8.15,1.32-6.17-13.67-.8-14.45,3.55-.52,6.1.57,5.45,3.27-.39,1.62-.57,3.11-2.3,2.83-4.53-.72,1.69-13,5.52-7.77s.82,10.65-1.77,7.08c-1.28-1.77,5.36-8.09,5.59,1.36"/><line class="cls-4" x1="109.1" y1="155.4" x2="53.1" y2="155.4"/><line class="cls-4" x1="48.15" y1="155.4" x2="44.1" y2="155.4"/><line class="cls-4" x1="219.35" y1="155.4" x2="273.25" y2="155.4"/><line class="cls-4" x1="280.3" y1="155.4" x2="284.35" y2="155.4"/></g></g></svg>
