<svg xmlns="http://www.w3.org/2000/svg" width="338" height="194" viewBox="0 0 338 194"><defs><style>.cls-1{fill:#f4dcdc;}.cls-2{fill:#fff;}.cls-3{fill:#d1d1d1;}.cls-4,.cls-5{fill:none;stroke-linecap:round;stroke-linejoin:round;stroke-width:2px;}.cls-4{stroke:#000;}.cls-5{stroke:#17ba8f;}</style></defs><title>kadai2</title><g id="レイヤー_2" data-name="レイヤー 2"><g id="レイヤー_1のコピー" data-name="レイヤー 1のコピー"><path class="cls-2" d="M97,176.18s6.66-.08,6.33-2c-.12-.68.41-2.48-.9-2.86-2.25-.06-10.56-.18-10.56-.18S89.52,175.59,97,176.18Z"/><path class="cls-2" d="M65.61,176.2s6.66-.07,6.33-2c-.12-.68.42-2.48-.9-2.86-2.25-.06-10-.2-10-.2S58.12,175.61,65.61,176.2Z"/><path class="cls-2" d="M188.88,175.52s6.66-.07,6.32-2c-.12-.68.42-2.48-.89-2.86-2.25-.06-10-.2-10-.2S181.38,174.93,188.88,175.52Z"/><path class="cls-2" d="M243.65,175.28s6.66-.08,6.32-2c-.11-.68.42-2.48-.89-2.86-2.25-.06-10-.2-10-.2S236.16,174.69,243.65,175.28Z"/><path class="cls-2" d="M275.13,175.52s6.66-.07,6.32-2c-.12-.68.42-2.48-.89-2.86-2.25-.06-10-.2-10-.2S267.63,174.93,275.13,175.52Z"/><path class="cls-2" d="M131.5,170.65s3.64,4.87,5.38,4,2.43-8.75,1.12-9.13c-2.25-.06-8.5-1.25-8.5-1.25s-8,8.76-6,10.13C126.5,176.4,129.61,170.5,131.5,170.65Z"/><path class="cls-2" d="M173.59,116.1s-6.76,5.82-8.67,6.17c-4.5.83-5.2,3.45-3.83,3.5,2.2-.47,22.5-1,22.5-1a28.3,28.3,0,0,1-5.34-3.5C175.59,118.83,175.46,115.8,173.59,116.1Z"/><path class="cls-2" d="M85.86,118.49s-7.7,3.26-9.61,3.61c-4.5.84-6.53,3.45-5.16,3.5,2.66-.16,21.16-.33,21.16-.33a14.79,14.79,0,0,0-2.5-4.67C88.92,119.6,87.73,118.18,85.86,118.49Z"/><path class="cls-2" d="M72.75,122.77s12-2.57,13.11-4.28,6.39,5,6.39,6.78S70,126,70,126,70.75,123.52,72.75,122.77Z"/><path class="cls-2" d="M73.25,122.52s12-2.57,13.11-4.28,6.39,5,6.39,6.78-22.25.75-22.25.75S71.25,123.27,73.25,122.52Z"/><path class="cls-2" d="M267.75,122.6s-10.36-2.28-11.5-4-5.5,4.59-5.5,6.34,20.17.33,20.17.33A7.12,7.12,0,0,0,267.75,122.6Z"/><path class="cls-3" d="M72.77,124.9S70.6,120,70.6,118.52s-.23-5.45,1.22-7.57c.46-.66,5.15-3.41,7.59-4.23s7-.51,7.58-.79c0,0,4.1.25,4.91,2s2.68,4.58,3.12,6.81a34.78,34.78,0,0,1-.28,8.93c-.27.94-3.12.94-3.12.94s-1.22-5.56-4-5.65c-1.95,1.72-4.93,4.43-9.68,5.25C76.72,124.42,72.77,124.9,72.77,124.9Z"/><path class="cls-3" d="M162.92,123a20.45,20.45,0,0,1-1.22-4.71c0-1.47-.22-5.37,1.21-7.46.45-.66,5.07-3.37,7.48-4.18s6.45.6,7,.33c0,0,4.42,1.06,5.5,2.64,1.21,1.76,3.08,2.64,3.52,4.84s-.61,8-.88,8.92-3.08.93-3.08.93-6.27-3.25-7.1-7.91c-1.92,1.7-4.28,5.73-9,6.53A21.09,21.09,0,0,1,162.92,123Z"/><path class="cls-3" d="M250,122.27a20.36,20.36,0,0,1-1.21-4.68c0-1.46-.22-5.34,1.2-7.42.45-.66,5-3.35,7.44-4.16s6.41.59,6.94.33c0,0,4.39,1,5.47,2.62,1.2,1.75,3.06,2.63,3.5,4.82a31.68,31.68,0,0,1-.12,8.35c-.26.93-3.22,1.13-3.22,1.13s-11.87-1.28-12.69-5.91c-1.91,1.69-2.65,4.12-7.31,4.92Z"/><path class="cls-3" d="M109.59,127.6a170.5,170.5,0,0,1-27.67,3.17,76.52,76.52,0,0,1-23.67-3.5c-1.5,0-3.58.9-3.58,2.4V168.4a2.74,2.74,0,0,0,2.74,2.73l15.82.17-.73,3.3-5.83,1.59L60.84,174l-4.68,1.43h-.35v3.7H71.42l-2.25,1.45h-1l-.12.75-.17.11H68l-.68,4.07H95.89L95,181.45l-3.28-2.93,15.65.63,0-4.71-4.08-.25-6.17,2.25-4.92-1.75L91,171.26l18.8-.13a2.74,2.74,0,0,0,2.73-2.73l-.12-38.13A2.78,2.78,0,0,0,109.59,127.6Z"/><path class="cls-3" d="M287.93,127.6a170.5,170.5,0,0,1-27.67,3.17,76.49,76.49,0,0,1-23.66-3.5c-1.51,0-3.58.9-3.58,2.4V168.4a2.74,2.74,0,0,0,2.73,2.73l15.83.17-.73,3.3L245,176.19,239.18,174l-4.67,1.43h-.35v3.7h15.61l-2.25,1.45h-1l-.13.75-.16.11h.14l-.67,4.07h28.57l-.87-4.07-3.27-2.93,15.65.63v-4.71l-4.08-.25-6.17,2.25-4.91-1.75-1.24-3.43,18.79-.13a2.74,2.74,0,0,0,2.74-2.73l-.13-38.13A2.77,2.77,0,0,0,287.93,127.6Z"/><path class="cls-3" d="M200.92,127.6a170.5,170.5,0,0,1-27.67,3.17,87.29,87.29,0,0,1-24.66-3.5c-1.51,0-3.59.9-3.59,2.4V168.4a2.75,2.75,0,0,0,2.74,2.73l4.68.14-.25,2.75-4.67,1.43h-.36v3.7h15.61l-2.24,1.45h-1l-.13.75-.17.11h.15l-.68,4.07h28.58l-.87-4.07-3.27-2.93,15.65.63v-4.71l-4.08-.25-6.17,2.25-4.91-1.75-1.25-3.43,18.8-.13a2.74,2.74,0,0,0,2.74-2.73l-.13-38.13A2.78,2.78,0,0,0,200.92,127.6Z"/><line class="cls-4" x1="126.56" y1="161.7" x2="122.06" y2="161.7"/><line class="cls-4" x1="41.06" y1="161.7" x2="22.51" y2="161.7"/><line class="cls-4" x1="318.13" y1="161.7" x2="299.58" y2="161.7"/><line class="cls-4" x1="212.51" y1="161.7" x2="220.38" y2="161.7"/><path class="cls-4" d="M91,105.9s4.93,5.11,4.65,10.65a13.85,13.85,0,0,1-1.35,6"/><path class="cls-4" d="M67.54,118.17s-1.24,1.24,1.27,4.68"/><path class="cls-4" d="M73.61,122.25c5.85,0,9.3-1.5,12.25-3.76,2.75.16,4.85,3.76,4.85,3.76"/><path class="cls-4" d="M57.11,125.81l54.36,0c1.56,0,2.19,2.82,2.19,2.82l0,39.72s-.62,1.88-1.88,2.09"/><path class="cls-4" d="M73.23,171.3l-20.17-.13c.12.51-2.67-.66-2.67-2.16,0-2.19.16-40.56.16-40.56s.07-2.64,1.89-2.64"/><line class="cls-4" x1="107.51" y1="171.26" x2="91.01" y2="171.26"/><path class="cls-4" d="M57.26,129.75c-2.37-.21,11.14,3.56,24.5,3.56,6,0,17.65-.73,17.65-.73"/><path class="cls-4" d="M103.61,131.55s4.61-.67,5-1.12"/><polyline class="cls-4" points="79.91 152.73 87.61 152.73 87.67 181.76"/><line class="cls-4" x1="76.54" y1="181.73" x2="76.54" y2="152.73"/><path class="cls-4" d="M73.23,179.41l-2.79-.16-2.28,4.31v2.49a.41.41,0,0,0,.41.4H96.34a.41.41,0,0,0,.41-.41v-2.71L96,182.2l-.53-.79-1.54-2.32H90.78"/><path class="cls-4" d="M65.92,179.67H56.39a.83.83,0,0,1-.83-.84l0-2.71,2.56-1.52"/><path class="cls-4" d="M107.32,174.75l1.64,1.37v2.36a1,1,0,0,1-1,1H98.05"/><path class="cls-4" d="M67.46,117.3s-.75-6.9,3.15-9.45,9.75-4.95,13.2-4.2"/><path class="cls-4" d="M115.91,163.8c1.68-2.1,3.93-4.15,3.9-5.7-.11-4.95-2.7-12.45-2.7-12.45"/><path class="cls-4" d="M92.51,174.15s.22,2.18,2.55.38c.64-.5.77,1.6,2,1.65,1.65.07,2-1.41,2.77-1.65,1.73,2.4,3.38-1,3.38-1"/><path class="cls-4" d="M47.36,162.83c-1.68-2.11-2.89-3.18-2.85-4.73.11-4.95,2.7-11.25,2.7-11.25"/><path class="cls-4" d="M71.62,174.15s-.22,2.18-2.55.38c-.64-.5-.77,1.6-1.95,1.65-1.65.07-2-1.41-2.77-1.65-1.73,2.4-3.38-1-3.38-1"/><path class="cls-4" d="M250.19,105.9s-4.8,5.1-4.65,10.65,1.11,5.76,1.84,7.26"/><path class="cls-4" d="M273.66,118.17s1.66,1.24-.85,4.68"/><path class="cls-4" d="M268.91,122.55c-5.85,0-13.47-4.5-13.47-4.5l-4.23,4.84"/><path class="cls-4" d="M234.41,125.81l55.26,0c1.56,0,2.19,2.82,2.19,2.82l.05,39.72s-.62,1.88-1.88,2.09"/><path class="cls-4" d="M251.43,171.3l-20.17-.13c.12.51-2.67-.66-2.67-2.16,0-2.19.16-40.56.16-40.56s.07-2.64,1.89-2.64"/><line class="cls-4" x1="286.76" y1="171.26" x2="269.21" y2="171.26"/><path class="cls-4" d="M235.46,129.75c-2.37-.21,11.14,3.56,24.5,3.56,6,0,17.65-.73,17.65-.73"/><path class="cls-4" d="M281.81,131.55s5.17-1.49,5.51-1.94"/><polyline class="cls-4" points="258.41 152.73 265.81 152.73 265.87 181.76"/><line class="cls-4" x1="254.74" y1="181.73" x2="254.74" y2="152.73"/><path class="cls-4" d="M250.91,179.41l-2.27-.16-2.28,4.31v2.49a.41.41,0,0,0,.41.4h27.76A.41.41,0,0,0,275,186v-2.71l-.75-1.13-.53-.79-1.54-2.32h-3.82"/><path class="cls-4" d="M244.12,179.67h-9.53a.83.83,0,0,1-.83-.84l0-2.71,2.56-1.52"/><path class="cls-4" d="M285.52,174.75l1.64,1.37v2.36a1,1,0,0,1-1,1h-9.93"/><path class="cls-4" d="M273.74,117.3s.75-6.9-3.15-9.45c-7.68-7.2-16.95-3.15-16.95-3.15"/><path class="cls-4" d="M294.11,163.8c1.68-2.1,3.93-4.15,3.9-5.7-.11-4.95-3.9-12.15-3.9-12.15"/><path class="cls-4" d="M270.71,174.15s.22,2.18,2.55.38c.64-.5.77,1.6,1.95,1.65,1.65.07,2-1.41,2.77-1.65,1.73,2.4,3.38-1,3.38-1"/><path class="cls-4" d="M226.42,163.8c-1.68-2.1-3.75-4.15-3.71-5.7.11-4.95,3.6-13,3.6-13"/><path class="cls-4" d="M249.82,174.15s-.22,2.18-2.55.38c-.64-.5-.77,1.6-2,1.65-1.65.07-2-1.41-2.77-1.65-1.73,2.4-3.38-1-3.38-1"/><path class="cls-4" d="M175,104.55c6-.9,11.65,6.17,11.68,12a10.79,10.79,0,0,1-1.48,6"/><path class="cls-4" d="M158.57,118.17a7.17,7.17,0,0,0,1.14,4.68"/><path class="cls-4" d="M181,122.25c-4.8,0-6-3.9-7.2-6.9.3,4.5-9.9,6.9-9.9,6.9"/><path class="cls-4" d="M147.41,125.81l55.09,0c1.57,0,2.19,2.82,2.19,2.82l.06,39.72s-.63,1.88-1.88,2.09"/><path class="cls-4" d="M143.47,125.81c-1.82,0-1.89,2.64-1.89,2.64s-.29,38.24-.29,40.44c0,1.49,2.79,2.66,2.67,2.15h20.17"/><line class="cls-4" x1="198.78" y1="171.26" x2="182.58" y2="171.26"/><path class="cls-4" d="M147.93,130c-2.37-.21,11.5,3.33,24.87,3.33,6,0,17.64-.73,17.64-.73"/><path class="cls-4" d="M194.64,131.55s5.18-1.49,5.51-1.94"/><polyline class="cls-4" points="170.51 152.73 178.64 152.73 178.7 181.76"/><line class="cls-4" x1="167.58" y1="181.73" x2="167.58" y2="152.73"/><path class="cls-4" d="M164.58,179.48l-3.11-.23-2.28,4.31v2.49a.42.42,0,0,0,.42.4h27.75a.41.41,0,0,0,.42-.41v-2.71L187,182.2l-.53-.79L185,179.09h-3.73"/><path class="cls-4" d="M157.71,179.67H147.42a.83.83,0,0,1-.83-.84l0-2.71,5-2.35"/><path class="cls-4" d="M197.66,174.53l2.34,1.59v2.36a1,1,0,0,1-1,1h-9.93"/><path class="cls-4" d="M125.1,174.73c-3.13,3.8-.87,5.91.31,6.33"/><path class="cls-4" d="M128.23,181.06s4.57.78,7.16-2a6.31,6.31,0,0,0,1.51-2.61"/><line class="cls-4" x1="154.01" y1="175.96" x2="163.68" y2="175.96"/><path class="cls-4" d="M127.92,175.76s-2,1.57-.63,2.15"/><path class="cls-4" d="M138.41,151.05c-1,3.16-2.54,4.89-2.4,3.6l-6.13,9a.34.34,0,0,0,.33.52,14.13,14.13,0,0,1,3.83.2c4.35.75,3.47,2.25,3.47,2.25"/><path class="cls-4" d="M138.09,171.45s-.82,4.35-3.3,4.35c-1.37,0,.33-1.76-.75-3.75s-2.61-1.39-4,.38c-3.53,4.57-7.94,2.95-7.58,1,.3-1.65,1.22-4.05,5.42-6.75"/><path class="cls-4" d="M158.49,117.3s-.75-6.9,3.15-9.45,4.37-3.9,9.17-3"/><path class="cls-4" d="M207,163.8c1.68-2.1,3.94-4.15,3.9-5.7-.11-4.95-3.52-13-3.52-13"/><path class="cls-4" d="M183.63,174.15s.23,2.18,2.55.38c.65-.5.77,1.6,1.95,1.65,1.65.07,2-1.41,2.78-1.65,1.72,2.4,3.37-1,3.37-1"/><path class="cls-5" d="M132.26,64.58c4.38,0,9.63.93,15.3.93,4.88,0,10.08-1.13,15.31-1.13s10.35.76,15.31.76c5.52,0,10.75-1.07,15.31-1.07,7.3,0,12.91-1.09,15.31-1.09,3.5,0,8.5-.18,11.85-3.35,3.12-2.94,3.49-7.21,2.77-11.67s-2.38-7.48-5.36-9.77c-3.5-2.69-7.66-5.72-11.32-4.66"/><path class="cls-5" d="M134.59,24.36c-4-1.32-9.28-.7-13.74,2-4.16,2.52-8.18,6.47-9.87,10.49s-1,8.44-.23,12.15a19.46,19.46,0,0,0,5.67,10.35c3.06,2.91,6.73,4.89,10.71,4.89"/><path class="cls-5" d="M172.41,13.79a19.31,19.31,0,0,0-28.62-2.39,19.84,19.84,0,0,0-5.64,15.07"/><path class="cls-5" d="M203.86,35.92c1.73-4.19-.13-9.31-3.05-13.55-2.6-3.78-6.32-7-11.36-7.81-4.09-.67-8.75,0-13.74,3"/><path class="cls-5" d="M94.62,89.09c.33-1.2,1.69-2.48,2.89-2.16s1.27,2,.94,3.21-1.23,2.6-2.44,2.27"/><path class="cls-5" d="M87.75,97.92a2.75,2.75,0,0,1,1.74-3.13,3.24,3.24,0,0,1,3.37,2c.27,1.22-1.1,2.48-2.32,2.75"/><path class="cls-5" d="M101.34,82.38c-.49-1.49-.21-3.12,1.27-3.61s3.78.28,4.28,1.76-1,3-2.53,3.5"/><path class="cls-5" d="M107.24,74.14c-1.74-2.76,1.26-4.37,3.14-4.4s3.74.81,3.77,2.69-2.27,4-4.16,4"/><path class="cls-5" d="M171,97.57a2.37,2.37,0,0,1,.2-3.28c.94-.81,1.87-.15,2.69.8s.74,1.27-.21,2.09"/><path class="cls-5" d="M170.12,89.53c-1.17-1-1.09-3.66-.05-4.84s2.07-.71,3.25.33,1.87,2.7.3,3.94"/><path class="cls-5" d="M169.18,78.27c-1.32-1.35-2.2-4.45-.85-5.77s4.69-.65,6,.69.07,4.45-1.27,5.77"/><path class="cls-5" d="M236.93,93.25a2.26,2.26,0,0,1-2.08-2.42,2.51,2.51,0,0,1,2.55-2.24,2.69,2.69,0,0,1,2.26,2.72"/><path class="cls-5" d="M244,100.76a2.15,2.15,0,0,1-1.72-2.34,2.23,2.23,0,0,1,2.6-1.41,2.31,2.31,0,0,1,1.77,2.45"/><path class="cls-5" d="M230.66,85c-1.53-.33-3.57-1.62-3.24-3.15s2.26-2.12,3.79-1.79a3.71,3.71,0,0,1,2.51,4"/><path class="cls-5" d="M224,75.76c-1.83-.43-3.86-2.63-3.43-4.47a3.41,3.41,0,0,1,4.27-2.23c1.83.43,4,1.38,1.78,4.71"/><path class="cls-5" d="M129.05,50.42c-1.84-8.34-5.18-8.8-5-16.56.19-7,3.23-12.28,10.3-9.1,6.22,2.8,3.8,3.65-.86,6.42-3,1.79-7.19,3.14-11,5-4.63,2.2-9.79,5.25-11,7.55-1.69,3.26,5,6.39,13.36,7.29,7.45.81,7,6.81,4.94,10.41-3.37,6-10.1-1.1-7.61-4.9,3.44-5.24,8.17-4,14-2.71,7.2,1.61,15.1,3.33,16.41-1.32,1.08-3.83-4.35-9-8.37-13.38-4.83-5.27-9-9.1-9.67-1.14-.55,6.77,3.62,10.1,8.87,11.34,6.07,1.43,12.16-1,14.31-3.32,1.7-1.82-9.3-8.62-12.55-13.05-4.21-5.74-1.46-11.81,5.5-12.28S164.56,26,162.2,33.17c-1.19,3.6-8.23,5.18-15.34,6.46s-14.93,1.93-16.19,5.79c-1.19,3.64,2.23,7.06,5.92,10,2.84,2.25,6.12,4.9,10.44,5.48,3.76.5,8.23.84,12.25-.68,5.48-2.09,6.58-7,7.46-10.86,1.46-6.45-.39-12.5-1.12-12.37s-9.16.47-12.46,3.76c-2.64,2.62-1.91,8.3,5.1,11.49,5.08,2.31,9.62,1.25,12.65,1.52,6.39.56,7.09-1.21,6.09-5.58-1.23-5.41-6.77-8.81-12.28-.75-1.09,1.59-1.66,9.05,3.65,12.69,3.32,2.28,8.07,0,14.07-2.76,5.33-2.47,5.68-5.66,4.14-11.32-1.3-4.75-3.12-9.95-6.66-13.61-4.55-4.7-10.48-8.3-14.22-5.48-3.32,2.52.68,6.6,5,9.55,3.41,2.33,7,4.65,10.69,3.65,3.48-.95,7.88-1.64,11.43-3.16,4.85-2.09,7.67-4.71,6.43-8-1.57-4.13-4.65-5-8-5.71-4.4-.95-7.13-.85-7.2,3a18.32,18.32,0,0,0,4.56,12.61c3.18,3.4,8.53,4.71,12.26,6.58,5,2.49,9.65,3.54,11.86-1.25-.58-8-3.44-10.88-11.69-11.9-3.84-.48-8.83,1.77-12,3.9-3.7,2.44-4.3,6.42-2.78,10.28a14,14,0,0,0,8.29,8.35c3.74,1.28,8.29,3,12.23,3.28,5.11.37,11.28-.87,13.32-2.94,3.15-3.21,1.86-9.9-.77-12.56-2.09-2.12-6.35-3.14-11.67,0-5,3-10.86,6.54-14,10.21-4.53,5.23-3.9,10,6,10.66,6,.42,7.66-2.17,8.7-6.29s2.45-9.46-.94-13.11c-2.73-2.94-7.84-4.45-13.27-4.52-3.5,0-15.38-2.2-18.08-6-1.42-2-1.22-7.74-1.61-13.5-.36-5.33-2.64-9-9.66-7.63-8,1.6-7.51,11.57.28,10.34,2.81-.45,7.26-2.86,11.87-4.35s9.7-2,12.6.34c2.2,1.8,4.23,5.78,3.64,12.29-.53,5.84-5.24,5.84-10.13,3-2.9-1.7-4.89-6.38-8.59-9a114.72,114.72,0,0,0-10.69-6.3C160,16.67,156,15.6,153.75,13.2c-2.87-3.12-4.25-5.61-8.58-2-3.85,3.17-.58,7,3.14,11.42,4.36,5.15,4.54,5.14,10.34,9.29"/></g></g></svg>
