<svg xmlns="http://www.w3.org/2000/svg" width="328" height="130" viewBox="0 0 328 130"><defs><style>.cls-1,.cls-11,.cls-2,.cls-3,.cls-4,.cls-5,.cls-6,.cls-9{fill:none;}.cls-1,.cls-2,.cls-3,.cls-4,.cls-5,.cls-9{stroke:#000;}.cls-1,.cls-2,.cls-3,.cls-4,.cls-5,.cls-6,.cls-9{stroke-linecap:round;stroke-linejoin:round;}.cls-1,.cls-2,.cls-3,.cls-4,.cls-5,.cls-6{stroke-width:2px;}.cls-1{stroke-dasharray:5;}.cls-3{stroke-dasharray:4.27 4.27;}.cls-4{stroke-dasharray:4;}.cls-5{stroke-dasharray:4.81 4.81;}.cls-6{stroke:#17ba8f;}.cls-7{fill:#fff;}.cls-8{fill:#d1d1d1;}.cls-9{stroke-width:1.91px;}.cls-10{fill:#17ba8f;}</style></defs><title>value3</title><g id="レイヤー_2" data-name="レイヤー 2"><g id="レイヤー_1のコピー" data-name="レイヤー 1のコピー"><path class="cls-1" d="M50.92,86.26A27.63,27.63,0,0,1,84.59,84.9"/><path class="cls-2" d="M49,14.82c.65-.52,1.32-1,2-1.48"/><path class="cls-3" d="M54.78,11.25a27.73,27.73,0,0,1,22.79-.18"/><path class="cls-2" d="M79.49,12c.73.39,1.45.82,2.14,1.28"/><path class="cls-4" d="M236.85,14a27.62,27.62,0,0,1,31.85-.29"/><path class="cls-1" d="M234.24,85.66a27.62,27.62,0,0,1,33.1-1.91"/><path class="cls-2" d="M138.32,42.44c.69-.46,1.4-.9,2.12-1.32"/><path class="cls-5" d="M144.73,39a39.25,39.25,0,0,1,34.75,2"/><path class="cls-2" d="M181.53,42.26q1,.69,2,1.44"/><line class="cls-6" x1="161.76" y1="47.17" x2="161.83" y2="53.93"/><line class="cls-6" x1="153.08" y1="49.14" x2="154.95" y2="54.35"/><line class="cls-6" x1="170.58" y1="48.93" x2="168.49" y2="54.14"/><path class="cls-7" d="M40.22,110.27s-4-1-3.34,1.88,4.6,4.6,4.6,4.6,5.43,5.86,8.36,6.27,7.52-2.09,8.36-6.69.09-.9,1.82-1.91S62,110.48,62,109.65s-3.13-1.05-3.13-1.05l-1.63-7.3s-6.11,2.7-8.62,2.91a4.13,4.13,0,0,0-3.37,1.88S39.39,102.54,40.22,110.27Z"/><path class="cls-8" d="M36.84,113.73c1.09.88,1.31,1.33,2.92,1.15-.52-2.15-2.9-3.73-.19-5a12,12,0,0,1,2.61-.75l3.65-2.7s1-.1,2.7-.1c.54,0,2.19-1.08,2.79-1.1.87,0,1.45,1,2.35.92,2.5-2.33,5.07-1,5.6.09a5.84,5.84,0,0,1,.5,3.39,25.1,25.1,0,0,0,2.76-3.54c.23-.54,1.5-2.1.95-4s-3.65-5.4-4.31-5.18S57,89.24,48.48,93.81c-5.36.07-9.75,2.07-10,6.9-1.84,1.83-3.77,3.77-3.9,5.12C34.23,109.54,35.74,112.85,36.84,113.73Z"/><path class="cls-9" d="M59.69,109.63c-.28,4.61-.81,8-2.6,9.84-1.33,1.41-3,3.42-5.33,3.42a12,12,0,0,1-8.89-5.19"/><path class="cls-9" d="M60.78,108.26s1.79.08,1.23,2.87c-.38,2-.43,3.05-1.78,3.15"/><path class="cls-9" d="M52.64,115.1s1.51,0,1.62-.35a49.82,49.82,0,0,0-1.14-5"/><path class="cls-9" d="M39.58,109.49a2,2,0,0,0-2,1.51c-.24,1.2.84,5.53,4.24,4.78"/><path class="cls-9" d="M62,106.22c.66-1,4.07-7.75-3.06-11a2.77,2.77,0,0,1-1.35-1.33c-1.15-2.48-2.38-3.26-5.42-3.56-3.87-.38-4,1.32-6.14,1.51-2.81.25-4.07-.28-6.62,1.61-2.73,2-3.17,3.75-4.16,6.52-.52,1.47-2.83,2.93-3.5,5-1.89,4.73,3.88,8.89,3.88,8.89"/><path class="cls-9" d="M41.77,109.35a31.92,31.92,0,0,1,2.45-2.67,1.15,1.15,0,0,1,1.11-.3,4,4,0,0,0,4.3-1.67.32.32,0,0,1,.53,0c1.13,1.3,3.09,2.35,4.74.36a1.51,1.51,0,0,1,1.62-.44,3.79,3.79,0,0,1,2.76,3"/><path class="cls-9" d="M53.74,117.63a4,4,0,0,1-4.17-.07"/><ellipse cx="56" cy="109.72" rx="0.86" ry="0.88"/><ellipse cx="47.61" cy="109.93" rx="0.86" ry="0.88"/><line class="cls-6" x1="69.13" y1="88.11" x2="69.18" y2="92.6"/><line class="cls-6" x1="63.36" y1="89.42" x2="64.61" y2="92.88"/><line class="cls-6" x1="74.99" y1="89.28" x2="73.6" y2="92.74"/><path class="cls-7" d="M225,110.44s-3.68-1-3.1,1.74,4.26,4.25,4.26,4.25,5,5.42,7.73,5.8,7-1.93,7.73-6.18.09-.84,1.69-1.78,1.79-3.64,1.79-4.41-2.9-1-2.9-1l-1.5-6.75s-5.42,1.17-7.74,1.36-5.1-2.59-5.1-2.59S224.19,103.29,225,110.44Z"/><path class="cls-8" d="M230.51,121.34s-3.86,1.3-5,0a9.87,9.87,0,0,0-2.08-1.8L224,122s-5.56-2-5.79-7a26.48,26.48,0,0,1,3.82-15.73c4.08-6.9,8.62-5.29,8.62-5.29s6.54-3.21,10.59,2.45,6.82,17.18,5.54,21.23-8.19,3.73-8.19,3.73a10.09,10.09,0,0,0,3.12-7.18c.23-4.86-.36-6.15-.36-6.15s-3.09-2.42-4.27-2.65c-.93-.18-.66,1.52-1.54,1.1a35.1,35.1,0,0,1-7.63-5.16,23.74,23.74,0,0,0-2.93,7.56A11.54,11.54,0,0,0,230.51,121.34Z"/><path class="cls-9" d="M242.2,109.19c-.28,4.66-.28,7.5-2.08,9.4-1.35,1.42-2.83,4-5.17,4s-5-1.47-6.68-2.6"/><path class="cls-9" d="M235.09,114.71s1.23,0,1.34-.37a38.14,38.14,0,0,0-1-4.57"/><path class="cls-9" d="M216.11,109c1.32-10,5.1-17.77,13.67-17.71,3.53-2.14,6.42-.91,10.53,1.83s5.17,6.79,6.24,11.25c.56,2.36.75,6,.37,11.06a5.93,5.93,0,0,1-4.34,5.67l-.13-1.51s-.5,1.76-3.4,2"/><path class="cls-9" d="M222.06,121.71c-5.29-2.83-6.24-6.52-6.14-10.11"/><path class="cls-9" d="M242.39,106.87a4.29,4.29,0,0,1-3.78-.25c-.33-.18-2-1.93-2.34-2-.61,0-.18,1.86-.69,1.83-4-.19-7.75-5.58-7.75-5.58s-5.12,9.61-1.33,17.43c1.61,3.31,2.56,3.65,2.56,3.65s-5.64.33-7.16-3"/><path class="cls-9" d="M236.08,117.27a2.72,2.72,0,0,1-3.65-.07"/><ellipse cx="238.51" cy="109.86" rx="0.86" ry="0.89"/><ellipse cx="230.76" cy="109.86" rx="0.86" ry="0.89"/><line class="cls-6" x1="251.21" y1="87.23" x2="251.26" y2="91.72"/><line class="cls-6" x1="245.44" y1="88.54" x2="246.69" y2="92"/><line class="cls-6" x1="257.07" y1="88.4" x2="255.69" y2="91.86"/><line class="cls-6" x1="67.1" y1="16.88" x2="67.15" y2="21.38"/><line class="cls-6" x1="61.34" y1="18.19" x2="62.58" y2="21.65"/><line class="cls-6" x1="72.96" y1="18.05" x2="71.58" y2="21.51"/><line class="cls-6" x1="252.52" y1="16.32" x2="252.57" y2="20.82"/><line class="cls-6" x1="246.76" y1="17.63" x2="248" y2="21.09"/><line class="cls-6" x1="258.38" y1="17.5" x2="257" y2="20.96"/><path class="cls-7" d="M119.93,77.88s-5.7-1.5-4.8,2.7,6.6,6.6,6.6,6.6,7.8,8.41,12,9,10.8-3,12-9.61.14-1.3,2.62-2.75,2.79-5.65,2.79-6.85-4.5-1.5-4.5-1.5L144.3,65s-8.77,3.88-12.37,4.18a5.91,5.91,0,0,0-4.84,2.7S118.73,66.78,119.93,77.88Z"/><path class="cls-8" d="M116,78.56c1.43,1.14-1-1.24,1.15-1.47s4.87.57,6-.29,5-4.58,5-4.58l1.47,2s15-4.58,15.19-7.16,2.29,9.74,2.29,9.74,2.44-2.86,2.72-2.15,1.21-9,.5-11.4-5.56-7-6.42-6.75-1.81-9.65-13.42-7.5-17.72,13-18.08,16.84C112,70.68,114.6,77.41,116,78.56Z"/><path class="cls-9" d="M147.54,77c-.41,6.82-1.2,11.79-3.85,14.58-2,2.07-4.45,5.06-7.89,5.06s-9.52-2.43-13.16-7.7"/><path class="cls-9" d="M149.16,74.92s2.65.11,1.82,4.25c-.57,2.88-.63,4.52-2.63,4.66"/><path class="cls-9" d="M137.11,85.05s2.23,0,2.39-.51-1.68-7.49-1.68-7.49"/><path class="cls-9" d="M117.78,76.74a2.88,2.88,0,0,0-3,2.23c-.36,1.79,1.24,8.19,6.28,7.09"/><path class="cls-9" d="M149.77,72.69c1-1.62,3.44-16-4.66-17.61-5.46-9.52-16.2-9.11-23.08-5.67s-7.29,6.07-10.93,10.73c-3.78,8.21,1.21,17.21,1.21,17.21"/><path class="cls-9" d="M121,76.54a34.56,34.56,0,0,0,6.07-4.66c.82-.25.88,2,2,1.62,6.48-2.22,12.35-4,15.18-8.5,1.42,5.47,2.63,8.91,2.63,8.91"/><path class="cls-9" d="M138.73,88.79a5.82,5.82,0,0,1-6.17-.1"/><ellipse cx="142.07" cy="77.08" rx="1.27" ry="1.31"/><ellipse cx="129.65" cy="77.4" rx="1.27" ry="1.31"/><path class="cls-7" d="M37.68,38.91S34,38,34.59,40.65s4.25,4.26,4.25,4.26,5,5.41,7.74,5.8,7-1.94,7.73-6.19.08-.84,1.68-1.77,1.8-3.64,1.8-4.42-2.9-1-2.9-1l-1.5-6.76s-5.65,2.5-8,2.7a3.8,3.8,0,0,0-3.12,1.74S36.91,31.76,37.68,38.91Z"/><path class="cls-8" d="M48.54,20.74c1.07-.36,5.58,1.61,9,6.62s1.61,11.08,1.61,12.69,0,15-1.79,16.81S50.67,56,50.67,56l2.83-3.51a16.38,16.38,0,0,1,3-7.49c1-1.26.28-10.1.28-10.1L40,35.43S39.46,49.89,39.64,54s6.5,4.17,6.5,4.17-1,.66-4,.84-6.26-5.9-5-1.08c-5.18.54-3.76-10.71-3.76-10.71S32,30.75,37.87,24.48c2.91-3.09,5.62-3.73,7.25-3.28a6.82,6.82,0,0,1,.78.25Z"/><path class="cls-9" d="M55.39,37.13c-.27,4.65-.27,7.5-2.08,9.4-1.34,1.42-2.82,4-5.17,4s-6.23-1.85-7.94-3"/><path class="cls-9" d="M48.28,42.65s1.24,0,1.35-.37a27.91,27.91,0,0,0-.9-3.83"/><path class="cls-9" d="M50.16,55.79a6.11,6.11,0,0,0,1.64-2.27c.5-1.19.06-4.79.06-4.79"/><path class="cls-9" d="M55,54.09c.32,2.14-1.91,2.94-2.58,3.15"/><path class="cls-9" d="M31.57,35.69c-.69-10.34,6.62-18.15,12.67-16.45,5-1.64,8.82,1.14,10.59,3,3.27,3.39,3.84,7.28,3.84,11.22,0,3.64.18,5.1.5,10.21.44,6.93.57,7.56.38,9.52A3.83,3.83,0,0,1,56,57"/><path class="cls-9" d="M35.86,57.87c-7.38-2.9-5-6.88-4.42-19.28"/><path class="cls-9" d="M42.22,58.76c-3.34.44-6-2-6.11-4.29"/><path class="cls-9" d="M40.52,32.92a22.72,22.72,0,0,0-1.2,13c.36,2.13.52,4.7.82,7.94.38,4.1,5.58,4.24,5.23,4.23"/><path class="cls-9" d="M49.28,45.21a2.74,2.74,0,0,1-3.66-.07"/><ellipse cx="51.71" cy="37.79" rx="0.86" ry="0.89"/><ellipse cx="43.95" cy="37.79" rx="0.86" ry="0.89"/><path class="cls-9" d="M42.85,35.19c.71,0,2.6.28,2.62,0,.09-1.64.09-4.42.09-4.42"/><path class="cls-9" d="M47.83,35.28c.5,0,2.74,0,2.74-.28A16.16,16.16,0,0,0,50,30"/><path class="cls-9" d="M52.56,35.09c.19.28,2.2.44,2.27.16a5.18,5.18,0,0,0-.51-4.1"/><path class="cls-7" d="M221.27,38.73s-3.8-1-3.2,1.8,4.4,4.4,4.4,4.4,5.2,5.61,8,6,7.2-2,8-6.41.09-.87,1.75-1.83,1.85-3.77,1.85-4.57-3-1-3-1l-1.55-7s-5.85,2.59-8.25,2.79a4,4,0,0,0-3.23,1.8S220.47,31.33,221.27,38.73Z"/><path class="cls-8" d="M215.89,40.56c1.11.89,1.82-2.27,3.43-2.44s1.89-.85,2.78-1.52a37.71,37.71,0,0,0,3.53-4.47l4.28,2.9s5.31.6,5.42-1.39,2.87,3,5.3,3.11,3.12-.7,4.16-.93a24.13,24.13,0,0,1-2.72-5.26c.8-.32,2-.17,2-.77-1.45-1.27-5.54-5.67-6.06-5.49s.63-4.16-8.46-4.08c-4.12,0-6.73,1.51-7.86,4.74-2-.29-5.44,4.36-5.61,6.12s.74,4.19.58,6S215.32,40.11,215.89,40.56Z"/><path class="cls-9" d="M239.9,38.37c-.28,4.61-.81,8-2.6,9.85-1.33,1.41-3,3.42-5.34,3.42a12,12,0,0,1-8.9-5.2"/><path class="cls-9" d="M241,37s1.79.07,1.24,2.87c-.39,2-.43,3.06-1.78,3.15"/><path class="cls-9" d="M232.85,43.84s1.5,0,1.61-.34a47.58,47.58,0,0,0-1.13-5.06"/><path class="cls-9" d="M219.78,38.23a1.94,1.94,0,0,0-2.05,1.51c-.25,1.2.84,5.53,4.24,4.79"/><path class="cls-9" d="M242.14,29.77c-.1,1.76,1.62,4.86,3,5.57"/><path class="cls-9" d="M244.41,27.88c-2.08.94-2.27-6-7.28-5.77-3.69-6.43-15.31-5.29-17.3,1.32-3,.19-3.93,2.12-5.38,4C211.9,33,215.71,35.63,213,38.75c0,0,2,2.8,2.78,2.52"/><path class="cls-9" d="M222,38.09s1.57-4.09,3.35-5.87c.55-.17,1.68,1.72,3,2.46,3,1.67,7,.76,6.24-2.36,1.83,4.91,8.89,4.28,8.89,4.28"/><path class="cls-9" d="M234,46.37a4,4,0,0,1-4.18-.06"/><ellipse cx="236.2" cy="38.46" rx="0.86" ry="0.88"/><ellipse cx="227.81" cy="38.67" rx="0.86" ry="0.88"/><polygon class="cls-10" points="196.43 86.67 196.43 62.93 172.12 74.67 196.43 86.67"/><path class="cls-10" d="M176.23,68.91l21.25-10.47-8.75-8.76a2.9,2.9,0,0,0-4.1,0l-8.4,8.41Z"/><path class="cls-10" d="M211.74,72.7,200.23,61.19l-.21.1V88.47h0l11.69-11.69A2.89,2.89,0,0,0,211.74,72.7Z"/><path class="cls-10" d="M172.61,78.66l-8-4,8-4v-9l-11,11a2.89,2.89,0,0,0,0,4.09l11,11Z"/><path class="cls-10" d="M176.23,80.46V91.4l8.4,8.41a2.9,2.9,0,0,0,4.1,0l8.75-8.75Z"/><polygon class="cls-10" points="91.4 46 91.4 29.01 74.01 37.41 91.4 46"/><path class="cls-10" d="M77,33.29,92.16,25.8l-6.27-6.27a2.07,2.07,0,0,0-2.93,0l-6,6Z"/><path class="cls-10" d="M102.36,36l-8.24-8.24-.15.08V47.28l0,0,8.37-8.37A2.07,2.07,0,0,0,102.36,36Z"/><path class="cls-10" d="M74.36,40.27,68.61,37.4l5.75-2.84V28.13L66.49,36a2.09,2.09,0,0,0,0,2.93l7.87,7.87Z"/><path class="cls-10" d="M77,41.56v7.83l6,6a2.07,2.07,0,0,0,2.93,0l6.26-6.26Z"/><polygon class="cls-10" points="94.44 115.3 94.44 98.31 77.05 106.71 94.44 115.3"/><path class="cls-10" d="M80,102.59l15.21-7.5-6.27-6.26a2.07,2.07,0,0,0-2.93,0l-6,6Z"/><path class="cls-10" d="M105.4,105.3l-8.24-8.24-.15.08v19.44h0l8.37-8.36A2.07,2.07,0,0,0,105.4,105.3Z"/><path class="cls-10" d="M77.4,109.56l-5.75-2.86,5.75-2.84V97.43l-7.87,7.87a2.09,2.09,0,0,0,0,2.93l7.87,7.86Z"/><path class="cls-10" d="M80,110.85v7.83l6,6a2.09,2.09,0,0,0,2.93,0l6.26-6.27Z"/><polygon class="cls-10" points="276.77 45.44 276.77 28.45 259.38 36.85 276.77 45.44"/><path class="cls-10" d="M262.32,32.73l15.21-7.49L271.26,19a2.07,2.07,0,0,0-2.93,0l-6,6Z"/><path class="cls-10" d="M287.73,35.44l-8.24-8.24-.15.08V46.73h0l8.37-8.37A2.07,2.07,0,0,0,287.73,35.44Z"/><path class="cls-10" d="M259.73,39.71,254,36.84,259.73,34V27.58l-7.87,7.86a2.09,2.09,0,0,0,0,2.93l7.87,7.87Z"/><path class="cls-10" d="M262.32,41v7.83l6,6a2.07,2.07,0,0,0,2.93,0l6.26-6.26Z"/><polygon class="cls-10" points="279.39 112.02 279.39 95.03 262 103.43 279.39 112.02"/><path class="cls-10" d="M264.94,99.31l15.2-7.49-6.26-6.27a2.09,2.09,0,0,0-2.93,0l-6,6Z"/><path class="cls-10" d="M290.35,102l-8.24-8.24-.15.08v19.45h0l8.37-8.37A2.07,2.07,0,0,0,290.35,102Z"/><path class="cls-10" d="M262.35,106.29l-5.75-2.87,5.75-2.83V94.16L254.48,102a2.07,2.07,0,0,0,0,2.93l7.87,7.87Z"/><path class="cls-10" d="M264.94,107.58v7.83l6,6a2.07,2.07,0,0,0,2.93,0l6.26-6.26Z"/><rect class="cls-11" width="328" height="130"/></g></g></svg>